<?xml version="1.0" standalone="no"?>
<!DOCTYPE svg PUBLIC "-//W3C//DTD SVG 1.1//EN" "http://www.w3.org/Graphics/SVG/1.1/DTD/svg11.dtd" >
<svg xmlns="http://www.w3.org/2000/svg" xmlns:xlink="http://www.w3.org/1999/xlink" version="1.1">
<metadata>
Created by FontForge 20170731 at Mon Jan 13 12:18:16 2014
 By Aleksey,,,
Copyright (c) 2014 by Mans Greback. All rights reserved.
</metadata>
<defs>
<font id="SultanCafePERSONALUSE" horiz-adv-x="361" >
  <font-face 
    font-family="Sultan Cafe PERSONAL USE"
    font-weight="400"
    font-stretch="normal"
    units-per-em="1000"
    panose-1="0 0 0 0 0 0 0 0 0 0"
    ascent="750"
    descent="-250"
    x-height="688"
    cap-height="688"
    bbox="-50.3478 -222 850 850.8"
    underline-thickness="50"
    underline-position="-150"
    unicode-range="U+000D-FB06"
  />
<missing-glyph horiz-adv-x="187" 
 />
    <glyph glyph-name="i_j" unicode="ij" horiz-adv-x="311" 
d="M27 649q0 8 -3 15t-6 12l-8 12h127q-5 -6 -9 -12q-3 -5 -5.5 -12t-2.5 -15v-478q0 -8 2.5 -15t5.5 -12q4 -6 9 -12h-127l8 12q3 5 6 12t3 15v478zM10 98l10 -8q10 -7 22 -7h65q48 0 67 21t19 60v485q0 8 -3 15t-6 12l-8 12h127q-5 -6 -9 -12q-3 -5 -5.5 -12t-2.5 -15
v-484q0 -35 -5.5 -65.5t-20.5 -52.5t-42 -34.5t-69 -12.5h-113z" />
    <glyph glyph-name="l_j" unicode="lj" horiz-adv-x="441" 
d="M10 0l8 12q3 5 6 12t3 15v610q0 8 -3 15t-6 12l-8 12h127q-5 -6 -9 -12q-3 -5 -5.5 -12t-2.5 -15v-566h281q11 0 22 7l10 8l-26 -98h-397zM171 230l10 -8q10 -7 22 -7l34 1q48 0 67 20.5t19 59.5v353q0 8 -3 15t-6 12l-8 12h127q-5 -6 -9 -12q-3 -5 -5.5 -12t-2.5 -15
v-352q0 -35 -5.5 -65.5t-20.5 -52.5t-42 -34.5t-69 -12.5h-82z" />
    <glyph glyph-name="n_j" unicode="nj" horiz-adv-x="537" 
d="M27 649q0 8 -3 15t-6 12l-8 12h96q11 -6 31 -27.5t41.5 -52t42 -66t32.5 -69.5v176q0 8 -3 15t-6 12l-8 12h127q-5 -6 -9 -12q-3 -5 -5.5 -12t-2.5 -15v-478q0 -8 2.5 -15t5.5 -12q4 -6 9 -12h-127l8 12q3 5 6 12t3 15v9q-2 41 -14 89t-31 95.5t-42 90t-46 72.5v-488
q0 -8 2.5 -15t5.5 -12q4 -6 9 -12h-127l8 12q3 5 6 12t3 15v610zM183 98l10 -8q10 -7 22 -7h118q48 0 67 21t19 60v485q0 8 -3 15t-6 12l-8 12h127q-5 -6 -9 -12q-3 -5 -5.5 -12t-2.5 -15v-484q0 -35 -5.5 -65.5t-20.5 -52.5t-42 -34.5t-69 -12.5h-166z" />
    <glyph glyph-name="f_f" unicode="ff" horiz-adv-x="548" 
d="M27 649q0 8 -3 15t-6 12q-4 6 -9 12h507l26 -98q-5 3 -10 7q-5 3 -11 5.5t-11 2.5h-391v-137h95q4 0 7.5 2.5t6.5 5.5q4 4 7 8v-114l-7 7q-8 8 -14 8h-95v-346q0 -8 2.5 -15t5.5 -12q4 -6 9 -12h-127q5 6 9 12q3 5 6 12t3 15v610zM297 517q0 8 -3 15t-6 12q-4 6 -9 12
h232l26 -98q-5 3 -10 7q-5 3 -11 5.5t-11 2.5h-116v-137h95q4 0 7.5 2.5t6.5 5.5q4 4 7 8v-114l-7 7q-3 3 -6.5 5.5t-7.5 2.5h-95v-214q0 -8 2.5 -15t5.5 -12q4 -6 9 -12h-127q5 6 9 12q3 5 6 12t3 15v478z" />
    <glyph glyph-name="f_i" unicode="fi" horiz-adv-x="417" 
d="M27 649q0 8 -3 15t-6 12q-4 6 -9 12h374l26 -98q-5 3 -10 7q-5 3 -11 5.5t-11 2.5h-258v-137h95q4 0 7.5 2.5t6.5 5.5q4 4 7 8v-114l-7 7q-8 8 -14 8h-95v-346q0 -8 2.5 -15t5.5 -12q4 -6 9 -12h-127q5 6 9 12q3 5 6 12t3 15v610zM297 517q0 8 -3 15t-6 12l-8 12h127
q-5 -6 -9 -12q-3 -5 -5.5 -12t-2.5 -15v-478q0 -8 2.5 -15t5.5 -12q4 -6 9 -12h-127l8 12q3 5 6 12t3 15v478z" />
    <glyph glyph-name="f_l" unicode="fl" horiz-adv-x="534" 
d="M27 649q0 8 -3 15t-6 12q-4 6 -9 12h496l26 -98q-5 3 -10 7q-5 3 -11 5.5t-11 2.5h-380v-137h95q4 0 7.5 2.5t6.5 5.5q4 4 7 8v-114l-7 7q-8 8 -14 8h-95v-346q0 -8 2.5 -15t5.5 -12q4 -6 9 -12h-127q5 6 9 12q3 5 6 12t3 15v610zM280 0l8 12q3 5 6 12t3 15v478
q0 8 -3 15t-6 12l-8 12h127q-5 -6 -9 -12q-3 -5 -5.5 -12t-2.5 -15v-434h116q11 0 22 7l10 8l-26 -98h-232z" />
    <glyph glyph-name="s_t" unicode="st" horiz-adv-x="610" 
d="M616 590q-5 3 -10 7q-5 3 -11 5.5t-11 2.5h-78v-566q0 -8 2.5 -15t5.5 -12q4 -6 9 -12h-127l8 12q3 5 6 12t3 15v566h-377q-6 0 -11 -2.5t-10 -5.5q-5 -4 -10 -7l25 98h560zM137 391q0 -18 13.5 -32t33 -28t43 -29t43 -34.5t33 -45t13.5 -59.5q0 -35 -8 -65t-26 -52
t-46.5 -34t-69.5 -12h-144l8 12q3 5 6 12t3 15v171q1 -9 5 -30t15 -42.5t31.5 -37.5t53.5 -16q40 0 55.5 19t15.5 61q0 18 -13.5 33.5t-33 30t-43 30.5t-43 35t-33 43.5t-13.5 56.5q0 34 7 64t24 52t45 34.5t69 12.5h143q-5 -6 -9 -12q-3 -5 -5.5 -12t-2.5 -15v-178
q-3 37 -15 66q-11 25 -31.5 46t-58.5 21q-31 0 -48 -20.5t-17 -60.5z" />
    <glyph glyph-name="t_a" unicode="ta" horiz-adv-x="618" 
d="M586 39q0 -8 2.5 -15t5.5 -12q4 -6 9 -12h-127l8 12q3 5 6 12t3 15v116h-124q-3 -38 -2.5 -68t3.5 -48q1 -8 4 -15t6 -12q4 -6 7 -12h-127l8 12q3 5 6 12t3 15q0 141 18.5 248t41.5 179q13 40 25.5 70t22.5 52t16 36.5t6 24.5q0 8 -3 15t-6 12l-8 12h213q-5 -6 -9 -12
q-3 -5 -5.5 -12t-2.5 -15v-610zM337 590q-5 3 -10 7q-5 3 -11 5.5t-11 2.5h-105v-566q0 -8 2.5 -15t5.5 -12q4 -6 9 -12h-127l8 12q3 5 6 12t3 15v566h-78q-6 0 -11 -2.5t-10 -5.5q-5 -4 -10 -7l25 98h288zM493 576q-23 -28 -41 -67t-32.5 -84t-25 -93t-16.5 -94h115v338z
" />
    <glyph glyph-name="t_b" unicode="tb" horiz-adv-x="639" 
d="M297 517q0 8 -3 15t-6 12l-8 12h241q73 0 90 -41.5t-21 -121.5q-18 -38 -39 -75q18 -39 34.5 -78t29.5 -77q25 -80 2.5 -121.5t-96.5 -41.5h-241l8 12q3 5 6 12t3 15v478zM634 590q-5 3 -10 7q-5 3 -11 5.5t-11 2.5h-402v-566q0 -8 2.5 -15t5.5 -12q4 -6 9 -12h-127l8 12
q3 5 6 12t3 15v566h-78q-6 0 -11 -2.5t-10 -5.5q-5 -4 -10 -7l25 98h585zM390 473v-251q20 31 42.5 67.5t45.5 76.5q19 31 27.5 52t4.5 33t-20 17t-45 5h-55zM492 221q-23 -36 -45.5 -70.5t-44.5 -67.5h56q29 0 45.5 5t22 17t0.5 32.5t-19 52.5z" />
    <glyph glyph-name="t_c" unicode="tc" horiz-adv-x="580" 
d="M582 590q-5 3 -10 7q-5 3 -11 5.5t-11 2.5h-350v-566q0 -8 2.5 -15t5.5 -12q4 -6 9 -12h-127l8 12q3 5 6 12t3 15v566h-78q-6 0 -11 -2.5t-10 -5.5q-5 -4 -10 -7l25 98h533zM290 391q0 35 6 65.5t21 52.5t41.5 34.5t67.5 12.5h119l26 -98q-5 3 -10 7q-5 3 -11 5.5
t-11 2.5h-73q-46 0 -64.5 -21t-18.5 -61v-227q0 -39 18.5 -60t64.5 -21h73q11 0 22 7l10 8l-26 -98h-119q-41 0 -67.5 12.5t-41.5 34.5t-21 52.5t-6 65.5v226z" />
    <glyph glyph-name="t_d" unicode="td" horiz-adv-x="599" 
d="M443 556q41 0 67.5 -12.5t41.5 -34t21 -51.5t6 -65v-230q0 -35 -6 -65t-21 -52t-41.5 -34t-67.5 -12h-163l8 12q3 5 6 12t3 15v478q0 8 -3 15t-6 12l-8 12h163zM599 590q-5 3 -10 7q-5 3 -11 5.5t-11 2.5h-367v-566q0 -8 2.5 -15t5.5 -12q4 -6 9 -12h-127l8 12q3 5 6 12
t3 15v566h-78q-6 0 -11 -2.5t-10 -5.5q-5 -4 -10 -7l25 98h550zM486 391q0 20 -2.5 35t-9.5 25.5t-20 15.5t-34 5h-31v-388h31q43 0 54.5 20t11.5 60v227z" />
    <glyph glyph-name="t_e" unicode="te" horiz-adv-x="547" 
d="M551 590q-5 3 -10 7q-5 3 -11 5.5t-11 2.5h-319v-566q0 -8 2.5 -15t5.5 -12q4 -6 9 -12h-127l8 12q3 5 6 12t3 15v566h-78q-6 0 -11 -2.5t-10 -5.5q-5 -4 -10 -7l25 98h502zM279 0l8 12q3 5 6 12t3 15v478q0 8 -3 15t-6 12l-8 12h232l26 -98q-6 3 -11 7q-5 3 -10.5 5.5
t-11.5 2.5h-115v-137h94q8 0 13.5 6.5t7.5 8.5v-113q-2 3 -6 7q-3 3 -7 5.5t-8 2.5h-94v-170h115q11 0 22 7q5 4 11 8l-26 -98h-232z" />
    <glyph glyph-name="t_f" unicode="tf" horiz-adv-x="548" 
d="M556 590q-5 3 -10 7q-5 3 -11 5.5t-11 2.5h-324v-566q0 -8 2.5 -15t5.5 -12q4 -6 9 -12h-127l8 12q3 5 6 12t3 15v566h-78q-6 0 -11 -2.5t-10 -5.5q-5 -4 -10 -7l25 98h507zM297 517q0 8 -3 15t-6 12q-4 6 -9 12h232l26 -98q-5 3 -10 7q-5 3 -11 5.5t-11 2.5h-116v-137
h95q4 0 7.5 2.5t6.5 5.5q4 4 7 8v-114l-7 7q-3 3 -6.5 5.5t-7.5 2.5h-95v-214q0 -8 2.5 -15t5.5 -12q4 -6 9 -12h-127q5 6 9 12q3 5 6 12t3 15v478z" />
    <glyph glyph-name="t_g" unicode="tg" horiz-adv-x="598" 
d="M478 294q0 8 -3 15t-6 12l-8 12h127q-5 -6 -9 -12q-3 -5 -5.5 -12t-2.5 -15v-255q0 -8 2.5 -15t5.5 -12q4 -6 9 -12h-162q-41 0 -67.5 12.5t-41.5 34.5t-21 52.5t-6 65.5v230q0 35 6 64.5t21 51t41.5 33.5t67.5 12h162q-5 -6 -9 -12q-3 -5 -5.5 -12t-2.5 -15v-175
q0 7 -3.5 28t-14.5 43.5t-31.5 40.5t-55.5 18q-47 0 -65 -20.5t-18 -60.5v-227q0 -39 18 -59.5t65 -20.5h12v210zM599 590q-5 3 -10 7q-5 3 -11 5.5t-11 2.5h-367v-566q0 -8 2.5 -15t5.5 -12q4 -6 9 -12h-127l8 12q3 5 6 12t3 15v566h-78q-6 0 -11 -2.5t-10 -5.5
q-5 -4 -10 -7l25 98h550z" />
    <glyph glyph-name="t_h" unicode="th" horiz-adv-x="596" 
d="M476 517q0 8 -3 15t-6 12l-8 12h127q-5 -6 -9 -12q-4 -5 -6.5 -12t-2.5 -15v-478q0 -8 2.5 -15t6.5 -12q4 -6 9 -12h-127l8 12q3 5 6 12t3 15v214h-100v-214q0 -8 2.5 -15t5.5 -12q4 -6 9 -12h-127l8 12q3 5 6 12t3 15v478q0 8 -3 15t-6 12l-8 12h127q-5 -6 -9 -12
q-3 -5 -5.5 -12t-2.5 -15v-181h100v181zM599 590q-5 3 -10 7q-5 3 -11 5.5t-11 2.5h-367v-566q0 -8 2.5 -15t5.5 -12q4 -6 9 -12h-127l8 12q3 5 6 12t3 15v566h-78q-6 0 -11 -2.5t-10 -5.5q-5 -4 -10 -7l25 98h550z" />
    <glyph glyph-name="t_i" unicode="ti" horiz-adv-x="417" 
d="M420 590q-5 3 -10 7q-5 3 -11 5.5t-11 2.5h-188v-566q0 -8 2.5 -15t5.5 -12q4 -6 9 -12h-127l8 12q3 5 6 12t3 15v566h-78q-6 0 -11 -2.5t-10 -5.5q-5 -4 -10 -7l25 98h371zM297 517q0 8 -3 15t-6 12l-8 12h127q-5 -6 -9 -12q-3 -5 -5.5 -12t-2.5 -15v-478q0 -8 2.5 -15
t5.5 -12q4 -6 9 -12h-127l8 12q3 5 6 12t3 15v478z" />
    <glyph glyph-name="t_j" unicode="tj" horiz-adv-x="454" 
d="M449 590q-5 3 -10 7q-5 3 -11 5.5t-11 2.5h-217v-434q0 -8 2.5 -15t5.5 -12q4 -6 9 -12h-127l8 12q3 5 6 12t3 15v434h-78q-6 0 -11 -2.5t-10 -5.5q-5 -4 -10 -7l25 98h400zM2 97l10 -8q10 -7 22 -7h211q48 0 67 21.5t19 60.5v353q0 8 -3 15t-6 12l-8 12h127
q-5 -6 -9 -12q-3 -5 -5.5 -12t-2.5 -15v-352q0 -35 -5.5 -65.5t-20.5 -52.5t-42 -34.5t-69 -12.5h-259z" />
    <glyph glyph-name="t_k" unicode="tk" horiz-adv-x="638" 
d="M503 517q1 7 0.5 14.5t-1.5 12.5q-1 6 -3 12h127q-7 -6 -13 -12q-5 -5 -10 -12t-7 -15q-16 -48 -32 -89.5t-34 -81.5q22 -63 41.5 -139.5t33.5 -167.5q1 -8 5 -15t8 -12q4 -6 10 -12h-127l6 12q4 10 6 27q0 27 -9.5 77.5t-27.5 113.5q-20 -42 -41.5 -86.5t-44.5 -95.5v-9
q0 -8 2.5 -15t5.5 -12q4 -6 9 -12h-127l8 12q3 5 6 12t3 15v478q0 8 -3 15t-6 12l-8 12h127q-5 -6 -9 -12q-3 -5 -5.5 -12t-2.5 -15v-288q19 43 38 86.5t35 82.5t26.5 70t13.5 49zM640 590q-5 3 -10 7q-5 3 -11 5.5t-11 2.5h-408v-566q0 -8 2.5 -15t5.5 -12q4 -6 9 -12h-127
l8 12q3 5 6 12t3 15v566h-78q-6 0 -11 -2.5t-10 -5.5q-5 -4 -10 -7l25 98h591z" />
    <glyph glyph-name="t_l" unicode="tl" horiz-adv-x="534" 
d="M537 590q-5 3 -10 7q-5 3 -11 5.5t-11 2.5h-305v-566q0 -8 2.5 -15t5.5 -12q4 -6 9 -12h-127l8 12q3 5 6 12t3 15v566h-78q-6 0 -11 -2.5t-10 -5.5q-5 -4 -10 -7l25 98h488zM280 0l8 12q3 5 6 12t3 15v478q0 8 -3 15t-6 12l-8 12h127q-5 -6 -9 -12q-3 -5 -5.5 -12
t-2.5 -15v-434h116q11 0 22 7l10 8l-26 -98h-232z" />
    <glyph glyph-name="t_m" unicode="tm" horiz-adv-x="722" 
d="M695 39q0 -8 2.5 -15t5.5 -12q4 -6 9 -12h-127l8 12q3 5 6 12t3 15v356q-18 -26 -30 -61t-19 -82t-10 -109t-3 -143h-88q0 81 -3 142.5t-10.5 109t-19 82t-29.5 60.5v-355q0 -8 2.5 -15t5.5 -12q4 -6 9 -12h-127l8 12q3 5 6 12t3 15v478q0 8 -3 15t-6 12l-8 12h96
q12 -6 28.5 -25t34 -46t33 -59t24.5 -65q9 33 24.5 65t32.5 59t34 46t29 25h96q-5 -6 -9 -12q-3 -5 -5.5 -12t-2.5 -15v-478zM726 590q-5 3 -10 7q-5 3 -11 5.5t-11 2.5h-494v-566q0 -8 2.5 -15t5.5 -12q4 -6 9 -12h-127l8 12q3 5 6 12t3 15v566h-78q-6 0 -11 -2.5t-10 -5.5
q-5 -4 -10 -7l25 98h677z" />
    <glyph glyph-name="t_n" unicode="tn" horiz-adv-x="643" 
d="M297 517q0 8 -3 15t-6 12l-8 12h96q11 -6 31 -27.5t41.5 -52t42 -66t32.5 -69.5v176q0 8 -3 15t-6 12l-8 12h127q-5 -6 -9 -12q-3 -5 -5.5 -12t-2.5 -15v-478q0 -8 2.5 -15t5.5 -12q4 -6 9 -12h-127l8 12q3 5 6 12t3 15v9q-2 41 -14 89t-31 95.5t-42 90t-46 72.5v-356
q0 -8 2.5 -15t5.5 -12q4 -6 9 -12h-127l8 12q3 5 6 12t3 15v478zM645 590q-5 3 -10 7q-5 3 -11 5.5t-11 2.5h-413v-566q0 -8 2.5 -15t5.5 -12q4 -6 9 -12h-127l8 12q3 5 6 12t3 15v566h-78q-6 0 -11 -2.5t-10 -5.5q-5 -4 -10 -7l25 98h596z" />
    <glyph glyph-name="t_o" unicode="to" horiz-adv-x="614" 
d="M460 556q41 0 67 -12.5t41 -34t20.5 -51.5t5.5 -65v-230q0 -35 -5.5 -65t-20.5 -52t-41 -34t-67 -12h-32q-41 0 -68 12t-42.5 34t-21.5 52t-6 65v230q0 35 6 65t21.5 51.5t42.5 34t68 12.5h32zM616 590q-5 3 -10 7q-5 3 -11 5.5t-11 2.5h-384v-566q0 -8 2.5 -15t5.5 -12
q4 -6 9 -12h-127l8 12q3 5 6 12t3 15v566h-78q-6 0 -11 -2.5t-10 -5.5q-5 -4 -10 -7l25 98h567zM503 391q0 38 -10.5 59.5t-48.5 21.5t-48.5 -21.5t-10.5 -59.5v-227q0 -19 2 -33.5t8.5 -25t18 -16t30.5 -5.5q37 0 48 21t11 59v227z" />
    <glyph glyph-name="t_p" unicode="tp" horiz-adv-x="627" 
d="M298 517q0 8 -3 15t-6 12q-4 6 -9 12h241q74 0 90.5 -41.5t-21.5 -121.5q-20 -41 -44.5 -83.5t-51 -84.5t-53.5 -83t-51 -78v-25q0 -8 2.5 -15t5.5 -12q4 -6 9 -12h-127q5 6 9 12q3 5 6 12t3 15v478zM630 590q-5 3 -10 7q-5 3 -11 5.5t-11 2.5h-398v-566q0 -8 2.5 -15
t5.5 -12q4 -6 9 -12h-127l8 12q3 5 6 12t3 15v566h-78q-6 0 -11 -2.5t-10 -5.5q-5 -4 -10 -7l25 98h581zM390 473v-253l89 146q19 31 27 52t4 33t-20 17t-45 5h-55z" />
    <glyph glyph-name="t_q" unicode="tq" horiz-adv-x="620" 
d="M459 556q41 0 67 -12.5t41 -34t20.5 -51.5t5.5 -65v-230q0 -33 -5 -62t-18 -50.5t-35.5 -34.5t-58.5 -16q2 -18 6.5 -34t11 -29t15 -20.5t19.5 -7.5q-2 14 7.5 28t29.5 14q14 0 24.5 -10.5t10.5 -26.5q0 -8 -5 -18t-16.5 -16t-30 -6t-44.5 11q-29 12 -54 42t-36 73
q-37 2 -61 15t-38 35t-19.5 50.5t-5.5 62.5v230q0 35 6 65t21.5 51.5t42.5 34t68 12.5h31zM619 590q-5 3 -10 7q-5 3 -11 5.5t-11 2.5h-387v-566q0 -8 2.5 -15t5.5 -12q4 -6 9 -12h-127l8 12q3 5 6 12t3 15v566h-78q-6 0 -11 -2.5t-10 -5.5q-5 -4 -10 -7l25 98h570zM502 391
q0 38 -10.5 59.5t-48.5 21.5t-48.5 -21.5t-10.5 -59.5v-227q0 -19 2 -33.5t8.5 -25t18 -16t30.5 -5.5q38 0 48.5 21t10.5 59v227z" />
    <glyph glyph-name="t_r" unicode="tr" horiz-adv-x="639" 
d="M297 517q0 8 -3 15t-6 12l-8 12h241q73 0 89.5 -41.5t-21.5 -121.5q-21 -44 -45 -86q19 -57 34.5 -123.5t27.5 -144.5q1 -8 5 -15t8 -12q4 -6 10 -12h-127q2 6 5 12q2 5 4 12t2 15q1 25 -7 69.5t-23 99.5l-93 -143v-26q0 -8 2.5 -15t5.5 -12q4 -6 9 -12h-127l8 12
q3 5 6 12t3 15v478zM642 590q-5 3 -10 7q-5 3 -11 5.5t-11 2.5h-410v-566q0 -8 2.5 -15t5.5 -12q4 -6 9 -12h-127l8 12q3 5 6 12t3 15v566h-78q-6 0 -11 -2.5t-10 -5.5q-5 -4 -10 -7l25 98h593zM390 473v-249q20 31 42 67t46 75q19 31 27 52t4 33t-19.5 17t-44.5 5h-55z" />
    <glyph glyph-name="t_s" unicode="ts" horiz-adv-x="608" 
d="M599 590q-5 3 -10 7q-5 3 -11 5.5t-11 2.5h-367v-566q0 -8 2.5 -15t5.5 -12q4 -6 9 -12h-127l8 12q3 5 6 12t3 15v566h-78q-6 0 -11 -2.5t-10 -5.5q-5 -4 -10 -7l25 98h550zM407 391q0 -18 13.5 -32t33 -28t43 -29t43 -34.5t33 -45t13.5 -59.5q0 -35 -8 -65t-26 -52
t-46.5 -34t-69.5 -12h-144l8 12q3 5 6 12t3 15v171q1 -9 5 -30t15 -42.5t31.5 -37.5t53.5 -16q40 0 55.5 19t15.5 61q0 18 -13.5 33.5t-33 30t-43 30.5t-43 35t-33 43.5t-13.5 56.5q0 34 7 64t24 52t45 34.5t69 12.5h143q-5 -6 -9 -12q-3 -5 -5.5 -12t-2.5 -15v-172
q-1 10 -5 31t-15.5 42.5t-31.5 37.5t-53 16q-31 0 -48 -20.5t-17 -60.5z" />
    <glyph glyph-name="t_t" unicode="tt" horiz-adv-x="495" 
d="M498 590q-5 3 -10 7q-5 3 -11 5.5t-11 2.5h-81v-566q0 -8 2.5 -15t5.5 -12q4 -6 9 -12h-127l8 12q3 5 6 12t3 15v566h-92v-566q0 -8 2.5 -15t5.5 -12q4 -6 9 -12h-127l8 12q3 5 6 12t3 15v566h-78q-6 0 -11 -2.5t-10 -5.5q-5 -4 -10 -7l25 98h449z" />
    <glyph glyph-name="t_u" unicode="tu" horiz-adv-x="631" 
d="M297 517q0 8 -3 15t-6 12q-4 6 -9 12h127q-5 -6 -9 -12q-3 -5 -5.5 -12t-2.5 -15v-347q0 -28 3 -45.5t9.5 -27.5t16.5 -14t24 -4q56 0 71.5 63.5t-17.5 201.5q-17 68 -20 126t1.5 102.5t14.5 74.5t21 41h115q-20 -14 -34.5 -44.5t-21 -73.5t-3.5 -96t19 -111
q19 -74 25 -140t-1.5 -115.5t-29 -78.5t-56.5 -29h-247q5 6 9 12q3 5 6 12t3 15v478zM429 590q-5 3 -10 7q-5 3 -11 5.5t-11 2.5h-197v-566q0 -8 2.5 -15t5.5 -12q4 -6 9 -12h-127l8 12q3 5 6 12t3 15v566h-78q-6 0 -11 -2.5t-10 -5.5q-5 -4 -10 -7l25 98h380z" />
    <glyph glyph-name="t_v" unicode="tv" horiz-adv-x="633" 
d="M297 517q0 8 -3 15t-6 12l-8 12h127q-5 -6 -9 -12q-3 -5 -5.5 -12t-2.5 -15v-406q25 31 45.5 76.5t35 97.5t24.5 107t15.5 104.5t6 89.5t-3.5 63q-3 16 -10 27q-4 6 -7 12h127q-5 -6 -9 -12q-3 -5 -5.5 -12t-2.5 -15q0 -244 -47 -385q-17 -51 -33.5 -88.5t-33 -68
t-34 -56t-37.5 -51.5h-141l8 12q3 5 6 12t3 15v478zM462 590q-5 3 -10 7q-5 3 -11 5.5t-11 2.5h-230v-566q0 -8 2.5 -15t5.5 -12q4 -6 9 -12h-127l8 12q3 5 6 12t3 15v566h-78q-6 0 -11 -2.5t-10 -5.5q-5 -4 -10 -7l25 98h413z" />
    <glyph glyph-name="t_w" unicode="tw" horiz-adv-x="722" 
d="M617 0q-12 6 -29 24.5t-34.5 45.5t-33 59.5t-24.5 65.5q-9 -33 -24.5 -65.5t-32.5 -59.5t-34 -45.5t-29 -24.5h-96q5 6 9 12q3 5 6 12t3 15v478q0 8 -3 15t-6 12q-4 6 -9 12h127q-5 -6 -9 -12q-3 -5 -5.5 -12t-2.5 -15v-356q26 37 39 89t18 118t5 146v174h89
q0 -93 -0.5 -173t4.5 -146t18 -118t39 -90v488q0 8 -3 15t-6 12l-8 12h127q-5 -6 -9 -12q-3 -5 -5.5 -12t-2.5 -15v-610q0 -8 2.5 -15t5.5 -12q4 -6 9 -12h-95zM418 590q-5 3 -10 7q-5 3 -11 5.5t-11 2.5h-186v-566q0 -8 2.5 -15t5.5 -12q4 -6 9 -12h-127l8 12q3 5 6 12
t3 15v566h-78q-6 0 -11 -2.5t-10 -5.5q-5 -4 -10 -7l25 98h369z" />
    <glyph glyph-name="a_t" unicode="at" horiz-adv-x="618" 
d="M27 649q0 8 -3 15t-6 12l-8 12h213q-5 -6 -9 -12q-3 -5 -5.5 -12t-2.5 -15q0 -10 6 -24.5t16 -36.5t22.5 -52t25.5 -70q23 -72 41.5 -179t18.5 -248q0 -8 2.5 -15t5.5 -12q4 -6 9 -12h-127q3 6 7 12q7 12 10 27q3 18 3 48t-2 68h-124v-116q0 -8 2.5 -15t5.5 -12
q4 -6 9 -12h-127l8 12q3 5 6 12t3 15v610zM622 590q-5 3 -10 7q-5 3 -11 5.5t-11 2.5h-78v-566q0 -8 2.5 -15t5.5 -12q4 -6 9 -12h-127l8 12q3 5 6 12t3 15v566h-111q-6 0 -11 -2.5t-10 -5.5q-5 -4 -10 -7l25 98h294zM235 238q-7 46 -17.5 94t-24.5 93t-32.5 84t-40.5 67
v-338h115z" />
    <glyph glyph-name="b_t" unicode="bt" horiz-adv-x="607" 
d="M23 517q0 8 -3 15t-6 12l-8 12h241q73 0 90 -41.5t-21 -121.5q-18 -38 -39 -75q18 -39 34.5 -78t29.5 -77q25 -80 2.5 -121.5t-96.5 -41.5h-241l8 12q3 5 6 12t3 15v478zM613 590q-5 3 -10 7q-5 3 -11 5.5t-11 2.5h-78v-566q0 -8 2.5 -15t5.5 -12q4 -6 9 -12h-127l8 12
q3 5 6 12t3 15v566h-385q-6 0 -11 -2.5t-10 -5.5q-5 -4 -10 -7l25 98h568zM116 473v-251q20 31 42.5 67.5t45.5 76.5q19 31 27.5 52t4.5 33t-20 17t-45 5h-55zM218 221q-23 -36 -45.5 -70.5t-44.5 -67.5h56q29 0 45.5 5t22 17t0.5 32.5t-19 52.5z" />
    <glyph glyph-name="c_t" unicode="ct" horiz-adv-x="582" 
d="M588 590q-5 3 -10 7q-5 3 -11 5.5t-11 2.5h-78v-566q0 -8 2.5 -15t5.5 -12q4 -6 9 -12h-127l8 12q3 5 6 12t3 15v566h-357q-6 0 -11 -2.5t-10 -5.5q-5 -4 -10 -7l25 98h540zM20 391q0 35 6 65.5t21 52.5t41.5 34.5t67.5 12.5h119l26 -98q-5 3 -10 7q-5 3 -11 5.5t-11 2.5
h-73q-46 0 -64.5 -21t-18.5 -61v-227q0 -39 18.5 -60t64.5 -21h73q11 0 22 7l10 8l-26 -98h-119q-41 0 -67.5 12.5t-41.5 34.5t-21 52.5t-6 65.5v226z" />
    <glyph glyph-name="d_t" unicode="dt" horiz-adv-x="587" 
d="M173 556q41 0 67.5 -12.5t41.5 -34t21 -51.5t6 -65v-230q0 -35 -6 -65t-21 -52t-41.5 -34t-67.5 -12h-163l8 12q3 5 6 12t3 15v478q0 8 -3 15t-6 12l-8 12h163zM593 590q-5 3 -10 7q-5 3 -11 5.5t-11 2.5h-78v-566q0 -8 2.5 -15t5.5 -12q4 -6 9 -12h-127l8 12q3 5 6 12
t3 15v566h-357q-6 0 -11 -2.5t-10 -5.5q-5 -4 -10 -7l25 98h540zM216 391q0 20 -2.5 35t-9.5 25.5t-20 15.5t-34 5h-31v-388h31q43 0 54.5 20t11.5 60v227z" />
    <glyph glyph-name="e_t" unicode="et" horiz-adv-x="549" 
d="M555 590q-5 3 -10 7q-5 3 -11 5.5t-11 2.5h-78v-566q0 -8 2.5 -15t5.5 -12q4 -6 9 -12h-127l8 12q3 5 6 12t3 15v566h-321q-6 0 -11 -2.5t-10 -5.5q-5 -4 -10 -7l25 98h504zM9 0l8 12q3 5 6 12t3 15v478q0 8 -3 15t-6 12l-8 12h232l26 -98q-6 3 -11 7q-5 3 -10.5 5.5
t-11.5 2.5h-115v-137h94q8 0 13.5 6.5t7.5 8.5v-113q-2 3 -6 7q-8 8 -15 8h-94v-170h115q11 0 22 7q5 4 11 8l-26 -98h-232z" />
    <glyph glyph-name="f_t" unicode="ft" horiz-adv-x="550" 
d="M556 590q-5 3 -10 7q-5 3 -11 5.5t-11 2.5h-78v-566q0 -8 2.5 -15t5.5 -12q4 -6 9 -12h-127l8 12q3 5 6 12t3 15v566h-325q-6 0 -11 -2.5t-10 -5.5q-5 -4 -10 -7l25 98h508zM27 517q0 8 -3 15t-6 12q-4 6 -9 12h232l26 -98q-5 3 -10 7q-5 3 -11 5.5t-11 2.5h-116v-137h95
q4 0 7.5 2.5t6.5 5.5q4 4 7 8v-114l-7 7q-8 8 -14 8h-95v-214q0 -8 2.5 -15t5.5 -12q4 -6 9 -12h-127q5 6 9 12q3 5 6 12t3 15v478z" />
    <glyph glyph-name="g_t" unicode="gt" horiz-adv-x="600" 
d="M208 294q0 8 -3 15t-6 12l-8 12h127q-5 -6 -9 -12q-3 -5 -5.5 -12t-2.5 -15v-255q0 -8 2.5 -15t5.5 -12q4 -6 9 -12h-162q-41 0 -67.5 12.5t-41.5 34.5t-21 52.5t-6 65.5v230q0 35 6 64.5t21 51t41.5 33.5t67.5 12h162q-5 -6 -9 -12q-3 -5 -5.5 -12t-2.5 -15v-178
q-3 37 -15 66q-11 25 -31.5 46t-58.5 21q-47 0 -65 -20.5t-18 -60.5v-227q0 -39 18 -59.5t65 -20.5h12v210zM606 590q-5 3 -10 7q-5 3 -11 5.5t-11 2.5h-78v-566q0 -8 2.5 -15t5.5 -12q4 -6 9 -12h-127l8 12q3 5 6 12t3 15v566h-357q-6 0 -11 -2.5t-10 -5.5q-5 -4 -10 -7
l25 98h540z" />
    <glyph glyph-name="h_t" unicode="ht" horiz-adv-x="612" 
d="M220 517q0 8 -3 15t-6 12l-8 12h127q-5 -6 -9 -12q-4 -5 -6.5 -12t-2.5 -15v-478q0 -8 2.5 -15t6.5 -12q4 -6 9 -12h-127l8 12q3 5 6 12t3 15v214h-100v-214q0 -8 2.5 -15t5.5 -12q4 -6 9 -12h-127l8 12q3 5 6 12t3 15v478q0 8 -3 15t-6 12l-8 12h127q-5 -6 -9 -12
q-3 -5 -5.5 -12t-2.5 -15v-181h100v181zM618 590q-5 3 -10 7q-5 3 -11 5.5t-11 2.5h-78v-566q0 -8 2.5 -15t5.5 -12q4 -6 9 -12h-127l8 12q3 5 6 12t3 15v566h-377q-6 0 -11 -2.5t-10 -5.5q-5 -4 -10 -7l25 98h560z" />
    <glyph glyph-name="i_t" unicode="it" horiz-adv-x="419" 
d="M425 590q-5 3 -10 7q-5 3 -11 5.5t-11 2.5h-78v-566q0 -8 2.5 -15t5.5 -12q4 -6 9 -12h-127l8 12q3 5 6 12t3 15v566h-190q-6 0 -11 -2.5t-10 -5.5q-5 -4 -10 -7l25 98h373zM27 517q0 8 -3 15t-6 12l-8 12h127q-5 -6 -9 -12q-3 -5 -5.5 -12t-2.5 -15v-478q0 -8 2.5 -15
t5.5 -12q4 -6 9 -12h-127l8 12q3 5 6 12t3 15v478z" />
    <glyph glyph-name="j_t" unicode="jt" horiz-adv-x="541" 
d="M547 590q-5 3 -10 7q-5 3 -11 5.5t-11 2.5h-78v-566q0 -8 2.5 -15t5.5 -12q4 -6 9 -12h-127l8 12q3 5 6 12t3 15v566h-316q-6 0 -11 -2.5t-10 -5.5q-5 -4 -10 -7l25 98h499zM-1 98l10 -8q10 -7 22 -7l34 1q48 0 67 20.5t19 59.5v353q0 8 -3 15t-6 12l-8 12h127
q-5 -6 -9 -12q-3 -5 -5.5 -12t-2.5 -15v-352q0 -35 -5.5 -65.5t-20.5 -52.5t-42 -34.5t-69 -12.5h-82z" />
    <glyph glyph-name="k_t" unicode="kt" horiz-adv-x="640" 
d="M233 517q1 7 0.5 14.5t-1.5 12.5q-1 6 -3 12h127q-7 -6 -13 -12q-5 -5 -10 -12t-7 -15q-16 -48 -32 -89.5t-34 -81.5q22 -63 41.5 -139.5t33.5 -167.5q1 -8 5 -15t8 -12q4 -6 10 -12h-127l6 12q4 10 6 27q0 27 -9.5 77.5t-27.5 113.5q-20 -42 -41.5 -86.5t-44.5 -95.5v-9
q0 -8 2.5 -15t5.5 -12q4 -6 9 -12h-127l8 12q3 5 6 12t3 15v478q0 8 -3 15t-6 12l-8 12h127q-5 -6 -9 -12q-3 -5 -5.5 -12t-2.5 -15v-288q19 43 38 86.5t35 82.5t26.5 70t13.5 49zM646 590q-5 3 -10 7q-5 3 -11 5.5t-11 2.5h-78v-566q0 -8 2.5 -15t5.5 -12q4 -6 9 -12h-127
l8 12q3 5 6 12t3 15v566h-416q-6 0 -11 -2.5t-10 -5.5q-5 -4 -10 -7l25 98h599z" />
    <glyph glyph-name="l_t" unicode="lt" horiz-adv-x="446" 
d="M446 590q-5 3 -10 7q-5 3 -11 5.5t-11 2.5h-71v-434q0 -8 2.5 -15t5.5 -12q4 -6 9 -12h-127l8 12q3 5 6 12t3 15v434h-221q-6 0 -11 -2.5t-10 -5.5q-5 -4 -10 -7l25 98h397zM10 0l8 12q3 5 6 12t3 15v478q0 8 -3 15t-6 12l-8 12h127q-5 -6 -9 -12q-3 -5 -5.5 -12
t-2.5 -15v-434h294q11 0 22 7l10 8l-26 -98h-410z" />
    <glyph glyph-name="m_t" unicode="mt" horiz-adv-x="724" 
d="M425 39q0 -8 2.5 -15t5.5 -12q4 -6 9 -12h-127l8 12q3 5 6 12t3 15v356q-18 -26 -30 -61t-19 -82t-10 -109t-3 -143h-88q0 81 -3 142.5t-10.5 109t-19 82t-29.5 60.5v-355q0 -8 2.5 -15t5.5 -12q4 -6 9 -12h-127l8 12q3 5 6 12t3 15v478q0 8 -3 15t-6 12l-8 12h96
q12 -6 28.5 -25t34 -46t33 -59t24.5 -65q9 33 24.5 65t32.5 59t34 46t29 25h96q-5 -6 -9 -12q-3 -5 -5.5 -12t-2.5 -15v-478zM730 590q-5 3 -10 7q-5 3 -11 5.5t-11 2.5h-78v-566q0 -8 2.5 -15t5.5 -12q4 -6 9 -12h-127l8 12q3 5 6 12t3 15v566h-498q-6 0 -11 -2.5t-10 -5.5
q-5 -4 -10 -7l25 98h681z" />
    <glyph glyph-name="n_t" unicode="nt" horiz-adv-x="645" 
d="M27 517q0 8 -3 15t-6 12l-8 12h96q11 -6 31 -27.5t41.5 -52t42 -66t32.5 -69.5v176q0 8 -3 15t-6 12l-8 12h127q-5 -6 -9 -12q-3 -5 -5.5 -12t-2.5 -15v-478q0 -8 2.5 -15t5.5 -12q4 -6 9 -12h-127l8 12q3 5 6 12t3 15v9q-2 41 -14 89t-31 95.5t-42 90t-46 72.5v-356
q0 -8 2.5 -15t5.5 -12q4 -6 9 -12h-127l8 12q3 5 6 12t3 15v478zM651 590q-5 3 -10 7q-5 3 -11 5.5t-11 2.5h-78v-566q0 -8 2.5 -15t5.5 -12q4 -6 9 -12h-127l8 12q3 5 6 12t3 15v566h-421q-6 0 -11 -2.5t-10 -5.5q-5 -4 -10 -7l25 98h604z" />
    <glyph glyph-name="o_t" unicode="ot" horiz-adv-x="616" 
d="M190 556q41 0 67 -12.5t41 -34t20.5 -51.5t5.5 -65v-230q0 -35 -5.5 -65t-20.5 -52t-41 -34t-67 -12h-32q-41 0 -68 12t-42.5 34t-21.5 52t-6 65v230q0 35 6 65t21.5 51.5t42.5 34t68 12.5h32zM622 590q-5 3 -10 7q-5 3 -11 5.5t-11 2.5h-78v-566q0 -8 2.5 -15t5.5 -12
q4 -6 9 -12h-127l8 12q3 5 6 12t3 15v566h-392q-6 0 -11 -2.5t-10 -5.5q-5 -4 -10 -7l25 98h575zM233 391q0 38 -10.5 59.5t-48.5 21.5t-48.5 -21.5t-10.5 -59.5v-227q0 -19 2 -33.5t8.5 -25t18 -16t30.5 -5.5q37 0 48 21t11 59v227z" />
    <glyph glyph-name="p_t" unicode="pt" horiz-adv-x="629" 
d="M28 517q0 8 -3 15t-6 12q-4 6 -9 12h241q74 0 90.5 -41.5t-21.5 -121.5q-20 -41 -44.5 -83.5t-51 -84.5t-53.5 -83t-51 -78v-25q0 -8 2.5 -15t5.5 -12q4 -6 9 -12h-127q5 6 9 12q3 5 6 12t3 15v478zM635 590q-5 3 -10 7q-5 3 -11 5.5t-11 2.5h-78v-566q0 -8 2.5 -15
t5.5 -12q4 -6 9 -12h-127l8 12q3 5 6 12t3 15v566h-405q-6 0 -11 -2.5t-10 -5.5q-5 -4 -10 -7l25 98h588zM120 473v-253l89 146q19 31 27 52t4 33t-20 17t-45 5h-55z" />
    <glyph glyph-name="q_t" unicode="qt" horiz-adv-x="622" 
d="M189 556q41 0 67 -12.5t41 -34t20.5 -51.5t5.5 -65v-230q0 -33 -5 -62t-18 -50.5t-35.5 -34.5t-58.5 -16q2 -18 6.5 -34t11 -29t15 -20.5t19.5 -7.5q-2 14 7.5 28t29.5 14q14 0 24.5 -10.5t10.5 -26.5q0 -8 -5 -18t-16.5 -16t-30 -6t-44.5 11q-29 12 -54 42t-36 73
q-37 2 -61 15t-38 35t-19.5 50.5t-5.5 62.5v230q0 35 6 65t21.5 51.5t42.5 34t68 12.5h31zM628 590q-5 3 -10 7q-5 3 -11 5.5t-11 2.5h-78v-566q0 -8 2.5 -15t5.5 -12q4 -6 9 -12h-127l8 12q3 5 6 12t3 15v566h-398q-6 0 -11 -2.5t-10 -5.5q-5 -4 -10 -7l25 98h581zM232 391
q0 38 -10.5 59.5t-48.5 21.5t-48.5 -21.5t-10.5 -59.5v-227q0 -19 2 -33.5t8.5 -25t18 -16t30.5 -5.5q38 0 48.5 21t10.5 59v227z" />
    <glyph glyph-name="r_t" unicode="rt" horiz-adv-x="641" 
d="M27 517q0 8 -3 15t-6 12l-8 12h241q73 0 89.5 -41.5t-21.5 -121.5q-21 -44 -45 -86q19 -57 34.5 -123.5t27.5 -144.5q1 -8 5 -15t8 -12q4 -6 10 -12h-127q2 6 5 12q2 5 4 12t2 15q1 25 -7 69.5t-23 99.5l-93 -143v-26q0 -8 2.5 -15t5.5 -12q4 -6 9 -12h-127l8 12
q3 5 6 12t3 15v478zM647 590q-5 3 -10 7q-5 3 -11 5.5t-11 2.5h-78v-566q0 -8 2.5 -15t5.5 -12q4 -6 9 -12h-127l8 12q3 5 6 12t3 15v566h-420q-6 0 -11 -2.5t-10 -5.5q-5 -4 -10 -7l25 98h603zM120 473v-249q20 31 42 67t46 75q19 31 27 52t4 33t-19.5 17t-44.5 5h-55z" />
    <glyph glyph-name="u_t" unicode="ut" horiz-adv-x="633" 
d="M240 517q0 8 -3 15t-6 12l-8 12h127q-5 -6 -9 -12q-4 -5 -6.5 -12t-2.5 -15v-478q0 -8 2.5 -15t6.5 -12q4 -6 9 -12h-247q-35 0 -56.5 29t-29 78.5t-2 115.5t25.5 140q16 58 19 111t-3.5 96t-21 73.5t-34.5 44.5h115q10 -11 20.5 -41t15 -74.5t1 -102.5t-19.5 -126
q-33 -138 -17.5 -201.5t71.5 -63.5q14 0 24 4t16.5 14t9.5 27.5t3 45.5v347zM639 590q-5 3 -10 7q-5 3 -11 5.5t-11 2.5h-78v-566q0 -8 2.5 -15t5.5 -12q4 -6 9 -12h-127l8 12q3 5 6 12t3 15v566h-193q-6 0 -11 -2.5t-10 -5.5q-5 -4 -10 -7l25 98h376z" />
    <glyph glyph-name="v_t" unicode="vt" horiz-adv-x="635" 
d="M321 39q0 -8 2.5 -15t5.5 -12q4 -6 9 -12h-141q-20 26 -37.5 51.5t-34 56t-33 68t-33.5 88.5q-47 141 -47 385q0 8 -3 15t-6 12l-8 12h127q-3 -6 -7 -12q-3 -5 -6 -12.5t-4 -14.5q-4 -23 -3.5 -63t6 -89.5t15.5 -104.5t24.5 -107t34.5 -97.5t46 -76.5v406q0 8 -3 15
t-6 12l-8 12h127q-5 -6 -9 -12q-3 -5 -5.5 -12t-2.5 -15v-478zM641 590q-5 3 -10 7q-5 3 -11 5.5t-11 2.5h-78v-566q0 -8 2.5 -15t5.5 -12q4 -6 9 -12h-127l8 12q3 5 6 12t3 15v566h-247q-6 0 -11 -2.5t-10 -5.5q-5 -4 -10 -7l25 98h430z" />
    <glyph glyph-name="w_t" unicode="wt" horiz-adv-x="724" 
d="M27 649q0 8 -3 15t-6 12l-8 12h127q-5 -6 -9 -12q-3 -5 -5.5 -12t-2.5 -15v-488q26 38 38.5 90t17.5 118t5 146v173h89q0 -94 -0.5 -174t4.5 -146t18 -118t40 -89v356q0 8 -3 15t-6 12l-8 12h127q-5 -6 -9 -12q-4 -5 -6.5 -12t-2.5 -15v-478q0 -8 2.5 -15t6.5 -12
q4 -6 9 -12h-96q-12 6 -29 24.5t-34 45.5t-32.5 59.5t-24.5 65.5q-9 -33 -24.5 -65.5t-33 -59.5t-34.5 -45.5t-29 -24.5h-95l8 12q3 5 6 12t3 15v610zM730 590q-5 3 -10 7q-5 3 -11 5.5t-11 2.5h-78v-566q0 -8 2.5 -15t5.5 -12q4 -6 9 -12h-127l8 12q3 5 6 12t3 15v566h-185
q-6 0 -11 -2.5t-10 -5.5q-5 -4 -10 -7l25 98h368z" />
    <glyph glyph-name="l_a" unicode="la" horiz-adv-x="535" 
d="M199 649q0 8 -3 15t-6 12l-8 12h213q-5 -6 -9 -12q-3 -5 -5.5 -12t-2.5 -15q0 -10 6 -24.5t16 -36.5t22.5 -52t25.5 -70q23 -72 41.5 -179t18.5 -248q0 -8 2.5 -15t5.5 -12q4 -6 9 -12h-127q3 6 7 12q7 12 10 27q5 29 2.5 87t-13.5 127h-112v-82q0 -8 2.5 -15t5.5 -12
q4 -6 9 -12h-127l8 12q3 5 6 12t3 15v478zM10 0l8 12q3 5 6 12t3 15v610q0 8 -3 15t-6 12l-8 12h127q-5 -6 -9 -12q-3 -5 -5.5 -12t-2.5 -15v-566h221q11 0 22 7l10 8l-26 -98h-337zM389 336q-16 71 -40 135t-57 105v-240h97z" />
    <glyph glyph-name="l_b" unicode="lb" horiz-adv-x="541" 
d="M199 649q0 8 -3 15t-6 12l-8 12h241q73 0 90 -41.5t-21 -121.5q-18 -38 -39 -75q18 -39 34.5 -78t29.5 -77q25 -80 2.5 -121.5t-96.5 -41.5h-241l8 12q3 5 6 12t3 15v478zM10 0l8 12q3 5 6 12t3 15v610q0 8 -3 15t-6 12l-8 12h127q-5 -6 -9 -12q-3 -5 -5.5 -12t-2.5 -15
v-566h386q11 0 22 7l10 8l-26 -98h-502zM292 605v-251q20 31 42.5 67.5t45.5 76.5q19 31 27.5 52t4.5 33t-20 17t-45 5h-55zM394 353q-23 -36 -45.5 -70.5t-44.5 -67.5h56q29 0 45.5 5t22 17t0.5 32.5t-19 52.5z" />
    <glyph glyph-name="l_c" unicode="lc" horiz-adv-x="482" 
d="M10 0l8 12q3 5 6 12t3 15v610q0 8 -3 15t-6 12l-8 12h127q-5 -6 -9 -12q-3 -5 -5.5 -12t-2.5 -15v-566h330q11 0 22 7l10 8l-26 -98h-446zM192 523q0 35 6 65.5t21 52.5t41.5 34.5t67.5 12.5h119l26 -98q-5 3 -10 7q-5 3 -11 5.5t-11 2.5h-73q-46 0 -64.5 -21t-18.5 -61
v-227q0 -39 18.5 -60t64.5 -21h73q11 0 22 7l10 8l-26 -98h-119q-41 0 -67.5 12.5t-41.5 34.5t-21 52.5t-6 65.5v226z" />
    <glyph glyph-name="l_d" unicode="ld" horiz-adv-x="501" 
d="M345 688q41 0 67.5 -12.5t41.5 -34t21 -51.5t6 -65v-230q0 -35 -6 -65t-21 -52t-41.5 -34t-67.5 -12h-163l8 12q3 5 6 12t3 15v478q0 8 -3 15t-6 12l-8 12h163zM10 0l8 12q3 5 6 12t3 15v610q0 8 -3 15t-6 12l-8 12h127q-5 -6 -9 -12q-3 -5 -5.5 -12t-2.5 -15v-566h350
q11 0 22 7l10 8l-26 -98h-466zM388 523q0 20 -2.5 35t-9.5 25.5t-20 15.5t-34 5h-31v-388h31q43 0 54.5 20t11.5 60v227z" />
    <glyph glyph-name="l_e" unicode="le" horiz-adv-x="449" 
d="M10 0l8 12q3 5 6 12t3 15v610q0 8 -3 15t-6 12l-8 12h127q-5 -6 -9 -12q-3 -5 -5.5 -12t-2.5 -15v-566h290q11 0 22 7l10 8l-26 -98h-406zM181 132l8 12q3 5 6 12t3 15v478q0 8 -3 15t-6 12l-8 12h232l26 -98q-6 3 -11 7q-5 3 -10.5 5.5t-11.5 2.5h-115v-137h94
q8 0 13.5 6.5t7.5 8.5v-113q-2 3 -6 7q-3 3 -7 5.5t-8 2.5h-94v-170h127q11 0 22 7q5 4 11 8l-26 -98h-244z" />
    <glyph glyph-name="l_f" unicode="lf" horiz-adv-x="450" 
d="M10 0l8 12q3 5 6 12t3 15v610q0 8 -3 15t-6 12l-8 12h127q-5 -6 -9 -12q-3 -5 -5.5 -12t-2.5 -15v-566h290q11 0 22 7l10 8l-26 -98h-406zM199 649q0 8 -3 15t-6 12q-4 6 -9 12h232l26 -98q-5 3 -10 7q-5 3 -11 5.5t-11 2.5h-116v-137h95q4 0 7.5 2.5t6.5 5.5q4 4 7 8
v-114l-7 7q-3 3 -6.5 5.5t-7.5 2.5h-95v-214q0 -8 2.5 -15t5.5 -12q4 -6 9 -12h-127q5 6 9 12q3 5 6 12t3 15v478z" />
    <glyph glyph-name="l_g" unicode="lg" horiz-adv-x="500" 
d="M380 426q0 8 -3 15t-6 12l-8 12h127q-5 -6 -9 -12q-3 -5 -5.5 -12t-2.5 -15v-255q0 -8 2.5 -15t5.5 -12q4 -6 9 -12h-162q-41 0 -67.5 12.5t-41.5 34.5t-21 52.5t-6 65.5v230q0 35 6 64.5t21 51t41.5 33.5t67.5 12h162q-5 -6 -9 -12q-3 -5 -5.5 -12t-2.5 -15v-178
q-3 37 -15 66q-11 25 -31.5 46t-58.5 21q-47 0 -65 -20.5t-18 -60.5v-227q0 -39 18 -59.5t65 -20.5h12v210zM10 0l8 12q3 5 6 12t3 15v610q0 8 -3 15t-6 12l-8 12h127q-5 -6 -9 -12q-3 -5 -5.5 -12t-2.5 -15v-566h347q11 0 22 7l10 8l-26 -98h-463z" />
    <glyph glyph-name="l_h" unicode="lh" horiz-adv-x="512" 
d="M392 649q0 8 -3 15t-6 12l-8 12h127q-5 -6 -9 -12q-4 -5 -6.5 -12t-2.5 -15v-610q0 -8 2.5 -15t6.5 -12q4 -6 9 -12h-127l8 12q3 5 6 12t3 15v346h-100v-214q0 -8 2.5 -15t5.5 -12q4 -6 9 -12h-127l8 12q3 5 6 12t3 15v478q0 8 -3 15t-6 12l-8 12h127q-5 -6 -9 -12
q-3 -5 -5.5 -12t-2.5 -15v-181h100v181zM10 0l8 12q3 5 6 12t3 15v610q0 8 -3 15t-6 12l-8 12h127q-5 -6 -9 -12q-3 -5 -5.5 -12t-2.5 -15v-566h197q11 0 22 7l10 8l-26 -98h-313z" />
    <glyph glyph-name="l_i" unicode="li" horiz-adv-x="319" 
d="M10 0l8 12q3 5 6 12t3 15v610q0 8 -3 15t-6 12l-8 12h127q-5 -6 -9 -12q-3 -5 -5.5 -12t-2.5 -15v-566h171q11 0 22 7l10 8l-26 -98h-287zM199 649q0 8 -3 15t-6 12l-8 12h127q-5 -6 -9 -12q-3 -5 -5.5 -12t-2.5 -15v-478q0 -8 2.5 -15t5.5 -12q4 -6 9 -12h-127l8 12
q3 5 6 12t3 15v478z" />
    <glyph glyph-name="l_k" unicode="lk" horiz-adv-x="540" 
d="M405 649q1 7 0.5 14.5t-1.5 12.5q-1 6 -3 12h127q-7 -6 -13 -12q-5 -5 -10 -12t-7 -15q-20 -61 -41.5 -112.5t-44.5 -102.5q21 -38 36 -88t26 -104t19.5 -107t14.5 -96q1 -8 5 -15t8 -12q4 -6 10 -12h-127q2 6 5 12q2 5 4 12t2 15q0 13 -2.5 46.5t-9.5 75.5t-17 86
t-25 78q-17 -33 -34 -68.5t-35 -76.5v-9q0 -8 2.5 -15t5.5 -12q4 -6 9 -12h-127l8 12q3 5 6 12t3 15v478q0 8 -3 15t-6 12l-8 12h127q-5 -6 -9 -12q-3 -5 -5.5 -12t-2.5 -15v-288q19 43 38 86.5t35 82.5t26.5 70t13.5 49zM10 0l8 12q3 5 6 12t3 15v610q0 8 -3 15t-6 12
l-8 12h127q-5 -6 -9 -12q-3 -5 -5.5 -12t-2.5 -15v-566h215q11 0 22 7l10 8l-26 -98h-331z" />
    <glyph glyph-name="l_l" unicode="ll" horiz-adv-x="443" 
d="M10 0l8 12q3 5 6 12t3 15v610q0 8 -3 15t-6 12l-8 12h127q-5 -6 -9 -12q-3 -5 -5.5 -12t-2.5 -15v-566h266q11 0 22 7l10 8l-26 -98h-382zM199 649q0 8 -3 15t-6 12l-8 12h127q-5 -6 -9 -12q-3 -5 -5.5 -12t-2.5 -15v-434h130q11 0 22 7l10 8l-26 -98h-246l8 12q3 5 6 12
t3 15v478z" />
    <glyph glyph-name="l_m" unicode="lm" horiz-adv-x="624" 
d="M597 39q0 -8 2.5 -15t5.5 -12q4 -6 9 -12h-127l8 12q3 5 6 12t3 15v488q-18 -26 -30 -61t-19 -82t-10 -109t-3 -143h-88q0 81 -3 142.5t-10.5 109t-19 82t-29.5 60.5v-355q0 -8 2.5 -15t5.5 -12q4 -6 9 -12h-127l8 12q3 5 6 12t3 15v478q0 8 -3 15t-6 12l-8 12h96
q12 -6 28.5 -25t34 -46t33 -59t24.5 -65q9 33 24.5 65t32.5 59t34 46t29 25h96q-5 -6 -9 -12q-3 -5 -5.5 -12t-2.5 -15v-610zM10 0l8 12q3 5 6 12t3 15v610q0 8 -3 15t-6 12l-8 12h127q-5 -6 -9 -12q-3 -5 -5.5 -12t-2.5 -15v-566h309q11 0 22 7l10 8l-26 -98h-425z" />
    <glyph glyph-name="l_n" unicode="ln" horiz-adv-x="545" 
d="M199 649q0 8 -3 15t-6 12l-8 12h96q11 -6 31 -27.5t41.5 -52t42 -66t32.5 -69.5v176q0 8 -3 15t-6 12l-8 12h127q-5 -6 -9 -12q-3 -5 -5.5 -12t-2.5 -15v-610q0 -8 2.5 -15t5.5 -12q4 -6 9 -12h-127l8 12q3 5 6 12t3 15v141q-2 41 -14 89t-31 95.5t-42 90t-46 72.5v-356
q0 -8 2.5 -15t5.5 -12q4 -6 9 -12h-127l8 12q3 5 6 12t3 15v478zM10 0l8 12q3 5 6 12t3 15v610q0 8 -3 15t-6 12l-8 12h127q-5 -6 -9 -12q-3 -5 -5.5 -12t-2.5 -15v-566h231q11 0 22 7l10 8l-26 -98h-347z" />
    <glyph glyph-name="l_o" unicode="lo" horiz-adv-x="516" 
d="M362 688q41 0 67 -12.5t41 -34t20.5 -51.5t5.5 -65v-230q0 -35 -5.5 -65t-20.5 -52t-41 -34t-67 -12h-32q-41 0 -68 12t-42.5 34t-21.5 52t-6 65v230q0 35 6 65t21.5 51.5t42.5 34t68 12.5h32zM10 0l8 12q3 5 6 12t3 15v610q0 8 -3 15t-6 12l-8 12h127q-5 -6 -9 -12
q-3 -5 -5.5 -12t-2.5 -15v-566h353q11 0 22 7l10 8l-26 -98h-469zM405 523q0 38 -10.5 59.5t-48.5 21.5t-48.5 -21.5t-10.5 -59.5v-227q0 -19 2 -33.5t8.5 -25t18 -16t30.5 -5.5q37 0 48 21t11 59v227z" />
    <glyph glyph-name="l_p" unicode="lp" horiz-adv-x="529" 
d="M200 649q0 8 -3 15t-6 12q-4 6 -9 12h241q74 0 90.5 -41.5t-21.5 -121.5q-20 -41 -44.5 -83.5t-51 -84.5t-53.5 -83t-51 -78v-25q0 -8 2.5 -15t5.5 -12q4 -6 9 -12h-127q5 6 9 12q3 5 6 12t3 15v478zM10 0l8 12q3 5 6 12t3 15v610q0 8 -3 15t-6 12l-8 12h127
q-5 -6 -9 -12q-3 -5 -5.5 -12t-2.5 -15v-566h371q11 0 22 7l10 8l-26 -98h-487zM292 605v-253l89 146q19 31 27 52t4 33t-20 17t-45 5h-55z" />
    <glyph glyph-name="l_q" unicode="lq" horiz-adv-x="522" 
d="M361 688q41 0 67 -12.5t41 -34t20.5 -51.5t5.5 -65v-230q0 -33 -5 -62t-18 -50.5t-35.5 -34.5t-58.5 -16q1 -18 5 -35.5t11 -31t16 -21.5t20 -8q-2 14 7.5 28t29.5 14q14 0 24.5 -10.5t10.5 -26.5q0 -8 -5 -18t-16.5 -16t-30 -6t-44.5 11q-30 12 -55.5 43t-36.5 77
q-36 3 -60 16t-37.5 34.5t-19 50t-5.5 62.5v230q0 35 6 65t21.5 51.5t42.5 34t68 12.5h31zM10 0l8 12q3 5 6 12t3 15v610q0 8 -3 15t-6 12l-8 12h127q-5 -6 -9 -12q-3 -5 -5.5 -12t-2.5 -15v-566h135q11 0 22 7l10 8l-26 -98h-251zM404 523q0 38 -10.5 59.5t-48.5 21.5
t-48.5 -21.5t-10.5 -59.5v-227q0 -19 2 -33.5t8.5 -25t18 -16t30.5 -5.5q38 0 48.5 21t10.5 59v227z" />
    <glyph glyph-name="l_r" unicode="lr" horiz-adv-x="541" 
d="M199 649q0 8 -3 15t-6 12l-8 12h241q73 0 89.5 -41.5t-21.5 -121.5q-14 -29 -30.5 -59t-34.5 -60q17 -39 29.5 -86.5t22.5 -97t17 -97t13 -86.5q1 -8 5 -15t8 -12q4 -6 10 -12h-127q2 6 5 12q2 5 4 12t2 15q0 12 -2.5 43t-8.5 70.5t-15.5 81.5t-22.5 77
q-19 -30 -38 -58.5t-36 -55.5v-26q0 -8 2.5 -15t5.5 -12q4 -6 9 -12h-127l8 12q3 5 6 12t3 15v478zM10 0l8 12q3 5 6 12t3 15v610q0 8 -3 15t-6 12l-8 12h127q-5 -6 -9 -12q-3 -5 -5.5 -12t-2.5 -15v-566h215q11 0 22 7l10 8l-26 -98h-331zM292 605v-249q20 31 42 67t46 75
q19 31 27 52t4 33t-19.5 17t-44.5 5h-55z" />
    <glyph glyph-name="l_s" unicode="ls" horiz-adv-x="510" 
d="M10 0l8 12q3 5 6 12t3 15v610q0 8 -3 15t-6 12l-8 12h127q-5 -6 -9 -12q-3 -5 -5.5 -12t-2.5 -15v-566h347q11 0 22 7l10 8l-26 -98h-463zM309 523q0 -18 13.5 -32t33 -28t43 -29t43 -34.5t33 -45t13.5 -59.5q0 -35 -8 -65t-26 -52t-46.5 -34t-69.5 -12h-144l8 12
q3 5 6 12t3 15v171q1 -9 5 -30t15 -42.5t31.5 -37.5t53.5 -16q40 0 55.5 19t15.5 61q0 18 -13.5 33.5t-33 30t-43 30.5t-43 35t-33 43.5t-13.5 56.5q0 34 7 64t24 52t45 34.5t69 12.5h143q-5 -6 -9 -12q-3 -5 -5.5 -12t-2.5 -15v-178q-3 37 -15 66q-11 25 -31.5 46t-58.5 21
q-31 0 -48 -20.5t-17 -60.5z" />
    <glyph glyph-name="l_u" unicode="lu" horiz-adv-x="533" 
d="M199 649q0 8 -3 15t-6 12q-4 6 -9 12h127q-5 -6 -9 -12q-3 -5 -5.5 -12t-2.5 -15v-347q0 -28 3 -45.5t9.5 -27.5t16.5 -14t24 -4q28 0 46 7.5t25.5 31t3 65.5t-20.5 111q-17 68 -20 113t1.5 74.5t14.5 46.5t21 28h115q-20 -14 -34.5 -32t-21 -45.5t-3.5 -67.5t19 -98
q39 -148 23.5 -230.5t-85.5 -82.5h-247q5 6 9 12q3 5 6 12t3 15v478zM10 0l8 12q3 5 6 12t3 15v610q0 8 -3 15t-6 12l-8 12h127q-5 -6 -9 -12q-3 -5 -5.5 -12t-2.5 -15v-566h368q11 0 22 7l10 8l-26 -98h-484z" />
    <glyph glyph-name="l_v" unicode="lv" horiz-adv-x="535" 
d="M508 171q0 -8 2.5 -15t5.5 -12q4 -6 9 -12h-141q-45 51 -79.5 106t-58 118t-35.5 135.5t-12 157.5q0 8 -3 15t-6 12l-8 12h127q-3 -6 -7 -12q-3 -5 -6 -12.5t-4 -14.5q-6 -34 -0.5 -86t21.5 -109.5t41.5 -113t60.5 -97.5v406q0 8 -3 15t-6 12l-8 12h127q-5 -6 -9 -12
q-3 -5 -5.5 -12t-2.5 -15v-478zM10 0l8 12q3 5 6 12t3 15v610q0 8 -3 15t-6 12l-8 12h127q-5 -6 -9 -12q-3 -5 -5.5 -12t-2.5 -15v-566h377q11 0 22 7l10 8l-26 -98h-493z" />
    <glyph glyph-name="l_w" unicode="lw" horiz-adv-x="624" 
d="M519 132q-12 6 -29 23t-34.5 42t-33 55.5t-24.5 63.5q-9 -33 -24.5 -63.5t-32.5 -55.5t-34 -42t-29 -23h-96q5 6 9 12q3 5 6 12t3 15v478q0 8 -3 15t-6 12q-4 6 -9 12h127q-5 -6 -9 -12q-3 -5 -5.5 -12t-2.5 -15v-356q26 37 39 84.5t18 99.5t5 106v105h89
q0 -50 -0.5 -103.5t4.5 -106t18 -100.5t39 -85v356q0 8 -3 15t-6 12l-8 12h127q-5 -6 -9 -12q-3 -5 -5.5 -12t-2.5 -15v-478q0 -8 2.5 -15t5.5 -12q4 -6 9 -12h-95zM10 0l8 12q3 5 6 12t3 15v610q0 8 -3 15t-6 12l-8 12h127q-5 -6 -9 -12q-3 -5 -5.5 -12t-2.5 -15v-566h466
q11 0 22 7l10 8l-26 -98h-582z" />
    <glyph glyph-name="e_a" unicode="ea" horiz-adv-x="640" 
d="M304 649q0 8 -3 15t-6 12l-8 12h213q-5 -6 -9 -12q-3 -5 -5.5 -12t-2.5 -15q0 -10 6 -24.5t16 -36.5t22.5 -52t25.5 -70q23 -72 41.5 -179t18.5 -248q0 -8 2.5 -15t5.5 -12q4 -6 9 -12h-127q3 6 7 12q7 12 10 27q5 29 2.5 87t-13.5 127h-112v-82q0 -8 2.5 -15t5.5 -12
q4 -6 9 -12h-127l8 12q3 5 6 12t3 15v478zM26 649q0 8 -3 15t-6 12l-8 12h232l26 -98q-6 3 -11 7q-5 3 -10.5 5.5t-11.5 2.5h-115v-137h94q8 0 13.5 6.5t7.5 8.5v-113q-2 3 -6 7q-8 8 -15 8h-94v-302h316q11 0 22 7q5 4 11 8l-26 -98h-433l8 12q3 5 6 12t3 15v610zM494 336
q-16 71 -40 135t-57 105v-240h97z" />
    <glyph glyph-name="e_b" unicode="eb" horiz-adv-x="646" 
d="M304 649q0 8 -3 15t-6 12l-8 12h241q73 0 90 -41.5t-21 -121.5q-18 -38 -39 -75q18 -39 34.5 -78t29.5 -77q25 -80 2.5 -121.5t-96.5 -41.5h-241l8 12q3 5 6 12t3 15v478zM26 649q0 8 -3 15t-6 12l-8 12h232l26 -98q-6 3 -11 7q-5 3 -10.5 5.5t-11.5 2.5h-115v-137h94
q8 0 13.5 6.5t7.5 8.5v-113q-2 3 -6 7q-8 8 -15 8h-94v-302h487q11 0 22 7q5 4 11 8l-26 -98h-604l8 12q3 5 6 12t3 15v610zM397 605v-251q20 31 42.5 67.5t45.5 76.5q19 31 27.5 52t4.5 33t-20 17t-45 5h-55zM499 353q-23 -36 -45.5 -70.5t-44.5 -67.5h56q29 0 45.5 5
t22 17t0.5 32.5t-19 52.5z" />
    <glyph glyph-name="e_c" unicode="ec" horiz-adv-x="587" 
d="M26 649q0 8 -3 15t-6 12l-8 12h232l26 -98q-6 3 -11 7q-5 3 -10.5 5.5t-11.5 2.5h-115v-137h94q8 0 13.5 6.5t7.5 8.5v-113q-2 3 -6 7q-8 8 -15 8h-94v-302h426q11 0 22 7q5 4 11 8l-26 -98h-543l8 12q3 5 6 12t3 15v610zM297 523q0 35 6 65.5t21 52.5t41.5 34.5
t67.5 12.5h119l26 -98q-5 3 -10 7q-5 3 -11 5.5t-11 2.5h-73q-46 0 -64.5 -21t-18.5 -61v-227q0 -39 18.5 -60t64.5 -21h73q11 0 22 7l10 8l-26 -98h-119q-41 0 -67.5 12.5t-41.5 34.5t-21 52.5t-6 65.5v226z" />
    <glyph glyph-name="e_d" unicode="ed" horiz-adv-x="606" 
d="M450 688q41 0 67.5 -12.5t41.5 -34t21 -51.5t6 -65v-230q0 -35 -6 -65t-21 -52t-41.5 -34t-67.5 -12h-163l8 12q3 5 6 12t3 15v478q0 8 -3 15t-6 12l-8 12h163zM26 649q0 8 -3 15t-6 12l-8 12h232l26 -98q-6 3 -11 7q-5 3 -10.5 5.5t-11.5 2.5h-115v-137h94q8 0 13.5 6.5
t7.5 8.5v-113q-2 3 -6 7q-8 8 -15 8h-94v-302h428q11 0 22 7q5 4 11 8l-26 -98h-545l8 12q3 5 6 12t3 15v610zM493 523q0 20 -2.5 35t-9.5 25.5t-20 15.5t-34 5h-31v-388h31q43 0 54.5 20t11.5 60v227z" />
    <glyph glyph-name="e_e" unicode="ee" horiz-adv-x="554" 
d="M26 649q0 8 -3 15t-6 12l-8 12h232l26 -98q-6 3 -11 7q-5 3 -10.5 5.5t-11.5 2.5h-115v-137h94q8 0 13.5 6.5t7.5 8.5v-113q-2 3 -6 7q-8 8 -15 8h-94v-302h403q11 0 22 7q5 4 11 8l-26 -98h-520l8 12q3 5 6 12t3 15v610zM303 649q0 8 -3 15t-6 12l-8 12h232l26 -98
q-6 3 -11 7q-5 3 -10.5 5.5t-11.5 2.5h-115v-137h94q8 0 13.5 6.5t7.5 8.5v-113q-2 3 -6 7q-3 3 -7 5.5t-8 2.5h-94v-170h127q11 0 22 7q5 4 11 8l-26 -98h-244l8 12q3 5 6 12t3 15v478z" />
    <glyph glyph-name="e_f" unicode="ef" horiz-adv-x="537" 
d="M26 649q0 8 -3 15t-6 12l-8 12h232l26 -98q-6 3 -11 7q-5 3 -10.5 5.5t-11.5 2.5h-115v-137h94q8 0 13.5 6.5t7.5 8.5v-113q-2 3 -6 7q-8 8 -15 8h-94v-302h376q11 0 22 7q5 4 11 8l-26 -98h-493l8 12q3 5 6 12t3 15v610zM294 649q0 8 -3 15t-6 12q-4 6 -9 12h232l26 -98
q-5 3 -10 7q-5 3 -11 5.5t-11 2.5h-116v-137h95q4 0 7.5 2.5t6.5 5.5q4 4 7 8v-114l-7 7q-3 3 -6.5 5.5t-7.5 2.5h-95v-214q0 -8 2.5 -15t5.5 -12q4 -6 9 -12h-127q5 6 9 12q3 5 6 12t3 15v478z" />
    <glyph glyph-name="e_g" unicode="eg" horiz-adv-x="605" 
d="M26 649q0 8 -3 15t-6 12l-8 12h232l26 -98q-6 3 -11 7q-5 3 -10.5 5.5t-11.5 2.5h-115v-137h94q8 0 13.5 6.5t7.5 8.5v-113q-2 3 -6 7q-8 8 -15 8h-94v-302h443q11 0 22 7q5 4 11 8l-26 -98h-560l8 12q3 5 6 12t3 15v610zM478 426q0 8 -3 15t-6 12l-8 12h127
q-5 -6 -9 -12q-3 -5 -5.5 -12t-2.5 -15v-255q0 -8 2.5 -15t5.5 -12q4 -6 9 -12h-162q-41 0 -67.5 12.5t-41.5 34.5t-21 52.5t-6 65.5v230q0 35 6 64.5t21 51t41.5 33.5t67.5 12h162q-5 -6 -9 -12q-3 -5 -5.5 -12t-2.5 -15v-175q0 7 -3.5 28t-14.5 43.5t-31.5 40.5t-55.5 18
q-47 0 -65 -20.5t-18 -60.5v-227q0 -39 18 -59.5t65 -20.5h12v210z" />
    <glyph glyph-name="e_h" unicode="eh" horiz-adv-x="617" 
d="M497 649q0 8 -3 15t-6 12l-8 12h127q-5 -6 -9 -12q-4 -5 -6.5 -12t-2.5 -15v-610q0 -8 2.5 -15t6.5 -12q4 -6 9 -12h-127l8 12q3 5 6 12t3 15v346h-100v-214q0 -8 2.5 -15t5.5 -12q4 -6 9 -12h-127l8 12q3 5 6 12t3 15v478q0 8 -3 15t-6 12l-8 12h127q-5 -6 -9 -12
q-3 -5 -5.5 -12t-2.5 -15v-181h100v181zM26 649q0 8 -3 15t-6 12l-8 12h232l26 -98q-6 3 -11 7q-5 3 -10.5 5.5t-11.5 2.5h-115v-137h94q8 0 13.5 6.5t7.5 8.5v-113q-2 3 -6 7q-8 8 -15 8h-94v-302h297q11 0 22 7q5 4 11 8l-26 -98h-414l8 12q3 5 6 12t3 15v610z" />
    <glyph glyph-name="e_i" unicode="ei" horiz-adv-x="424" 
d="M26 649q0 8 -3 15t-6 12l-8 12h232l26 -98q-6 3 -11 7q-5 3 -10.5 5.5t-11.5 2.5h-115v-137h94q8 0 13.5 6.5t7.5 8.5v-113q-2 3 -6 7q-8 8 -15 8h-94v-302h275q11 0 22 7q5 4 11 8l-26 -98h-392l8 12q3 5 6 12t3 15v610zM304 649q0 8 -3 15t-6 12l-8 12h127
q-5 -6 -9 -12q-3 -5 -5.5 -12t-2.5 -15v-478q0 -8 2.5 -15t5.5 -12q4 -6 9 -12h-127l8 12q3 5 6 12t3 15v478z" />
    <glyph glyph-name="e_j" unicode="ej" horiz-adv-x="428" 
d="M26 649q0 8 -3 15t-6 12l-8 12h232l26 -98q-6 3 -11 7q-5 3 -10.5 5.5t-11.5 2.5h-115v-137h94q8 0 13.5 6.5t7.5 8.5v-113q-2 3 -6 7q-8 8 -15 8h-94v-302h270q11 0 22 7q5 4 11 8l-26 -98h-387l8 12q3 5 6 12t3 15v610zM161 230l10 -8q10 -7 22 -7l34 1q48 0 67 20.5
t19 59.5v353q0 8 -3 15t-6 12l-8 12h127q-5 -6 -9 -12q-3 -5 -5.5 -12t-2.5 -15v-352q0 -35 -5.5 -65.5t-20.5 -52.5t-42 -34.5t-69 -12.5h-82z" />
    <glyph glyph-name="e_k" unicode="ek" horiz-adv-x="645" 
d="M510 649q1 7 0.5 14.5t-1.5 12.5q-1 6 -3 12h127q-7 -6 -13 -12q-5 -5 -10 -12t-7 -15q-20 -61 -41.5 -112.5t-44.5 -102.5q21 -38 36 -88t26 -104t19.5 -107t14.5 -96q1 -8 5 -15t8 -12q4 -6 10 -12h-127q2 6 5 12q2 5 4 12t2 15q0 13 -2.5 46.5t-9.5 75.5t-17 86
t-25 78q-17 -33 -34 -68.5t-35 -76.5v-9q0 -8 2.5 -15t5.5 -12q4 -6 9 -12h-127l8 12q3 5 6 12t3 15v478q0 8 -3 15t-6 12l-8 12h127q-5 -6 -9 -12q-3 -5 -5.5 -12t-2.5 -15v-288q19 43 38 86.5t35 82.5t26.5 70t13.5 49zM26 649q0 8 -3 15t-6 12l-8 12h232l26 -98
q-6 3 -11 7q-5 3 -10.5 5.5t-11.5 2.5h-115v-137h94q8 0 13.5 6.5t7.5 8.5v-113q-2 3 -6 7q-8 8 -15 8h-94v-302h319q11 0 22 7q5 4 11 8l-26 -98h-436l8 12q3 5 6 12t3 15v610z" />
    <glyph glyph-name="e_l" unicode="el" horiz-adv-x="525" 
d="M26 649q0 8 -3 15t-6 12l-8 12h232l26 -98q-6 3 -11 7q-5 3 -10.5 5.5t-11.5 2.5h-115v-137h94q8 0 13.5 6.5t7.5 8.5v-113q-2 3 -6 7q-8 8 -15 8h-94v-302h376q11 0 22 7q5 4 11 8l-26 -98h-493l8 12q3 5 6 12t3 15v610zM287 132l8 12q3 5 6 12t3 15v478q0 8 -3 15
t-6 12l-8 12h127q-5 -6 -9 -12q-3 -5 -5.5 -12t-2.5 -15v-434h102q11 0 22 7l10 8l-26 -98h-218z" />
    <glyph glyph-name="e_m" unicode="em" horiz-adv-x="729" 
d="M702 39q0 -8 2.5 -15t5.5 -12q4 -6 9 -12h-127l8 12q3 5 6 12t3 15v488q-18 -26 -30 -61t-19 -82t-10 -109t-3 -143h-88q0 81 -3 142.5t-10.5 109t-19 82t-29.5 60.5v-355q0 -8 2.5 -15t5.5 -12q4 -6 9 -12h-127l8 12q3 5 6 12t3 15v478q0 8 -3 15t-6 12l-8 12h96
q12 -6 28.5 -25t34 -46t33 -59t24.5 -65q9 33 24.5 65t32.5 59t34 46t29 25h96q-5 -6 -9 -12q-3 -5 -5.5 -12t-2.5 -15v-610zM26 649q0 8 -3 15t-6 12l-8 12h232l26 -98q-6 3 -11 7q-5 3 -10.5 5.5t-11.5 2.5h-115v-137h94q8 0 13.5 6.5t7.5 8.5v-113q-2 3 -6 7q-8 8 -15 8
h-94v-302h412q11 0 22 7q5 4 11 8l-26 -98h-529l8 12q3 5 6 12t3 15v610z" />
    <glyph glyph-name="e_n" unicode="en" horiz-adv-x="650" 
d="M304 649q0 8 -3 15t-6 12l-8 12h96q11 -6 31 -27.5t41.5 -52t42 -66t32.5 -69.5v176q0 8 -3 15t-6 12l-8 12h127q-5 -6 -9 -12q-3 -5 -5.5 -12t-2.5 -15v-610q0 -8 2.5 -15t5.5 -12q4 -6 9 -12h-127l8 12q3 5 6 12t3 15v141q-2 41 -14 89t-31 95.5t-42 90t-46 72.5v-356
q0 -8 2.5 -15t5.5 -12q4 -6 9 -12h-127l8 12q3 5 6 12t3 15v478zM26 649q0 8 -3 15t-6 12l-8 12h232l26 -98q-6 3 -11 7q-5 3 -10.5 5.5t-11.5 2.5h-115v-137h94q8 0 13.5 6.5t7.5 8.5v-113q-2 3 -6 7q-8 8 -15 8h-94v-302h328q11 0 22 7q5 4 11 8l-26 -98h-445l8 12
q3 5 6 12t3 15v610z" />
    <glyph glyph-name="e_o" unicode="eo" horiz-adv-x="621" 
d="M467 688q41 0 67 -12.5t41 -34t20.5 -51.5t5.5 -65v-230q0 -35 -5.5 -65t-20.5 -52t-41 -34t-67 -12h-32q-41 0 -68 12t-42.5 34t-21.5 52t-6 65v230q0 35 6 65t21.5 51.5t42.5 34t68 12.5h32zM26 649q0 8 -3 15t-6 12l-8 12h232l26 -98q-6 3 -11 7q-5 3 -10.5 5.5
t-11.5 2.5h-115v-137h94q8 0 13.5 6.5t7.5 8.5v-113q-2 3 -6 7q-8 8 -15 8h-94v-302h456q11 0 22 7q5 4 11 8l-26 -98h-573l8 12q3 5 6 12t3 15v610zM510 523q0 38 -10.5 59.5t-48.5 21.5t-48.5 -21.5t-10.5 -59.5v-227q0 -19 2 -33.5t8.5 -25t18 -16t30.5 -5.5q37 0 48 21
t11 59v227z" />
    <glyph glyph-name="e_p" unicode="ep" horiz-adv-x="634" 
d="M26 649q0 8 -3 15t-6 12l-8 12h232l26 -98q-6 3 -11 7q-5 3 -10.5 5.5t-11.5 2.5h-115v-137h94q8 0 13.5 6.5t7.5 8.5v-113q-2 3 -6 7q-8 8 -15 8h-94v-302h468q11 0 22 7q5 4 11 8l-26 -98h-585l8 12q3 5 6 12t3 15v610zM305 649q0 8 -3 15t-6 12q-4 6 -9 12h241
q74 0 90.5 -41.5t-21.5 -121.5q-20 -41 -44.5 -83.5t-51 -84.5t-53.5 -83t-51 -78v-25q0 -8 2.5 -15t5.5 -12q4 -6 9 -12h-127q5 6 9 12q3 5 6 12t3 15v478zM397 605v-253l89 146q19 31 27 52t4 33t-20 17t-45 5h-55z" />
    <glyph glyph-name="e_q" unicode="eq" horiz-adv-x="627" 
d="M466 688q41 0 67 -12.5t41 -34t20.5 -51.5t5.5 -65v-230q0 -33 -5 -62t-18 -50.5t-35.5 -34.5t-58.5 -16q4 -36 17.5 -63.5t34.5 -27.5q-2 14 7.5 28t29.5 14q14 0 24.5 -10.5t10.5 -26.5q0 -8 -5 -18t-16.5 -16t-30 -6t-44.5 11q-29 12 -54 41.5t-36 73.5q-37 2 -61 15
t-38 35t-19.5 50.5t-5.5 62.5v230q0 35 6 65t21.5 51.5t42.5 34t68 12.5h31zM26 649q0 8 -3 15t-6 12l-8 12h232l26 -98q-6 3 -11 7q-5 3 -10.5 5.5t-11.5 2.5h-115v-137h94q8 0 13.5 6.5t7.5 8.5v-113q-2 3 -6 7q-8 8 -15 8h-94v-302h235q11 0 22 7q5 4 11 8l-26 -98h-352
l8 12q3 5 6 12t3 15v610zM509 523q0 38 -10.5 59.5t-48.5 21.5t-48.5 -21.5t-10.5 -59.5v-227q0 -19 2 -33.5t8.5 -25t18 -16t30.5 -5.5q38 0 48.5 21t10.5 59v227z" />
    <glyph glyph-name="e_r" unicode="er" horiz-adv-x="646" 
d="M304 649q0 8 -3 15t-6 12l-8 12h241q73 0 89.5 -41.5t-21.5 -121.5q-14 -29 -30.5 -59t-34.5 -60q17 -39 29.5 -86.5t22.5 -97t17 -97t13 -86.5q1 -8 5 -15t8 -12q4 -6 10 -12h-127q2 6 5 12q2 5 4 12t2 15q0 12 -2.5 43t-8.5 70.5t-15.5 81.5t-22.5 77
q-19 -30 -38 -58.5t-36 -55.5v-26q0 -8 2.5 -15t5.5 -12q4 -6 9 -12h-127l8 12q3 5 6 12t3 15v478zM26 649q0 8 -3 15t-6 12l-8 12h232l26 -98q-6 3 -11 7q-5 3 -10.5 5.5t-11.5 2.5h-115v-137h94q8 0 13.5 6.5t7.5 8.5v-113q-2 3 -6 7q-8 8 -15 8h-94v-302h316q11 0 22 7
q5 4 11 8l-26 -98h-433l8 12q3 5 6 12t3 15v610zM397 605v-249q20 31 42 67t46 75q19 31 27 52t4 33t-19.5 17t-44.5 5h-55z" />
    <glyph glyph-name="e_s" unicode="es" horiz-adv-x="598" 
d="M26 649q0 8 -3 15t-6 12l-8 12h232l26 -98q-6 3 -11 7q-5 3 -10.5 5.5t-11.5 2.5h-115v-137h94q8 0 13.5 6.5t7.5 8.5v-113q-2 3 -6 7q-8 8 -15 8h-94v-302h428q11 0 22 7q5 4 11 8l-26 -98h-545l8 12q3 5 6 12t3 15v610zM397 523q0 -18 13.5 -32t33 -28t43 -29t43 -34.5
t33 -45t13.5 -59.5q0 -35 -8 -65t-26 -52t-46.5 -34t-69.5 -12h-144l8 12q3 5 6 12t3 15v171q1 -9 5 -30t15 -42.5t31.5 -37.5t53.5 -16q40 0 55.5 19t15.5 61q0 18 -13.5 33.5t-33 30t-43 30.5t-43 35t-33 43.5t-13.5 56.5q0 34 7 64t24 52t45 34.5t69 12.5h143
q-5 -6 -9 -12q-3 -5 -5.5 -12t-2.5 -15v-172q-1 10 -5 31t-15.5 42.5t-31.5 37.5t-53 16q-31 0 -48 -20.5t-17 -60.5z" />
    <glyph glyph-name="e_u" unicode="eu" horiz-adv-x="638" 
d="M26 649q0 8 -3 15t-6 12l-8 12h232l26 -98q-6 3 -11 7q-5 3 -10.5 5.5t-11.5 2.5h-115v-137h94q8 0 13.5 6.5t7.5 8.5v-113q-2 3 -6 7q-8 8 -15 8h-94v-302h477q11 0 22 7q5 4 11 8l-26 -98h-594l8 12q3 5 6 12t3 15v610zM304 649q0 8 -3 15t-6 12q-4 6 -9 12h127
q-5 -6 -9 -12q-3 -5 -5.5 -12t-2.5 -15v-358q1 -49 14 -64.5t39 -15.5q28 0 46 7.5t25.5 31t3 65.5t-20.5 111q-17 68 -20 113t1.5 74.5t14.5 46.5t21 28h115q-20 -14 -34.5 -32t-21 -45.5t-3.5 -67.5t19 -98q39 -148 23.5 -230.5t-85.5 -82.5h-247q5 6 9 12q3 5 6 12t3 15
v478z" />
    <glyph glyph-name="e_v" unicode="ev" horiz-adv-x="640" 
d="M26 649q0 8 -3 15t-6 12l-8 12h232l26 -98q-6 3 -11 7q-5 3 -10.5 5.5t-11.5 2.5h-115v-137h94q8 0 13.5 6.5t7.5 8.5v-113q-2 3 -6 7q-8 8 -15 8h-94v-302h481q11 0 22 7q5 4 11 8l-26 -98h-598l8 12q3 5 6 12t3 15v610zM613 171q0 -8 2.5 -15t5.5 -12q4 -6 9 -12h-141
q-45 51 -79.5 106t-58 118t-35.5 135.5t-12 157.5q0 8 -3 15t-6 12l-8 12h127q-3 -6 -7 -12q-3 -5 -6 -12.5t-4 -14.5q-6 -34 -0.5 -86t21.5 -109.5t41.5 -113t60.5 -97.5v406q0 8 -3 15t-6 12l-8 12h127q-5 -6 -9 -12q-3 -5 -5.5 -12t-2.5 -15v-478z" />
    <glyph glyph-name="e_w" unicode="ew" horiz-adv-x="729" 
d="M624 132q-12 6 -29 23t-34.5 42t-33 55.5t-24.5 63.5q-9 -33 -24.5 -63.5t-32.5 -55.5t-34 -42t-29 -23h-96q5 6 9 12q3 5 6 12t3 15v478q0 8 -3 15t-6 12q-4 6 -9 12h127q-5 -6 -9 -12q-3 -5 -5.5 -12t-2.5 -15v-356q26 37 39 84.5t18 99.5t5 106v105h89
q0 -50 -0.5 -103.5t4.5 -106t18 -100.5t39 -85v356q0 8 -3 15t-6 12l-8 12h127q-5 -6 -9 -12q-3 -5 -5.5 -12t-2.5 -15v-478q0 -8 2.5 -15t5.5 -12q4 -6 9 -12h-95zM26 649q0 8 -3 15t-6 12l-8 12h232l26 -98q-6 3 -11 7q-5 3 -10.5 5.5t-11.5 2.5h-115v-137h94
q8 0 13.5 6.5t7.5 8.5v-113q-2 3 -6 7q-8 8 -15 8h-94v-302h564q11 0 22 7q5 4 11 8l-26 -98h-681l8 12q3 5 6 12t3 15v610z" />
    <glyph glyph-name="f_a" unicode="fa" horiz-adv-x="570" 
d="M546 39q0 -8 2.5 -15t5.5 -12q4 -6 9 -12h-127l8 12q3 5 6 12t3 15v116h-124q-3 -38 -2.5 -68t3.5 -48q1 -8 4 -15t6 -12q4 -6 7 -12h-127l8 12q3 5 6 12t3 15q0 141 18.5 248t41.5 179q13 40 25.5 70t22.5 52t16 36.5t6 24.5q0 8 -3 15t-6 12l-8 12h213q-5 -6 -9 -12
q-3 -5 -5.5 -12t-2.5 -15v-610zM27 649q0 8 -3 15t-6 12q-4 6 -9 12h275l26 -98q-5 3 -10 7q-5 3 -11 5.5t-11 2.5h-159v-137h95q4 0 7.5 2.5t6.5 5.5q4 4 7 8v-114l-7 7q-8 8 -14 8h-95v-346q0 -8 2.5 -15t5.5 -12q4 -6 9 -12h-127q5 6 9 12q3 5 6 12t3 15v610zM453 576
q-23 -28 -41 -67t-32.5 -84t-25 -93t-16.5 -94h115v338z" />
    <glyph glyph-name="f_b" unicode="fb" horiz-adv-x="639" 
d="M297 517q0 8 -3 15t-6 12l-8 12h241q73 0 90 -41.5t-21 -121.5q-18 -38 -39 -75q18 -39 34.5 -78t29.5 -77q25 -80 2.5 -121.5t-96.5 -41.5h-241l8 12q3 5 6 12t3 15v478zM27 649q0 8 -3 15t-6 12q-4 6 -9 12h598l26 -98q-5 3 -10 7q-5 3 -11 5.5t-11 2.5h-482v-137h95
q4 0 7.5 2.5t6.5 5.5q4 4 7 8v-114l-7 7q-8 8 -14 8h-95v-346q0 -8 2.5 -15t5.5 -12q4 -6 9 -12h-127q5 6 9 12q3 5 6 12t3 15v610zM390 473v-251q20 31 42.5 67.5t45.5 76.5q19 31 27.5 52t4.5 33t-20 17t-45 5h-55zM492 221q-23 -36 -45.5 -70.5t-44.5 -67.5h56
q29 0 45.5 5t22 17t0.5 32.5t-19 52.5z" />
    <glyph glyph-name="f_c" unicode="fc" horiz-adv-x="580" 
d="M27 649q0 8 -3 15t-6 12q-4 6 -9 12h546l26 -98q-5 3 -10 7q-5 3 -11 5.5t-11 2.5h-430v-137h95q4 0 7.5 2.5t6.5 5.5q4 4 7 8v-114l-7 7q-8 8 -14 8h-95v-346q0 -8 2.5 -15t5.5 -12q4 -6 9 -12h-127q5 6 9 12q3 5 6 12t3 15v610zM290 391q0 35 6 65.5t21 52.5t41.5 34.5
t67.5 12.5h119l26 -98q-5 3 -10 7q-5 3 -11 5.5t-11 2.5h-73q-46 0 -64.5 -21t-18.5 -61v-227q0 -39 18.5 -60t64.5 -21h73q11 0 22 7l10 8l-26 -98h-119q-41 0 -67.5 12.5t-41.5 34.5t-21 52.5t-6 65.5v226z" />
    <glyph glyph-name="f_d" unicode="fd" horiz-adv-x="599" 
d="M443 556q41 0 67.5 -12.5t41.5 -34t21 -51.5t6 -65v-230q0 -35 -6 -65t-21 -52t-41.5 -34t-67.5 -12h-163l8 12q3 5 6 12t3 15v478q0 8 -3 15t-6 12l-8 12h163zM27 649q0 8 -3 15t-6 12q-4 6 -9 12h565l26 -98q-5 3 -10 7q-5 3 -11 5.5t-11 2.5h-449v-137h95q4 0 7.5 2.5
t6.5 5.5q4 4 7 8v-114l-7 7q-8 8 -14 8h-95v-346q0 -8 2.5 -15t5.5 -12q4 -6 9 -12h-127q5 6 9 12q3 5 6 12t3 15v610zM486 391q0 20 -2.5 35t-9.5 25.5t-20 15.5t-34 5h-31v-388h31q43 0 54.5 20t11.5 60v227z" />
    <glyph glyph-name="f_e" unicode="fe" horiz-adv-x="547" 
d="M27 649q0 8 -3 15t-6 12q-4 6 -9 12h511l26 -98q-5 3 -10 7q-5 3 -11 5.5t-11 2.5h-395v-137h95q4 0 7.5 2.5t6.5 5.5q4 4 7 8v-114l-7 7q-8 8 -14 8h-95v-346q0 -8 2.5 -15t5.5 -12q4 -6 9 -12h-127q5 6 9 12q3 5 6 12t3 15v610zM279 0l8 12q3 5 6 12t3 15v478
q0 8 -3 15t-6 12l-8 12h232l26 -98q-6 3 -11 7q-5 3 -10.5 5.5t-11.5 2.5h-115v-137h94q8 0 13.5 6.5t7.5 8.5v-113q-2 3 -6 7q-3 3 -7 5.5t-8 2.5h-94v-170h115q11 0 22 7q5 4 11 8l-26 -98h-232z" />
    <glyph glyph-name="f_g" unicode="fg" horiz-adv-x="598" 
d="M27 649q0 8 -3 15t-6 12q-4 6 -9 12h560l26 -98q-5 3 -10 7q-5 3 -11 5.5t-11 2.5h-444v-137h95q4 0 7.5 2.5t6.5 5.5q4 4 7 8v-114l-7 7q-8 8 -14 8h-95v-346q0 -8 2.5 -15t5.5 -12q4 -6 9 -12h-127q5 6 9 12q3 5 6 12t3 15v610zM478 294q0 8 -3 15t-6 12l-8 12h127
q-5 -6 -9 -12q-3 -5 -5.5 -12t-2.5 -15v-255q0 -8 2.5 -15t5.5 -12q4 -6 9 -12h-162q-41 0 -67.5 12.5t-41.5 34.5t-21 52.5t-6 65.5v230q0 35 6 64.5t21 51t41.5 33.5t67.5 12h162q-5 -6 -9 -12q-3 -5 -5.5 -12t-2.5 -15v-172q-1 10 -5 31t-15.5 42.5t-31.5 37.5t-53 16
q-47 0 -65 -20.5t-18 -60.5v-227q0 -39 18 -59.5t65 -20.5h12v210z" />
    <glyph glyph-name="f_h" unicode="fh" horiz-adv-x="596" 
d="M476 517q0 8 -3 15t-6 12l-8 12h127q-5 -6 -9 -12q-4 -5 -6.5 -12t-2.5 -15v-478q0 -8 2.5 -15t6.5 -12q4 -6 9 -12h-127l8 12q3 5 6 12t3 15v214h-100v-214q0 -8 2.5 -15t5.5 -12q4 -6 9 -12h-127l8 12q3 5 6 12t3 15v478q0 8 -3 15t-6 12l-8 12h127q-5 -6 -9 -12
q-3 -5 -5.5 -12t-2.5 -15v-181h100v181zM27 649q0 8 -3 15t-6 12q-4 6 -9 12h557l26 -98q-5 3 -10 7q-5 3 -11 5.5t-11 2.5h-441v-137h95q4 0 7.5 2.5t6.5 5.5q4 4 7 8v-114l-7 7q-8 8 -14 8h-95v-346q0 -8 2.5 -15t5.5 -12q4 -6 9 -12h-127q5 6 9 12q3 5 6 12t3 15v610z
" />
    <glyph glyph-name="f_j" unicode="fj" horiz-adv-x="454" 
d="M27 649q0 8 -3 15t-6 12q-4 6 -9 12h411l26 -98q-5 3 -10 7q-5 3 -11 5.5t-11 2.5h-295l-1 -137h96q4 0 7.5 2.5t6.5 5.5q4 4 7 8v-114l-7 7q-8 8 -14 8h-96v-214q0 -8 2.5 -15t5.5 -12q4 -6 9 -12h-127q5 6 9 12q3 5 6 12t3 15zM2 97l10 -8q10 -7 22 -7h211
q48 0 67 21.5t19 60.5v353q0 8 -3 15t-6 12l-8 12h127q-5 -6 -9 -12q-3 -5 -5.5 -12t-2.5 -15v-352q0 -35 -5.5 -65.5t-20.5 -52.5t-42 -34.5t-69 -12.5h-259z" />
    <glyph glyph-name="f_k" unicode="fk" horiz-adv-x="638" 
d="M503 517q1 7 0.5 14.5t-1.5 12.5q-1 6 -3 12h127q-7 -6 -13 -12q-5 -5 -10 -12t-7 -15q-16 -48 -32 -89.5t-34 -81.5q22 -63 41.5 -139.5t33.5 -167.5q1 -8 5 -15t8 -12q4 -6 10 -12h-127l6 12q4 10 6 27q0 27 -9.5 77.5t-27.5 113.5q-20 -42 -41.5 -86.5t-44.5 -95.5v-9
q0 -8 2.5 -15t5.5 -12q4 -6 9 -12h-127l8 12q3 5 6 12t3 15v478q0 8 -3 15t-6 12l-8 12h127q-5 -6 -9 -12q-3 -5 -5.5 -12t-2.5 -15v-288q19 43 38 86.5t35 82.5t26.5 70t13.5 49zM27 649q0 8 -3 15t-6 12q-4 6 -9 12h601l26 -98q-5 3 -10 7q-5 3 -11 5.5t-11 2.5h-485v-137
h95q4 0 7.5 2.5t6.5 5.5q4 4 7 8v-114l-7 7q-8 8 -14 8h-95v-346q0 -8 2.5 -15t5.5 -12q4 -6 9 -12h-127q5 6 9 12q3 5 6 12t3 15v610z" />
    <glyph glyph-name="f_m" unicode="fm" horiz-adv-x="722" 
d="M695 39q0 -8 2.5 -15t5.5 -12q4 -6 9 -12h-127l8 12q3 5 6 12t3 15v356q-18 -26 -30 -61t-19 -82t-10 -109t-3 -143h-88q0 81 -3 142.5t-10.5 109t-19 82t-29.5 60.5v-355q0 -8 2.5 -15t5.5 -12q4 -6 9 -12h-127l8 12q3 5 6 12t3 15v478q0 8 -3 15t-6 12l-8 12h96
q12 -6 28.5 -25t34 -46t33 -59t24.5 -65q9 33 24.5 65t32.5 59t34 46t29 25h96q-5 -6 -9 -12q-3 -5 -5.5 -12t-2.5 -15v-478zM27 649q0 8 -3 15t-6 12q-4 6 -9 12h682l26 -98q-5 3 -10 7q-5 3 -11 5.5t-11 2.5h-566v-137h95q4 0 7.5 2.5t6.5 5.5q4 4 7 8v-114l-7 7
q-8 8 -14 8h-95v-346q0 -8 2.5 -15t5.5 -12q4 -6 9 -12h-127q5 6 9 12q3 5 6 12t3 15v610z" />
    <glyph glyph-name="f_n" unicode="fn" horiz-adv-x="643" 
d="M297 517q0 8 -3 15t-6 12l-8 12h96q11 -6 31 -27.5t41.5 -52t42 -66t32.5 -69.5v176q0 8 -3 15t-6 12l-8 12h127q-5 -6 -9 -12q-3 -5 -5.5 -12t-2.5 -15v-478q0 -8 2.5 -15t5.5 -12q4 -6 9 -12h-127l8 12q3 5 6 12t3 15q0 41 -12 90.5t-31 98t-43 92.5t-47 75v-356
q0 -8 2.5 -15t5.5 -12q4 -6 9 -12h-127l8 12q3 5 6 12t3 15v478zM27 649q0 8 -3 15t-6 12q-4 6 -9 12h605l26 -98q-5 3 -10 7q-5 3 -11 5.5t-11 2.5h-489v-137h95q4 0 7.5 2.5t6.5 5.5q4 4 7 8v-114l-7 7q-8 8 -14 8h-95v-346q0 -8 2.5 -15t5.5 -12q4 -6 9 -12h-127
q5 6 9 12q3 5 6 12t3 15v610z" />
    <glyph glyph-name="f_o" unicode="fo" horiz-adv-x="614" 
d="M460 556q41 0 67 -12.5t41 -34t20.5 -51.5t5.5 -65v-230q0 -35 -5.5 -65t-20.5 -52t-41 -34t-67 -12h-32q-41 0 -68 12t-42.5 34t-21.5 52t-6 65v230q0 35 6 65t21.5 51.5t42.5 34t68 12.5h32zM27 649q0 8 -3 15t-6 12q-4 6 -9 12h574l26 -98q-5 3 -10 7q-5 3 -11 5.5
t-11 2.5h-458v-137h95q4 0 7.5 2.5t6.5 5.5q4 4 7 8v-114l-7 7q-8 8 -14 8h-95v-346q0 -8 2.5 -15t5.5 -12q4 -6 9 -12h-127q5 6 9 12q3 5 6 12t3 15v610zM503 391q0 38 -10.5 59.5t-48.5 21.5t-48.5 -21.5t-10.5 -59.5v-227q0 -19 2 -33.5t8.5 -25t18 -16t30.5 -5.5
q37 0 48 21t11 59v227z" />
    <glyph glyph-name="f_p" unicode="fp" horiz-adv-x="627" 
d="M298 517q0 8 -3 15t-6 12q-4 6 -9 12h241q74 0 90.5 -41.5t-21.5 -121.5q-20 -41 -44.5 -83.5t-51 -84.5t-53.5 -83t-51 -78v-25q0 -8 2.5 -15t5.5 -12q4 -6 9 -12h-127q5 6 9 12q3 5 6 12t3 15v478zM27 649q0 8 -3 15t-6 12q-4 6 -9 12h584l26 -98q-5 3 -10 7
q-5 3 -11 5.5t-11 2.5h-468v-137h95q4 0 7.5 2.5t6.5 5.5q4 4 7 8v-114l-7 7q-8 8 -14 8h-95v-346q0 -8 2.5 -15t5.5 -12q4 -6 9 -12h-127q5 6 9 12q3 5 6 12t3 15v610zM390 473v-253l89 146q19 31 27 52t4 33t-20 17t-45 5h-55z" />
    <glyph glyph-name="f_q" unicode="fq" horiz-adv-x="620" 
d="M459 556q41 0 67 -12.5t41 -34t20.5 -51.5t5.5 -65v-230q0 -33 -5 -62t-18 -50.5t-35.5 -34.5t-58.5 -16q2 -18 6.5 -34t11 -29t15 -20.5t19.5 -7.5q-2 14 7.5 28t29.5 14q14 0 24.5 -10.5t10.5 -26.5q0 -8 -5 -18t-16.5 -16t-30 -6t-44.5 11q-29 12 -54 42t-36 73
q-37 2 -61 15t-38 35t-19.5 50.5t-5.5 62.5v230q0 35 6 65t21.5 51.5t42.5 34t68 12.5h31zM27 649q0 8 -3 15t-6 12q-4 6 -9 12h581l26 -98q-5 3 -10 7q-5 3 -11 5.5t-11 2.5h-465v-137h95q4 0 7.5 2.5t6.5 5.5q4 4 7 8v-114l-7 7q-8 8 -14 8h-95v-346q0 -8 2.5 -15t5.5 -12
q4 -6 9 -12h-127q5 6 9 12q3 5 6 12t3 15v610zM502 391q0 38 -10.5 59.5t-48.5 21.5t-48.5 -21.5t-10.5 -59.5v-227q0 -19 2 -33.5t8.5 -25t18 -16t30.5 -5.5q38 0 48.5 21t10.5 59v227z" />
    <glyph glyph-name="f_r" unicode="fr" horiz-adv-x="639" 
d="M297 517q0 8 -3 15t-6 12l-8 12h241q73 0 89.5 -41.5t-21.5 -121.5q-21 -44 -45 -86q19 -57 34.5 -123.5t27.5 -144.5q1 -8 5 -15t8 -12q4 -6 10 -12h-127q2 6 5 12q2 5 4 12t2 15q1 25 -7 69.5t-23 99.5l-93 -143v-26q0 -8 2.5 -15t5.5 -12q4 -6 9 -12h-127l8 12
q3 5 6 12t3 15v478zM27 649q0 8 -3 15t-6 12q-4 6 -9 12h600l26 -98q-5 3 -10 7q-5 3 -11 5.5t-11 2.5h-484v-137h95q4 0 7.5 2.5t6.5 5.5q4 4 7 8v-114l-7 7q-8 8 -14 8h-95v-346q0 -8 2.5 -15t5.5 -12q4 -6 9 -12h-127q5 6 9 12q3 5 6 12t3 15v610zM390 473v-249
q20 31 42 67t46 75q19 31 27 52t4 33t-19.5 17t-44.5 5h-55z" />
    <glyph glyph-name="f_s" unicode="fs" horiz-adv-x="576" 
d="M27 649q0 8 -3 15t-6 12q-4 6 -9 12h534l26 -98q-5 3 -10 7q-5 3 -11 5.5t-11 2.5h-418v-137h95q4 0 7.5 2.5t6.5 5.5q4 4 7 8v-114l-7 7q-8 8 -14 8h-95v-346q0 -8 2.5 -15t5.5 -12q4 -6 9 -12h-127q5 6 9 12q3 5 6 12t3 15v610zM377 391q0 -18 13.5 -32t33 -28t43 -29
t43 -34.5t33 -45t13.5 -59.5q0 -35 -8 -65t-26 -52t-46.5 -34t-69.5 -12h-144l8 12q3 5 6 12t3 15v171q1 -9 5 -30t15 -42.5t31.5 -37.5t53.5 -16q40 0 55.5 19t15.5 61q0 18 -13.5 33.5t-33 30t-43 30.5t-43 35t-33 43.5t-13.5 56.5q0 34 7 64t24 52t45 34.5t69 12.5h143
q-5 -6 -9 -12q-3 -5 -5.5 -12t-2.5 -15v-175q0 7 -3.5 28t-14.5 43.5t-32 40.5t-55 18q-31 0 -48 -20.5t-17 -60.5z" />
    <glyph glyph-name="f_u" unicode="fu" horiz-adv-x="631" 
d="M297 517q0 8 -3 15t-6 12q-4 6 -9 12h127q-5 -6 -9 -12q-3 -5 -5.5 -12t-2.5 -15v-347q0 -28 3 -45.5t9.5 -27.5t16.5 -14t24 -4q56 0 71.5 63.5t-17.5 201.5q-17 68 -20 126t1.5 102.5t14.5 74.5t21 41h115q-20 -14 -34.5 -44.5t-21 -73.5t-3.5 -96t19 -111
q19 -74 25 -140t-1.5 -115.5t-29 -78.5t-56.5 -29h-247q5 6 9 12q3 5 6 12t3 15v478zM27 649q0 8 -3 15t-6 12q-4 6 -9 12h406l26 -98q-5 3 -10 7q-5 3 -11 5.5t-11 2.5h-290v-137h95q4 0 7.5 2.5t6.5 5.5q4 4 7 8v-114l-7 7q-8 8 -14 8h-95v-346q0 -8 2.5 -15t5.5 -12
q4 -6 9 -12h-127q5 6 9 12q3 5 6 12t3 15v610z" />
    <glyph glyph-name="f_v" unicode="fv" horiz-adv-x="633" 
d="M297 517q0 8 -3 15t-6 12l-8 12h127q-5 -6 -9 -12q-3 -5 -5.5 -12t-2.5 -15v-406q25 31 45.5 76.5t35 97.5t24.5 107t15.5 104.5t6 89.5t-3.5 63q-3 16 -10 27q-4 6 -7 12h127q-5 -6 -9 -12q-3 -5 -5.5 -12t-2.5 -15q0 -244 -47 -385q-17 -51 -33.5 -88.5t-33 -68
t-34 -56t-37.5 -51.5h-141l8 12q3 5 6 12t3 15v478zM27 649q0 8 -3 15t-6 12q-4 6 -9 12h425l26 -98q-5 3 -10 7q-5 3 -11 5.5t-11 2.5h-309v-137h95q4 0 7.5 2.5t6.5 5.5q4 4 7 8v-114l-7 7q-8 8 -14 8h-95v-346q0 -8 2.5 -15t5.5 -12q4 -6 9 -12h-127q5 6 9 12q3 5 6 12
t3 15v610z" />
    <glyph glyph-name="f_w" unicode="fw" horiz-adv-x="722" 
d="M617 0q-12 6 -29 24.5t-34.5 45.5t-33 59.5t-24.5 65.5q-9 -33 -24.5 -65.5t-32.5 -59.5t-34 -45.5t-29 -24.5h-96q5 6 9 12q3 5 6 12t3 15v478q0 8 -3 15t-6 12q-4 6 -9 12h127q-5 -6 -9 -12q-3 -5 -5.5 -12t-2.5 -15v-356q26 37 39 89t18 118t5 146v174h89
q0 -93 -0.5 -173t4.5 -146t18 -118t39 -90v488q0 8 -3 15t-6 12l-8 12h127q-5 -6 -9 -12q-3 -5 -5.5 -12t-2.5 -15v-610q0 -8 2.5 -15t5.5 -12q4 -6 9 -12h-95zM27 649q0 8 -3 15t-6 12q-4 6 -9 12h376l26 -98q-5 3 -10 7q-5 3 -11 5.5t-11 2.5h-260v-137h95q4 0 7.5 2.5
t6.5 5.5q4 4 7 8v-114l-7 7q-8 8 -14 8h-95v-346q0 -8 2.5 -15t5.5 -12q4 -6 9 -12h-127q5 6 9 12q3 5 6 12t3 15v610z" />
    <glyph glyph-name="t_x" unicode="tx" horiz-adv-x="654" 
d="M650 590q-5 3 -10 7q-5 3 -11 5.5t-11 2.5h-418v-566q0 -8 2.5 -15t5.5 -12q4 -6 9 -12h-127l8 12q3 5 6 12t3 15v566h-78q-6 0 -11 -2.5t-10 -5.5q-5 -4 -10 -7l25 98h601zM412 40q0 -16 5 -28q2 -7 5 -12h-137l14 12q5 5 10.5 12t7.5 15q14 66 33 124t45 115
q-26 57 -45 114.5t-33 124.5q-2 8 -7.5 15t-10.5 12l-14 12h137q-3 -7 -5 -13q-5 -13 -5 -27q0 -28 13.5 -77.5t39.5 -109.5q25 60 38.5 109.5t13.5 77.5q0 8 -1.5 14.5t-3.5 12.5q-3 6 -5 13h134q-9 -6 -15 -12q-14 -12 -17 -27q-13 -67 -31.5 -124.5t-44.5 -114.5
q26 -57 44.5 -115t31.5 -124q3 -15 17 -27q6 -6 15 -12h-134q2 5 5 12q2 5 3.5 12.5t1.5 15.5q0 28 -13.5 77.5t-38.5 109.5q-26 -60 -39.5 -109.5t-13.5 -77.5z" />
    <glyph glyph-name="t_y" unicode="ty" horiz-adv-x="627" 
d="M625 590q-5 3 -10 7q-5 3 -11 5.5t-11 2.5h-393v-566q0 -8 2.5 -15t5.5 -12q4 -6 9 -12h-127l8 12q3 5 6 12t3 15v566h-78q-6 0 -11 -2.5t-10 -5.5q-5 -4 -10 -7l25 98h576zM404 216q-35 71 -59.5 146t-40.5 155q-2 8 -7.5 15t-10.5 12l-14 12h137q-3 -7 -5 -13
q-5 -13 -5 -27t3.5 -36t10 -49.5t16.5 -58t23 -60.5q12 30 22 60.5t16.5 58t10 49.5t3.5 36q0 8 -2 14.5t-4 12.5q-3 6 -5 13h135q-9 -6 -15 -12q-14 -12 -17 -27q-16 -81 -40.5 -158t-59.5 -149v-171q0 -8 2.5 -15t5.5 -12q4 -6 9 -12h-127q5 6 9 12q3 5 6 12t3 15v177z
" />
    <glyph glyph-name="t_z" unicode="tz" horiz-adv-x="621" 
d="M620 590q-5 3 -10 7q-5 3 -11 5.5t-11 2.5h-388v-566q0 -8 2.5 -15t5.5 -12q4 -6 9 -12h-127l8 12q3 5 6 12t3 15v566h-78q-6 0 -11 -2.5t-10 -5.5q-5 -4 -10 -7l25 98h571zM283 0q7 6 12 12q5 5 9.5 12t6.5 15l162 434h-115q-6 0 -11.5 -2.5t-10.5 -5.5q-5 -4 -10 -7
l26 98h259q-7 -6 -12 -12q-5 -5 -9.5 -12t-6.5 -15l-163 -434h135q11 0 22 7l10 8l-26 -98h-278z" />
    <glyph glyph-name="x_t" unicode="xt" horiz-adv-x="654" 
d="M660 590q-5 3 -10 7q-5 3 -11 5.5t-11 2.5h-78v-566q0 -8 2.5 -15t5.5 -12q4 -6 9 -12h-127l8 12q3 5 6 12t3 15v566h-424q-6 0 -11 -2.5t-10 -5.5q-5 -4 -10 -7l25 98h607zM140 40q0 -16 5 -28q2 -7 5 -12h-137l14 12q5 5 10.5 12t7.5 15q14 66 33 124t45 115
q-26 57 -45 114.5t-33 124.5q-2 8 -7.5 15t-10.5 12l-14 12h137q-3 -7 -5 -13q-5 -13 -5 -27q0 -28 13.5 -77.5t39.5 -109.5q25 60 38.5 109.5t13.5 77.5q0 8 -1.5 14.5t-3.5 12.5q-3 6 -5 13h134q-9 -6 -15 -12q-14 -12 -17 -27q-13 -67 -31.5 -124.5t-44.5 -114.5
q26 -57 44.5 -115t31.5 -124q3 -15 17 -27q6 -6 15 -12h-134q2 5 5 12q2 5 3.5 12.5t1.5 15.5q0 28 -13.5 77.5t-38.5 109.5q-26 -60 -39.5 -109.5t-13.5 -77.5z" />
    <glyph glyph-name="y_t" unicode="yt" horiz-adv-x="627" 
d="M629 590q-5 3 -10 7q-5 3 -11 5.5t-11 2.5h-78v-566q0 -8 2.5 -15t5.5 -12q4 -6 9 -12h-127l8 12q3 5 6 12t3 15v566h-393q-6 0 -11 -2.5t-10 -5.5q-5 -4 -10 -7l25 98h576zM132 216q-35 71 -59.5 146t-40.5 155q-2 8 -7.5 15t-10.5 12l-14 12h137q-3 -7 -5 -13
q-5 -13 -5 -27t3.5 -36t10 -49.5t16.5 -58t23 -60.5q12 30 22 60.5t16.5 58t10 49.5t3.5 36q0 8 -2 14.5t-4 12.5q-3 6 -5 13h135q-9 -6 -15 -12q-14 -12 -17 -27q-16 -81 -40.5 -158t-59.5 -149v-171q0 -8 2.5 -15t5.5 -12q4 -6 9 -12h-127q5 6 9 12q3 5 6 12t3 15v177z
" />
    <glyph glyph-name="z_t" unicode="zt" horiz-adv-x="591" 
d="M600 590q-5 3 -10 7q-5 3 -11 5.5t-11 2.5h-78v-566q0 -8 2.5 -15t5.5 -12q4 -6 9 -12h-127l8 12q3 5 6 12t3 15v566h-364q-6 0 -11 -2.5t-10 -5.5q-5 -4 -10 -7l25 98h547zM11 0q7 6 12 12q5 5 9.5 12t6.5 15l162 434h-115q-6 0 -11.5 -2.5t-10.5 -5.5q-5 -4 -10 -7
l26 98h259q-7 -6 -12 -12q-5 -5 -9.5 -12t-6.5 -15l-163 -434h135q11 0 22 7l10 8l-26 -98h-278z" />
    <glyph glyph-name="l_x" unicode="lx" horiz-adv-x="542" 
d="M305 172q0 -16 5 -28q2 -7 5 -12h-137l14 12q5 5 10.5 12t7.5 15q14 66 33 124t45 115q-26 57 -45 114.5t-33 124.5q-2 8 -7.5 15t-10.5 12l-14 12h137q-3 -7 -5 -13q-5 -13 -5 -27q0 -28 13.5 -77.5t39.5 -109.5q25 60 38.5 109.5t13.5 77.5q0 8 -1.5 14.5t-3.5 12.5
q-3 6 -5 13h134q-9 -6 -15 -12q-14 -12 -17 -27q-13 -67 -31.5 -124.5t-44.5 -114.5q26 -57 44.5 -115t31.5 -124q3 -15 17 -27q6 -6 15 -12h-134q2 5 5 12q2 5 3.5 12.5t1.5 15.5q0 28 -13.5 77.5t-38.5 109.5q-26 -60 -39.5 -109.5t-13.5 -77.5zM10 0l8 12q3 5 6 12t3 15
v610q0 8 -3 15t-6 12l-8 12h127q-5 -6 -9 -12q-3 -5 -5.5 -12t-2.5 -15v-566h368q11 0 22 7l10 8l-26 -98h-484z" />
    <glyph glyph-name="l_y" unicode="ly" horiz-adv-x="523" 
d="M10 0l8 12q3 5 6 12t3 15v610q0 8 -3 15t-6 12l-8 12h127q-5 -6 -9 -12q-3 -5 -5.5 -12t-2.5 -15v-566h332q11 0 22 7l10 8l-26 -98h-448zM309 348q-35 71 -59.5 146t-40.5 155q-2 8 -7.5 15t-10.5 12l-14 12h137q-3 -7 -5 -13q-5 -13 -5 -27t3.5 -36t10 -49.5t16.5 -58
t23 -60.5q12 30 22 60.5t16.5 58t10 49.5t3.5 36q0 8 -2 14.5t-4 12.5q-3 6 -5 13h135q-9 -6 -15 -12q-14 -12 -17 -27q-16 -81 -40.5 -158t-59.5 -149v-171q0 -8 2.5 -15t5.5 -12q4 -6 9 -12h-127q5 6 9 12q3 5 6 12t3 15v177z" />
    <glyph glyph-name="l_z" unicode="lz" horiz-adv-x="527" 
d="M10 0l8 12q3 5 6 12t3 15v610q0 8 -3 15t-6 12l-8 12h127q-5 -6 -9 -12q-3 -5 -5.5 -12t-2.5 -15v-566h368q11 0 22 7l10 8l-26 -98h-484zM210 132q7 6 12 12q5 5 9.5 12t6.5 15l162 434h-115q-6 0 -11.5 -2.5t-10.5 -5.5q-5 -4 -10 -7l26 98h259q-7 -6 -12 -12
q-5 -5 -9.5 -12t-6.5 -15l-163 -434h135q11 0 22 7l10 8l-26 -98h-278z" />
    <glyph glyph-name="e_x" unicode="ex" horiz-adv-x="659" 
d="M26 649q0 8 -3 15t-6 12l-8 12h232l26 -98q-6 3 -11 7q-5 3 -10.5 5.5t-11.5 2.5h-115v-137h94q8 0 13.5 6.5t7.5 8.5v-113q-2 3 -6 7q-8 8 -15 8h-94v-302h493q11 0 22 7q5 4 11 8l-26 -98h-610l8 12q3 5 6 12t3 15v610zM417 172q0 -16 5 -28q2 -7 5 -12h-137l14 12
q5 5 10.5 12t7.5 15q14 66 33 124t45 115q-26 57 -45 114.5t-33 124.5q-2 8 -7.5 15t-10.5 12l-14 12h137q-3 -7 -5 -13q-5 -13 -5 -27q0 -28 13.5 -77.5t39.5 -109.5q25 60 38.5 109.5t13.5 77.5q0 8 -1.5 14.5t-3.5 12.5q-3 6 -5 13h134q-9 -6 -15 -12q-14 -12 -17 -27
q-13 -67 -31.5 -124.5t-44.5 -114.5q26 -57 44.5 -115t31.5 -124q3 -15 17 -27q6 -6 15 -12h-134q2 5 5 12q2 5 3.5 12.5t1.5 15.5q0 28 -13.5 77.5t-38.5 109.5q-26 -60 -39.5 -109.5t-13.5 -77.5z" />
    <glyph glyph-name="e_y" unicode="ey" horiz-adv-x="632" 
d="M26 649q0 8 -3 15t-6 12l-8 12h232l26 -98q-6 3 -11 7q-5 3 -10.5 5.5t-11.5 2.5h-115v-137h94q8 0 13.5 6.5t7.5 8.5v-113q-2 3 -6 7q-8 8 -15 8h-94v-302h463q11 0 22 7q5 4 11 8l-26 -98h-580l8 12q3 5 6 12t3 15v610zM409 348q-35 71 -59.5 146t-40.5 155
q-2 8 -7.5 15t-10.5 12l-14 12h137q-3 -7 -5 -13q-5 -13 -5 -27t3.5 -36t10 -49.5t16.5 -58t23 -60.5q12 30 22 60.5t16.5 58t10 49.5t3.5 36q0 8 -2 14.5t-4 12.5q-3 6 -5 13h135q-9 -6 -15 -12q-14 -12 -17 -27q-16 -81 -40.5 -158t-59.5 -149v-171q0 -8 2.5 -15t5.5 -12
q4 -6 9 -12h-127q5 6 9 12q3 5 6 12t3 15v177z" />
    <glyph glyph-name="e_z" unicode="ez" horiz-adv-x="602" 
d="M26 649q0 8 -3 15t-6 12l-8 12h232l26 -98q-6 3 -11 7q-5 3 -10.5 5.5t-11.5 2.5h-115v-137h94q8 0 13.5 6.5t7.5 8.5v-113q-2 3 -6 7q-8 8 -15 8h-94v-302h443q11 0 22 7q5 4 11 8l-26 -98h-560l8 12q3 5 6 12t3 15v610zM269 132q7 6 12 12q5 5 9.5 12t6.5 15l162 434
h-115q-6 0 -11.5 -2.5t-10.5 -5.5q-5 -4 -10 -7l26 98h259q-7 -6 -12 -12q-5 -5 -9.5 -12t-6.5 -15l-163 -434h135q11 0 22 7l10 8l-26 -98h-278z" />
    <glyph glyph-name="f_x" unicode="fx" horiz-adv-x="651" 
d="M26 649q0 8 -3 15t-6 12l-8 12h232l26 -98q-6 3 -11 7q-5 3 -10.5 5.5t-11.5 2.5h-115v-137h94q8 0 13.5 6.5t7.5 8.5v-113q-2 3 -6 7q-8 8 -15 8h-94v-302h493q11 0 22 7q5 4 11 8l-26 -98h-610l8 12q3 5 6 12t3 15v610zM403 172q0 -16 5 -28q2 -7 5 -12h-137l14 12
q5 5 10.5 12t7.5 15q14 66 33 124t45 115q-26 57 -45 114.5t-33 124.5q-2 8 -7.5 15t-10.5 12l-14 12h137q-3 -7 -5 -13q-5 -13 -5 -27q0 -28 13.5 -77.5t39.5 -109.5q25 60 38.5 109.5t13.5 77.5q0 8 -1.5 14.5t-3.5 12.5q-3 6 -5 13h134q-9 -6 -15 -12q-14 -12 -17 -27
q-13 -67 -31.5 -124.5t-44.5 -114.5q26 -57 44.5 -115t31.5 -124q3 -15 17 -27q6 -6 15 -12h-134q2 5 5 12q2 5 3.5 12.5t1.5 15.5q0 28 -13.5 77.5t-38.5 109.5q-26 -60 -39.5 -109.5t-13.5 -77.5z" />
    <glyph glyph-name="f_y" unicode="fy" horiz-adv-x="633" 
d="M26 649q0 8 -3 15t-6 12l-8 12h232l26 -98q-6 3 -11 7q-5 3 -10.5 5.5t-11.5 2.5h-115v-137h94q8 0 13.5 6.5t7.5 8.5v-113q-2 3 -6 7q-8 8 -15 8h-94v-302h481q11 0 22 7q5 4 11 8l-26 -98h-598l8 12q3 5 6 12t3 15v610zM410 348q-35 71 -59.5 146t-40.5 155
q-2 8 -7.5 15t-10.5 12l-14 12h137q-3 -7 -5 -13q-5 -13 -5 -27t3.5 -36t10 -49.5t16.5 -58t23 -60.5q12 30 22 60.5t16.5 58t10 49.5t3.5 36q0 8 -2 14.5t-4 12.5q-3 6 -5 13h135q-9 -6 -15 -12q-14 -12 -17 -27q-16 -81 -40.5 -158t-59.5 -149v-171q0 -8 2.5 -15t5.5 -12
q4 -6 9 -12h-127q5 6 9 12q3 5 6 12t3 15v177z" />
    <glyph glyph-name="f_z" unicode="fz" horiz-adv-x="580" 
d="M26 649q0 8 -3 15t-6 12l-8 12h232l26 -98q-6 3 -11 7q-5 3 -10.5 5.5t-11.5 2.5h-115v-137h94q8 0 13.5 6.5t7.5 8.5v-113q-2 3 -6 7q-8 8 -15 8h-94v-302h427q11 0 22 7q5 4 11 8l-26 -98h-544l8 12q3 5 6 12t3 15v610zM259 132q7 6 12 12q5 5 9.5 12t6.5 15l162 434
h-115q-6 0 -11.5 -2.5t-10.5 -5.5q-5 -4 -10 -7l26 98h259q-7 -6 -12 -12q-5 -5 -9.5 -12t-6.5 -15l-163 -434h135q11 0 22 7l10 8l-26 -98h-278z" />
    <glyph glyph-name="c_a" unicode="ca" horiz-adv-x="673" 
d="M337 649q0 8 -3 15t-6 12l-8 12h213q-5 -6 -9 -12q-3 -5 -5.5 -12t-2.5 -15q0 -10 6 -24.5t16 -36.5t22.5 -52t25.5 -70q23 -72 41.5 -179t18.5 -248q0 -8 2.5 -15t5.5 -12q4 -6 9 -12h-127q3 6 7 12q7 12 10 27q5 29 2.5 87t-13.5 127h-112v-82q0 -8 2.5 -15t5.5 -12
q4 -6 9 -12h-127l8 12q3 5 6 12t3 15v478zM20 523q0 35 6 65.5t21 52.5t41.5 34.5t67.5 12.5h119l26 -98q-5 3 -10 7q-5 3 -11 5.5t-11 2.5h-73q-46 0 -64.5 -21t-18.5 -61v-359q0 -39 18.5 -60t64.5 -21h275q11 0 22 7l10 8l-26 -98h-321q-41 0 -67.5 12.5t-41.5 34.5
t-21 52.5t-6 65.5v358zM527 336q-16 71 -40 135t-57 105v-240h97z" />
    <glyph glyph-name="c_b" unicode="cb" horiz-adv-x="679" 
d="M337 649q0 8 -3 15t-6 12l-8 12h241q73 0 90 -41.5t-21 -121.5q-18 -38 -39 -75q18 -39 34.5 -78t29.5 -77q25 -80 2.5 -121.5t-96.5 -41.5h-241l8 12q3 5 6 12t3 15v478zM20 523q0 35 6 65.5t21 52.5t41.5 34.5t67.5 12.5h119l26 -98q-5 3 -10 7q-5 3 -11 5.5t-11 2.5
h-73q-46 0 -64.5 -21t-18.5 -61v-359q0 -39 18.5 -60t64.5 -21h443q11 0 22 7l10 8l-26 -98h-489q-41 0 -67.5 12.5t-41.5 34.5t-21 52.5t-6 65.5v358zM430 605v-251q20 31 42.5 67.5t45.5 76.5q19 31 27.5 52t4.5 33t-20 17t-45 5h-55zM532 353q-23 -36 -45.5 -70.5
t-44.5 -67.5h56q29 0 45.5 5t22 17t0.5 32.5t-19 52.5z" />
    <glyph glyph-name="c_c" unicode="cc" horiz-adv-x="559" 
d="M293 523q0 35 6 65.5t21 52.5t41.5 34.5t67.5 12.5h89l26 -98q-5 3 -10 7q-5 3 -11 5.5t-11 2.5h-43q-46 0 -64.5 -21t-18.5 -61v-227q0 -39 18.5 -60t64.5 -21h51q11 0 22 7l10 8l-26 -98h-97q-41 0 -67.5 12.5t-41.5 34.5t-21 52.5t-6 65.5v226zM20 523q0 35 6 65.5
t21 52.5t41.5 34.5t67.5 12.5h82l26 -98q-5 3 -10 7q-5 3 -11 5.5t-11 2.5h-36q-46 0 -64.5 -21t-18.5 -61v-359q0 -39 18.5 -60t64.5 -21h318q11 0 22 7l10 8l-26 -98h-364q-41 0 -67.5 12.5t-41.5 34.5t-21 52.5t-6 65.5v358z" />
    <glyph glyph-name="c_d" unicode="cd" horiz-adv-x="639" 
d="M483 688q41 0 67.5 -12.5t41.5 -34t21 -51.5t6 -65v-230q0 -35 -6 -65t-21 -52t-41.5 -34t-67.5 -12h-163l8 12q3 5 6 12t3 15v478q0 8 -3 15t-6 12l-8 12h163zM20 523q0 35 6 65.5t21 52.5t41.5 34.5t67.5 12.5h119l26 -98q-5 3 -10 7q-5 3 -11 5.5t-11 2.5h-73
q-46 0 -64.5 -21t-18.5 -61v-359q0 -39 18.5 -60t64.5 -21h397q11 0 22 7l10 8l-26 -98h-443q-41 0 -67.5 12.5t-41.5 34.5t-21 52.5t-6 65.5v358zM526 523q0 20 -2.5 35t-9.5 25.5t-20 15.5t-34 5h-31v-388h31q43 0 54.5 20t11.5 60v227z" />
    <glyph glyph-name="c_e" unicode="ce" horiz-adv-x="587" 
d="M20 523q0 35 6 65.5t21 52.5t41.5 34.5t67.5 12.5h119l26 -98q-5 3 -10 7q-5 3 -11 5.5t-11 2.5h-73q-46 0 -64.5 -21t-18.5 -61v-359q0 -39 18.5 -60t64.5 -21h354q11 0 22 7l10 8l-26 -98h-400q-41 0 -67.5 12.5t-41.5 34.5t-21 52.5t-6 65.5v358zM336 649q0 8 -3 15
t-6 12l-8 12h232l26 -98q-6 3 -11 7q-5 3 -10.5 5.5t-11.5 2.5h-115v-137h94q8 0 13.5 6.5t7.5 8.5v-113q-2 3 -6 7q-3 3 -7 5.5t-8 2.5h-94v-170h123q11 0 22 7q5 4 11 8l-26 -98h-240l8 12q3 5 6 12t3 15v478z" />
    <glyph glyph-name="c_f" unicode="cf" horiz-adv-x="588" 
d="M20 523q0 35 6 65.5t21 52.5t41.5 34.5t67.5 12.5h119l26 -98q-5 3 -10 7q-5 3 -11 5.5t-11 2.5h-73q-46 0 -64.5 -21t-18.5 -61v-359q0 -39 18.5 -60t64.5 -21h358q11 0 22 7l10 8l-26 -98h-404q-41 0 -67.5 12.5t-41.5 34.5t-21 52.5t-6 65.5v358zM337 649q0 8 -3 15
t-6 12q-4 6 -9 12h232l26 -98q-5 3 -10 7q-5 3 -11 5.5t-11 2.5h-116v-137h95q4 0 7.5 2.5t6.5 5.5q4 4 7 8v-114l-7 7q-3 3 -6.5 5.5t-7.5 2.5h-95v-214q0 -8 2.5 -15t5.5 -12q4 -6 9 -12h-127q5 6 9 12q3 5 6 12t3 15v478z" />
    <glyph glyph-name="c_g" unicode="cg" horiz-adv-x="638" 
d="M20 523q0 35 6 65.5t21 52.5t41.5 34.5t67.5 12.5h119l26 -98q-5 3 -10 7q-5 3 -11 5.5t-11 2.5h-73q-46 0 -64.5 -21t-18.5 -61v-359q0 -39 18.5 -60t64.5 -21h407q11 0 22 7l10 8l-26 -98h-453q-41 0 -67.5 12.5t-41.5 34.5t-21 52.5t-6 65.5v358zM518 426q0 8 -3 15
t-6 12l-8 12h127q-5 -6 -9 -12q-3 -5 -5.5 -12t-2.5 -15v-255q0 -8 2.5 -15t5.5 -12q4 -6 9 -12h-162q-41 0 -67.5 12.5t-41.5 34.5t-21 52.5t-6 65.5v230q0 35 6 64.5t21 51t41.5 33.5t67.5 12h162q-5 -6 -9 -12q-3 -5 -5.5 -12t-2.5 -15v-175q0 7 -3.5 28t-14.5 43.5
t-31.5 40.5t-55.5 18q-47 0 -65 -20.5t-18 -60.5v-227q0 -39 18 -59.5t65 -20.5h12v210z" />
    <glyph glyph-name="c_h" unicode="ch" horiz-adv-x="650" 
d="M20 523q0 35 6 65.5t21 52.5t41.5 34.5t67.5 12.5h119l26 -98q-5 3 -10 7q-5 3 -11 5.5t-11 2.5h-73q-46 0 -64.5 -21t-18.5 -61v-359q0 -39 18.5 -60t64.5 -21h275q11 0 22 7l10 8l-26 -98h-321q-41 0 -67.5 12.5t-41.5 34.5t-21 52.5t-6 65.5v358zM530 649q0 8 -3 15
t-6 12l-8 12h127q-5 -6 -9 -12q-4 -5 -6.5 -12t-2.5 -15v-610q0 -8 2.5 -15t6.5 -12q4 -6 9 -12h-127l8 12q3 5 6 12t3 15v346h-100v-214q0 -8 2.5 -15t5.5 -12q4 -6 9 -12h-127l8 12q3 5 6 12t3 15v478q0 8 -3 15t-6 12l-8 12h127q-5 -6 -9 -12q-3 -5 -5.5 -12t-2.5 -15
v-181h100v181z" />
    <glyph glyph-name="c_i" unicode="ci" horiz-adv-x="457" 
d="M20 523q0 35 6 65.5t21 52.5t41.5 34.5t67.5 12.5h119l26 -98q-5 3 -10 7q-5 3 -11 5.5t-11 2.5h-73q-46 0 -64.5 -21t-18.5 -61v-359q0 -39 18.5 -60t64.5 -21h223q11 0 22 7l10 8l-26 -98h-269q-41 0 -67.5 12.5t-41.5 34.5t-21 52.5t-6 65.5v358zM337 649q0 8 -3 15
t-6 12l-8 12h127q-5 -6 -9 -12q-3 -5 -5.5 -12t-2.5 -15v-478q0 -8 2.5 -15t5.5 -12q4 -6 9 -12h-127l8 12q3 5 6 12t3 15v478z" />
    <glyph glyph-name="c_j" unicode="cj" horiz-adv-x="438" 
d="M173 230l10 -8q10 -7 22 -7l29 1q48 0 67 20.5t19 59.5v353q0 8 -3 15t-6 12l-8 12h127q-5 -6 -9 -12q-3 -5 -5.5 -12t-2.5 -15v-352q0 -35 -5.5 -65.5t-20.5 -52.5t-42 -34.5t-69 -12.5h-77zM20 523q0 35 6 65.5t21 52.5t41.5 34.5t67.5 12.5h79l26 -98q-5 3 -10 7
q-5 3 -11 5.5t-11 2.5h-33q-46 0 -64.5 -21t-18.5 -61v-359q0 -39 18.5 -60t64.5 -21h199q11 0 22 7l10 8l-26 -98h-245q-41 0 -67.5 12.5t-41.5 34.5t-21 52.5t-6 65.5v358z" />
    <glyph glyph-name="c_k" unicode="ck" horiz-adv-x="678" 
d="M543 649q1 7 0.5 14.5t-1.5 12.5q-1 6 -3 12h127q-7 -6 -13 -12q-5 -5 -10 -12t-7 -15q-20 -61 -41.5 -112.5t-44.5 -102.5q21 -38 36 -88t26 -104t19.5 -107t14.5 -96q1 -8 5 -15t8 -12q4 -6 10 -12h-127q2 6 5 12q2 5 4 12t2 15q0 13 -2.5 46.5t-9.5 75.5t-17 86
t-25 78q-17 -33 -34 -68.5t-35 -76.5v-9q0 -8 2.5 -15t5.5 -12q4 -6 9 -12h-127l8 12q3 5 6 12t3 15v478q0 8 -3 15t-6 12l-8 12h127q-5 -6 -9 -12q-3 -5 -5.5 -12t-2.5 -15v-288q19 43 38 86.5t35 82.5t26.5 70t13.5 49zM20 523q0 35 6 65.5t21 52.5t41.5 34.5t67.5 12.5
h119l26 -98q-5 3 -10 7q-5 3 -11 5.5t-11 2.5h-73q-46 0 -64.5 -21t-18.5 -61v-359q0 -39 18.5 -60t64.5 -21h275q11 0 22 7l10 8l-26 -98h-321q-41 0 -67.5 12.5t-41.5 34.5t-21 52.5t-6 65.5v358z" />
    <glyph glyph-name="c_l" unicode="cl" horiz-adv-x="558" 
d="M20 523q0 35 6 65.5t21 52.5t41.5 34.5t67.5 12.5h119l26 -98q-5 3 -10 7q-5 3 -11 5.5t-11 2.5h-73q-46 0 -64.5 -21t-18.5 -61v-359q0 -39 18.5 -60t64.5 -21h328q11 0 22 7l10 8l-26 -98h-374q-41 0 -67.5 12.5t-41.5 34.5t-21 52.5t-6 65.5v358zM320 132l8 12
q3 5 6 12t3 15v478q0 8 -3 15t-6 12l-8 12h127q-5 -6 -9 -12q-3 -5 -5.5 -12t-2.5 -15v-434h102q11 0 22 7l10 8l-26 -98h-218z" />
    <glyph glyph-name="c_m" unicode="cm" horiz-adv-x="762" 
d="M735 39q0 -8 2.5 -15t5.5 -12q4 -6 9 -12h-127l8 12q3 5 6 12t3 15v488q-18 -26 -30 -61t-19 -82t-10 -109t-3 -143h-88q0 81 -3 142.5t-10.5 109t-19 82t-29.5 60.5v-355q0 -8 2.5 -15t5.5 -12q4 -6 9 -12h-127l8 12q3 5 6 12t3 15v478q0 8 -3 15t-6 12l-8 12h96
q12 -6 28.5 -25t34 -46t33 -59t24.5 -65q9 33 24.5 65t32.5 59t34 46t29 25h96q-5 -6 -9 -12q-3 -5 -5.5 -12t-2.5 -15v-610zM20 523q0 35 6 65.5t21 52.5t41.5 34.5t67.5 12.5h119l26 -98q-5 3 -10 7q-5 3 -11 5.5t-11 2.5h-73q-46 0 -64.5 -21t-18.5 -61v-359
q0 -39 18.5 -60t64.5 -21h371q11 0 22 7l10 8l-26 -98h-417q-41 0 -67.5 12.5t-41.5 34.5t-21 52.5t-6 65.5v358z" />
    <glyph glyph-name="c_n" unicode="cn" horiz-adv-x="683" 
d="M337 649q0 8 -3 15t-6 12l-8 12h96q11 -6 31 -27.5t41.5 -52t42 -66t32.5 -69.5v176q0 8 -3 15t-6 12l-8 12h127q-5 -6 -9 -12q-3 -5 -5.5 -12t-2.5 -15v-610q0 -8 2.5 -15t5.5 -12q4 -6 9 -12h-127l8 12q3 5 6 12t3 15v132q0 41 -12 90.5t-31 98t-43 92.5t-47 75v-356
q0 -8 2.5 -15t5.5 -12q4 -6 9 -12h-127l8 12q3 5 6 12t3 15v478zM20 523q0 35 6 65.5t21 52.5t41.5 34.5t67.5 12.5h119l26 -98q-5 3 -10 7q-5 3 -11 5.5t-11 2.5h-73q-46 0 -64.5 -21t-18.5 -61v-359q0 -39 18.5 -60t64.5 -21h275q11 0 22 7l10 8l-26 -98h-321
q-41 0 -67.5 12.5t-41.5 34.5t-21 52.5t-6 65.5v358z" />
    <glyph glyph-name="c_o" unicode="co" horiz-adv-x="654" 
d="M20 523q0 35 6 65.5t21 52.5t41.5 34.5t67.5 12.5h119l26 -98q-5 3 -10 7q-5 3 -11 5.5t-11 2.5h-73q-46 0 -64.5 -21t-18.5 -61v-359q0 -39 18.5 -60t64.5 -21h364q11 0 22 7l10 8l-26 -98h-410q-41 0 -67.5 12.5t-41.5 34.5t-21 52.5t-6 65.5v358zM500 688
q41 0 67 -12.5t41 -34t20.5 -51.5t5.5 -65v-230q0 -35 -5.5 -65t-20.5 -52t-41 -34t-67 -12h-32q-41 0 -68 12t-42.5 34t-21.5 52t-6 65v230q0 35 6 65t21.5 51.5t42.5 34t68 12.5h32zM543 523q0 38 -10.5 59.5t-48.5 21.5t-48.5 -21.5t-10.5 -59.5v-227q0 -19 2 -33.5
t8.5 -25t18 -16t30.5 -5.5q37 0 48 21t11 59v227z" />
    <glyph glyph-name="c_p" unicode="cp" horiz-adv-x="667" 
d="M338 649q0 8 -3 15t-6 12q-4 6 -9 12h241q74 0 90.5 -41.5t-21.5 -121.5q-20 -41 -44.5 -83.5t-51 -84.5t-53.5 -83t-51 -78v-25q0 -8 2.5 -15t5.5 -12q4 -6 9 -12h-127q5 6 9 12q3 5 6 12t3 15v478zM20 523q0 35 6 65.5t21 52.5t41.5 34.5t67.5 12.5h119l26 -98
q-5 3 -10 7q-5 3 -11 5.5t-11 2.5h-73q-46 0 -64.5 -21t-18.5 -61v-359q0 -39 18.5 -60t64.5 -21h275q11 0 22 7l10 8l-26 -98h-321q-41 0 -67.5 12.5t-41.5 34.5t-21 52.5t-6 65.5v358zM430 605v-253l89 146q19 31 27 52t4 33t-20 17t-45 5h-55z" />
    <glyph glyph-name="c_q" unicode="cq" horiz-adv-x="660" 
d="M499 688q41 0 67 -12.5t41 -34t20.5 -51.5t5.5 -65v-230q0 -33 -5 -62t-18 -50.5t-35.5 -34.5t-58.5 -16q4 -36 17.5 -63.5t34.5 -27.5q-2 14 7.5 28t29.5 14q14 0 24.5 -10.5t10.5 -26.5q0 -8 -5 -18t-16.5 -16t-30 -6t-44.5 11q-29 12 -54 41.5t-36 73.5q-37 2 -61 15
t-38 35t-19.5 50.5t-5.5 62.5v230q0 35 6 65t21.5 51.5t42.5 34t68 12.5h31zM20 523q0 35 6 65.5t21 52.5t41.5 34.5t67.5 12.5h119l26 -98q-5 3 -10 7q-5 3 -11 5.5t-11 2.5h-73q-46 0 -64.5 -21t-18.5 -61v-359q0 -39 18.5 -60t64.5 -21h195q11 0 22 7l10 8l-26 -98h-241
q-41 0 -67.5 12.5t-41.5 34.5t-21 52.5t-6 65.5v358zM542 523q0 38 -10.5 59.5t-48.5 21.5t-48.5 -21.5t-10.5 -59.5v-227q0 -19 2 -33.5t8.5 -25t18 -16t30.5 -5.5q38 0 48.5 21t10.5 59v227z" />
    <glyph glyph-name="c_r" unicode="cr" horiz-adv-x="679" 
d="M337 649q0 8 -3 15t-6 12l-8 12h241q73 0 89.5 -41.5t-21.5 -121.5q-14 -29 -30.5 -59t-34.5 -60q17 -39 29.5 -86.5t22.5 -97t17 -97t13 -86.5q1 -8 5 -15t8 -12q4 -6 10 -12h-127q2 6 5 12q2 5 4 12t2 15q0 12 -2.5 43t-8.5 70.5t-15.5 81.5t-22.5 77
q-19 -30 -38 -58.5t-36 -55.5v-26q0 -8 2.5 -15t5.5 -12q4 -6 9 -12h-127l8 12q3 5 6 12t3 15v478zM20 523q0 35 6 65.5t21 52.5t41.5 34.5t67.5 12.5h119l26 -98q-5 3 -10 7q-5 3 -11 5.5t-11 2.5h-73q-46 0 -64.5 -21t-18.5 -61v-359q0 -39 18.5 -60t64.5 -21h275
q11 0 22 7l10 8l-26 -98h-321q-41 0 -67.5 12.5t-41.5 34.5t-21 52.5t-6 65.5v358zM430 605v-249q20 31 42 67t46 75q19 31 27 52t4 33t-19.5 17t-44.5 5h-55z" />
    <glyph glyph-name="c_s" unicode="cs" horiz-adv-x="648" 
d="M20 523q0 35 6 65.5t21 52.5t41.5 34.5t67.5 12.5h119l26 -98q-5 3 -10 7q-5 3 -11 5.5t-11 2.5h-73q-46 0 -64.5 -21t-18.5 -61v-359q0 -39 18.5 -60t64.5 -21h410q11 0 22 7l10 8l-26 -98h-456q-41 0 -67.5 12.5t-41.5 34.5t-21 52.5t-6 65.5v358zM447 523
q0 -18 13.5 -32t33 -28t43 -29t43 -34.5t33 -45t13.5 -59.5q0 -35 -8 -65t-26 -52t-46.5 -34t-69.5 -12h-144l8 12q3 5 6 12t3 15v171q1 -9 5 -30t15 -42.5t31.5 -37.5t53.5 -16q40 0 55.5 19t15.5 61q0 18 -13.5 33.5t-33 30t-43 30.5t-43 35t-33 43.5t-13.5 56.5
q0 34 7 64t24 52t45 34.5t69 12.5h143q-5 -6 -9 -12q-3 -5 -5.5 -12t-2.5 -15v-175q0 7 -3.5 28t-14.5 43.5t-32 40.5t-55 18q-31 0 -48 -20.5t-17 -60.5z" />
    <glyph glyph-name="c_u" unicode="cu" horiz-adv-x="671" 
d="M20 523q0 35 6 65.5t21 52.5t41.5 34.5t67.5 12.5h119l26 -98q-5 3 -10 7q-5 3 -11 5.5t-11 2.5h-73q-46 0 -64.5 -21t-18.5 -61v-359q0 -39 18.5 -60t64.5 -21h401q11 0 22 7l10 8l-26 -98h-447q-41 0 -67.5 12.5t-41.5 34.5t-21 52.5t-6 65.5v358zM337 649q0 8 -3 15
t-6 12q-4 6 -9 12h127q-5 -6 -9 -12q-3 -5 -5.5 -12t-2.5 -15v-358q1 -49 14 -64.5t39 -15.5q28 0 46 7.5t25.5 31t3 65.5t-20.5 111q-17 68 -20 113t1.5 74.5t14.5 46.5t21 28h115q-20 -14 -34.5 -32t-21 -45.5t-3.5 -67.5t19 -98q39 -148 23.5 -230.5t-85.5 -82.5h-247
q5 6 9 12q3 5 6 12t3 15v478z" />
    <glyph glyph-name="c_v" unicode="cv" horiz-adv-x="608" 
d="M287 649q0 8 -3 15t-6 12l-8 12h127q-5 -6 -9 -12q-3 -5 -5.5 -12t-2.5 -15v-406q34 42 60 97.5t41.5 113t21.5 109.5t0 86q-3 16 -10 27q-4 6 -7 12h127q-5 -6 -9 -12q-3 -5 -5.5 -12t-2.5 -15q0 -85 -12 -157.5t-35.5 -135.5t-58 -118t-79.5 -106h-141l8 12q3 5 6 12
t3 15v478zM20 523q0 35 6 65.5t21 52.5t41.5 34.5t67.5 12.5h73l26 -98q-5 3 -10 7q-5 3 -11 5.5t-11 2.5h-27q-46 0 -64.5 -21t-18.5 -61v-359q0 -39 18.5 -60t64.5 -21h298q11 0 22 7l10 8l-26 -98h-344q-41 0 -67.5 12.5t-41.5 34.5t-21 52.5t-6 65.5v358z" />
    <glyph glyph-name="c_w" unicode="cw" horiz-adv-x="762" 
d="M657 132q-12 6 -29 23t-34.5 42t-33 55.5t-24.5 63.5q-9 -33 -24.5 -63.5t-32.5 -55.5t-34 -42t-29 -23h-96q5 6 9 12q3 5 6 12t3 15v478q0 8 -3 15t-6 12q-4 6 -9 12h127q-5 -6 -9 -12q-3 -5 -5.5 -12t-2.5 -15v-356q26 37 39 84.5t18 99.5t5 106v105h89
q0 -50 -0.5 -103.5t4.5 -106t18 -100.5t39 -85v356q0 8 -3 15t-6 12l-8 12h127q-5 -6 -9 -12q-3 -5 -5.5 -12t-2.5 -15v-478q0 -8 2.5 -15t5.5 -12q4 -6 9 -12h-95zM20 523q0 35 6 65.5t21 52.5t41.5 34.5t67.5 12.5h119l26 -98q-5 3 -10 7q-5 3 -11 5.5t-11 2.5h-73
q-46 0 -64.5 -21t-18.5 -61v-359q0 -39 18.5 -60t64.5 -21h520q11 0 22 7l10 8l-26 -98h-566q-41 0 -67.5 12.5t-41.5 34.5t-21 52.5t-6 65.5v358z" />
    <glyph glyph-name="c_x" unicode="cx" horiz-adv-x="692" 
d="M20 523q0 35 6 65.5t21 52.5t41.5 34.5t67.5 12.5h119l26 -98q-5 3 -10 7q-5 3 -11 5.5t-11 2.5h-73q-46 0 -64.5 -21t-18.5 -61v-359q0 -39 18.5 -60t64.5 -21h459q11 0 22 7l10 8l-26 -98h-505q-41 0 -67.5 12.5t-41.5 34.5t-21 52.5t-6 65.5v358zM450 172q0 -16 5 -28
q2 -7 5 -12h-137l14 12q5 5 10.5 12t7.5 15q14 66 33 124t45 115q-26 57 -45 114.5t-33 124.5q-2 8 -7.5 15t-10.5 12l-14 12h137q-3 -7 -5 -13q-5 -13 -5 -27q0 -28 13.5 -77.5t39.5 -109.5q25 60 38.5 109.5t13.5 77.5q0 8 -1.5 14.5t-3.5 12.5q-3 6 -5 13h134
q-9 -6 -15 -12q-14 -12 -17 -27q-13 -67 -31.5 -124.5t-44.5 -114.5q26 -57 44.5 -115t31.5 -124q3 -15 17 -27q6 -6 15 -12h-134q2 5 5 12q2 5 3.5 12.5t1.5 15.5q0 28 -13.5 77.5t-38.5 109.5q-26 -60 -39.5 -109.5t-13.5 -77.5z" />
    <glyph glyph-name="c_y" unicode="cy" horiz-adv-x="665" 
d="M20 523q0 35 6 65.5t21 52.5t41.5 34.5t67.5 12.5h119l26 -98q-5 3 -10 7q-5 3 -11 5.5t-11 2.5h-73q-46 0 -64.5 -21t-18.5 -61v-359q0 -39 18.5 -60t64.5 -21h385q11 0 22 7l10 8l-26 -98h-431q-41 0 -67.5 12.5t-41.5 34.5t-21 52.5t-6 65.5v358zM442 348
q-35 71 -59.5 146t-40.5 155q-2 8 -7.5 15t-10.5 12l-14 12h137q-3 -7 -5 -13q-5 -13 -5 -27t3.5 -36t10 -49.5t16.5 -58t23 -60.5q12 30 22 60.5t16.5 58t10 49.5t3.5 36q0 8 -2 14.5t-4 12.5q-3 6 -5 13h135q-9 -6 -15 -12q-14 -12 -17 -27q-16 -81 -40.5 -158t-59.5 -149
v-171q0 -8 2.5 -15t5.5 -12q4 -6 9 -12h-127q5 6 9 12q3 5 6 12t3 15v177z" />
    <glyph glyph-name="c_z" unicode="cz" horiz-adv-x="615" 
d="M20 523q0 35 6 65.5t21 52.5t41.5 34.5t67.5 12.5h119l26 -98q-5 3 -10 7q-5 3 -11 5.5t-11 2.5h-73q-46 0 -64.5 -21t-18.5 -61v-359q0 -39 18.5 -60t64.5 -21h388q11 0 22 7l10 8l-26 -98h-434q-41 0 -67.5 12.5t-41.5 34.5t-21 52.5t-6 65.5v358zM301 132q7 6 12 12
q5 5 9.5 12t6.5 15l162 434h-115q-6 0 -11.5 -2.5t-10.5 -5.5q-5 -4 -10 -7l26 98h259q-7 -6 -12 -12q-5 -5 -9.5 -12t-6.5 -15l-163 -434h135q11 0 22 7l10 8l-26 -98h-278z" />
    <glyph glyph-name="a_j" unicode="aj" horiz-adv-x="527" 
d="M336 171q0 -8 2.5 -15t5.5 -12q4 -6 9 -12h-127l8 12q3 5 6 12t3 15v82h-113q-11 -69 -13 -127t3 -87q1 -8 4 -15t6 -12q4 -6 7 -12h-127l8 12q3 5 6 12t3 15q0 141 18.5 248t41.5 179q13 40 25.5 70t22.5 52t16 36.5t6 24.5q0 8 -3 15t-6 12l-8 12h213q-5 -6 -9 -12
q-3 -5 -5.5 -12t-2.5 -15v-478zM169 98l10 -8q10 -7 22 -7h122q48 0 67 21t19 60v485q0 8 -3 15t-6 12l-8 12h127q-5 -6 -9 -12q-3 -5 -5.5 -12t-2.5 -15v-484q0 -35 -5.5 -65.5t-20.5 -52.5t-42 -34.5t-69 -12.5h-170zM243 576q-34 -41 -58 -105t-39 -135h97v240z" />
    <glyph glyph-name="b_j" unicode="bj" horiz-adv-x="533" 
d="M27 649q0 8 -3 15t-6 12l-8 12h241q73 0 90 -41.5t-21 -121.5q-18 -38 -39 -75q18 -39 34.5 -78t29.5 -77q25 -80 2.5 -121.5t-96.5 -41.5h-241l8 12q3 5 6 12t3 15v478zM7 98l10 -8q10 -7 22 -7h290q48 0 67 21t19 60v485q0 8 -3 15t-6 12l-8 12h127q-5 -6 -9 -12
q-3 -5 -5.5 -12t-2.5 -15v-484q0 -35 -5.5 -65.5t-20.5 -52.5t-42 -34.5t-69 -12.5h-338zM120 605v-251q20 31 42.5 67.5t45.5 76.5q19 31 27.5 52t4.5 33t-20 17t-45 5h-55zM222 353q-23 -36 -45.5 -70.5t-44.5 -67.5h56q29 0 45.5 5t22 17t0.5 32.5t-19 52.5z" />
    <glyph glyph-name="d_j" unicode="dj" horiz-adv-x="493" 
d="M173 688q41 0 67.5 -12.5t41.5 -34t21 -51.5t6 -65v-230q0 -35 -6 -65t-21 -52t-41.5 -34t-67.5 -12h-163l8 12q3 5 6 12t3 15v478q0 8 -3 15t-6 12l-8 12h163zM10 98l10 -8q10 -7 22 -7h247q48 0 67 21t19 60v485q0 8 -3 15t-6 12l-8 12h127q-5 -6 -9 -12
q-3 -5 -5.5 -12t-2.5 -15v-484q0 -35 -5.5 -65.5t-20.5 -52.5t-42 -34.5t-69 -12.5h-295zM216 523q0 20 -2.5 35t-9.5 25.5t-20 15.5t-34 5h-31v-388h31q43 0 54.5 20t11.5 60v227z" />
    <glyph glyph-name="g_j" unicode="gj" horiz-adv-x="492" 
d="M208 426q0 8 -3 15t-6 12l-8 12h127q-5 -6 -9 -12q-3 -5 -5.5 -12t-2.5 -15v-255q0 -8 2.5 -15t5.5 -12q4 -6 9 -12h-162q-41 0 -67.5 12.5t-41.5 34.5t-21 52.5t-6 65.5v230q0 35 6 64.5t21 51t41.5 33.5t67.5 12h162q-5 -6 -9 -12q-3 -5 -5.5 -12t-2.5 -15v-178
q-3 37 -15 66q-11 25 -31.5 46t-58.5 21q-47 0 -65 -20.5t-18 -60.5v-227q0 -39 18 -59.5t65 -20.5h12v210zM33 98l10 -8q10 -7 22 -7h223q48 0 67 21t19 60v485q0 8 -3 15t-6 12l-8 12h127q-5 -6 -9 -12q-3 -5 -5.5 -12t-2.5 -15v-484q0 -35 -5.5 -65.5t-20.5 -52.5
t-42 -34.5t-69 -12.5h-271z" />
    <glyph glyph-name="h_j" unicode="hj" horiz-adv-x="504" 
d="M120 468h100v181q0 8 -3 15t-6 12l-8 12h127q-5 -6 -9 -12q-3 -5 -5.5 -12t-2.5 -15v-478q0 -8 2.5 -15t5.5 -12q4 -6 9 -12h-127l8 12q3 5 6 12t3 15v214h-100v-346q0 -8 2.5 -15t5.5 -12q4 -6 9 -12h-127q5 6 9 12q3 5 6 12t3 15v610q0 8 -3 15t-6 12q-4 6 -9 12h127
q-5 -6 -9 -12q-3 -5 -5.5 -12t-2.5 -15v-181zM157 98l10 -8q10 -7 22 -7h111q48 0 67 21t19 60v485q0 8 -3 15t-6 12l-8 12h127q-5 -6 -9 -12q-3 -5 -5.5 -12t-2.5 -15v-484q0 -35 -5.5 -65.5t-20.5 -52.5t-42 -34.5t-69 -12.5h-159z" />
    <glyph glyph-name="j_j" unicode="jj" horiz-adv-x="407" 
d="M-12 230l10 -8q10 -7 22 -7h19q48 0 67 21t19 60v353q0 8 -3 15t-6 12l-8 12h127q-5 -6 -9 -12q-3 -5 -5.5 -12t-2.5 -15v-352q0 -35 -5.5 -65.5t-20.5 -52.5t-42 -34.5t-69 -12.5h-67zM22 98l10 -8q10 -7 22 -7h149q48 0 67 21t19 60v485q0 8 -3 15t-6 12l-8 12h127
q-5 -6 -9 -12q-3 -5 -5.5 -12t-2.5 -15v-484q0 -35 -5.5 -65.5t-20.5 -52.5t-42 -34.5t-69 -12.5h-197z" />
    <glyph glyph-name="k_j" unicode="kj" horiz-adv-x="532" 
d="M227 649q1 7 0.5 14.5t-1.5 12.5q-1 6 -3 12h127q-7 -6 -13 -12q-5 -5 -10 -12t-7 -15q-16 -48 -32 -89.5t-34 -81.5q22 -63 41.5 -139.5t33.5 -167.5q1 -8 5 -15t8 -12q4 -6 10 -12h-127l6 12q4 10 6 27q0 27 -9.5 77.5t-27.5 113.5q-20 -42 -41.5 -86.5t-44.5 -95.5v-9
q0 -8 2.5 -15t5.5 -12q4 -6 9 -12h-127l8 12q3 5 6 12t3 15v478q0 8 -3 15t-6 12l-8 12h127q-5 -6 -9 -12q-3 -5 -5.5 -12t-2.5 -15v-288q19 43 38 86.5t35 82.5t26.5 70t13.5 49zM12 98l10 -8q10 -7 22 -7h284q48 0 67 21t19 60v485q0 8 -3 15t-6 12l-8 12h127
q-5 -6 -9 -12q-3 -5 -5.5 -12t-2.5 -15v-484q0 -35 -5.5 -65.5t-20.5 -52.5t-42 -34.5t-69 -12.5h-332z" />
    <glyph glyph-name="m_j" unicode="mj" horiz-adv-x="616" 
d="M27 649q0 8 -3 15t-6 12l-8 12h96q12 -6 29 -25t34 -46t32.5 -59t24.5 -65q9 33 24.5 65t33 59t34 46t28.5 25h96q-5 -6 -9 -12q-3 -5 -5.5 -12t-2.5 -15v-478q0 -8 2.5 -15t5.5 -12q4 -6 9 -12h-127l8 12q3 5 6 12t3 15v355q-18 -26 -30 -60.5t-19 -82t-10 -109
t-3 -142.5h-88q0 81 -3 143t-10 109t-19 82t-30 61v-488q0 -8 2.5 -15t5.5 -12q4 -6 9 -12h-127l8 12q3 5 6 12t3 15v610zM163 98l10 -8q10 -7 22 -7h217q48 0 67 21t19 60v485q0 8 -3 15t-6 12l-8 12h127q-5 -6 -9 -12q-3 -5 -5.5 -12t-2.5 -15v-484q0 -35 -5.5 -65.5
t-20.5 -52.5t-42 -34.5t-69 -12.5h-265z" />
    <glyph glyph-name="o_j" unicode="oj" horiz-adv-x="508" 
d="M190 688q41 0 67 -12.5t41 -34t20.5 -51.5t5.5 -65v-230q0 -35 -5.5 -65t-20.5 -52t-41 -34t-67 -12h-32q-41 0 -68 12t-42.5 34t-21.5 52t-6 65v230q0 35 6 65t21.5 51.5t42.5 34t68 12.5h32zM233 523q0 38 -10.5 59.5t-48.5 21.5t-48.5 -21.5t-10.5 -59.5v-227
q0 -19 2 -33.5t8.5 -25t18 -16t30.5 -5.5q37 0 48 21t11 59v227zM24 98l10 -8q10 -7 22 -7h248q48 0 67 21t19 60v485q0 8 -3 15t-6 12l-8 12h127q-5 -6 -9 -12q-3 -5 -5.5 -12t-2.5 -15v-484q0 -35 -5.5 -65.5t-20.5 -52.5t-42 -34.5t-69 -12.5h-296z" />
    <glyph glyph-name="p_j" unicode="pj" horiz-adv-x="494" 
d="M28 649q0 8 -3 15t-6 12q-4 6 -9 12h241q74 0 90.5 -41.5t-21.5 -121.5q-20 -41 -44.5 -83.5t-51 -84.5t-53.5 -83t-51 -78v-25q0 -8 2.5 -15t5.5 -12q4 -6 9 -12h-127q5 6 9 12q3 5 6 12t3 15v478zM25 98l10 -8q10 -7 22 -7h240q48 0 67 21t19 60v485q0 8 -3 15t-6 12
l-8 12h127q-5 -6 -9 -12q-3 -5 -5.5 -12t-2.5 -15v-484q0 -35 -5.5 -65.5t-20.5 -52.5t-42 -34.5t-69 -12.5h-288zM120 605v-253l89 146q19 31 27 52t4 33t-20 17t-45 5h-55z" />
    <glyph glyph-name="q_j" unicode="qj" horiz-adv-x="514" 
d="M189 688q41 0 67 -12.5t41 -34t20.5 -51.5t5.5 -65v-230q0 -35 -5.5 -65t-20.5 -52t-41 -34t-67 -12h-37q2 -31 -5 -57.5t-21 -45.5q-17 -23 -32.5 -32.5t-28 -10.5t-22.5 5t-14 13q-8 14 -4.5 28t15.5 22q17 11 32.5 3t20.5 -20q9 5 12.5 16.5t2.5 26.5t-6.5 31.5
t-13.5 33.5q-40 18 -54 57.5t-14 92.5v230q0 35 6 65t21.5 51.5t42.5 34t68 12.5h31zM185 98l10 -8q10 -7 22 -7h93q48 0 67 21t19 60v485q0 8 -3 15t-6 12l-8 12h127q-5 -6 -9 -12q-3 -5 -5.5 -12t-2.5 -15v-484q0 -35 -5.5 -65.5t-20.5 -52.5t-42 -34.5t-69 -12.5h-141z
M232 523q0 38 -10.5 59.5t-48.5 21.5t-48.5 -21.5t-10.5 -59.5v-227q0 -19 2 -33.5t8.5 -25t18 -16t30.5 -5.5q38 0 48.5 21t10.5 59v227z" />
    <glyph glyph-name="r_j" unicode="rj" horiz-adv-x="533" 
d="M27 649q0 8 -3 15t-6 12l-8 12h241q73 0 89.5 -41.5t-21.5 -121.5q-11 -23 -23.5 -46.5t-26.5 -47.5q17 -56 33 -120.5t27 -139.5q1 -8 5 -15t8 -12q4 -6 10 -12h-127l6 12q4 10 6 27q0 23 -7.5 65.5t-21.5 95.5q-23 -35 -45.5 -69t-42.5 -66v-26q0 -8 2.5 -15t5.5 -12
q4 -6 9 -12h-127l8 12q3 5 6 12t3 15v478zM15 98l10 -8q10 -7 22 -7h282q48 0 67 21t19 60v485q0 8 -3 15t-6 12l-8 12h127q-5 -6 -9 -12q-3 -5 -5.5 -12t-2.5 -15v-484q0 -35 -5.5 -65.5t-20.5 -52.5t-42 -34.5t-69 -12.5h-330zM120 605v-249q20 31 42 67t46 75
q19 31 27 52t4 33t-19.5 17t-44.5 5h-55z" />
    <glyph glyph-name="s_j" unicode="sj" horiz-adv-x="502" 
d="M137 523q0 -18 13.5 -32t33 -28t43 -29t43 -34.5t33 -45t13.5 -59.5q0 -35 -8 -65t-26 -52t-46.5 -34t-69.5 -12h-144l8 12q3 5 6 12t3 15v171q1 -9 5 -30t15 -42.5t31.5 -37.5t53.5 -16q40 0 55.5 19t15.5 61q0 18 -13.5 33.5t-33 30t-43 30.5t-43 35t-33 43.5
t-13.5 56.5q0 34 7 64t24 52t45 34.5t69 12.5h143q-5 -6 -9 -12q-3 -5 -5.5 -12t-2.5 -15v-175q0 7 -3.5 28t-14.5 43.5t-32 40.5t-55 18q-31 0 -48 -20.5t-17 -60.5zM19 98l10 -8q10 -7 22 -7h247q48 0 67 21t19 60v485q0 8 -3 15t-6 12l-8 12h127q-5 -6 -9 -12
q-3 -5 -5.5 -12t-2.5 -15v-484q0 -35 -5.5 -65.5t-20.5 -52.5t-42 -34.5t-69 -12.5h-295z" />
    <glyph glyph-name="u_j" unicode="uj" horiz-adv-x="525" 
d="M27 649q0 8 -3 15t-6 12q-4 6 -9 12h127q-5 -6 -9 -12q-3 -5 -5.5 -12t-2.5 -15v-347q0 -28 3 -45.5t9.5 -27.5t16.5 -14t24 -4q28 0 46 7.5t25.5 31t3 65.5t-20.5 111q-17 68 -20 113t1.5 74.5t14.5 46.5t21 28h115q-20 -14 -34.5 -32t-21 -45.5t-3.5 -67.5t19 -98
q39 -148 23.5 -230.5t-85.5 -82.5h-247q5 6 9 12q3 5 6 12t3 15v478zM8 98l10 -8q10 -7 22 -7h281q48 0 67 21t19 60v485q0 8 -3 15t-6 12l-8 12h127q-5 -6 -9 -12q-3 -5 -5.5 -12t-2.5 -15v-484q0 -35 -5.5 -65.5t-20.5 -52.5t-42 -34.5t-69 -12.5h-329z" />
    <glyph glyph-name="v_j" unicode="vj" horiz-adv-x="527" 
d="M336 171q0 -8 2.5 -15t5.5 -12q4 -6 9 -12h-141q-45 51 -79.5 106t-58 118t-35.5 135.5t-12 157.5q0 8 -3 15t-6 12l-8 12h127q-3 -6 -7 -12q-3 -5 -6 -12.5t-4 -14.5q-6 -34 -0.5 -86t21.5 -109.5t41.5 -113t60.5 -97.5v406q0 8 -3 15t-6 12l-8 12h127q-5 -6 -9 -12
q-3 -5 -5.5 -12t-2.5 -15v-478zM19 98l10 -8q10 -7 22 -7h272q48 0 67 21t19 60v485q0 8 -3 15t-6 12l-8 12h127q-5 -6 -9 -12q-3 -5 -5.5 -12t-2.5 -15v-484q0 -35 -5.5 -65.5t-20.5 -52.5t-42 -34.5t-69 -12.5h-320z" />
    <glyph glyph-name="w_j" unicode="wj" horiz-adv-x="616" 
d="M347 132q-12 6 -29 23t-34.5 42t-33 55.5t-24.5 63.5q-9 -33 -24.5 -63.5t-32.5 -55.5t-34 -42t-29 -23h-96q5 6 9 12q3 5 6 12t3 15v478q0 8 -3 15t-6 12q-4 6 -9 12h127q-5 -6 -9 -12q-3 -5 -5.5 -12t-2.5 -15v-356q26 37 39 84.5t18 99.5t5 106v105h89
q0 -50 -0.5 -103.5t4.5 -106t18 -100.5t39 -85v356q0 8 -3 15t-6 12l-8 12h127q-5 -6 -9 -12q-3 -5 -5.5 -12t-2.5 -15v-478q0 -8 2.5 -15t5.5 -12q4 -6 9 -12h-95zM10 98l10 -8q10 -7 22 -7h370q48 0 67 21t19 60v485q0 8 -3 15t-6 12l-8 12h127q-5 -6 -9 -12
q-3 -5 -5.5 -12t-2.5 -15v-484q0 -35 -5.5 -65.5t-20.5 -52.5t-42 -34.5t-69 -12.5h-418z" />
    <glyph glyph-name="x_j" unicode="xj" horiz-adv-x="546" 
d="M140 172q0 -16 5 -28q2 -7 5 -12h-137l14 12q5 5 10.5 12t7.5 15q14 66 33 124t45 115q-26 57 -45 114.5t-33 124.5q-2 8 -7.5 15t-10.5 12l-14 12h137q-3 -7 -5 -13q-5 -13 -5 -27q0 -28 13.5 -77.5t39.5 -109.5q25 60 38.5 109.5t13.5 77.5q0 8 -1.5 14.5t-3.5 12.5
q-3 6 -5 13h134q-9 -6 -15 -12q-14 -12 -17 -27q-13 -67 -31.5 -124.5t-44.5 -114.5q26 -57 44.5 -115t31.5 -124q3 -15 17 -27q6 -6 15 -12h-134q2 5 5 12q2 5 3.5 12.5t1.5 15.5q0 28 -13.5 77.5t-38.5 109.5q-26 -60 -39.5 -109.5t-13.5 -77.5zM8 98l10 -8q10 -7 22 -7
h302q48 0 67 21t19 60v485q0 8 -3 15t-6 12l-8 12h127q-5 -6 -9 -12q-3 -5 -5.5 -12t-2.5 -15v-484q0 -35 -5.5 -65.5t-20.5 -52.5t-42 -34.5t-69 -12.5h-350z" />
    <glyph glyph-name="y_j" unicode="yj" horiz-adv-x="519" 
d="M19 98l10 -8q10 -7 22 -7h264q48 0 67 21t19 60v485q0 8 -3 15t-6 12l-8 12h127q-5 -6 -9 -12q-3 -5 -5.5 -12t-2.5 -15v-484q0 -35 -5.5 -65.5t-20.5 -52.5t-42 -34.5t-69 -12.5h-312zM132 348q-35 71 -59.5 146t-40.5 155q-2 8 -7.5 15t-10.5 12l-14 12h137
q-3 -7 -5 -13q-5 -13 -5 -27t3.5 -36t10 -49.5t16.5 -58t23 -60.5q12 30 22 60.5t16.5 58t10 49.5t3.5 36q0 8 -2 14.5t-4 12.5q-3 6 -5 13h135q-9 -6 -15 -12q-14 -12 -17 -27q-16 -81 -40.5 -158t-59.5 -149v-171q0 -8 2.5 -15t5.5 -12q4 -6 9 -12h-127q5 6 9 12q3 5 6 12
t3 15v177z" />
    <glyph glyph-name="z_j" unicode="zj" horiz-adv-x="513" 
d="M16 98l10 -8q10 -7 22 -7h261q48 0 67 21t19 60v485q0 8 -3 15t-6 12l-8 12h127q-5 -6 -9 -12q-3 -5 -5.5 -12t-2.5 -15v-484q0 -35 -5.5 -65.5t-20.5 -52.5t-42 -34.5t-69 -12.5h-309zM11 132q7 6 12 12q5 5 9.5 12t6.5 15l162 434h-115q-6 0 -11.5 -2.5t-10.5 -5.5
q-5 -4 -10 -7l26 98h259q-7 -6 -12 -12q-5 -5 -9.5 -12t-6.5 -15l-163 -434h135q11 0 22 7l10 8l-26 -98h-278z" />
    <glyph glyph-name=".notdef" horiz-adv-x="187" 
 />
    <glyph glyph-name=".null" horiz-adv-x="0" 
 />
    <glyph glyph-name="nonmarkingreturn" unicode="&#xd;" horiz-adv-x="187" 
 />
    <glyph glyph-name="NULL" horiz-adv-x="0" 
 />
    <glyph glyph-name="NULL" horiz-adv-x="0" 
 />
    <glyph glyph-name="space" unicode=" " horiz-adv-x="165" 
 />
    <glyph glyph-name="exclam" unicode="!" horiz-adv-x="868" 
d="M12 427q32 17 64 31.5t67 24.5q2 0 4 9.5t4 21t3.5 22.5t3.5 15q10 15 31 24t37 16q41 17 83 29t85 23q44 11 87.5 18.5t88.5 11.5q16 2 37.5 4t44 1.5t42.5 -5.5t32 -18q2 -2 0 -13.5t-3 -15.5l-3 -45q0 -2 2 -2q37 -11 71 -27t57 -48v-1q-8 2 -17.5 -1.5t-18.5 -9.5
t-17.5 -13t-12.5 -12q14 -8 22.5 -22t12.5 -31t3.5 -34t-5.5 -31q-8 20 -23.5 31t-34 16t-39.5 6.5t-39 2.5q-20 2 -43 1t-43 6q-8 3 -11 12t-3.5 20t1 22t2.5 17q-85 -6 -168.5 -25.5t-163.5 -47.5q-3 -2 -3 -3q1 -5 3.5 -16t5 -23t3 -22.5t-3.5 -13.5q-11 -8 -27 -10
t-30 -4q-18 -2 -36.5 -5t-36.5 -6q-32 -6 -60 -18q-7 -3 -13.5 -6t-13.5 -8q-3 -3 -8 -8.5t-8 -7.5q5 16 11.5 31t12.5 30q1 3 6 12t10 19t8.5 18t2.5 10q-11 16 -27 31t-36 17zM706 484q2 26 2 52t2 52q1 14 1.5 27t2.5 26q1 6 -2.5 10t-9.5 6.5t-12.5 3.5t-11.5 2
q-56 8 -115 0t-114 -19q-60 -12 -118.5 -28t-114.5 -41q-11 -5 -22 -10.5t-20 -13.5q-10 -8 -12 -23t-4 -26q-4 -31 -4 -61.5v-61.5q9 0 24 10t24 14q17 8 35 14t35 12q71 22 146 39q36 8 72 14.5t73 10.5q34 3 72.5 4.5t70.5 -13.5zM623 543l-7.5 -7.5t-8.5 -5.5
q-7 -2 -13 5q-8 -6 -14 -7q-14 -3 -20 9v1q-4 -4 -8 -7.5t-10 -5.5q-7 -3 -12 5q-3 6 -1.5 11t4 10.5t4 10.5t0.5 10q-8 -3 -11.5 -8.5t-5 -12t-2.5 -13.5t-4 -13q-3 -8 -12 -4q-3 1 -3 5q0 2 0.5 4t0.5 4q-7 -2 -9.5 -2t-7.5 -5t-11 -9t-14 -4q-5 1 -8 4t-5 7
q-8 -8 -19 -15.5t-22 -5.5q-7 1 -12 8q-5 -5 -10.5 -10t-12.5 -7q-14 -5 -16 10q-2 12 4 20t10 18q1 2 -1 2.5t-3 -1.5q-4 -9 -9 -20.5t-11.5 -21t-16 -16t-22.5 -5.5q-14 1 -16.5 10.5t2.5 21.5t14.5 21.5t19.5 10.5q6 0 8 -5q4 -6 1 -13q-3 -11 -12.5 -19t-20.5 -10
q1 -6 5 -6.5t8 1.5t8 5t6 5q11 10 16 21.5t10 23.5q2 3 -4 12t-4 15q4 13 16 11q5 0 7 -6q2 -5 1.5 -11t-1.5 -11q10 1 14 -0.5t-2 -12.5q-4 -8 -8.5 -16t-5.5 -17q0 -4 4 -4q10 -1 16 8.5t11.5 22t10.5 24t12 15.5q3 1 7 -1q3 -3 1 -6q-2 -5 -4.5 -9.5t-0.5 -10.5t5.5 -12
t2.5 -13h1q5 6 8.5 13.5l7 15t8 14t12.5 9.5q17 7 23 -9q4 -7 2.5 -12t-0.5 -13q4 1 7 4q7 6 8 16.5t4 18.5q1 3 4.5 3.5t6.5 -0.5q4 -2 3 -6v-1q5 5 11 8q10 4 14 -6q2 -6 0.5 -11t-4 -10t-4.5 -10t-1 -11q13 10 19 25.5t20 24.5q10 6 24 0q2 4 8.5 4.5t4.5 -6.5
q-2 -9 -7 -18.5t-5 -18.5q0 -6 4 -2q9 9 14 22t9.5 26.5t11 25t19.5 19.5q7 3 11 -4q6 -11 2 -22.5t-11 -19.5q-3 -4 -9 -9t-11.5 -11t-9 -12t-1.5 -12q2 -8 10 -6q7 2 10 8.5t7 11.5q3 3 6 1q4 0 4 -4l-2 -6q-8 -18 -25 -25q-12 -6 -20 7q-2 2 -2 5zM831 511
q-23 22 -51.5 35.5t-59.5 21.5q-1 -26 -1.5 -52.5t-2.5 -52.5l-1 1v-3q-12 -1 -29.5 -2t-34.5 -4t-32 -9.5t-23 -18.5q-3 -3 2 -4q25 -10 55.5 -8t56.5 0q27 -2 54 -9q14 -4 24 -11t22 -13q0 29 -9.5 49.5t-37.5 31.5q16 14 32 27t36 21zM144 472q-28 -7 -54 -17.5
t-52 -24.5q16 -10 28 -22.5t22 -27.5q1 -2 -1.5 -8t-6.5 -13t-7.5 -13.5t-4.5 -8.5l-10 -22t-9 -22q23 12 48 18t50.5 9.5l51 7t49.5 11.5q-8 9 -21.5 12t-29 3.5t-30.5 -1l-25 -2.5v60.5t2 60.5zM362 208q0 4 -4 10h26q13 -6 24 -24t16 -31q0 12 1.5 28t-6.5 27h35
q-5 -5 -5 -11.5v-13.5v-114v-15t5 -13h-96q5 6 6 16t0.5 21t-1.5 21t-1 18v81zM313 218q18 0 26 -9.5t10.5 -23.5t1.5 -30t-1 -28v-36q0 -23 -12.5 -32t-32.5 -8q-18 0 -26.5 9.5t-11 23.5t-1.5 30t1 28q0 9 -0.5 18t0.5 18q0 23 12.5 31.5t33.5 8.5zM263 573q6 0 9 -1
q17 -2 19 -21q3 -20 -10.5 -38.5t-30.5 -29.5q-9 -6 -13.5 -15t-8.5 -18t-9.5 -17.5t-15.5 -13.5q-11 -7 -25 -4t-12 18q0 10 7 17t17 9q2 1 6.5 -0.5t2.5 -6.5q-6 -4 -11 -4q-5 -2 -7 -7.5t1 -10.5q2 -2 8 -4q9 -1 15 5.5t10.5 15.5t6.5 19t4 16q-14 -12 -28 -16
q-13 -2 -21 5q-8 5 -8 17q0 13 6 24q14 29 41 46q10 6 24 11q5 2 10 5.5t10 4.5q4 0 4 -5zM361 329q-2 7 -5 18t-4 22.5t1 21.5t10 15q5 4 15 4.5t13 -7.5t-0.5 -10.5t-8.5 -1.5t-8.5 4t0.5 7q-8 -4 -8 -13.5t3 -20.5t7.5 -21t6.5 -16q6 -17 8.5 -40.5t-9.5 -39.5
q-5 -7 -16 -9t-23.5 -2t-24.5 1.5t-19 1.5q5 7 6.5 17.5t1 22t-1.5 22.5t-1 19v58v14.5t-5 13.5h35q-6 -6 -5.5 -15.5t0.5 -17.5v-65q0 -8 -0.5 -23t4.5 -22q4 -5 9 -5.5t9.5 2t8 7t4.5 8.5q3 12 1 25t-4 25zM556 351q-2 -4 -6.5 -14t-9 -21t-6 -21t4.5 -13q-2 6 3 6.5
t10 -2t6 -6.5t-8 -8q-11 -5 -16 4t-4 17q0 7 3 15t4 14.5t-2 10.5t-14 3v-73q8 0 20 -1t20 5q-2 -6 -3.5 -12t-3.5 -12h-64q5 5 5 11.5v13.5v114v14.5t-5 13.5h59q11 -12 11.5 -28t-4.5 -31zM473 405q0 -6 3.5 -13.5t6 -14.5t2 -13.5t-7.5 -12.5q-6 -5 -15 -4.5t-10 10.5
q0 5 3 7.5t7 2.5t7 -2.5t2 -6.5q6 1 6 6t-3.5 10t-8.5 9.5t-8 5.5q-7 2 -15.5 0.5t-11.5 -8.5q-6 -12 -2 -20.5t12 -15t17.5 -12.5t14.5 -13q7 -9 10.5 -22t2 -24.5t-9 -20.5t-22.5 -10q-13 -1 -25.5 -0.5t-24.5 0.5q4 1 2.5 8t-4 16t-4 18t2.5 14q5 6 15.5 7t12.5 -10
q0 -5 -3.5 -7.5t-7 -2.5t-6.5 2t-3 7q-6 -2 -6 -6.5t3.5 -10t8.5 -9.5t8 -5q6 -2 15.5 -1.5t14.5 5.5q10 10 8 19t-9.5 17t-17 14.5t-14.5 11.5q-8 7 -13.5 19.5t-5.5 24.5t6 22t20 13q12 2 25 1.5t25 -0.5zM134 -12l-19 -104h-20q-3 17 -5.5 34.5t-4.5 34.5
q-2 -17 -5 -34.5t-6 -34.5h-20l-18 104h21q2 -19 4 -38.5t5 -38.5q2 20 5 39l6 38h18l11 -77q3 40 9 77h19zM235 -12l-19 -104h-20q-3 17 -5.5 34.5t-4.5 34.5q-2 -17 -5 -34.5t-6 -34.5h-20l-18 104h21q2 -19 4 -38.5t5 -38.5q2 20 5 39l6 38h18l11 -77q3 40 9 77h19z
M336 -12l-19 -104h-20q-3 17 -5.5 34.5t-4.5 34.5q-2 -17 -5 -34.5t-6 -34.5h-20l-18 104h21q2 -19 4 -38.5t5 -38.5q2 20 5 39l6 38h18l11 -77q3 40 9 77h19zM515 -67q7 -3 10 -9t4.5 -13t2.5 -14.5t4 -12.5h-24q-3 5 -4 12.5t-3 14t-6 10.5t-12 3v-40h-24v103q13 2 30 3
t28 -7q15 -11 11.5 -27t-17.5 -23zM707 -116h-24q-9 18 -17 36.5t-17 35.5q2 -18 2 -36v-36h-22v104h26l32 -70q-2 17 -2 35v35h22v-104zM459 51q5 7 6.5 17.5t1 22t-1.5 22.5t-1 19v58v14.5t-5 13.5h35q-5 -5 -6.5 -14.5t-1 -20t1.5 -20.5t1 -16v-76h48q11 0 26.5 -1.5
t25.5 5.5q-2 -4 -3.5 -14t-6.5 -10h-120zM450 -116h-24l-7 24h-24l-5 -24h-25l28 104h30zM802 -112q-19 -7 -36.5 -4t-29.5 13.5t-15.5 27.5t6.5 37q6 14 19.5 20.5t28.5 6.5h5t8.5 -1t7.5 -2t3 -2l-4 -19q-12 6 -22.5 4t-17 -9t-9 -17t1.5 -22q6 -21 28 -19q5 1 4 10t-1 13
h-12v19h35v-56zM541 135q-11 20 -19 43q-4 11 -6 22t-11 18h37q-6 -13 0.5 -30.5t11.5 -28.5q6 14 11 29t0 30h37q-10 -6 -12 -18t-5 -22q-3 -9 -11 -22.5t-8 -22.5q0 -5 -0.5 -12t-0.5 -14t1 -13.5t5 -10.5h-35q8 8 6.5 24.5t-1.5 27.5zM325 178q0 7 -4.5 12.5t-10 7
t-11 -1t-6.5 -10.5q-1 -6 -0.5 -13t0.5 -13q0 -17 -1 -34.5t1 -34.5q0 -7 4.5 -12.5t9.5 -7t10 1t7 10.5q2 6 1.5 13t-0.5 13v69zM424 66q-1 29 -9 59.5t-27 53.5v-107q0 -7 5.5 -11t12 -5t12 1.5t6.5 8.5zM245 559q-13 -3 -24.5 -11t-20.5 -18q-3 -3 -7.5 -11.5t-7.5 -18
t-1.5 -16.5t10.5 -7q14 0 23 9.5t14.5 22.5t8.5 27t5 23zM549 -12h24v-104h-24v104zM242 491q7 2 14 9t11.5 16t6.5 18.5t0 16.5q-3 10 -15 10q-6 -17 -9.5 -35t-7.5 -35zM521 390v-33q10 0 21.5 1t12.5 15q1 15 -11.5 16t-22.5 1zM599 575q0 2 -1 3q0 6 -6 4
q-8 -4 -12.5 -11t-6.5 -15q-2 -5 0.5 -12.5t10.5 -1.5q6 5 10 15t5 18zM456 541l2 -6q3 -9 11 -4q7 3 10.5 10.5t2.5 15.5q-1 5 -4.5 8t-10.5 -2q-9 -7 -11 -22zM328 -103q0 7 4.5 10.5t9.5 3.5t9.5 -3.5t4.5 -10.5t-4.5 -10.5t-9.5 -3.5t-9.5 3.5t-4.5 10.5zM587 -103
q0 7 4.5 10.5t9.5 3.5t9.5 -3.5t4.5 -10.5t-4.5 -10.5t-9.5 -3.5t-9.5 3.5t-4.5 10.5zM493 -58q9 0 12.5 5t3 10.5t-5.5 10t-13 3.5q-5 -1 -4 -12.5t1 -16.5h6zM417 -74q-2 11 -4.5 21.5t-5.5 21.5l-9 -43h19zM411 542q-3 -4 -7 -10.5t-3 -11.5q2 -6 8 -5t7 7q1 9 -5 20z
M300 508q5 -1 13 7t9 13q2 3 -1 5t-6 0q-5 -5 -8.5 -11.5t-6.5 -13.5zM666 627h-1q-17 -19 -23 -40q8 9 15 18.5t9 21.5zM358 562h1q0 3 1 6t-1 6q-2 0 -3 -3q-1 -4 2 -9z" />
    <glyph glyph-name="quotedbl" unicode="&#x22;" horiz-adv-x="868" 
d="M12 427q32 17 64 31.5t67 24.5q2 0 4 9.5t4 21t3.5 22.5t3.5 15q10 15 31 24t37 16q41 17 83 29t85 23q44 11 87.5 18.5t88.5 11.5q16 2 37.5 4t44 1.5t42.5 -5.5t32 -18q2 -2 0 -13.5t-3 -15.5l-3 -45q0 -2 2 -2q37 -11 71 -27t57 -48v-1q-8 2 -17.5 -1.5t-18.5 -9.5
t-17.5 -13t-12.5 -12q14 -8 22.5 -22t12.5 -31t3.5 -34t-5.5 -31q-8 20 -23.5 31t-34 16t-39.5 6.5t-39 2.5q-20 2 -43 1t-43 6q-8 3 -11 12t-3.5 20t1 22t2.5 17q-85 -6 -168.5 -25.5t-163.5 -47.5q-3 -2 -3 -3q1 -5 3.5 -16t5 -23t3 -22.5t-3.5 -13.5q-11 -8 -27 -10
t-30 -4q-18 -2 -36.5 -5t-36.5 -6q-32 -6 -60 -18q-7 -3 -13.5 -6t-13.5 -8q-3 -3 -8 -8.5t-8 -7.5q5 16 11.5 31t12.5 30q1 3 6 12t10 19t8.5 18t2.5 10q-11 16 -27 31t-36 17zM706 484q2 26 2 52t2 52q1 14 1.5 27t2.5 26q1 6 -2.5 10t-9.5 6.5t-12.5 3.5t-11.5 2
q-56 8 -115 0t-114 -19q-60 -12 -118.5 -28t-114.5 -41q-11 -5 -22 -10.5t-20 -13.5q-10 -8 -12 -23t-4 -26q-4 -31 -4 -61.5v-61.5q9 0 24 10t24 14q17 8 35 14t35 12q71 22 146 39q36 8 72 14.5t73 10.5q34 3 72.5 4.5t70.5 -13.5zM623 543l-7.5 -7.5t-8.5 -5.5
q-7 -2 -13 5q-8 -6 -14 -7q-14 -3 -20 9v1q-4 -4 -8 -7.5t-10 -5.5q-7 -3 -12 5q-3 6 -1.5 11t4 10.5t4 10.5t0.5 10q-8 -3 -11.5 -8.5t-5 -12t-2.5 -13.5t-4 -13q-3 -8 -12 -4q-3 1 -3 5q0 2 0.5 4t0.5 4q-7 -2 -9.5 -2t-7.5 -5t-11 -9t-14 -4q-5 1 -8 4t-5 7
q-8 -8 -19 -15.5t-22 -5.5q-7 1 -12 8q-5 -5 -10.5 -10t-12.5 -7q-14 -5 -16 10q-2 12 4 20t10 18q1 2 -1 2.5t-3 -1.5q-4 -9 -9 -20.5t-11.5 -21t-16 -16t-22.5 -5.5q-14 1 -16.5 10.5t2.5 21.5t14.5 21.5t19.5 10.5q6 0 8 -5q4 -6 1 -13q-3 -11 -12.5 -19t-20.5 -10
q1 -6 5 -6.5t8 1.5t8 5t6 5q11 10 16 21.5t10 23.5q2 3 -4 12t-4 15q4 13 16 11q5 0 7 -6q2 -5 1.5 -11t-1.5 -11q10 1 14 -0.5t-2 -12.5q-4 -8 -8.5 -16t-5.5 -17q0 -4 4 -4q10 -1 16 8.5t11.5 22t10.5 24t12 15.5q3 1 7 -1q3 -3 1 -6q-2 -5 -4.5 -9.5t-0.5 -10.5t5.5 -12
t2.5 -13h1q5 6 8.5 13.5l7 15t8 14t12.5 9.5q17 7 23 -9q4 -7 2.5 -12t-0.5 -13q4 1 7 4q7 6 8 16.5t4 18.5q1 3 4.5 3.5t6.5 -0.5q4 -2 3 -6v-1q5 5 11 8q10 4 14 -6q2 -6 0.5 -11t-4 -10t-4.5 -10t-1 -11q13 10 19 25.5t20 24.5q10 6 24 0q2 4 8.5 4.5t4.5 -6.5
q-2 -9 -7 -18.5t-5 -18.5q0 -6 4 -2q9 9 14 22t9.5 26.5t11 25t19.5 19.5q7 3 11 -4q6 -11 2 -22.5t-11 -19.5q-3 -4 -9 -9t-11.5 -11t-9 -12t-1.5 -12q2 -8 10 -6q7 2 10 8.5t7 11.5q3 3 6 1q4 0 4 -4l-2 -6q-8 -18 -25 -25q-12 -6 -20 7q-2 2 -2 5zM831 511
q-23 22 -51.5 35.5t-59.5 21.5q-1 -26 -1.5 -52.5t-2.5 -52.5l-1 1v-3q-12 -1 -29.5 -2t-34.5 -4t-32 -9.5t-23 -18.5q-3 -3 2 -4q25 -10 55.5 -8t56.5 0q27 -2 54 -9q14 -4 24 -11t22 -13q0 29 -9.5 49.5t-37.5 31.5q16 14 32 27t36 21zM144 472q-28 -7 -54 -17.5
t-52 -24.5q16 -10 28 -22.5t22 -27.5q1 -2 -1.5 -8t-6.5 -13t-7.5 -13.5t-4.5 -8.5l-10 -22t-9 -22q23 12 48 18t50.5 9.5l51 7t49.5 11.5q-8 9 -21.5 12t-29 3.5t-30.5 -1l-25 -2.5v60.5t2 60.5zM362 208q0 4 -4 10h26q13 -6 24 -24t16 -31q0 12 1.5 28t-6.5 27h35
q-5 -5 -5 -11.5v-13.5v-114v-15t5 -13h-96q5 6 6 16t0.5 21t-1.5 21t-1 18v81zM313 218q18 0 26 -9.5t10.5 -23.5t1.5 -30t-1 -28v-36q0 -23 -12.5 -32t-32.5 -8q-18 0 -26.5 9.5t-11 23.5t-1.5 30t1 28q0 9 -0.5 18t0.5 18q0 23 12.5 31.5t33.5 8.5zM263 573q6 0 9 -1
q17 -2 19 -21q3 -20 -10.5 -38.5t-30.5 -29.5q-9 -6 -13.5 -15t-8.5 -18t-9.5 -17.5t-15.5 -13.5q-11 -7 -25 -4t-12 18q0 10 7 17t17 9q2 1 6.5 -0.5t2.5 -6.5q-6 -4 -11 -4q-5 -2 -7 -7.5t1 -10.5q2 -2 8 -4q9 -1 15 5.5t10.5 15.5t6.5 19t4 16q-14 -12 -28 -16
q-13 -2 -21 5q-8 5 -8 17q0 13 6 24q14 29 41 46q10 6 24 11q5 2 10 5.5t10 4.5q4 0 4 -5zM361 329q-2 7 -5 18t-4 22.5t1 21.5t10 15q5 4 15 4.5t13 -7.5t-0.5 -10.5t-8.5 -1.5t-8.5 4t0.5 7q-8 -4 -8 -13.5t3 -20.5t7.5 -21t6.5 -16q6 -17 8.5 -40.5t-9.5 -39.5
q-5 -7 -16 -9t-23.5 -2t-24.5 1.5t-19 1.5q5 7 6.5 17.5t1 22t-1.5 22.5t-1 19v58v14.5t-5 13.5h35q-6 -6 -5.5 -15.5t0.5 -17.5v-65q0 -8 -0.5 -23t4.5 -22q4 -5 9 -5.5t9.5 2t8 7t4.5 8.5q3 12 1 25t-4 25zM556 351q-2 -4 -6.5 -14t-9 -21t-6 -21t4.5 -13q-2 6 3 6.5
t10 -2t6 -6.5t-8 -8q-11 -5 -16 4t-4 17q0 7 3 15t4 14.5t-2 10.5t-14 3v-73q8 0 20 -1t20 5q-2 -6 -3.5 -12t-3.5 -12h-64q5 5 5 11.5v13.5v114v14.5t-5 13.5h59q11 -12 11.5 -28t-4.5 -31zM473 405q0 -6 3.5 -13.5t6 -14.5t2 -13.5t-7.5 -12.5q-6 -5 -15 -4.5t-10 10.5
q0 5 3 7.5t7 2.5t7 -2.5t2 -6.5q6 1 6 6t-3.5 10t-8.5 9.5t-8 5.5q-7 2 -15.5 0.5t-11.5 -8.5q-6 -12 -2 -20.5t12 -15t17.5 -12.5t14.5 -13q7 -9 10.5 -22t2 -24.5t-9 -20.5t-22.5 -10q-13 -1 -25.5 -0.5t-24.5 0.5q4 1 2.5 8t-4 16t-4 18t2.5 14q5 6 15.5 7t12.5 -10
q0 -5 -3.5 -7.5t-7 -2.5t-6.5 2t-3 7q-6 -2 -6 -6.5t3.5 -10t8.5 -9.5t8 -5q6 -2 15.5 -1.5t14.5 5.5q10 10 8 19t-9.5 17t-17 14.5t-14.5 11.5q-8 7 -13.5 19.5t-5.5 24.5t6 22t20 13q12 2 25 1.5t25 -0.5zM134 -12l-19 -104h-20q-3 17 -5.5 34.5t-4.5 34.5
q-2 -17 -5 -34.5t-6 -34.5h-20l-18 104h21q2 -19 4 -38.5t5 -38.5q2 20 5 39l6 38h18l11 -77q3 40 9 77h19zM235 -12l-19 -104h-20q-3 17 -5.5 34.5t-4.5 34.5q-2 -17 -5 -34.5t-6 -34.5h-20l-18 104h21q2 -19 4 -38.5t5 -38.5q2 20 5 39l6 38h18l11 -77q3 40 9 77h19z
M336 -12l-19 -104h-20q-3 17 -5.5 34.5t-4.5 34.5q-2 -17 -5 -34.5t-6 -34.5h-20l-18 104h21q2 -19 4 -38.5t5 -38.5q2 20 5 39l6 38h18l11 -77q3 40 9 77h19zM515 -67q7 -3 10 -9t4.5 -13t2.5 -14.5t4 -12.5h-24q-3 5 -4 12.5t-3 14t-6 10.5t-12 3v-40h-24v103q13 2 30 3
t28 -7q15 -11 11.5 -27t-17.5 -23zM707 -116h-24q-9 18 -17 36.5t-17 35.5q2 -18 2 -36v-36h-22v104h26l32 -70q-2 17 -2 35v35h22v-104zM459 51q5 7 6.5 17.5t1 22t-1.5 22.5t-1 19v58v14.5t-5 13.5h35q-5 -5 -6.5 -14.5t-1 -20t1.5 -20.5t1 -16v-76h48q11 0 26.5 -1.5
t25.5 5.5q-2 -4 -3.5 -14t-6.5 -10h-120zM450 -116h-24l-7 24h-24l-5 -24h-25l28 104h30zM802 -112q-19 -7 -36.5 -4t-29.5 13.5t-15.5 27.5t6.5 37q6 14 19.5 20.5t28.5 6.5h5t8.5 -1t7.5 -2t3 -2l-4 -19q-12 6 -22.5 4t-17 -9t-9 -17t1.5 -22q6 -21 28 -19q5 1 4 10t-1 13
h-12v19h35v-56zM541 135q-11 20 -19 43q-4 11 -6 22t-11 18h37q-6 -13 0.5 -30.5t11.5 -28.5q6 14 11 29t0 30h37q-10 -6 -12 -18t-5 -22q-3 -9 -11 -22.5t-8 -22.5q0 -5 -0.5 -12t-0.5 -14t1 -13.5t5 -10.5h-35q8 8 6.5 24.5t-1.5 27.5zM325 178q0 7 -4.5 12.5t-10 7
t-11 -1t-6.5 -10.5q-1 -6 -0.5 -13t0.5 -13q0 -17 -1 -34.5t1 -34.5q0 -7 4.5 -12.5t9.5 -7t10 1t7 10.5q2 6 1.5 13t-0.5 13v69zM424 66q-1 29 -9 59.5t-27 53.5v-107q0 -7 5.5 -11t12 -5t12 1.5t6.5 8.5zM245 559q-13 -3 -24.5 -11t-20.5 -18q-3 -3 -7.5 -11.5t-7.5 -18
t-1.5 -16.5t10.5 -7q14 0 23 9.5t14.5 22.5t8.5 27t5 23zM549 -12h24v-104h-24v104zM242 491q7 2 14 9t11.5 16t6.5 18.5t0 16.5q-3 10 -15 10q-6 -17 -9.5 -35t-7.5 -35zM521 390v-33q10 0 21.5 1t12.5 15q1 15 -11.5 16t-22.5 1zM599 575q0 2 -1 3q0 6 -6 4
q-8 -4 -12.5 -11t-6.5 -15q-2 -5 0.5 -12.5t10.5 -1.5q6 5 10 15t5 18zM456 541l2 -6q3 -9 11 -4q7 3 10.5 10.5t2.5 15.5q-1 5 -4.5 8t-10.5 -2q-9 -7 -11 -22zM328 -103q0 7 4.5 10.5t9.5 3.5t9.5 -3.5t4.5 -10.5t-4.5 -10.5t-9.5 -3.5t-9.5 3.5t-4.5 10.5zM587 -103
q0 7 4.5 10.5t9.5 3.5t9.5 -3.5t4.5 -10.5t-4.5 -10.5t-9.5 -3.5t-9.5 3.5t-4.5 10.5zM493 -58q9 0 12.5 5t3 10.5t-5.5 10t-13 3.5q-5 -1 -4 -12.5t1 -16.5h6zM417 -74q-2 11 -4.5 21.5t-5.5 21.5l-9 -43h19zM411 542q-3 -4 -7 -10.5t-3 -11.5q2 -6 8 -5t7 7q1 9 -5 20z
M300 508q5 -1 13 7t9 13q2 3 -1 5t-6 0q-5 -5 -8.5 -11.5t-6.5 -13.5zM666 627h-1q-17 -19 -23 -40q8 9 15 18.5t9 21.5zM358 562h1q0 3 1 6t-1 6q-2 0 -3 -3q-1 -4 2 -9z" />
    <glyph glyph-name="numbersign" unicode="#" horiz-adv-x="868" 
d="M12 427q32 17 64 31.5t67 24.5q2 0 4 9.5t4 21t3.5 22.5t3.5 15q10 15 31 24t37 16q41 17 83 29t85 23q44 11 87.5 18.5t88.5 11.5q16 2 37.5 4t44 1.5t42.5 -5.5t32 -18q2 -2 0 -13.5t-3 -15.5l-3 -45q0 -2 2 -2q37 -11 71 -27t57 -48v-1q-8 2 -17.5 -1.5t-18.5 -9.5
t-17.5 -13t-12.5 -12q14 -8 22.5 -22t12.5 -31t3.5 -34t-5.5 -31q-8 20 -23.5 31t-34 16t-39.5 6.5t-39 2.5q-20 2 -43 1t-43 6q-8 3 -11 12t-3.5 20t1 22t2.5 17q-85 -6 -168.5 -25.5t-163.5 -47.5q-3 -2 -3 -3q1 -5 3.5 -16t5 -23t3 -22.5t-3.5 -13.5q-11 -8 -27 -10
t-30 -4q-18 -2 -36.5 -5t-36.5 -6q-32 -6 -60 -18q-7 -3 -13.5 -6t-13.5 -8q-3 -3 -8 -8.5t-8 -7.5q5 16 11.5 31t12.5 30q1 3 6 12t10 19t8.5 18t2.5 10q-11 16 -27 31t-36 17zM706 484q2 26 2 52t2 52q1 14 1.5 27t2.5 26q1 6 -2.5 10t-9.5 6.5t-12.5 3.5t-11.5 2
q-56 8 -115 0t-114 -19q-60 -12 -118.5 -28t-114.5 -41q-11 -5 -22 -10.5t-20 -13.5q-10 -8 -12 -23t-4 -26q-4 -31 -4 -61.5v-61.5q9 0 24 10t24 14q17 8 35 14t35 12q71 22 146 39q36 8 72 14.5t73 10.5q34 3 72.5 4.5t70.5 -13.5zM623 543l-7.5 -7.5t-8.5 -5.5
q-7 -2 -13 5q-8 -6 -14 -7q-14 -3 -20 9v1q-4 -4 -8 -7.5t-10 -5.5q-7 -3 -12 5q-3 6 -1.5 11t4 10.5t4 10.5t0.5 10q-8 -3 -11.5 -8.5t-5 -12t-2.5 -13.5t-4 -13q-3 -8 -12 -4q-3 1 -3 5q0 2 0.5 4t0.5 4q-7 -2 -9.5 -2t-7.5 -5t-11 -9t-14 -4q-5 1 -8 4t-5 7
q-8 -8 -19 -15.5t-22 -5.5q-7 1 -12 8q-5 -5 -10.5 -10t-12.5 -7q-14 -5 -16 10q-2 12 4 20t10 18q1 2 -1 2.5t-3 -1.5q-4 -9 -9 -20.5t-11.5 -21t-16 -16t-22.5 -5.5q-14 1 -16.5 10.5t2.5 21.5t14.5 21.5t19.5 10.5q6 0 8 -5q4 -6 1 -13q-3 -11 -12.5 -19t-20.5 -10
q1 -6 5 -6.5t8 1.5t8 5t6 5q11 10 16 21.5t10 23.5q2 3 -4 12t-4 15q4 13 16 11q5 0 7 -6q2 -5 1.5 -11t-1.5 -11q10 1 14 -0.5t-2 -12.5q-4 -8 -8.5 -16t-5.5 -17q0 -4 4 -4q10 -1 16 8.5t11.5 22t10.5 24t12 15.5q3 1 7 -1q3 -3 1 -6q-2 -5 -4.5 -9.5t-0.5 -10.5t5.5 -12
t2.5 -13h1q5 6 8.5 13.5l7 15t8 14t12.5 9.5q17 7 23 -9q4 -7 2.5 -12t-0.5 -13q4 1 7 4q7 6 8 16.5t4 18.5q1 3 4.5 3.5t6.5 -0.5q4 -2 3 -6v-1q5 5 11 8q10 4 14 -6q2 -6 0.5 -11t-4 -10t-4.5 -10t-1 -11q13 10 19 25.5t20 24.5q10 6 24 0q2 4 8.5 4.5t4.5 -6.5
q-2 -9 -7 -18.5t-5 -18.5q0 -6 4 -2q9 9 14 22t9.5 26.5t11 25t19.5 19.5q7 3 11 -4q6 -11 2 -22.5t-11 -19.5q-3 -4 -9 -9t-11.5 -11t-9 -12t-1.5 -12q2 -8 10 -6q7 2 10 8.5t7 11.5q3 3 6 1q4 0 4 -4l-2 -6q-8 -18 -25 -25q-12 -6 -20 7q-2 2 -2 5zM831 511
q-23 22 -51.5 35.5t-59.5 21.5q-1 -26 -1.5 -52.5t-2.5 -52.5l-1 1v-3q-12 -1 -29.5 -2t-34.5 -4t-32 -9.5t-23 -18.5q-3 -3 2 -4q25 -10 55.5 -8t56.5 0q27 -2 54 -9q14 -4 24 -11t22 -13q0 29 -9.5 49.5t-37.5 31.5q16 14 32 27t36 21zM144 472q-28 -7 -54 -17.5
t-52 -24.5q16 -10 28 -22.5t22 -27.5q1 -2 -1.5 -8t-6.5 -13t-7.5 -13.5t-4.5 -8.5l-10 -22t-9 -22q23 12 48 18t50.5 9.5l51 7t49.5 11.5q-8 9 -21.5 12t-29 3.5t-30.5 -1l-25 -2.5v60.5t2 60.5zM362 208q0 4 -4 10h26q13 -6 24 -24t16 -31q0 12 1.5 28t-6.5 27h35
q-5 -5 -5 -11.5v-13.5v-114v-15t5 -13h-96q5 6 6 16t0.5 21t-1.5 21t-1 18v81zM313 218q18 0 26 -9.5t10.5 -23.5t1.5 -30t-1 -28v-36q0 -23 -12.5 -32t-32.5 -8q-18 0 -26.5 9.5t-11 23.5t-1.5 30t1 28q0 9 -0.5 18t0.5 18q0 23 12.5 31.5t33.5 8.5zM263 573q6 0 9 -1
q17 -2 19 -21q3 -20 -10.5 -38.5t-30.5 -29.5q-9 -6 -13.5 -15t-8.5 -18t-9.5 -17.5t-15.5 -13.5q-11 -7 -25 -4t-12 18q0 10 7 17t17 9q2 1 6.5 -0.5t2.5 -6.5q-6 -4 -11 -4q-5 -2 -7 -7.5t1 -10.5q2 -2 8 -4q9 -1 15 5.5t10.5 15.5t6.5 19t4 16q-14 -12 -28 -16
q-13 -2 -21 5q-8 5 -8 17q0 13 6 24q14 29 41 46q10 6 24 11q5 2 10 5.5t10 4.5q4 0 4 -5zM361 329q-2 7 -5 18t-4 22.5t1 21.5t10 15q5 4 15 4.5t13 -7.5t-0.5 -10.5t-8.5 -1.5t-8.5 4t0.5 7q-8 -4 -8 -13.5t3 -20.5t7.5 -21t6.5 -16q6 -17 8.5 -40.5t-9.5 -39.5
q-5 -7 -16 -9t-23.5 -2t-24.5 1.5t-19 1.5q5 7 6.5 17.5t1 22t-1.5 22.5t-1 19v58v14.5t-5 13.5h35q-6 -6 -5.5 -15.5t0.5 -17.5v-65q0 -8 -0.5 -23t4.5 -22q4 -5 9 -5.5t9.5 2t8 7t4.5 8.5q3 12 1 25t-4 25zM556 351q-2 -4 -6.5 -14t-9 -21t-6 -21t4.5 -13q-2 6 3 6.5
t10 -2t6 -6.5t-8 -8q-11 -5 -16 4t-4 17q0 7 3 15t4 14.5t-2 10.5t-14 3v-73q8 0 20 -1t20 5q-2 -6 -3.5 -12t-3.5 -12h-64q5 5 5 11.5v13.5v114v14.5t-5 13.5h59q11 -12 11.5 -28t-4.5 -31zM473 405q0 -6 3.5 -13.5t6 -14.5t2 -13.5t-7.5 -12.5q-6 -5 -15 -4.5t-10 10.5
q0 5 3 7.5t7 2.5t7 -2.5t2 -6.5q6 1 6 6t-3.5 10t-8.5 9.5t-8 5.5q-7 2 -15.5 0.5t-11.5 -8.5q-6 -12 -2 -20.5t12 -15t17.5 -12.5t14.5 -13q7 -9 10.5 -22t2 -24.5t-9 -20.5t-22.5 -10q-13 -1 -25.5 -0.5t-24.5 0.5q4 1 2.5 8t-4 16t-4 18t2.5 14q5 6 15.5 7t12.5 -10
q0 -5 -3.5 -7.5t-7 -2.5t-6.5 2t-3 7q-6 -2 -6 -6.5t3.5 -10t8.5 -9.5t8 -5q6 -2 15.5 -1.5t14.5 5.5q10 10 8 19t-9.5 17t-17 14.5t-14.5 11.5q-8 7 -13.5 19.5t-5.5 24.5t6 22t20 13q12 2 25 1.5t25 -0.5zM134 -12l-19 -104h-20q-3 17 -5.5 34.5t-4.5 34.5
q-2 -17 -5 -34.5t-6 -34.5h-20l-18 104h21q2 -19 4 -38.5t5 -38.5q2 20 5 39l6 38h18l11 -77q3 40 9 77h19zM235 -12l-19 -104h-20q-3 17 -5.5 34.5t-4.5 34.5q-2 -17 -5 -34.5t-6 -34.5h-20l-18 104h21q2 -19 4 -38.5t5 -38.5q2 20 5 39l6 38h18l11 -77q3 40 9 77h19z
M336 -12l-19 -104h-20q-3 17 -5.5 34.5t-4.5 34.5q-2 -17 -5 -34.5t-6 -34.5h-20l-18 104h21q2 -19 4 -38.5t5 -38.5q2 20 5 39l6 38h18l11 -77q3 40 9 77h19zM515 -67q7 -3 10 -9t4.5 -13t2.5 -14.5t4 -12.5h-24q-3 5 -4 12.5t-3 14t-6 10.5t-12 3v-40h-24v103q13 2 30 3
t28 -7q15 -11 11.5 -27t-17.5 -23zM707 -116h-24q-9 18 -17 36.5t-17 35.5q2 -18 2 -36v-36h-22v104h26l32 -70q-2 17 -2 35v35h22v-104zM459 51q5 7 6.5 17.5t1 22t-1.5 22.5t-1 19v58v14.5t-5 13.5h35q-5 -5 -6.5 -14.5t-1 -20t1.5 -20.5t1 -16v-76h48q11 0 26.5 -1.5
t25.5 5.5q-2 -4 -3.5 -14t-6.5 -10h-120zM450 -116h-24l-7 24h-24l-5 -24h-25l28 104h30zM802 -112q-19 -7 -36.5 -4t-29.5 13.5t-15.5 27.5t6.5 37q6 14 19.5 20.5t28.5 6.5h5t8.5 -1t7.5 -2t3 -2l-4 -19q-12 6 -22.5 4t-17 -9t-9 -17t1.5 -22q6 -21 28 -19q5 1 4 10t-1 13
h-12v19h35v-56zM541 135q-11 20 -19 43q-4 11 -6 22t-11 18h37q-6 -13 0.5 -30.5t11.5 -28.5q6 14 11 29t0 30h37q-10 -6 -12 -18t-5 -22q-3 -9 -11 -22.5t-8 -22.5q0 -5 -0.5 -12t-0.5 -14t1 -13.5t5 -10.5h-35q8 8 6.5 24.5t-1.5 27.5zM325 178q0 7 -4.5 12.5t-10 7
t-11 -1t-6.5 -10.5q-1 -6 -0.5 -13t0.5 -13q0 -17 -1 -34.5t1 -34.5q0 -7 4.5 -12.5t9.5 -7t10 1t7 10.5q2 6 1.5 13t-0.5 13v69zM424 66q-1 29 -9 59.5t-27 53.5v-107q0 -7 5.5 -11t12 -5t12 1.5t6.5 8.5zM245 559q-13 -3 -24.5 -11t-20.5 -18q-3 -3 -7.5 -11.5t-7.5 -18
t-1.5 -16.5t10.5 -7q14 0 23 9.5t14.5 22.5t8.5 27t5 23zM549 -12h24v-104h-24v104zM242 491q7 2 14 9t11.5 16t6.5 18.5t0 16.5q-3 10 -15 10q-6 -17 -9.5 -35t-7.5 -35zM521 390v-33q10 0 21.5 1t12.5 15q1 15 -11.5 16t-22.5 1zM599 575q0 2 -1 3q0 6 -6 4
q-8 -4 -12.5 -11t-6.5 -15q-2 -5 0.5 -12.5t10.5 -1.5q6 5 10 15t5 18zM456 541l2 -6q3 -9 11 -4q7 3 10.5 10.5t2.5 15.5q-1 5 -4.5 8t-10.5 -2q-9 -7 -11 -22zM328 -103q0 7 4.5 10.5t9.5 3.5t9.5 -3.5t4.5 -10.5t-4.5 -10.5t-9.5 -3.5t-9.5 3.5t-4.5 10.5zM587 -103
q0 7 4.5 10.5t9.5 3.5t9.5 -3.5t4.5 -10.5t-4.5 -10.5t-9.5 -3.5t-9.5 3.5t-4.5 10.5zM493 -58q9 0 12.5 5t3 10.5t-5.5 10t-13 3.5q-5 -1 -4 -12.5t1 -16.5h6zM417 -74q-2 11 -4.5 21.5t-5.5 21.5l-9 -43h19zM411 542q-3 -4 -7 -10.5t-3 -11.5q2 -6 8 -5t7 7q1 9 -5 20z
M300 508q5 -1 13 7t9 13q2 3 -1 5t-6 0q-5 -5 -8.5 -11.5t-6.5 -13.5zM666 627h-1q-17 -19 -23 -40q8 9 15 18.5t9 21.5zM358 562h1q0 3 1 6t-1 6q-2 0 -3 -3q-1 -4 2 -9z" />
    <glyph glyph-name="dollar" unicode="$" horiz-adv-x="868" 
d="M12 427q32 17 64 31.5t67 24.5q2 0 4 9.5t4 21t3.5 22.5t3.5 15q10 15 31 24t37 16q41 17 83 29t85 23q44 11 87.5 18.5t88.5 11.5q16 2 37.5 4t44 1.5t42.5 -5.5t32 -18q2 -2 0 -13.5t-3 -15.5l-3 -45q0 -2 2 -2q37 -11 71 -27t57 -48v-1q-8 2 -17.5 -1.5t-18.5 -9.5
t-17.5 -13t-12.5 -12q14 -8 22.5 -22t12.5 -31t3.5 -34t-5.5 -31q-8 20 -23.5 31t-34 16t-39.5 6.5t-39 2.5q-20 2 -43 1t-43 6q-8 3 -11 12t-3.5 20t1 22t2.5 17q-85 -6 -168.5 -25.5t-163.5 -47.5q-3 -2 -3 -3q1 -5 3.5 -16t5 -23t3 -22.5t-3.5 -13.5q-11 -8 -27 -10
t-30 -4q-18 -2 -36.5 -5t-36.5 -6q-32 -6 -60 -18q-7 -3 -13.5 -6t-13.5 -8q-3 -3 -8 -8.5t-8 -7.5q5 16 11.5 31t12.5 30q1 3 6 12t10 19t8.5 18t2.5 10q-11 16 -27 31t-36 17zM706 484q2 26 2 52t2 52q1 14 1.5 27t2.5 26q1 6 -2.5 10t-9.5 6.5t-12.5 3.5t-11.5 2
q-56 8 -115 0t-114 -19q-60 -12 -118.5 -28t-114.5 -41q-11 -5 -22 -10.5t-20 -13.5q-10 -8 -12 -23t-4 -26q-4 -31 -4 -61.5v-61.5q9 0 24 10t24 14q17 8 35 14t35 12q71 22 146 39q36 8 72 14.5t73 10.5q34 3 72.5 4.5t70.5 -13.5zM623 543l-7.5 -7.5t-8.5 -5.5
q-7 -2 -13 5q-8 -6 -14 -7q-14 -3 -20 9v1q-4 -4 -8 -7.5t-10 -5.5q-7 -3 -12 5q-3 6 -1.5 11t4 10.5t4 10.5t0.5 10q-8 -3 -11.5 -8.5t-5 -12t-2.5 -13.5t-4 -13q-3 -8 -12 -4q-3 1 -3 5q0 2 0.5 4t0.5 4q-7 -2 -9.5 -2t-7.5 -5t-11 -9t-14 -4q-5 1 -8 4t-5 7
q-8 -8 -19 -15.5t-22 -5.5q-7 1 -12 8q-5 -5 -10.5 -10t-12.5 -7q-14 -5 -16 10q-2 12 4 20t10 18q1 2 -1 2.5t-3 -1.5q-4 -9 -9 -20.5t-11.5 -21t-16 -16t-22.5 -5.5q-14 1 -16.5 10.5t2.5 21.5t14.5 21.5t19.5 10.5q6 0 8 -5q4 -6 1 -13q-3 -11 -12.5 -19t-20.5 -10
q1 -6 5 -6.5t8 1.5t8 5t6 5q11 10 16 21.5t10 23.5q2 3 -4 12t-4 15q4 13 16 11q5 0 7 -6q2 -5 1.5 -11t-1.5 -11q10 1 14 -0.5t-2 -12.5q-4 -8 -8.5 -16t-5.5 -17q0 -4 4 -4q10 -1 16 8.5t11.5 22t10.5 24t12 15.5q3 1 7 -1q3 -3 1 -6q-2 -5 -4.5 -9.5t-0.5 -10.5t5.5 -12
t2.5 -13h1q5 6 8.5 13.5l7 15t8 14t12.5 9.5q17 7 23 -9q4 -7 2.5 -12t-0.5 -13q4 1 7 4q7 6 8 16.5t4 18.5q1 3 4.5 3.5t6.5 -0.5q4 -2 3 -6v-1q5 5 11 8q10 4 14 -6q2 -6 0.5 -11t-4 -10t-4.5 -10t-1 -11q13 10 19 25.5t20 24.5q10 6 24 0q2 4 8.5 4.5t4.5 -6.5
q-2 -9 -7 -18.5t-5 -18.5q0 -6 4 -2q9 9 14 22t9.5 26.5t11 25t19.5 19.5q7 3 11 -4q6 -11 2 -22.5t-11 -19.5q-3 -4 -9 -9t-11.5 -11t-9 -12t-1.5 -12q2 -8 10 -6q7 2 10 8.5t7 11.5q3 3 6 1q4 0 4 -4l-2 -6q-8 -18 -25 -25q-12 -6 -20 7q-2 2 -2 5zM831 511
q-23 22 -51.5 35.5t-59.5 21.5q-1 -26 -1.5 -52.5t-2.5 -52.5l-1 1v-3q-12 -1 -29.5 -2t-34.5 -4t-32 -9.5t-23 -18.5q-3 -3 2 -4q25 -10 55.5 -8t56.5 0q27 -2 54 -9q14 -4 24 -11t22 -13q0 29 -9.5 49.5t-37.5 31.5q16 14 32 27t36 21zM144 472q-28 -7 -54 -17.5
t-52 -24.5q16 -10 28 -22.5t22 -27.5q1 -2 -1.5 -8t-6.5 -13t-7.5 -13.5t-4.5 -8.5l-10 -22t-9 -22q23 12 48 18t50.5 9.5l51 7t49.5 11.5q-8 9 -21.5 12t-29 3.5t-30.5 -1l-25 -2.5v60.5t2 60.5zM362 208q0 4 -4 10h26q13 -6 24 -24t16 -31q0 12 1.5 28t-6.5 27h35
q-5 -5 -5 -11.5v-13.5v-114v-15t5 -13h-96q5 6 6 16t0.5 21t-1.5 21t-1 18v81zM313 218q18 0 26 -9.5t10.5 -23.5t1.5 -30t-1 -28v-36q0 -23 -12.5 -32t-32.5 -8q-18 0 -26.5 9.5t-11 23.5t-1.5 30t1 28q0 9 -0.5 18t0.5 18q0 23 12.5 31.5t33.5 8.5zM263 573q6 0 9 -1
q17 -2 19 -21q3 -20 -10.5 -38.5t-30.5 -29.5q-9 -6 -13.5 -15t-8.5 -18t-9.5 -17.5t-15.5 -13.5q-11 -7 -25 -4t-12 18q0 10 7 17t17 9q2 1 6.5 -0.5t2.5 -6.5q-6 -4 -11 -4q-5 -2 -7 -7.5t1 -10.5q2 -2 8 -4q9 -1 15 5.5t10.5 15.5t6.5 19t4 16q-14 -12 -28 -16
q-13 -2 -21 5q-8 5 -8 17q0 13 6 24q14 29 41 46q10 6 24 11q5 2 10 5.5t10 4.5q4 0 4 -5zM361 329q-2 7 -5 18t-4 22.5t1 21.5t10 15q5 4 15 4.5t13 -7.5t-0.5 -10.5t-8.5 -1.5t-8.5 4t0.5 7q-8 -4 -8 -13.5t3 -20.5t7.5 -21t6.5 -16q6 -17 8.5 -40.5t-9.5 -39.5
q-5 -7 -16 -9t-23.5 -2t-24.5 1.5t-19 1.5q5 7 6.5 17.5t1 22t-1.5 22.5t-1 19v58v14.5t-5 13.5h35q-6 -6 -5.5 -15.5t0.5 -17.5v-65q0 -8 -0.5 -23t4.5 -22q4 -5 9 -5.5t9.5 2t8 7t4.5 8.5q3 12 1 25t-4 25zM556 351q-2 -4 -6.5 -14t-9 -21t-6 -21t4.5 -13q-2 6 3 6.5
t10 -2t6 -6.5t-8 -8q-11 -5 -16 4t-4 17q0 7 3 15t4 14.5t-2 10.5t-14 3v-73q8 0 20 -1t20 5q-2 -6 -3.5 -12t-3.5 -12h-64q5 5 5 11.5v13.5v114v14.5t-5 13.5h59q11 -12 11.5 -28t-4.5 -31zM473 405q0 -6 3.5 -13.5t6 -14.5t2 -13.5t-7.5 -12.5q-6 -5 -15 -4.5t-10 10.5
q0 5 3 7.5t7 2.5t7 -2.5t2 -6.5q6 1 6 6t-3.5 10t-8.5 9.5t-8 5.5q-7 2 -15.5 0.5t-11.5 -8.5q-6 -12 -2 -20.5t12 -15t17.5 -12.5t14.5 -13q7 -9 10.5 -22t2 -24.5t-9 -20.5t-22.5 -10q-13 -1 -25.5 -0.5t-24.5 0.5q4 1 2.5 8t-4 16t-4 18t2.5 14q5 6 15.5 7t12.5 -10
q0 -5 -3.5 -7.5t-7 -2.5t-6.5 2t-3 7q-6 -2 -6 -6.5t3.5 -10t8.5 -9.5t8 -5q6 -2 15.5 -1.5t14.5 5.5q10 10 8 19t-9.5 17t-17 14.5t-14.5 11.5q-8 7 -13.5 19.5t-5.5 24.5t6 22t20 13q12 2 25 1.5t25 -0.5zM134 -12l-19 -104h-20q-3 17 -5.5 34.5t-4.5 34.5
q-2 -17 -5 -34.5t-6 -34.5h-20l-18 104h21q2 -19 4 -38.5t5 -38.5q2 20 5 39l6 38h18l11 -77q3 40 9 77h19zM235 -12l-19 -104h-20q-3 17 -5.5 34.5t-4.5 34.5q-2 -17 -5 -34.5t-6 -34.5h-20l-18 104h21q2 -19 4 -38.5t5 -38.5q2 20 5 39l6 38h18l11 -77q3 40 9 77h19z
M336 -12l-19 -104h-20q-3 17 -5.5 34.5t-4.5 34.5q-2 -17 -5 -34.5t-6 -34.5h-20l-18 104h21q2 -19 4 -38.5t5 -38.5q2 20 5 39l6 38h18l11 -77q3 40 9 77h19zM515 -67q7 -3 10 -9t4.5 -13t2.5 -14.5t4 -12.5h-24q-3 5 -4 12.5t-3 14t-6 10.5t-12 3v-40h-24v103q13 2 30 3
t28 -7q15 -11 11.5 -27t-17.5 -23zM707 -116h-24q-9 18 -17 36.5t-17 35.5q2 -18 2 -36v-36h-22v104h26l32 -70q-2 17 -2 35v35h22v-104zM459 51q5 7 6.5 17.5t1 22t-1.5 22.5t-1 19v58v14.5t-5 13.5h35q-5 -5 -6.5 -14.5t-1 -20t1.5 -20.5t1 -16v-76h48q11 0 26.5 -1.5
t25.5 5.5q-2 -4 -3.5 -14t-6.5 -10h-120zM450 -116h-24l-7 24h-24l-5 -24h-25l28 104h30zM802 -112q-19 -7 -36.5 -4t-29.5 13.5t-15.5 27.5t6.5 37q6 14 19.5 20.5t28.5 6.5h5t8.5 -1t7.5 -2t3 -2l-4 -19q-12 6 -22.5 4t-17 -9t-9 -17t1.5 -22q6 -21 28 -19q5 1 4 10t-1 13
h-12v19h35v-56zM541 135q-11 20 -19 43q-4 11 -6 22t-11 18h37q-6 -13 0.5 -30.5t11.5 -28.5q6 14 11 29t0 30h37q-10 -6 -12 -18t-5 -22q-3 -9 -11 -22.5t-8 -22.5q0 -5 -0.5 -12t-0.5 -14t1 -13.5t5 -10.5h-35q8 8 6.5 24.5t-1.5 27.5zM325 178q0 7 -4.5 12.5t-10 7
t-11 -1t-6.5 -10.5q-1 -6 -0.5 -13t0.5 -13q0 -17 -1 -34.5t1 -34.5q0 -7 4.5 -12.5t9.5 -7t10 1t7 10.5q2 6 1.5 13t-0.5 13v69zM424 66q-1 29 -9 59.5t-27 53.5v-107q0 -7 5.5 -11t12 -5t12 1.5t6.5 8.5zM245 559q-13 -3 -24.5 -11t-20.5 -18q-3 -3 -7.5 -11.5t-7.5 -18
t-1.5 -16.5t10.5 -7q14 0 23 9.5t14.5 22.5t8.5 27t5 23zM549 -12h24v-104h-24v104zM242 491q7 2 14 9t11.5 16t6.5 18.5t0 16.5q-3 10 -15 10q-6 -17 -9.5 -35t-7.5 -35zM521 390v-33q10 0 21.5 1t12.5 15q1 15 -11.5 16t-22.5 1zM599 575q0 2 -1 3q0 6 -6 4
q-8 -4 -12.5 -11t-6.5 -15q-2 -5 0.5 -12.5t10.5 -1.5q6 5 10 15t5 18zM456 541l2 -6q3 -9 11 -4q7 3 10.5 10.5t2.5 15.5q-1 5 -4.5 8t-10.5 -2q-9 -7 -11 -22zM328 -103q0 7 4.5 10.5t9.5 3.5t9.5 -3.5t4.5 -10.5t-4.5 -10.5t-9.5 -3.5t-9.5 3.5t-4.5 10.5zM587 -103
q0 7 4.5 10.5t9.5 3.5t9.5 -3.5t4.5 -10.5t-4.5 -10.5t-9.5 -3.5t-9.5 3.5t-4.5 10.5zM493 -58q9 0 12.5 5t3 10.5t-5.5 10t-13 3.5q-5 -1 -4 -12.5t1 -16.5h6zM417 -74q-2 11 -4.5 21.5t-5.5 21.5l-9 -43h19zM411 542q-3 -4 -7 -10.5t-3 -11.5q2 -6 8 -5t7 7q1 9 -5 20z
M300 508q5 -1 13 7t9 13q2 3 -1 5t-6 0q-5 -5 -8.5 -11.5t-6.5 -13.5zM666 627h-1q-17 -19 -23 -40q8 9 15 18.5t9 21.5zM358 562h1q0 3 1 6t-1 6q-2 0 -3 -3q-1 -4 2 -9z" />
    <glyph glyph-name="percent" unicode="%" horiz-adv-x="868" 
d="M12 427q32 17 64 31.5t67 24.5q2 0 4 9.5t4 21t3.5 22.5t3.5 15q10 15 31 24t37 16q41 17 83 29t85 23q44 11 87.5 18.5t88.5 11.5q16 2 37.5 4t44 1.5t42.5 -5.5t32 -18q2 -2 0 -13.5t-3 -15.5l-3 -45q0 -2 2 -2q37 -11 71 -27t57 -48v-1q-8 2 -17.5 -1.5t-18.5 -9.5
t-17.5 -13t-12.5 -12q14 -8 22.5 -22t12.5 -31t3.5 -34t-5.5 -31q-8 20 -23.5 31t-34 16t-39.5 6.5t-39 2.5q-20 2 -43 1t-43 6q-8 3 -11 12t-3.5 20t1 22t2.5 17q-85 -6 -168.5 -25.5t-163.5 -47.5q-3 -2 -3 -3q1 -5 3.5 -16t5 -23t3 -22.5t-3.5 -13.5q-11 -8 -27 -10
t-30 -4q-18 -2 -36.5 -5t-36.5 -6q-32 -6 -60 -18q-7 -3 -13.5 -6t-13.5 -8q-3 -3 -8 -8.5t-8 -7.5q5 16 11.5 31t12.5 30q1 3 6 12t10 19t8.5 18t2.5 10q-11 16 -27 31t-36 17zM706 484q2 26 2 52t2 52q1 14 1.5 27t2.5 26q1 6 -2.5 10t-9.5 6.5t-12.5 3.5t-11.5 2
q-56 8 -115 0t-114 -19q-60 -12 -118.5 -28t-114.5 -41q-11 -5 -22 -10.5t-20 -13.5q-10 -8 -12 -23t-4 -26q-4 -31 -4 -61.5v-61.5q9 0 24 10t24 14q17 8 35 14t35 12q71 22 146 39q36 8 72 14.5t73 10.5q34 3 72.5 4.5t70.5 -13.5zM623 543l-7.5 -7.5t-8.5 -5.5
q-7 -2 -13 5q-8 -6 -14 -7q-14 -3 -20 9v1q-4 -4 -8 -7.5t-10 -5.5q-7 -3 -12 5q-3 6 -1.5 11t4 10.5t4 10.5t0.5 10q-8 -3 -11.5 -8.5t-5 -12t-2.5 -13.5t-4 -13q-3 -8 -12 -4q-3 1 -3 5q0 2 0.5 4t0.5 4q-7 -2 -9.5 -2t-7.5 -5t-11 -9t-14 -4q-5 1 -8 4t-5 7
q-8 -8 -19 -15.5t-22 -5.5q-7 1 -12 8q-5 -5 -10.5 -10t-12.5 -7q-14 -5 -16 10q-2 12 4 20t10 18q1 2 -1 2.5t-3 -1.5q-4 -9 -9 -20.5t-11.5 -21t-16 -16t-22.5 -5.5q-14 1 -16.5 10.5t2.5 21.5t14.5 21.5t19.5 10.5q6 0 8 -5q4 -6 1 -13q-3 -11 -12.5 -19t-20.5 -10
q1 -6 5 -6.5t8 1.5t8 5t6 5q11 10 16 21.5t10 23.5q2 3 -4 12t-4 15q4 13 16 11q5 0 7 -6q2 -5 1.5 -11t-1.5 -11q10 1 14 -0.5t-2 -12.5q-4 -8 -8.5 -16t-5.5 -17q0 -4 4 -4q10 -1 16 8.5t11.5 22t10.5 24t12 15.5q3 1 7 -1q3 -3 1 -6q-2 -5 -4.5 -9.5t-0.5 -10.5t5.5 -12
t2.5 -13h1q5 6 8.5 13.5l7 15t8 14t12.5 9.5q17 7 23 -9q4 -7 2.5 -12t-0.5 -13q4 1 7 4q7 6 8 16.5t4 18.5q1 3 4.5 3.5t6.5 -0.5q4 -2 3 -6v-1q5 5 11 8q10 4 14 -6q2 -6 0.5 -11t-4 -10t-4.5 -10t-1 -11q13 10 19 25.5t20 24.5q10 6 24 0q2 4 8.5 4.5t4.5 -6.5
q-2 -9 -7 -18.5t-5 -18.5q0 -6 4 -2q9 9 14 22t9.5 26.5t11 25t19.5 19.5q7 3 11 -4q6 -11 2 -22.5t-11 -19.5q-3 -4 -9 -9t-11.5 -11t-9 -12t-1.5 -12q2 -8 10 -6q7 2 10 8.5t7 11.5q3 3 6 1q4 0 4 -4l-2 -6q-8 -18 -25 -25q-12 -6 -20 7q-2 2 -2 5zM831 511
q-23 22 -51.5 35.5t-59.5 21.5q-1 -26 -1.5 -52.5t-2.5 -52.5l-1 1v-3q-12 -1 -29.5 -2t-34.5 -4t-32 -9.5t-23 -18.5q-3 -3 2 -4q25 -10 55.5 -8t56.5 0q27 -2 54 -9q14 -4 24 -11t22 -13q0 29 -9.5 49.5t-37.5 31.5q16 14 32 27t36 21zM144 472q-28 -7 -54 -17.5
t-52 -24.5q16 -10 28 -22.5t22 -27.5q1 -2 -1.5 -8t-6.5 -13t-7.5 -13.5t-4.5 -8.5l-10 -22t-9 -22q23 12 48 18t50.5 9.5l51 7t49.5 11.5q-8 9 -21.5 12t-29 3.5t-30.5 -1l-25 -2.5v60.5t2 60.5zM362 208q0 4 -4 10h26q13 -6 24 -24t16 -31q0 12 1.5 28t-6.5 27h35
q-5 -5 -5 -11.5v-13.5v-114v-15t5 -13h-96q5 6 6 16t0.5 21t-1.5 21t-1 18v81zM313 218q18 0 26 -9.5t10.5 -23.5t1.5 -30t-1 -28v-36q0 -23 -12.5 -32t-32.5 -8q-18 0 -26.5 9.5t-11 23.5t-1.5 30t1 28q0 9 -0.5 18t0.5 18q0 23 12.5 31.5t33.5 8.5zM263 573q6 0 9 -1
q17 -2 19 -21q3 -20 -10.5 -38.5t-30.5 -29.5q-9 -6 -13.5 -15t-8.5 -18t-9.5 -17.5t-15.5 -13.5q-11 -7 -25 -4t-12 18q0 10 7 17t17 9q2 1 6.5 -0.5t2.5 -6.5q-6 -4 -11 -4q-5 -2 -7 -7.5t1 -10.5q2 -2 8 -4q9 -1 15 5.5t10.5 15.5t6.5 19t4 16q-14 -12 -28 -16
q-13 -2 -21 5q-8 5 -8 17q0 13 6 24q14 29 41 46q10 6 24 11q5 2 10 5.5t10 4.5q4 0 4 -5zM361 329q-2 7 -5 18t-4 22.5t1 21.5t10 15q5 4 15 4.5t13 -7.5t-0.5 -10.5t-8.5 -1.5t-8.5 4t0.5 7q-8 -4 -8 -13.5t3 -20.5t7.5 -21t6.5 -16q6 -17 8.5 -40.5t-9.5 -39.5
q-5 -7 -16 -9t-23.5 -2t-24.5 1.5t-19 1.5q5 7 6.5 17.5t1 22t-1.5 22.5t-1 19v58v14.5t-5 13.5h35q-6 -6 -5.5 -15.5t0.5 -17.5v-65q0 -8 -0.5 -23t4.5 -22q4 -5 9 -5.5t9.5 2t8 7t4.5 8.5q3 12 1 25t-4 25zM556 351q-2 -4 -6.5 -14t-9 -21t-6 -21t4.5 -13q-2 6 3 6.5
t10 -2t6 -6.5t-8 -8q-11 -5 -16 4t-4 17q0 7 3 15t4 14.5t-2 10.5t-14 3v-73q8 0 20 -1t20 5q-2 -6 -3.5 -12t-3.5 -12h-64q5 5 5 11.5v13.5v114v14.5t-5 13.5h59q11 -12 11.5 -28t-4.5 -31zM473 405q0 -6 3.5 -13.5t6 -14.5t2 -13.5t-7.5 -12.5q-6 -5 -15 -4.5t-10 10.5
q0 5 3 7.5t7 2.5t7 -2.5t2 -6.5q6 1 6 6t-3.5 10t-8.5 9.5t-8 5.5q-7 2 -15.5 0.5t-11.5 -8.5q-6 -12 -2 -20.5t12 -15t17.5 -12.5t14.5 -13q7 -9 10.5 -22t2 -24.5t-9 -20.5t-22.5 -10q-13 -1 -25.5 -0.5t-24.5 0.5q4 1 2.5 8t-4 16t-4 18t2.5 14q5 6 15.5 7t12.5 -10
q0 -5 -3.5 -7.5t-7 -2.5t-6.5 2t-3 7q-6 -2 -6 -6.5t3.5 -10t8.5 -9.5t8 -5q6 -2 15.5 -1.5t14.5 5.5q10 10 8 19t-9.5 17t-17 14.5t-14.5 11.5q-8 7 -13.5 19.5t-5.5 24.5t6 22t20 13q12 2 25 1.5t25 -0.5zM134 -12l-19 -104h-20q-3 17 -5.5 34.5t-4.5 34.5
q-2 -17 -5 -34.5t-6 -34.5h-20l-18 104h21q2 -19 4 -38.5t5 -38.5q2 20 5 39l6 38h18l11 -77q3 40 9 77h19zM235 -12l-19 -104h-20q-3 17 -5.5 34.5t-4.5 34.5q-2 -17 -5 -34.5t-6 -34.5h-20l-18 104h21q2 -19 4 -38.5t5 -38.5q2 20 5 39l6 38h18l11 -77q3 40 9 77h19z
M336 -12l-19 -104h-20q-3 17 -5.5 34.5t-4.5 34.5q-2 -17 -5 -34.5t-6 -34.5h-20l-18 104h21q2 -19 4 -38.5t5 -38.5q2 20 5 39l6 38h18l11 -77q3 40 9 77h19zM515 -67q7 -3 10 -9t4.5 -13t2.5 -14.5t4 -12.5h-24q-3 5 -4 12.5t-3 14t-6 10.5t-12 3v-40h-24v103q13 2 30 3
t28 -7q15 -11 11.5 -27t-17.5 -23zM707 -116h-24q-9 18 -17 36.5t-17 35.5q2 -18 2 -36v-36h-22v104h26l32 -70q-2 17 -2 35v35h22v-104zM459 51q5 7 6.5 17.5t1 22t-1.5 22.5t-1 19v58v14.5t-5 13.5h35q-5 -5 -6.5 -14.5t-1 -20t1.5 -20.5t1 -16v-76h48q11 0 26.5 -1.5
t25.5 5.5q-2 -4 -3.5 -14t-6.5 -10h-120zM450 -116h-24l-7 24h-24l-5 -24h-25l28 104h30zM802 -112q-19 -7 -36.5 -4t-29.5 13.5t-15.5 27.5t6.5 37q6 14 19.5 20.5t28.5 6.5h5t8.5 -1t7.5 -2t3 -2l-4 -19q-12 6 -22.5 4t-17 -9t-9 -17t1.5 -22q6 -21 28 -19q5 1 4 10t-1 13
h-12v19h35v-56zM541 135q-11 20 -19 43q-4 11 -6 22t-11 18h37q-6 -13 0.5 -30.5t11.5 -28.5q6 14 11 29t0 30h37q-10 -6 -12 -18t-5 -22q-3 -9 -11 -22.5t-8 -22.5q0 -5 -0.5 -12t-0.5 -14t1 -13.5t5 -10.5h-35q8 8 6.5 24.5t-1.5 27.5zM325 178q0 7 -4.5 12.5t-10 7
t-11 -1t-6.5 -10.5q-1 -6 -0.5 -13t0.5 -13q0 -17 -1 -34.5t1 -34.5q0 -7 4.5 -12.5t9.5 -7t10 1t7 10.5q2 6 1.5 13t-0.5 13v69zM424 66q-1 29 -9 59.5t-27 53.5v-107q0 -7 5.5 -11t12 -5t12 1.5t6.5 8.5zM245 559q-13 -3 -24.5 -11t-20.5 -18q-3 -3 -7.5 -11.5t-7.5 -18
t-1.5 -16.5t10.5 -7q14 0 23 9.5t14.5 22.5t8.5 27t5 23zM549 -12h24v-104h-24v104zM242 491q7 2 14 9t11.5 16t6.5 18.5t0 16.5q-3 10 -15 10q-6 -17 -9.5 -35t-7.5 -35zM521 390v-33q10 0 21.5 1t12.5 15q1 15 -11.5 16t-22.5 1zM599 575q0 2 -1 3q0 6 -6 4
q-8 -4 -12.5 -11t-6.5 -15q-2 -5 0.5 -12.5t10.5 -1.5q6 5 10 15t5 18zM456 541l2 -6q3 -9 11 -4q7 3 10.5 10.5t2.5 15.5q-1 5 -4.5 8t-10.5 -2q-9 -7 -11 -22zM328 -103q0 7 4.5 10.5t9.5 3.5t9.5 -3.5t4.5 -10.5t-4.5 -10.5t-9.5 -3.5t-9.5 3.5t-4.5 10.5zM587 -103
q0 7 4.5 10.5t9.5 3.5t9.5 -3.5t4.5 -10.5t-4.5 -10.5t-9.5 -3.5t-9.5 3.5t-4.5 10.5zM493 -58q9 0 12.5 5t3 10.5t-5.5 10t-13 3.5q-5 -1 -4 -12.5t1 -16.5h6zM417 -74q-2 11 -4.5 21.5t-5.5 21.5l-9 -43h19zM411 542q-3 -4 -7 -10.5t-3 -11.5q2 -6 8 -5t7 7q1 9 -5 20z
M300 508q5 -1 13 7t9 13q2 3 -1 5t-6 0q-5 -5 -8.5 -11.5t-6.5 -13.5zM666 627h-1q-17 -19 -23 -40q8 9 15 18.5t9 21.5zM358 562h1q0 3 1 6t-1 6q-2 0 -3 -3q-1 -4 2 -9z" />
    <glyph glyph-name="ampersand" unicode="&#x26;" horiz-adv-x="868" 
d="M12 427q32 17 64 31.5t67 24.5q2 0 4 9.5t4 21t3.5 22.5t3.5 15q10 15 31 24t37 16q41 17 83 29t85 23q44 11 87.5 18.5t88.5 11.5q16 2 37.5 4t44 1.5t42.5 -5.5t32 -18q2 -2 0 -13.5t-3 -15.5l-3 -45q0 -2 2 -2q37 -11 71 -27t57 -48v-1q-8 2 -17.5 -1.5t-18.5 -9.5
t-17.5 -13t-12.5 -12q14 -8 22.5 -22t12.5 -31t3.5 -34t-5.5 -31q-8 20 -23.5 31t-34 16t-39.5 6.5t-39 2.5q-20 2 -43 1t-43 6q-8 3 -11 12t-3.5 20t1 22t2.5 17q-85 -6 -168.5 -25.5t-163.5 -47.5q-3 -2 -3 -3q1 -5 3.5 -16t5 -23t3 -22.5t-3.5 -13.5q-11 -8 -27 -10
t-30 -4q-18 -2 -36.5 -5t-36.5 -6q-32 -6 -60 -18q-7 -3 -13.5 -6t-13.5 -8q-3 -3 -8 -8.5t-8 -7.5q5 16 11.5 31t12.5 30q1 3 6 12t10 19t8.5 18t2.5 10q-11 16 -27 31t-36 17zM706 484q2 26 2 52t2 52q1 14 1.5 27t2.5 26q1 6 -2.5 10t-9.5 6.5t-12.5 3.5t-11.5 2
q-56 8 -115 0t-114 -19q-60 -12 -118.5 -28t-114.5 -41q-11 -5 -22 -10.5t-20 -13.5q-10 -8 -12 -23t-4 -26q-4 -31 -4 -61.5v-61.5q9 0 24 10t24 14q17 8 35 14t35 12q71 22 146 39q36 8 72 14.5t73 10.5q34 3 72.5 4.5t70.5 -13.5zM623 543l-7.5 -7.5t-8.5 -5.5
q-7 -2 -13 5q-8 -6 -14 -7q-14 -3 -20 9v1q-4 -4 -8 -7.5t-10 -5.5q-7 -3 -12 5q-3 6 -1.5 11t4 10.5t4 10.5t0.5 10q-8 -3 -11.5 -8.5t-5 -12t-2.5 -13.5t-4 -13q-3 -8 -12 -4q-3 1 -3 5q0 2 0.5 4t0.5 4q-7 -2 -9.5 -2t-7.5 -5t-11 -9t-14 -4q-5 1 -8 4t-5 7
q-8 -8 -19 -15.5t-22 -5.5q-7 1 -12 8q-5 -5 -10.5 -10t-12.5 -7q-14 -5 -16 10q-2 12 4 20t10 18q1 2 -1 2.5t-3 -1.5q-4 -9 -9 -20.5t-11.5 -21t-16 -16t-22.5 -5.5q-14 1 -16.5 10.5t2.5 21.5t14.5 21.5t19.5 10.5q6 0 8 -5q4 -6 1 -13q-3 -11 -12.5 -19t-20.5 -10
q1 -6 5 -6.5t8 1.5t8 5t6 5q11 10 16 21.5t10 23.5q2 3 -4 12t-4 15q4 13 16 11q5 0 7 -6q2 -5 1.5 -11t-1.5 -11q10 1 14 -0.5t-2 -12.5q-4 -8 -8.5 -16t-5.5 -17q0 -4 4 -4q10 -1 16 8.5t11.5 22t10.5 24t12 15.5q3 1 7 -1q3 -3 1 -6q-2 -5 -4.5 -9.5t-0.5 -10.5t5.5 -12
t2.5 -13h1q5 6 8.5 13.5l7 15t8 14t12.5 9.5q17 7 23 -9q4 -7 2.5 -12t-0.5 -13q4 1 7 4q7 6 8 16.5t4 18.5q1 3 4.5 3.5t6.5 -0.5q4 -2 3 -6v-1q5 5 11 8q10 4 14 -6q2 -6 0.5 -11t-4 -10t-4.5 -10t-1 -11q13 10 19 25.5t20 24.5q10 6 24 0q2 4 8.5 4.5t4.5 -6.5
q-2 -9 -7 -18.5t-5 -18.5q0 -6 4 -2q9 9 14 22t9.5 26.5t11 25t19.5 19.5q7 3 11 -4q6 -11 2 -22.5t-11 -19.5q-3 -4 -9 -9t-11.5 -11t-9 -12t-1.5 -12q2 -8 10 -6q7 2 10 8.5t7 11.5q3 3 6 1q4 0 4 -4l-2 -6q-8 -18 -25 -25q-12 -6 -20 7q-2 2 -2 5zM831 511
q-23 22 -51.5 35.5t-59.5 21.5q-1 -26 -1.5 -52.5t-2.5 -52.5l-1 1v-3q-12 -1 -29.5 -2t-34.5 -4t-32 -9.5t-23 -18.5q-3 -3 2 -4q25 -10 55.5 -8t56.5 0q27 -2 54 -9q14 -4 24 -11t22 -13q0 29 -9.5 49.5t-37.5 31.5q16 14 32 27t36 21zM144 472q-28 -7 -54 -17.5
t-52 -24.5q16 -10 28 -22.5t22 -27.5q1 -2 -1.5 -8t-6.5 -13t-7.5 -13.5t-4.5 -8.5l-10 -22t-9 -22q23 12 48 18t50.5 9.5l51 7t49.5 11.5q-8 9 -21.5 12t-29 3.5t-30.5 -1l-25 -2.5v60.5t2 60.5zM362 208q0 4 -4 10h26q13 -6 24 -24t16 -31q0 12 1.5 28t-6.5 27h35
q-5 -5 -5 -11.5v-13.5v-114v-15t5 -13h-96q5 6 6 16t0.5 21t-1.5 21t-1 18v81zM313 218q18 0 26 -9.5t10.5 -23.5t1.5 -30t-1 -28v-36q0 -23 -12.5 -32t-32.5 -8q-18 0 -26.5 9.5t-11 23.5t-1.5 30t1 28q0 9 -0.5 18t0.5 18q0 23 12.5 31.5t33.5 8.5zM263 573q6 0 9 -1
q17 -2 19 -21q3 -20 -10.5 -38.5t-30.5 -29.5q-9 -6 -13.5 -15t-8.5 -18t-9.5 -17.5t-15.5 -13.5q-11 -7 -25 -4t-12 18q0 10 7 17t17 9q2 1 6.5 -0.5t2.5 -6.5q-6 -4 -11 -4q-5 -2 -7 -7.5t1 -10.5q2 -2 8 -4q9 -1 15 5.5t10.5 15.5t6.5 19t4 16q-14 -12 -28 -16
q-13 -2 -21 5q-8 5 -8 17q0 13 6 24q14 29 41 46q10 6 24 11q5 2 10 5.5t10 4.5q4 0 4 -5zM361 329q-2 7 -5 18t-4 22.5t1 21.5t10 15q5 4 15 4.5t13 -7.5t-0.5 -10.5t-8.5 -1.5t-8.5 4t0.5 7q-8 -4 -8 -13.5t3 -20.5t7.5 -21t6.5 -16q6 -17 8.5 -40.5t-9.5 -39.5
q-5 -7 -16 -9t-23.5 -2t-24.5 1.5t-19 1.5q5 7 6.5 17.5t1 22t-1.5 22.5t-1 19v58v14.5t-5 13.5h35q-6 -6 -5.5 -15.5t0.5 -17.5v-65q0 -8 -0.5 -23t4.5 -22q4 -5 9 -5.5t9.5 2t8 7t4.5 8.5q3 12 1 25t-4 25zM556 351q-2 -4 -6.5 -14t-9 -21t-6 -21t4.5 -13q-2 6 3 6.5
t10 -2t6 -6.5t-8 -8q-11 -5 -16 4t-4 17q0 7 3 15t4 14.5t-2 10.5t-14 3v-73q8 0 20 -1t20 5q-2 -6 -3.5 -12t-3.5 -12h-64q5 5 5 11.5v13.5v114v14.5t-5 13.5h59q11 -12 11.5 -28t-4.5 -31zM473 405q0 -6 3.5 -13.5t6 -14.5t2 -13.5t-7.5 -12.5q-6 -5 -15 -4.5t-10 10.5
q0 5 3 7.5t7 2.5t7 -2.5t2 -6.5q6 1 6 6t-3.5 10t-8.5 9.5t-8 5.5q-7 2 -15.5 0.5t-11.5 -8.5q-6 -12 -2 -20.5t12 -15t17.5 -12.5t14.5 -13q7 -9 10.5 -22t2 -24.5t-9 -20.5t-22.5 -10q-13 -1 -25.5 -0.5t-24.5 0.5q4 1 2.5 8t-4 16t-4 18t2.5 14q5 6 15.5 7t12.5 -10
q0 -5 -3.5 -7.5t-7 -2.5t-6.5 2t-3 7q-6 -2 -6 -6.5t3.5 -10t8.5 -9.5t8 -5q6 -2 15.5 -1.5t14.5 5.5q10 10 8 19t-9.5 17t-17 14.5t-14.5 11.5q-8 7 -13.5 19.5t-5.5 24.5t6 22t20 13q12 2 25 1.5t25 -0.5zM134 -12l-19 -104h-20q-3 17 -5.5 34.5t-4.5 34.5
q-2 -17 -5 -34.5t-6 -34.5h-20l-18 104h21q2 -19 4 -38.5t5 -38.5q2 20 5 39l6 38h18l11 -77q3 40 9 77h19zM235 -12l-19 -104h-20q-3 17 -5.5 34.5t-4.5 34.5q-2 -17 -5 -34.5t-6 -34.5h-20l-18 104h21q2 -19 4 -38.5t5 -38.5q2 20 5 39l6 38h18l11 -77q3 40 9 77h19z
M336 -12l-19 -104h-20q-3 17 -5.5 34.5t-4.5 34.5q-2 -17 -5 -34.5t-6 -34.5h-20l-18 104h21q2 -19 4 -38.5t5 -38.5q2 20 5 39l6 38h18l11 -77q3 40 9 77h19zM515 -67q7 -3 10 -9t4.5 -13t2.5 -14.5t4 -12.5h-24q-3 5 -4 12.5t-3 14t-6 10.5t-12 3v-40h-24v103q13 2 30 3
t28 -7q15 -11 11.5 -27t-17.5 -23zM707 -116h-24q-9 18 -17 36.5t-17 35.5q2 -18 2 -36v-36h-22v104h26l32 -70q-2 17 -2 35v35h22v-104zM459 51q5 7 6.5 17.5t1 22t-1.5 22.5t-1 19v58v14.5t-5 13.5h35q-5 -5 -6.5 -14.5t-1 -20t1.5 -20.5t1 -16v-76h48q11 0 26.5 -1.5
t25.5 5.5q-2 -4 -3.5 -14t-6.5 -10h-120zM450 -116h-24l-7 24h-24l-5 -24h-25l28 104h30zM802 -112q-19 -7 -36.5 -4t-29.5 13.5t-15.5 27.5t6.5 37q6 14 19.5 20.5t28.5 6.5h5t8.5 -1t7.5 -2t3 -2l-4 -19q-12 6 -22.5 4t-17 -9t-9 -17t1.5 -22q6 -21 28 -19q5 1 4 10t-1 13
h-12v19h35v-56zM541 135q-11 20 -19 43q-4 11 -6 22t-11 18h37q-6 -13 0.5 -30.5t11.5 -28.5q6 14 11 29t0 30h37q-10 -6 -12 -18t-5 -22q-3 -9 -11 -22.5t-8 -22.5q0 -5 -0.5 -12t-0.5 -14t1 -13.5t5 -10.5h-35q8 8 6.5 24.5t-1.5 27.5zM325 178q0 7 -4.5 12.5t-10 7
t-11 -1t-6.5 -10.5q-1 -6 -0.5 -13t0.5 -13q0 -17 -1 -34.5t1 -34.5q0 -7 4.5 -12.5t9.5 -7t10 1t7 10.5q2 6 1.5 13t-0.5 13v69zM424 66q-1 29 -9 59.5t-27 53.5v-107q0 -7 5.5 -11t12 -5t12 1.5t6.5 8.5zM245 559q-13 -3 -24.5 -11t-20.5 -18q-3 -3 -7.5 -11.5t-7.5 -18
t-1.5 -16.5t10.5 -7q14 0 23 9.5t14.5 22.5t8.5 27t5 23zM549 -12h24v-104h-24v104zM242 491q7 2 14 9t11.5 16t6.5 18.5t0 16.5q-3 10 -15 10q-6 -17 -9.5 -35t-7.5 -35zM521 390v-33q10 0 21.5 1t12.5 15q1 15 -11.5 16t-22.5 1zM599 575q0 2 -1 3q0 6 -6 4
q-8 -4 -12.5 -11t-6.5 -15q-2 -5 0.5 -12.5t10.5 -1.5q6 5 10 15t5 18zM456 541l2 -6q3 -9 11 -4q7 3 10.5 10.5t2.5 15.5q-1 5 -4.5 8t-10.5 -2q-9 -7 -11 -22zM328 -103q0 7 4.5 10.5t9.5 3.5t9.5 -3.5t4.5 -10.5t-4.5 -10.5t-9.5 -3.5t-9.5 3.5t-4.5 10.5zM587 -103
q0 7 4.5 10.5t9.5 3.5t9.5 -3.5t4.5 -10.5t-4.5 -10.5t-9.5 -3.5t-9.5 3.5t-4.5 10.5zM493 -58q9 0 12.5 5t3 10.5t-5.5 10t-13 3.5q-5 -1 -4 -12.5t1 -16.5h6zM417 -74q-2 11 -4.5 21.5t-5.5 21.5l-9 -43h19zM411 542q-3 -4 -7 -10.5t-3 -11.5q2 -6 8 -5t7 7q1 9 -5 20z
M300 508q5 -1 13 7t9 13q2 3 -1 5t-6 0q-5 -5 -8.5 -11.5t-6.5 -13.5zM666 627h-1q-17 -19 -23 -40q8 9 15 18.5t9 21.5zM358 562h1q0 3 1 6t-1 6q-2 0 -3 -3q-1 -4 2 -9z" />
    <glyph glyph-name="quotesingle" unicode="'" horiz-adv-x="868" 
d="M12 427q32 17 64 31.5t67 24.5q2 0 4 9.5t4 21t3.5 22.5t3.5 15q10 15 31 24t37 16q41 17 83 29t85 23q44 11 87.5 18.5t88.5 11.5q16 2 37.5 4t44 1.5t42.5 -5.5t32 -18q2 -2 0 -13.5t-3 -15.5l-3 -45q0 -2 2 -2q37 -11 71 -27t57 -48v-1q-8 2 -17.5 -1.5t-18.5 -9.5
t-17.5 -13t-12.5 -12q14 -8 22.5 -22t12.5 -31t3.5 -34t-5.5 -31q-8 20 -23.5 31t-34 16t-39.5 6.5t-39 2.5q-20 2 -43 1t-43 6q-8 3 -11 12t-3.5 20t1 22t2.5 17q-85 -6 -168.5 -25.5t-163.5 -47.5q-3 -2 -3 -3q1 -5 3.5 -16t5 -23t3 -22.5t-3.5 -13.5q-11 -8 -27 -10
t-30 -4q-18 -2 -36.5 -5t-36.5 -6q-32 -6 -60 -18q-7 -3 -13.5 -6t-13.5 -8q-3 -3 -8 -8.5t-8 -7.5q5 16 11.5 31t12.5 30q1 3 6 12t10 19t8.5 18t2.5 10q-11 16 -27 31t-36 17zM706 484q2 26 2 52t2 52q1 14 1.5 27t2.5 26q1 6 -2.5 10t-9.5 6.5t-12.5 3.5t-11.5 2
q-56 8 -115 0t-114 -19q-60 -12 -118.5 -28t-114.5 -41q-11 -5 -22 -10.5t-20 -13.5q-10 -8 -12 -23t-4 -26q-4 -31 -4 -61.5v-61.5q9 0 24 10t24 14q17 8 35 14t35 12q71 22 146 39q36 8 72 14.5t73 10.5q34 3 72.5 4.5t70.5 -13.5zM623 543l-7.5 -7.5t-8.5 -5.5
q-7 -2 -13 5q-8 -6 -14 -7q-14 -3 -20 9v1q-4 -4 -8 -7.5t-10 -5.5q-7 -3 -12 5q-3 6 -1.5 11t4 10.5t4 10.5t0.5 10q-8 -3 -11.5 -8.5t-5 -12t-2.5 -13.5t-4 -13q-3 -8 -12 -4q-3 1 -3 5q0 2 0.5 4t0.5 4q-7 -2 -9.5 -2t-7.5 -5t-11 -9t-14 -4q-5 1 -8 4t-5 7
q-8 -8 -19 -15.5t-22 -5.5q-7 1 -12 8q-5 -5 -10.5 -10t-12.5 -7q-14 -5 -16 10q-2 12 4 20t10 18q1 2 -1 2.5t-3 -1.5q-4 -9 -9 -20.5t-11.5 -21t-16 -16t-22.5 -5.5q-14 1 -16.5 10.5t2.5 21.5t14.5 21.5t19.5 10.5q6 0 8 -5q4 -6 1 -13q-3 -11 -12.5 -19t-20.5 -10
q1 -6 5 -6.5t8 1.5t8 5t6 5q11 10 16 21.5t10 23.5q2 3 -4 12t-4 15q4 13 16 11q5 0 7 -6q2 -5 1.5 -11t-1.5 -11q10 1 14 -0.5t-2 -12.5q-4 -8 -8.5 -16t-5.5 -17q0 -4 4 -4q10 -1 16 8.5t11.5 22t10.5 24t12 15.5q3 1 7 -1q3 -3 1 -6q-2 -5 -4.5 -9.5t-0.5 -10.5t5.5 -12
t2.5 -13h1q5 6 8.5 13.5l7 15t8 14t12.5 9.5q17 7 23 -9q4 -7 2.5 -12t-0.5 -13q4 1 7 4q7 6 8 16.5t4 18.5q1 3 4.5 3.5t6.5 -0.5q4 -2 3 -6v-1q5 5 11 8q10 4 14 -6q2 -6 0.5 -11t-4 -10t-4.5 -10t-1 -11q13 10 19 25.5t20 24.5q10 6 24 0q2 4 8.5 4.5t4.5 -6.5
q-2 -9 -7 -18.5t-5 -18.5q0 -6 4 -2q9 9 14 22t9.5 26.5t11 25t19.5 19.5q7 3 11 -4q6 -11 2 -22.5t-11 -19.5q-3 -4 -9 -9t-11.5 -11t-9 -12t-1.5 -12q2 -8 10 -6q7 2 10 8.5t7 11.5q3 3 6 1q4 0 4 -4l-2 -6q-8 -18 -25 -25q-12 -6 -20 7q-2 2 -2 5zM831 511
q-23 22 -51.5 35.5t-59.5 21.5q-1 -26 -1.5 -52.5t-2.5 -52.5l-1 1v-3q-12 -1 -29.5 -2t-34.5 -4t-32 -9.5t-23 -18.5q-3 -3 2 -4q25 -10 55.5 -8t56.5 0q27 -2 54 -9q14 -4 24 -11t22 -13q0 29 -9.5 49.5t-37.5 31.5q16 14 32 27t36 21zM144 472q-28 -7 -54 -17.5
t-52 -24.5q16 -10 28 -22.5t22 -27.5q1 -2 -1.5 -8t-6.5 -13t-7.5 -13.5t-4.5 -8.5l-10 -22t-9 -22q23 12 48 18t50.5 9.5l51 7t49.5 11.5q-8 9 -21.5 12t-29 3.5t-30.5 -1l-25 -2.5v60.5t2 60.5zM362 208q0 4 -4 10h26q13 -6 24 -24t16 -31q0 12 1.5 28t-6.5 27h35
q-5 -5 -5 -11.5v-13.5v-114v-15t5 -13h-96q5 6 6 16t0.5 21t-1.5 21t-1 18v81zM313 218q18 0 26 -9.5t10.5 -23.5t1.5 -30t-1 -28v-36q0 -23 -12.5 -32t-32.5 -8q-18 0 -26.5 9.5t-11 23.5t-1.5 30t1 28q0 9 -0.5 18t0.5 18q0 23 12.5 31.5t33.5 8.5zM263 573q6 0 9 -1
q17 -2 19 -21q3 -20 -10.5 -38.5t-30.5 -29.5q-9 -6 -13.5 -15t-8.5 -18t-9.5 -17.5t-15.5 -13.5q-11 -7 -25 -4t-12 18q0 10 7 17t17 9q2 1 6.5 -0.5t2.5 -6.5q-6 -4 -11 -4q-5 -2 -7 -7.5t1 -10.5q2 -2 8 -4q9 -1 15 5.5t10.5 15.5t6.5 19t4 16q-14 -12 -28 -16
q-13 -2 -21 5q-8 5 -8 17q0 13 6 24q14 29 41 46q10 6 24 11q5 2 10 5.5t10 4.5q4 0 4 -5zM361 329q-2 7 -5 18t-4 22.5t1 21.5t10 15q5 4 15 4.5t13 -7.5t-0.5 -10.5t-8.5 -1.5t-8.5 4t0.5 7q-8 -4 -8 -13.5t3 -20.5t7.5 -21t6.5 -16q6 -17 8.5 -40.5t-9.5 -39.5
q-5 -7 -16 -9t-23.5 -2t-24.5 1.5t-19 1.5q5 7 6.5 17.5t1 22t-1.5 22.5t-1 19v58v14.5t-5 13.5h35q-6 -6 -5.5 -15.5t0.5 -17.5v-65q0 -8 -0.5 -23t4.5 -22q4 -5 9 -5.5t9.5 2t8 7t4.5 8.5q3 12 1 25t-4 25zM556 351q-2 -4 -6.5 -14t-9 -21t-6 -21t4.5 -13q-2 6 3 6.5
t10 -2t6 -6.5t-8 -8q-11 -5 -16 4t-4 17q0 7 3 15t4 14.5t-2 10.5t-14 3v-73q8 0 20 -1t20 5q-2 -6 -3.5 -12t-3.5 -12h-64q5 5 5 11.5v13.5v114v14.5t-5 13.5h59q11 -12 11.5 -28t-4.5 -31zM473 405q0 -6 3.5 -13.5t6 -14.5t2 -13.5t-7.5 -12.5q-6 -5 -15 -4.5t-10 10.5
q0 5 3 7.5t7 2.5t7 -2.5t2 -6.5q6 1 6 6t-3.5 10t-8.5 9.5t-8 5.5q-7 2 -15.5 0.5t-11.5 -8.5q-6 -12 -2 -20.5t12 -15t17.5 -12.5t14.5 -13q7 -9 10.5 -22t2 -24.5t-9 -20.5t-22.5 -10q-13 -1 -25.5 -0.5t-24.5 0.5q4 1 2.5 8t-4 16t-4 18t2.5 14q5 6 15.5 7t12.5 -10
q0 -5 -3.5 -7.5t-7 -2.5t-6.5 2t-3 7q-6 -2 -6 -6.5t3.5 -10t8.5 -9.5t8 -5q6 -2 15.5 -1.5t14.5 5.5q10 10 8 19t-9.5 17t-17 14.5t-14.5 11.5q-8 7 -13.5 19.5t-5.5 24.5t6 22t20 13q12 2 25 1.5t25 -0.5zM134 -12l-19 -104h-20q-3 17 -5.5 34.5t-4.5 34.5
q-2 -17 -5 -34.5t-6 -34.5h-20l-18 104h21q2 -19 4 -38.5t5 -38.5q2 20 5 39l6 38h18l11 -77q3 40 9 77h19zM235 -12l-19 -104h-20q-3 17 -5.5 34.5t-4.5 34.5q-2 -17 -5 -34.5t-6 -34.5h-20l-18 104h21q2 -19 4 -38.5t5 -38.5q2 20 5 39l6 38h18l11 -77q3 40 9 77h19z
M336 -12l-19 -104h-20q-3 17 -5.5 34.5t-4.5 34.5q-2 -17 -5 -34.5t-6 -34.5h-20l-18 104h21q2 -19 4 -38.5t5 -38.5q2 20 5 39l6 38h18l11 -77q3 40 9 77h19zM515 -67q7 -3 10 -9t4.5 -13t2.5 -14.5t4 -12.5h-24q-3 5 -4 12.5t-3 14t-6 10.5t-12 3v-40h-24v103q13 2 30 3
t28 -7q15 -11 11.5 -27t-17.5 -23zM707 -116h-24q-9 18 -17 36.5t-17 35.5q2 -18 2 -36v-36h-22v104h26l32 -70q-2 17 -2 35v35h22v-104zM459 51q5 7 6.5 17.5t1 22t-1.5 22.5t-1 19v58v14.5t-5 13.5h35q-5 -5 -6.5 -14.5t-1 -20t1.5 -20.5t1 -16v-76h48q11 0 26.5 -1.5
t25.5 5.5q-2 -4 -3.5 -14t-6.5 -10h-120zM450 -116h-24l-7 24h-24l-5 -24h-25l28 104h30zM802 -112q-19 -7 -36.5 -4t-29.5 13.5t-15.5 27.5t6.5 37q6 14 19.5 20.5t28.5 6.5h5t8.5 -1t7.5 -2t3 -2l-4 -19q-12 6 -22.5 4t-17 -9t-9 -17t1.5 -22q6 -21 28 -19q5 1 4 10t-1 13
h-12v19h35v-56zM541 135q-11 20 -19 43q-4 11 -6 22t-11 18h37q-6 -13 0.5 -30.5t11.5 -28.5q6 14 11 29t0 30h37q-10 -6 -12 -18t-5 -22q-3 -9 -11 -22.5t-8 -22.5q0 -5 -0.5 -12t-0.5 -14t1 -13.5t5 -10.5h-35q8 8 6.5 24.5t-1.5 27.5zM325 178q0 7 -4.5 12.5t-10 7
t-11 -1t-6.5 -10.5q-1 -6 -0.5 -13t0.5 -13q0 -17 -1 -34.5t1 -34.5q0 -7 4.5 -12.5t9.5 -7t10 1t7 10.5q2 6 1.5 13t-0.5 13v69zM424 66q-1 29 -9 59.5t-27 53.5v-107q0 -7 5.5 -11t12 -5t12 1.5t6.5 8.5zM245 559q-13 -3 -24.5 -11t-20.5 -18q-3 -3 -7.5 -11.5t-7.5 -18
t-1.5 -16.5t10.5 -7q14 0 23 9.5t14.5 22.5t8.5 27t5 23zM549 -12h24v-104h-24v104zM242 491q7 2 14 9t11.5 16t6.5 18.5t0 16.5q-3 10 -15 10q-6 -17 -9.5 -35t-7.5 -35zM521 390v-33q10 0 21.5 1t12.5 15q1 15 -11.5 16t-22.5 1zM599 575q0 2 -1 3q0 6 -6 4
q-8 -4 -12.5 -11t-6.5 -15q-2 -5 0.5 -12.5t10.5 -1.5q6 5 10 15t5 18zM456 541l2 -6q3 -9 11 -4q7 3 10.5 10.5t2.5 15.5q-1 5 -4.5 8t-10.5 -2q-9 -7 -11 -22zM328 -103q0 7 4.5 10.5t9.5 3.5t9.5 -3.5t4.5 -10.5t-4.5 -10.5t-9.5 -3.5t-9.5 3.5t-4.5 10.5zM587 -103
q0 7 4.5 10.5t9.5 3.5t9.5 -3.5t4.5 -10.5t-4.5 -10.5t-9.5 -3.5t-9.5 3.5t-4.5 10.5zM493 -58q9 0 12.5 5t3 10.5t-5.5 10t-13 3.5q-5 -1 -4 -12.5t1 -16.5h6zM417 -74q-2 11 -4.5 21.5t-5.5 21.5l-9 -43h19zM411 542q-3 -4 -7 -10.5t-3 -11.5q2 -6 8 -5t7 7q1 9 -5 20z
M300 508q5 -1 13 7t9 13q2 3 -1 5t-6 0q-5 -5 -8.5 -11.5t-6.5 -13.5zM666 627h-1q-17 -19 -23 -40q8 9 15 18.5t9 21.5zM358 562h1q0 3 1 6t-1 6q-2 0 -3 -3q-1 -4 2 -9z" />
    <glyph glyph-name="parenleft" unicode="(" horiz-adv-x="868" 
d="M12 427q32 17 64 31.5t67 24.5q2 0 4 9.5t4 21t3.5 22.5t3.5 15q10 15 31 24t37 16q41 17 83 29t85 23q44 11 87.5 18.5t88.5 11.5q16 2 37.5 4t44 1.5t42.5 -5.5t32 -18q2 -2 0 -13.5t-3 -15.5l-3 -45q0 -2 2 -2q37 -11 71 -27t57 -48v-1q-8 2 -17.5 -1.5t-18.5 -9.5
t-17.5 -13t-12.5 -12q14 -8 22.5 -22t12.5 -31t3.5 -34t-5.5 -31q-8 20 -23.5 31t-34 16t-39.5 6.5t-39 2.5q-20 2 -43 1t-43 6q-8 3 -11 12t-3.5 20t1 22t2.5 17q-85 -6 -168.5 -25.5t-163.5 -47.5q-3 -2 -3 -3q1 -5 3.5 -16t5 -23t3 -22.5t-3.5 -13.5q-11 -8 -27 -10
t-30 -4q-18 -2 -36.5 -5t-36.5 -6q-32 -6 -60 -18q-7 -3 -13.5 -6t-13.5 -8q-3 -3 -8 -8.5t-8 -7.5q5 16 11.5 31t12.5 30q1 3 6 12t10 19t8.5 18t2.5 10q-11 16 -27 31t-36 17zM706 484q2 26 2 52t2 52q1 14 1.5 27t2.5 26q1 6 -2.5 10t-9.5 6.5t-12.5 3.5t-11.5 2
q-56 8 -115 0t-114 -19q-60 -12 -118.5 -28t-114.5 -41q-11 -5 -22 -10.5t-20 -13.5q-10 -8 -12 -23t-4 -26q-4 -31 -4 -61.5v-61.5q9 0 24 10t24 14q17 8 35 14t35 12q71 22 146 39q36 8 72 14.5t73 10.5q34 3 72.5 4.5t70.5 -13.5zM623 543l-7.5 -7.5t-8.5 -5.5
q-7 -2 -13 5q-8 -6 -14 -7q-14 -3 -20 9v1q-4 -4 -8 -7.5t-10 -5.5q-7 -3 -12 5q-3 6 -1.5 11t4 10.5t4 10.5t0.5 10q-8 -3 -11.5 -8.5t-5 -12t-2.5 -13.5t-4 -13q-3 -8 -12 -4q-3 1 -3 5q0 2 0.5 4t0.5 4q-7 -2 -9.5 -2t-7.5 -5t-11 -9t-14 -4q-5 1 -8 4t-5 7
q-8 -8 -19 -15.5t-22 -5.5q-7 1 -12 8q-5 -5 -10.5 -10t-12.5 -7q-14 -5 -16 10q-2 12 4 20t10 18q1 2 -1 2.5t-3 -1.5q-4 -9 -9 -20.5t-11.5 -21t-16 -16t-22.5 -5.5q-14 1 -16.5 10.5t2.5 21.5t14.5 21.5t19.5 10.5q6 0 8 -5q4 -6 1 -13q-3 -11 -12.5 -19t-20.5 -10
q1 -6 5 -6.5t8 1.5t8 5t6 5q11 10 16 21.5t10 23.5q2 3 -4 12t-4 15q4 13 16 11q5 0 7 -6q2 -5 1.5 -11t-1.5 -11q10 1 14 -0.5t-2 -12.5q-4 -8 -8.5 -16t-5.5 -17q0 -4 4 -4q10 -1 16 8.5t11.5 22t10.5 24t12 15.5q3 1 7 -1q3 -3 1 -6q-2 -5 -4.5 -9.5t-0.5 -10.5t5.5 -12
t2.5 -13h1q5 6 8.5 13.5l7 15t8 14t12.5 9.5q17 7 23 -9q4 -7 2.5 -12t-0.5 -13q4 1 7 4q7 6 8 16.5t4 18.5q1 3 4.5 3.5t6.5 -0.5q4 -2 3 -6v-1q5 5 11 8q10 4 14 -6q2 -6 0.5 -11t-4 -10t-4.5 -10t-1 -11q13 10 19 25.5t20 24.5q10 6 24 0q2 4 8.5 4.5t4.5 -6.5
q-2 -9 -7 -18.5t-5 -18.5q0 -6 4 -2q9 9 14 22t9.5 26.5t11 25t19.5 19.5q7 3 11 -4q6 -11 2 -22.5t-11 -19.5q-3 -4 -9 -9t-11.5 -11t-9 -12t-1.5 -12q2 -8 10 -6q7 2 10 8.5t7 11.5q3 3 6 1q4 0 4 -4l-2 -6q-8 -18 -25 -25q-12 -6 -20 7q-2 2 -2 5zM831 511
q-23 22 -51.5 35.5t-59.5 21.5q-1 -26 -1.5 -52.5t-2.5 -52.5l-1 1v-3q-12 -1 -29.5 -2t-34.5 -4t-32 -9.5t-23 -18.5q-3 -3 2 -4q25 -10 55.5 -8t56.5 0q27 -2 54 -9q14 -4 24 -11t22 -13q0 29 -9.5 49.5t-37.5 31.5q16 14 32 27t36 21zM144 472q-28 -7 -54 -17.5
t-52 -24.5q16 -10 28 -22.5t22 -27.5q1 -2 -1.5 -8t-6.5 -13t-7.5 -13.5t-4.5 -8.5l-10 -22t-9 -22q23 12 48 18t50.5 9.5l51 7t49.5 11.5q-8 9 -21.5 12t-29 3.5t-30.5 -1l-25 -2.5v60.5t2 60.5zM362 208q0 4 -4 10h26q13 -6 24 -24t16 -31q0 12 1.5 28t-6.5 27h35
q-5 -5 -5 -11.5v-13.5v-114v-15t5 -13h-96q5 6 6 16t0.5 21t-1.5 21t-1 18v81zM313 218q18 0 26 -9.5t10.5 -23.5t1.5 -30t-1 -28v-36q0 -23 -12.5 -32t-32.5 -8q-18 0 -26.5 9.5t-11 23.5t-1.5 30t1 28q0 9 -0.5 18t0.5 18q0 23 12.5 31.5t33.5 8.5zM263 573q6 0 9 -1
q17 -2 19 -21q3 -20 -10.5 -38.5t-30.5 -29.5q-9 -6 -13.5 -15t-8.5 -18t-9.5 -17.5t-15.5 -13.5q-11 -7 -25 -4t-12 18q0 10 7 17t17 9q2 1 6.5 -0.5t2.5 -6.5q-6 -4 -11 -4q-5 -2 -7 -7.5t1 -10.5q2 -2 8 -4q9 -1 15 5.5t10.5 15.5t6.5 19t4 16q-14 -12 -28 -16
q-13 -2 -21 5q-8 5 -8 17q0 13 6 24q14 29 41 46q10 6 24 11q5 2 10 5.5t10 4.5q4 0 4 -5zM361 329q-2 7 -5 18t-4 22.5t1 21.5t10 15q5 4 15 4.5t13 -7.5t-0.5 -10.5t-8.5 -1.5t-8.5 4t0.5 7q-8 -4 -8 -13.5t3 -20.5t7.5 -21t6.5 -16q6 -17 8.5 -40.5t-9.5 -39.5
q-5 -7 -16 -9t-23.5 -2t-24.5 1.5t-19 1.5q5 7 6.5 17.5t1 22t-1.5 22.5t-1 19v58v14.5t-5 13.5h35q-6 -6 -5.5 -15.5t0.5 -17.5v-65q0 -8 -0.5 -23t4.5 -22q4 -5 9 -5.5t9.5 2t8 7t4.5 8.5q3 12 1 25t-4 25zM556 351q-2 -4 -6.5 -14t-9 -21t-6 -21t4.5 -13q-2 6 3 6.5
t10 -2t6 -6.5t-8 -8q-11 -5 -16 4t-4 17q0 7 3 15t4 14.5t-2 10.5t-14 3v-73q8 0 20 -1t20 5q-2 -6 -3.5 -12t-3.5 -12h-64q5 5 5 11.5v13.5v114v14.5t-5 13.5h59q11 -12 11.5 -28t-4.5 -31zM473 405q0 -6 3.5 -13.5t6 -14.5t2 -13.5t-7.5 -12.5q-6 -5 -15 -4.5t-10 10.5
q0 5 3 7.5t7 2.5t7 -2.5t2 -6.5q6 1 6 6t-3.5 10t-8.5 9.5t-8 5.5q-7 2 -15.5 0.5t-11.5 -8.5q-6 -12 -2 -20.5t12 -15t17.5 -12.5t14.5 -13q7 -9 10.5 -22t2 -24.5t-9 -20.5t-22.5 -10q-13 -1 -25.5 -0.5t-24.5 0.5q4 1 2.5 8t-4 16t-4 18t2.5 14q5 6 15.5 7t12.5 -10
q0 -5 -3.5 -7.5t-7 -2.5t-6.5 2t-3 7q-6 -2 -6 -6.5t3.5 -10t8.5 -9.5t8 -5q6 -2 15.5 -1.5t14.5 5.5q10 10 8 19t-9.5 17t-17 14.5t-14.5 11.5q-8 7 -13.5 19.5t-5.5 24.5t6 22t20 13q12 2 25 1.5t25 -0.5zM134 -12l-19 -104h-20q-3 17 -5.5 34.5t-4.5 34.5
q-2 -17 -5 -34.5t-6 -34.5h-20l-18 104h21q2 -19 4 -38.5t5 -38.5q2 20 5 39l6 38h18l11 -77q3 40 9 77h19zM235 -12l-19 -104h-20q-3 17 -5.5 34.5t-4.5 34.5q-2 -17 -5 -34.5t-6 -34.5h-20l-18 104h21q2 -19 4 -38.5t5 -38.5q2 20 5 39l6 38h18l11 -77q3 40 9 77h19z
M336 -12l-19 -104h-20q-3 17 -5.5 34.5t-4.5 34.5q-2 -17 -5 -34.5t-6 -34.5h-20l-18 104h21q2 -19 4 -38.5t5 -38.5q2 20 5 39l6 38h18l11 -77q3 40 9 77h19zM515 -67q7 -3 10 -9t4.5 -13t2.5 -14.5t4 -12.5h-24q-3 5 -4 12.5t-3 14t-6 10.5t-12 3v-40h-24v103q13 2 30 3
t28 -7q15 -11 11.5 -27t-17.5 -23zM707 -116h-24q-9 18 -17 36.5t-17 35.5q2 -18 2 -36v-36h-22v104h26l32 -70q-2 17 -2 35v35h22v-104zM459 51q5 7 6.5 17.5t1 22t-1.5 22.5t-1 19v58v14.5t-5 13.5h35q-5 -5 -6.5 -14.5t-1 -20t1.5 -20.5t1 -16v-76h48q11 0 26.5 -1.5
t25.5 5.5q-2 -4 -3.5 -14t-6.5 -10h-120zM450 -116h-24l-7 24h-24l-5 -24h-25l28 104h30zM802 -112q-19 -7 -36.5 -4t-29.5 13.5t-15.5 27.5t6.5 37q6 14 19.5 20.5t28.5 6.5h5t8.5 -1t7.5 -2t3 -2l-4 -19q-12 6 -22.5 4t-17 -9t-9 -17t1.5 -22q6 -21 28 -19q5 1 4 10t-1 13
h-12v19h35v-56zM541 135q-11 20 -19 43q-4 11 -6 22t-11 18h37q-6 -13 0.5 -30.5t11.5 -28.5q6 14 11 29t0 30h37q-10 -6 -12 -18t-5 -22q-3 -9 -11 -22.5t-8 -22.5q0 -5 -0.5 -12t-0.5 -14t1 -13.5t5 -10.5h-35q8 8 6.5 24.5t-1.5 27.5zM325 178q0 7 -4.5 12.5t-10 7
t-11 -1t-6.5 -10.5q-1 -6 -0.5 -13t0.5 -13q0 -17 -1 -34.5t1 -34.5q0 -7 4.5 -12.5t9.5 -7t10 1t7 10.5q2 6 1.5 13t-0.5 13v69zM424 66q-1 29 -9 59.5t-27 53.5v-107q0 -7 5.5 -11t12 -5t12 1.5t6.5 8.5zM245 559q-13 -3 -24.5 -11t-20.5 -18q-3 -3 -7.5 -11.5t-7.5 -18
t-1.5 -16.5t10.5 -7q14 0 23 9.5t14.5 22.5t8.5 27t5 23zM549 -12h24v-104h-24v104zM242 491q7 2 14 9t11.5 16t6.5 18.5t0 16.5q-3 10 -15 10q-6 -17 -9.5 -35t-7.5 -35zM521 390v-33q10 0 21.5 1t12.5 15q1 15 -11.5 16t-22.5 1zM599 575q0 2 -1 3q0 6 -6 4
q-8 -4 -12.5 -11t-6.5 -15q-2 -5 0.5 -12.5t10.5 -1.5q6 5 10 15t5 18zM456 541l2 -6q3 -9 11 -4q7 3 10.5 10.5t2.5 15.5q-1 5 -4.5 8t-10.5 -2q-9 -7 -11 -22zM328 -103q0 7 4.5 10.5t9.5 3.5t9.5 -3.5t4.5 -10.5t-4.5 -10.5t-9.5 -3.5t-9.5 3.5t-4.5 10.5zM587 -103
q0 7 4.5 10.5t9.5 3.5t9.5 -3.5t4.5 -10.5t-4.5 -10.5t-9.5 -3.5t-9.5 3.5t-4.5 10.5zM493 -58q9 0 12.5 5t3 10.5t-5.5 10t-13 3.5q-5 -1 -4 -12.5t1 -16.5h6zM417 -74q-2 11 -4.5 21.5t-5.5 21.5l-9 -43h19zM411 542q-3 -4 -7 -10.5t-3 -11.5q2 -6 8 -5t7 7q1 9 -5 20z
M300 508q5 -1 13 7t9 13q2 3 -1 5t-6 0q-5 -5 -8.5 -11.5t-6.5 -13.5zM666 627h-1q-17 -19 -23 -40q8 9 15 18.5t9 21.5zM358 562h1q0 3 1 6t-1 6q-2 0 -3 -3q-1 -4 2 -9z" />
    <glyph glyph-name="parenright" unicode=")" horiz-adv-x="868" 
d="M12 427q32 17 64 31.5t67 24.5q2 0 4 9.5t4 21t3.5 22.5t3.5 15q10 15 31 24t37 16q41 17 83 29t85 23q44 11 87.5 18.5t88.5 11.5q16 2 37.5 4t44 1.5t42.5 -5.5t32 -18q2 -2 0 -13.5t-3 -15.5l-3 -45q0 -2 2 -2q37 -11 71 -27t57 -48v-1q-8 2 -17.5 -1.5t-18.5 -9.5
t-17.5 -13t-12.5 -12q14 -8 22.5 -22t12.5 -31t3.5 -34t-5.5 -31q-8 20 -23.5 31t-34 16t-39.5 6.5t-39 2.5q-20 2 -43 1t-43 6q-8 3 -11 12t-3.5 20t1 22t2.5 17q-85 -6 -168.5 -25.5t-163.5 -47.5q-3 -2 -3 -3q1 -5 3.5 -16t5 -23t3 -22.5t-3.5 -13.5q-11 -8 -27 -10
t-30 -4q-18 -2 -36.5 -5t-36.5 -6q-32 -6 -60 -18q-7 -3 -13.5 -6t-13.5 -8q-3 -3 -8 -8.5t-8 -7.5q5 16 11.5 31t12.5 30q1 3 6 12t10 19t8.5 18t2.5 10q-11 16 -27 31t-36 17zM706 484q2 26 2 52t2 52q1 14 1.5 27t2.5 26q1 6 -2.5 10t-9.5 6.5t-12.5 3.5t-11.5 2
q-56 8 -115 0t-114 -19q-60 -12 -118.5 -28t-114.5 -41q-11 -5 -22 -10.5t-20 -13.5q-10 -8 -12 -23t-4 -26q-4 -31 -4 -61.5v-61.5q9 0 24 10t24 14q17 8 35 14t35 12q71 22 146 39q36 8 72 14.5t73 10.5q34 3 72.5 4.5t70.5 -13.5zM623 543l-7.5 -7.5t-8.5 -5.5
q-7 -2 -13 5q-8 -6 -14 -7q-14 -3 -20 9v1q-4 -4 -8 -7.5t-10 -5.5q-7 -3 -12 5q-3 6 -1.5 11t4 10.5t4 10.5t0.5 10q-8 -3 -11.5 -8.5t-5 -12t-2.5 -13.5t-4 -13q-3 -8 -12 -4q-3 1 -3 5q0 2 0.5 4t0.5 4q-7 -2 -9.5 -2t-7.5 -5t-11 -9t-14 -4q-5 1 -8 4t-5 7
q-8 -8 -19 -15.5t-22 -5.5q-7 1 -12 8q-5 -5 -10.5 -10t-12.5 -7q-14 -5 -16 10q-2 12 4 20t10 18q1 2 -1 2.5t-3 -1.5q-4 -9 -9 -20.5t-11.5 -21t-16 -16t-22.5 -5.5q-14 1 -16.5 10.5t2.5 21.5t14.5 21.5t19.5 10.5q6 0 8 -5q4 -6 1 -13q-3 -11 -12.5 -19t-20.5 -10
q1 -6 5 -6.5t8 1.5t8 5t6 5q11 10 16 21.5t10 23.5q2 3 -4 12t-4 15q4 13 16 11q5 0 7 -6q2 -5 1.5 -11t-1.5 -11q10 1 14 -0.5t-2 -12.5q-4 -8 -8.5 -16t-5.5 -17q0 -4 4 -4q10 -1 16 8.5t11.5 22t10.5 24t12 15.5q3 1 7 -1q3 -3 1 -6q-2 -5 -4.5 -9.5t-0.5 -10.5t5.5 -12
t2.5 -13h1q5 6 8.5 13.5l7 15t8 14t12.5 9.5q17 7 23 -9q4 -7 2.5 -12t-0.5 -13q4 1 7 4q7 6 8 16.5t4 18.5q1 3 4.5 3.5t6.5 -0.5q4 -2 3 -6v-1q5 5 11 8q10 4 14 -6q2 -6 0.5 -11t-4 -10t-4.5 -10t-1 -11q13 10 19 25.5t20 24.5q10 6 24 0q2 4 8.5 4.5t4.5 -6.5
q-2 -9 -7 -18.5t-5 -18.5q0 -6 4 -2q9 9 14 22t9.5 26.5t11 25t19.5 19.5q7 3 11 -4q6 -11 2 -22.5t-11 -19.5q-3 -4 -9 -9t-11.5 -11t-9 -12t-1.5 -12q2 -8 10 -6q7 2 10 8.5t7 11.5q3 3 6 1q4 0 4 -4l-2 -6q-8 -18 -25 -25q-12 -6 -20 7q-2 2 -2 5zM831 511
q-23 22 -51.5 35.5t-59.5 21.5q-1 -26 -1.5 -52.5t-2.5 -52.5l-1 1v-3q-12 -1 -29.5 -2t-34.5 -4t-32 -9.5t-23 -18.5q-3 -3 2 -4q25 -10 55.5 -8t56.5 0q27 -2 54 -9q14 -4 24 -11t22 -13q0 29 -9.5 49.5t-37.5 31.5q16 14 32 27t36 21zM144 472q-28 -7 -54 -17.5
t-52 -24.5q16 -10 28 -22.5t22 -27.5q1 -2 -1.5 -8t-6.5 -13t-7.5 -13.5t-4.5 -8.5l-10 -22t-9 -22q23 12 48 18t50.5 9.5l51 7t49.5 11.5q-8 9 -21.5 12t-29 3.5t-30.5 -1l-25 -2.5v60.5t2 60.5zM362 208q0 4 -4 10h26q13 -6 24 -24t16 -31q0 12 1.5 28t-6.5 27h35
q-5 -5 -5 -11.5v-13.5v-114v-15t5 -13h-96q5 6 6 16t0.5 21t-1.5 21t-1 18v81zM313 218q18 0 26 -9.5t10.5 -23.5t1.5 -30t-1 -28v-36q0 -23 -12.5 -32t-32.5 -8q-18 0 -26.5 9.5t-11 23.5t-1.5 30t1 28q0 9 -0.5 18t0.5 18q0 23 12.5 31.5t33.5 8.5zM263 573q6 0 9 -1
q17 -2 19 -21q3 -20 -10.5 -38.5t-30.5 -29.5q-9 -6 -13.5 -15t-8.5 -18t-9.5 -17.5t-15.5 -13.5q-11 -7 -25 -4t-12 18q0 10 7 17t17 9q2 1 6.5 -0.5t2.5 -6.5q-6 -4 -11 -4q-5 -2 -7 -7.5t1 -10.5q2 -2 8 -4q9 -1 15 5.5t10.5 15.5t6.5 19t4 16q-14 -12 -28 -16
q-13 -2 -21 5q-8 5 -8 17q0 13 6 24q14 29 41 46q10 6 24 11q5 2 10 5.5t10 4.5q4 0 4 -5zM361 329q-2 7 -5 18t-4 22.5t1 21.5t10 15q5 4 15 4.5t13 -7.5t-0.5 -10.5t-8.5 -1.5t-8.5 4t0.5 7q-8 -4 -8 -13.5t3 -20.5t7.5 -21t6.5 -16q6 -17 8.5 -40.5t-9.5 -39.5
q-5 -7 -16 -9t-23.5 -2t-24.5 1.5t-19 1.5q5 7 6.5 17.5t1 22t-1.5 22.5t-1 19v58v14.5t-5 13.5h35q-6 -6 -5.5 -15.5t0.5 -17.5v-65q0 -8 -0.5 -23t4.5 -22q4 -5 9 -5.5t9.5 2t8 7t4.5 8.5q3 12 1 25t-4 25zM556 351q-2 -4 -6.5 -14t-9 -21t-6 -21t4.5 -13q-2 6 3 6.5
t10 -2t6 -6.5t-8 -8q-11 -5 -16 4t-4 17q0 7 3 15t4 14.5t-2 10.5t-14 3v-73q8 0 20 -1t20 5q-2 -6 -3.5 -12t-3.5 -12h-64q5 5 5 11.5v13.5v114v14.5t-5 13.5h59q11 -12 11.5 -28t-4.5 -31zM473 405q0 -6 3.5 -13.5t6 -14.5t2 -13.5t-7.5 -12.5q-6 -5 -15 -4.5t-10 10.5
q0 5 3 7.5t7 2.5t7 -2.5t2 -6.5q6 1 6 6t-3.5 10t-8.5 9.5t-8 5.5q-7 2 -15.5 0.5t-11.5 -8.5q-6 -12 -2 -20.5t12 -15t17.5 -12.5t14.5 -13q7 -9 10.5 -22t2 -24.5t-9 -20.5t-22.5 -10q-13 -1 -25.5 -0.5t-24.5 0.5q4 1 2.5 8t-4 16t-4 18t2.5 14q5 6 15.5 7t12.5 -10
q0 -5 -3.5 -7.5t-7 -2.5t-6.5 2t-3 7q-6 -2 -6 -6.5t3.5 -10t8.5 -9.5t8 -5q6 -2 15.5 -1.5t14.5 5.5q10 10 8 19t-9.5 17t-17 14.5t-14.5 11.5q-8 7 -13.5 19.5t-5.5 24.5t6 22t20 13q12 2 25 1.5t25 -0.5zM134 -12l-19 -104h-20q-3 17 -5.5 34.5t-4.5 34.5
q-2 -17 -5 -34.5t-6 -34.5h-20l-18 104h21q2 -19 4 -38.5t5 -38.5q2 20 5 39l6 38h18l11 -77q3 40 9 77h19zM235 -12l-19 -104h-20q-3 17 -5.5 34.5t-4.5 34.5q-2 -17 -5 -34.5t-6 -34.5h-20l-18 104h21q2 -19 4 -38.5t5 -38.5q2 20 5 39l6 38h18l11 -77q3 40 9 77h19z
M336 -12l-19 -104h-20q-3 17 -5.5 34.5t-4.5 34.5q-2 -17 -5 -34.5t-6 -34.5h-20l-18 104h21q2 -19 4 -38.5t5 -38.5q2 20 5 39l6 38h18l11 -77q3 40 9 77h19zM515 -67q7 -3 10 -9t4.5 -13t2.5 -14.5t4 -12.5h-24q-3 5 -4 12.5t-3 14t-6 10.5t-12 3v-40h-24v103q13 2 30 3
t28 -7q15 -11 11.5 -27t-17.5 -23zM707 -116h-24q-9 18 -17 36.5t-17 35.5q2 -18 2 -36v-36h-22v104h26l32 -70q-2 17 -2 35v35h22v-104zM459 51q5 7 6.5 17.5t1 22t-1.5 22.5t-1 19v58v14.5t-5 13.5h35q-5 -5 -6.5 -14.5t-1 -20t1.5 -20.5t1 -16v-76h48q11 0 26.5 -1.5
t25.5 5.5q-2 -4 -3.5 -14t-6.5 -10h-120zM450 -116h-24l-7 24h-24l-5 -24h-25l28 104h30zM802 -112q-19 -7 -36.5 -4t-29.5 13.5t-15.5 27.5t6.5 37q6 14 19.5 20.5t28.5 6.5h5t8.5 -1t7.5 -2t3 -2l-4 -19q-12 6 -22.5 4t-17 -9t-9 -17t1.5 -22q6 -21 28 -19q5 1 4 10t-1 13
h-12v19h35v-56zM541 135q-11 20 -19 43q-4 11 -6 22t-11 18h37q-6 -13 0.5 -30.5t11.5 -28.5q6 14 11 29t0 30h37q-10 -6 -12 -18t-5 -22q-3 -9 -11 -22.5t-8 -22.5q0 -5 -0.5 -12t-0.5 -14t1 -13.5t5 -10.5h-35q8 8 6.5 24.5t-1.5 27.5zM325 178q0 7 -4.5 12.5t-10 7
t-11 -1t-6.5 -10.5q-1 -6 -0.5 -13t0.5 -13q0 -17 -1 -34.5t1 -34.5q0 -7 4.5 -12.5t9.5 -7t10 1t7 10.5q2 6 1.5 13t-0.5 13v69zM424 66q-1 29 -9 59.5t-27 53.5v-107q0 -7 5.5 -11t12 -5t12 1.5t6.5 8.5zM245 559q-13 -3 -24.5 -11t-20.5 -18q-3 -3 -7.5 -11.5t-7.5 -18
t-1.5 -16.5t10.5 -7q14 0 23 9.5t14.5 22.5t8.5 27t5 23zM549 -12h24v-104h-24v104zM242 491q7 2 14 9t11.5 16t6.5 18.5t0 16.5q-3 10 -15 10q-6 -17 -9.5 -35t-7.5 -35zM521 390v-33q10 0 21.5 1t12.5 15q1 15 -11.5 16t-22.5 1zM599 575q0 2 -1 3q0 6 -6 4
q-8 -4 -12.5 -11t-6.5 -15q-2 -5 0.5 -12.5t10.5 -1.5q6 5 10 15t5 18zM456 541l2 -6q3 -9 11 -4q7 3 10.5 10.5t2.5 15.5q-1 5 -4.5 8t-10.5 -2q-9 -7 -11 -22zM328 -103q0 7 4.5 10.5t9.5 3.5t9.5 -3.5t4.5 -10.5t-4.5 -10.5t-9.5 -3.5t-9.5 3.5t-4.5 10.5zM587 -103
q0 7 4.5 10.5t9.5 3.5t9.5 -3.5t4.5 -10.5t-4.5 -10.5t-9.5 -3.5t-9.5 3.5t-4.5 10.5zM493 -58q9 0 12.5 5t3 10.5t-5.5 10t-13 3.5q-5 -1 -4 -12.5t1 -16.5h6zM417 -74q-2 11 -4.5 21.5t-5.5 21.5l-9 -43h19zM411 542q-3 -4 -7 -10.5t-3 -11.5q2 -6 8 -5t7 7q1 9 -5 20z
M300 508q5 -1 13 7t9 13q2 3 -1 5t-6 0q-5 -5 -8.5 -11.5t-6.5 -13.5zM666 627h-1q-17 -19 -23 -40q8 9 15 18.5t9 21.5zM358 562h1q0 3 1 6t-1 6q-2 0 -3 -3q-1 -4 2 -9z" />
    <glyph glyph-name="asterisk" unicode="*" horiz-adv-x="868" 
d="M12 427q32 17 64 31.5t67 24.5q2 0 4 9.5t4 21t3.5 22.5t3.5 15q10 15 31 24t37 16q41 17 83 29t85 23q44 11 87.5 18.5t88.5 11.5q16 2 37.5 4t44 1.5t42.5 -5.5t32 -18q2 -2 0 -13.5t-3 -15.5l-3 -45q0 -2 2 -2q37 -11 71 -27t57 -48v-1q-8 2 -17.5 -1.5t-18.5 -9.5
t-17.5 -13t-12.5 -12q14 -8 22.5 -22t12.5 -31t3.5 -34t-5.5 -31q-8 20 -23.5 31t-34 16t-39.5 6.5t-39 2.5q-20 2 -43 1t-43 6q-8 3 -11 12t-3.5 20t1 22t2.5 17q-85 -6 -168.5 -25.5t-163.5 -47.5q-3 -2 -3 -3q1 -5 3.5 -16t5 -23t3 -22.5t-3.5 -13.5q-11 -8 -27 -10
t-30 -4q-18 -2 -36.5 -5t-36.5 -6q-32 -6 -60 -18q-7 -3 -13.5 -6t-13.5 -8q-3 -3 -8 -8.5t-8 -7.5q5 16 11.5 31t12.5 30q1 3 6 12t10 19t8.5 18t2.5 10q-11 16 -27 31t-36 17zM706 484q2 26 2 52t2 52q1 14 1.5 27t2.5 26q1 6 -2.5 10t-9.5 6.5t-12.5 3.5t-11.5 2
q-56 8 -115 0t-114 -19q-60 -12 -118.5 -28t-114.5 -41q-11 -5 -22 -10.5t-20 -13.5q-10 -8 -12 -23t-4 -26q-4 -31 -4 -61.5v-61.5q9 0 24 10t24 14q17 8 35 14t35 12q71 22 146 39q36 8 72 14.5t73 10.5q34 3 72.5 4.5t70.5 -13.5zM623 543l-7.5 -7.5t-8.5 -5.5
q-7 -2 -13 5q-8 -6 -14 -7q-14 -3 -20 9v1q-4 -4 -8 -7.5t-10 -5.5q-7 -3 -12 5q-3 6 -1.5 11t4 10.5t4 10.5t0.5 10q-8 -3 -11.5 -8.5t-5 -12t-2.5 -13.5t-4 -13q-3 -8 -12 -4q-3 1 -3 5q0 2 0.5 4t0.5 4q-7 -2 -9.5 -2t-7.5 -5t-11 -9t-14 -4q-5 1 -8 4t-5 7
q-8 -8 -19 -15.5t-22 -5.5q-7 1 -12 8q-5 -5 -10.5 -10t-12.5 -7q-14 -5 -16 10q-2 12 4 20t10 18q1 2 -1 2.5t-3 -1.5q-4 -9 -9 -20.5t-11.5 -21t-16 -16t-22.5 -5.5q-14 1 -16.5 10.5t2.5 21.5t14.5 21.5t19.5 10.5q6 0 8 -5q4 -6 1 -13q-3 -11 -12.5 -19t-20.5 -10
q1 -6 5 -6.5t8 1.5t8 5t6 5q11 10 16 21.5t10 23.5q2 3 -4 12t-4 15q4 13 16 11q5 0 7 -6q2 -5 1.5 -11t-1.5 -11q10 1 14 -0.5t-2 -12.5q-4 -8 -8.5 -16t-5.5 -17q0 -4 4 -4q10 -1 16 8.5t11.5 22t10.5 24t12 15.5q3 1 7 -1q3 -3 1 -6q-2 -5 -4.5 -9.5t-0.5 -10.5t5.5 -12
t2.5 -13h1q5 6 8.5 13.5l7 15t8 14t12.5 9.5q17 7 23 -9q4 -7 2.5 -12t-0.5 -13q4 1 7 4q7 6 8 16.5t4 18.5q1 3 4.5 3.5t6.5 -0.5q4 -2 3 -6v-1q5 5 11 8q10 4 14 -6q2 -6 0.5 -11t-4 -10t-4.5 -10t-1 -11q13 10 19 25.5t20 24.5q10 6 24 0q2 4 8.5 4.5t4.5 -6.5
q-2 -9 -7 -18.5t-5 -18.5q0 -6 4 -2q9 9 14 22t9.5 26.5t11 25t19.5 19.5q7 3 11 -4q6 -11 2 -22.5t-11 -19.5q-3 -4 -9 -9t-11.5 -11t-9 -12t-1.5 -12q2 -8 10 -6q7 2 10 8.5t7 11.5q3 3 6 1q4 0 4 -4l-2 -6q-8 -18 -25 -25q-12 -6 -20 7q-2 2 -2 5zM831 511
q-23 22 -51.5 35.5t-59.5 21.5q-1 -26 -1.5 -52.5t-2.5 -52.5l-1 1v-3q-12 -1 -29.5 -2t-34.5 -4t-32 -9.5t-23 -18.5q-3 -3 2 -4q25 -10 55.5 -8t56.5 0q27 -2 54 -9q14 -4 24 -11t22 -13q0 29 -9.5 49.5t-37.5 31.5q16 14 32 27t36 21zM144 472q-28 -7 -54 -17.5
t-52 -24.5q16 -10 28 -22.5t22 -27.5q1 -2 -1.5 -8t-6.5 -13t-7.5 -13.5t-4.5 -8.5l-10 -22t-9 -22q23 12 48 18t50.5 9.5l51 7t49.5 11.5q-8 9 -21.5 12t-29 3.5t-30.5 -1l-25 -2.5v60.5t2 60.5zM362 208q0 4 -4 10h26q13 -6 24 -24t16 -31q0 12 1.5 28t-6.5 27h35
q-5 -5 -5 -11.5v-13.5v-114v-15t5 -13h-96q5 6 6 16t0.5 21t-1.5 21t-1 18v81zM313 218q18 0 26 -9.5t10.5 -23.5t1.5 -30t-1 -28v-36q0 -23 -12.5 -32t-32.5 -8q-18 0 -26.5 9.5t-11 23.5t-1.5 30t1 28q0 9 -0.5 18t0.5 18q0 23 12.5 31.5t33.5 8.5zM263 573q6 0 9 -1
q17 -2 19 -21q3 -20 -10.5 -38.5t-30.5 -29.5q-9 -6 -13.5 -15t-8.5 -18t-9.5 -17.5t-15.5 -13.5q-11 -7 -25 -4t-12 18q0 10 7 17t17 9q2 1 6.5 -0.5t2.5 -6.5q-6 -4 -11 -4q-5 -2 -7 -7.5t1 -10.5q2 -2 8 -4q9 -1 15 5.5t10.5 15.5t6.5 19t4 16q-14 -12 -28 -16
q-13 -2 -21 5q-8 5 -8 17q0 13 6 24q14 29 41 46q10 6 24 11q5 2 10 5.5t10 4.5q4 0 4 -5zM361 329q-2 7 -5 18t-4 22.5t1 21.5t10 15q5 4 15 4.5t13 -7.5t-0.5 -10.5t-8.5 -1.5t-8.5 4t0.5 7q-8 -4 -8 -13.5t3 -20.5t7.5 -21t6.5 -16q6 -17 8.5 -40.5t-9.5 -39.5
q-5 -7 -16 -9t-23.5 -2t-24.5 1.5t-19 1.5q5 7 6.5 17.5t1 22t-1.5 22.5t-1 19v58v14.5t-5 13.5h35q-6 -6 -5.5 -15.5t0.5 -17.5v-65q0 -8 -0.5 -23t4.5 -22q4 -5 9 -5.5t9.5 2t8 7t4.5 8.5q3 12 1 25t-4 25zM556 351q-2 -4 -6.5 -14t-9 -21t-6 -21t4.5 -13q-2 6 3 6.5
t10 -2t6 -6.5t-8 -8q-11 -5 -16 4t-4 17q0 7 3 15t4 14.5t-2 10.5t-14 3v-73q8 0 20 -1t20 5q-2 -6 -3.5 -12t-3.5 -12h-64q5 5 5 11.5v13.5v114v14.5t-5 13.5h59q11 -12 11.5 -28t-4.5 -31zM473 405q0 -6 3.5 -13.5t6 -14.5t2 -13.5t-7.5 -12.5q-6 -5 -15 -4.5t-10 10.5
q0 5 3 7.5t7 2.5t7 -2.5t2 -6.5q6 1 6 6t-3.5 10t-8.5 9.5t-8 5.5q-7 2 -15.5 0.5t-11.5 -8.5q-6 -12 -2 -20.5t12 -15t17.5 -12.5t14.5 -13q7 -9 10.5 -22t2 -24.5t-9 -20.5t-22.5 -10q-13 -1 -25.5 -0.5t-24.5 0.5q4 1 2.5 8t-4 16t-4 18t2.5 14q5 6 15.5 7t12.5 -10
q0 -5 -3.5 -7.5t-7 -2.5t-6.5 2t-3 7q-6 -2 -6 -6.5t3.5 -10t8.5 -9.5t8 -5q6 -2 15.5 -1.5t14.5 5.5q10 10 8 19t-9.5 17t-17 14.5t-14.5 11.5q-8 7 -13.5 19.5t-5.5 24.5t6 22t20 13q12 2 25 1.5t25 -0.5zM134 -12l-19 -104h-20q-3 17 -5.5 34.5t-4.5 34.5
q-2 -17 -5 -34.5t-6 -34.5h-20l-18 104h21q2 -19 4 -38.5t5 -38.5q2 20 5 39l6 38h18l11 -77q3 40 9 77h19zM235 -12l-19 -104h-20q-3 17 -5.5 34.5t-4.5 34.5q-2 -17 -5 -34.5t-6 -34.5h-20l-18 104h21q2 -19 4 -38.5t5 -38.5q2 20 5 39l6 38h18l11 -77q3 40 9 77h19z
M336 -12l-19 -104h-20q-3 17 -5.5 34.5t-4.5 34.5q-2 -17 -5 -34.5t-6 -34.5h-20l-18 104h21q2 -19 4 -38.5t5 -38.5q2 20 5 39l6 38h18l11 -77q3 40 9 77h19zM515 -67q7 -3 10 -9t4.5 -13t2.5 -14.5t4 -12.5h-24q-3 5 -4 12.5t-3 14t-6 10.5t-12 3v-40h-24v103q13 2 30 3
t28 -7q15 -11 11.5 -27t-17.5 -23zM707 -116h-24q-9 18 -17 36.5t-17 35.5q2 -18 2 -36v-36h-22v104h26l32 -70q-2 17 -2 35v35h22v-104zM459 51q5 7 6.5 17.5t1 22t-1.5 22.5t-1 19v58v14.5t-5 13.5h35q-5 -5 -6.5 -14.5t-1 -20t1.5 -20.5t1 -16v-76h48q11 0 26.5 -1.5
t25.5 5.5q-2 -4 -3.5 -14t-6.5 -10h-120zM450 -116h-24l-7 24h-24l-5 -24h-25l28 104h30zM802 -112q-19 -7 -36.5 -4t-29.5 13.5t-15.5 27.5t6.5 37q6 14 19.5 20.5t28.5 6.5h5t8.5 -1t7.5 -2t3 -2l-4 -19q-12 6 -22.5 4t-17 -9t-9 -17t1.5 -22q6 -21 28 -19q5 1 4 10t-1 13
h-12v19h35v-56zM541 135q-11 20 -19 43q-4 11 -6 22t-11 18h37q-6 -13 0.5 -30.5t11.5 -28.5q6 14 11 29t0 30h37q-10 -6 -12 -18t-5 -22q-3 -9 -11 -22.5t-8 -22.5q0 -5 -0.5 -12t-0.5 -14t1 -13.5t5 -10.5h-35q8 8 6.5 24.5t-1.5 27.5zM325 178q0 7 -4.5 12.5t-10 7
t-11 -1t-6.5 -10.5q-1 -6 -0.5 -13t0.5 -13q0 -17 -1 -34.5t1 -34.5q0 -7 4.5 -12.5t9.5 -7t10 1t7 10.5q2 6 1.5 13t-0.5 13v69zM424 66q-1 29 -9 59.5t-27 53.5v-107q0 -7 5.5 -11t12 -5t12 1.5t6.5 8.5zM245 559q-13 -3 -24.5 -11t-20.5 -18q-3 -3 -7.5 -11.5t-7.5 -18
t-1.5 -16.5t10.5 -7q14 0 23 9.5t14.5 22.5t8.5 27t5 23zM549 -12h24v-104h-24v104zM242 491q7 2 14 9t11.5 16t6.5 18.5t0 16.5q-3 10 -15 10q-6 -17 -9.5 -35t-7.5 -35zM521 390v-33q10 0 21.5 1t12.5 15q1 15 -11.5 16t-22.5 1zM599 575q0 2 -1 3q0 6 -6 4
q-8 -4 -12.5 -11t-6.5 -15q-2 -5 0.5 -12.5t10.5 -1.5q6 5 10 15t5 18zM456 541l2 -6q3 -9 11 -4q7 3 10.5 10.5t2.5 15.5q-1 5 -4.5 8t-10.5 -2q-9 -7 -11 -22zM328 -103q0 7 4.5 10.5t9.5 3.5t9.5 -3.5t4.5 -10.5t-4.5 -10.5t-9.5 -3.5t-9.5 3.5t-4.5 10.5zM587 -103
q0 7 4.5 10.5t9.5 3.5t9.5 -3.5t4.5 -10.5t-4.5 -10.5t-9.5 -3.5t-9.5 3.5t-4.5 10.5zM493 -58q9 0 12.5 5t3 10.5t-5.5 10t-13 3.5q-5 -1 -4 -12.5t1 -16.5h6zM417 -74q-2 11 -4.5 21.5t-5.5 21.5l-9 -43h19zM411 542q-3 -4 -7 -10.5t-3 -11.5q2 -6 8 -5t7 7q1 9 -5 20z
M300 508q5 -1 13 7t9 13q2 3 -1 5t-6 0q-5 -5 -8.5 -11.5t-6.5 -13.5zM666 627h-1q-17 -19 -23 -40q8 9 15 18.5t9 21.5zM358 562h1q0 3 1 6t-1 6q-2 0 -3 -3q-1 -4 2 -9z" />
    <glyph glyph-name="plus" unicode="+" horiz-adv-x="166" 
d="M51 250h-41l1 63h40v41h63v-41h42v-63h-42v-42l-63 1v41z" />
    <glyph glyph-name="comma" unicode="," horiz-adv-x="117" 
d="M14 31q-4 13 -4 25.5t5 23t15.5 17t27.5 6.5q32 0 42.5 -21.5t2.5 -50.5l-34 -121h-20z" />
    <glyph glyph-name="hyphen" unicode="-" horiz-adv-x="136" 
d="M126 353v-103h-116l1 103h115z" />
    <glyph glyph-name="period" unicode="." horiz-adv-x="138" 
d="M11 51q0 22 14.5 37t36.5 15t37 -15t15 -37t-15 -36.5t-37 -14.5t-36.5 14.5t-14.5 36.5z" />
    <glyph glyph-name="slash" unicode="/" horiz-adv-x="307" 
d="M207 649q2 8 1 15t-3 12q-2 6 -5 12h97q-7 -6 -12 -12q-5 -5 -9 -12t-6 -15l-171 -610q-2 -8 -1 -15t3 -12q2 -6 5 -12h-96q7 6 12 12q11 12 15 27l170 610v0z" />
    <glyph glyph-name="zero" unicode="0" horiz-adv-x="868" 
d="M12 427q32 17 64 31.5t67 24.5q2 0 4 9.5t4 21t3.5 22.5t3.5 15q10 15 31 24t37 16q41 17 83 29t85 23q44 11 87.5 18.5t88.5 11.5q16 2 37.5 4t44 1.5t42.5 -5.5t32 -18q2 -2 0 -13.5t-3 -15.5l-3 -45q0 -2 2 -2q37 -11 71 -27t57 -48v-1q-8 2 -17.5 -1.5t-18.5 -9.5
t-17.5 -13t-12.5 -12q14 -8 22.5 -22t12.5 -31t3.5 -34t-5.5 -31q-8 20 -23.5 31t-34 16t-39.5 6.5t-39 2.5q-20 2 -43 1t-43 6q-8 3 -11 12t-3.5 20t1 22t2.5 17q-85 -6 -168.5 -25.5t-163.5 -47.5q-3 -2 -3 -3q1 -5 3.5 -16t5 -23t3 -22.5t-3.5 -13.5q-11 -8 -27 -10
t-30 -4q-18 -2 -36.5 -5t-36.5 -6q-32 -6 -60 -18q-7 -3 -13.5 -6t-13.5 -8q-3 -3 -8 -8.5t-8 -7.5q5 16 11.5 31t12.5 30q1 3 6 12t10 19t8.5 18t2.5 10q-11 16 -27 31t-36 17zM706 484q2 26 2 52t2 52q1 14 1.5 27t2.5 26q1 6 -2.5 10t-9.5 6.5t-12.5 3.5t-11.5 2
q-56 8 -115 0t-114 -19q-60 -12 -118.5 -28t-114.5 -41q-11 -5 -22 -10.5t-20 -13.5q-10 -8 -12 -23t-4 -26q-4 -31 -4 -61.5v-61.5q9 0 24 10t24 14q17 8 35 14t35 12q71 22 146 39q36 8 72 14.5t73 10.5q34 3 72.5 4.5t70.5 -13.5zM623 543l-7.5 -7.5t-8.5 -5.5
q-7 -2 -13 5q-8 -6 -14 -7q-14 -3 -20 9v1q-4 -4 -8 -7.5t-10 -5.5q-7 -3 -12 5q-3 6 -1.5 11t4 10.5t4 10.5t0.5 10q-8 -3 -11.5 -8.5t-5 -12t-2.5 -13.5t-4 -13q-3 -8 -12 -4q-3 1 -3 5q0 2 0.5 4t0.5 4q-7 -2 -9.5 -2t-7.5 -5t-11 -9t-14 -4q-5 1 -8 4t-5 7
q-8 -8 -19 -15.5t-22 -5.5q-7 1 -12 8q-5 -5 -10.5 -10t-12.5 -7q-14 -5 -16 10q-2 12 4 20t10 18q1 2 -1 2.5t-3 -1.5q-4 -9 -9 -20.5t-11.5 -21t-16 -16t-22.5 -5.5q-14 1 -16.5 10.5t2.5 21.5t14.5 21.5t19.5 10.5q6 0 8 -5q4 -6 1 -13q-3 -11 -12.5 -19t-20.5 -10
q1 -6 5 -6.5t8 1.5t8 5t6 5q11 10 16 21.5t10 23.5q2 3 -4 12t-4 15q4 13 16 11q5 0 7 -6q2 -5 1.5 -11t-1.5 -11q10 1 14 -0.5t-2 -12.5q-4 -8 -8.5 -16t-5.5 -17q0 -4 4 -4q10 -1 16 8.5t11.5 22t10.5 24t12 15.5q3 1 7 -1q3 -3 1 -6q-2 -5 -4.5 -9.5t-0.5 -10.5t5.5 -12
t2.5 -13h1q5 6 8.5 13.5l7 15t8 14t12.5 9.5q17 7 23 -9q4 -7 2.5 -12t-0.5 -13q4 1 7 4q7 6 8 16.5t4 18.5q1 3 4.5 3.5t6.5 -0.5q4 -2 3 -6v-1q5 5 11 8q10 4 14 -6q2 -6 0.5 -11t-4 -10t-4.5 -10t-1 -11q13 10 19 25.5t20 24.5q10 6 24 0q2 4 8.5 4.5t4.5 -6.5
q-2 -9 -7 -18.5t-5 -18.5q0 -6 4 -2q9 9 14 22t9.5 26.5t11 25t19.5 19.5q7 3 11 -4q6 -11 2 -22.5t-11 -19.5q-3 -4 -9 -9t-11.5 -11t-9 -12t-1.5 -12q2 -8 10 -6q7 2 10 8.5t7 11.5q3 3 6 1q4 0 4 -4l-2 -6q-8 -18 -25 -25q-12 -6 -20 7q-2 2 -2 5zM831 511
q-23 22 -51.5 35.5t-59.5 21.5q-1 -26 -1.5 -52.5t-2.5 -52.5l-1 1v-3q-12 -1 -29.5 -2t-34.5 -4t-32 -9.5t-23 -18.5q-3 -3 2 -4q25 -10 55.5 -8t56.5 0q27 -2 54 -9q14 -4 24 -11t22 -13q0 29 -9.5 49.5t-37.5 31.5q16 14 32 27t36 21zM144 472q-28 -7 -54 -17.5
t-52 -24.5q16 -10 28 -22.5t22 -27.5q1 -2 -1.5 -8t-6.5 -13t-7.5 -13.5t-4.5 -8.5l-10 -22t-9 -22q23 12 48 18t50.5 9.5l51 7t49.5 11.5q-8 9 -21.5 12t-29 3.5t-30.5 -1l-25 -2.5v60.5t2 60.5zM362 208q0 4 -4 10h26q13 -6 24 -24t16 -31q0 12 1.5 28t-6.5 27h35
q-5 -5 -5 -11.5v-13.5v-114v-15t5 -13h-96q5 6 6 16t0.5 21t-1.5 21t-1 18v81zM313 218q18 0 26 -9.5t10.5 -23.5t1.5 -30t-1 -28v-36q0 -23 -12.5 -32t-32.5 -8q-18 0 -26.5 9.5t-11 23.5t-1.5 30t1 28q0 9 -0.5 18t0.5 18q0 23 12.5 31.5t33.5 8.5zM263 573q6 0 9 -1
q17 -2 19 -21q3 -20 -10.5 -38.5t-30.5 -29.5q-9 -6 -13.5 -15t-8.5 -18t-9.5 -17.5t-15.5 -13.5q-11 -7 -25 -4t-12 18q0 10 7 17t17 9q2 1 6.5 -0.5t2.5 -6.5q-6 -4 -11 -4q-5 -2 -7 -7.5t1 -10.5q2 -2 8 -4q9 -1 15 5.5t10.5 15.5t6.5 19t4 16q-14 -12 -28 -16
q-13 -2 -21 5q-8 5 -8 17q0 13 6 24q14 29 41 46q10 6 24 11q5 2 10 5.5t10 4.5q4 0 4 -5zM361 329q-2 7 -5 18t-4 22.5t1 21.5t10 15q5 4 15 4.5t13 -7.5t-0.5 -10.5t-8.5 -1.5t-8.5 4t0.5 7q-8 -4 -8 -13.5t3 -20.5t7.5 -21t6.5 -16q6 -17 8.5 -40.5t-9.5 -39.5
q-5 -7 -16 -9t-23.5 -2t-24.5 1.5t-19 1.5q5 7 6.5 17.5t1 22t-1.5 22.5t-1 19v58v14.5t-5 13.5h35q-6 -6 -5.5 -15.5t0.5 -17.5v-65q0 -8 -0.5 -23t4.5 -22q4 -5 9 -5.5t9.5 2t8 7t4.5 8.5q3 12 1 25t-4 25zM556 351q-2 -4 -6.5 -14t-9 -21t-6 -21t4.5 -13q-2 6 3 6.5
t10 -2t6 -6.5t-8 -8q-11 -5 -16 4t-4 17q0 7 3 15t4 14.5t-2 10.5t-14 3v-73q8 0 20 -1t20 5q-2 -6 -3.5 -12t-3.5 -12h-64q5 5 5 11.5v13.5v114v14.5t-5 13.5h59q11 -12 11.5 -28t-4.5 -31zM473 405q0 -6 3.5 -13.5t6 -14.5t2 -13.5t-7.5 -12.5q-6 -5 -15 -4.5t-10 10.5
q0 5 3 7.5t7 2.5t7 -2.5t2 -6.5q6 1 6 6t-3.5 10t-8.5 9.5t-8 5.5q-7 2 -15.5 0.5t-11.5 -8.5q-6 -12 -2 -20.5t12 -15t17.5 -12.5t14.5 -13q7 -9 10.5 -22t2 -24.5t-9 -20.5t-22.5 -10q-13 -1 -25.5 -0.5t-24.5 0.5q4 1 2.5 8t-4 16t-4 18t2.5 14q5 6 15.5 7t12.5 -10
q0 -5 -3.5 -7.5t-7 -2.5t-6.5 2t-3 7q-6 -2 -6 -6.5t3.5 -10t8.5 -9.5t8 -5q6 -2 15.5 -1.5t14.5 5.5q10 10 8 19t-9.5 17t-17 14.5t-14.5 11.5q-8 7 -13.5 19.5t-5.5 24.5t6 22t20 13q12 2 25 1.5t25 -0.5zM134 -12l-19 -104h-20q-3 17 -5.5 34.5t-4.5 34.5
q-2 -17 -5 -34.5t-6 -34.5h-20l-18 104h21q2 -19 4 -38.5t5 -38.5q2 20 5 39l6 38h18l11 -77q3 40 9 77h19zM235 -12l-19 -104h-20q-3 17 -5.5 34.5t-4.5 34.5q-2 -17 -5 -34.5t-6 -34.5h-20l-18 104h21q2 -19 4 -38.5t5 -38.5q2 20 5 39l6 38h18l11 -77q3 40 9 77h19z
M336 -12l-19 -104h-20q-3 17 -5.5 34.5t-4.5 34.5q-2 -17 -5 -34.5t-6 -34.5h-20l-18 104h21q2 -19 4 -38.5t5 -38.5q2 20 5 39l6 38h18l11 -77q3 40 9 77h19zM515 -67q7 -3 10 -9t4.5 -13t2.5 -14.5t4 -12.5h-24q-3 5 -4 12.5t-3 14t-6 10.5t-12 3v-40h-24v103q13 2 30 3
t28 -7q15 -11 11.5 -27t-17.5 -23zM707 -116h-24q-9 18 -17 36.5t-17 35.5q2 -18 2 -36v-36h-22v104h26l32 -70q-2 17 -2 35v35h22v-104zM459 51q5 7 6.5 17.5t1 22t-1.5 22.5t-1 19v58v14.5t-5 13.5h35q-5 -5 -6.5 -14.5t-1 -20t1.5 -20.5t1 -16v-76h48q11 0 26.5 -1.5
t25.5 5.5q-2 -4 -3.5 -14t-6.5 -10h-120zM450 -116h-24l-7 24h-24l-5 -24h-25l28 104h30zM802 -112q-19 -7 -36.5 -4t-29.5 13.5t-15.5 27.5t6.5 37q6 14 19.5 20.5t28.5 6.5h5t8.5 -1t7.5 -2t3 -2l-4 -19q-12 6 -22.5 4t-17 -9t-9 -17t1.5 -22q6 -21 28 -19q5 1 4 10t-1 13
h-12v19h35v-56zM541 135q-11 20 -19 43q-4 11 -6 22t-11 18h37q-6 -13 0.5 -30.5t11.5 -28.5q6 14 11 29t0 30h37q-10 -6 -12 -18t-5 -22q-3 -9 -11 -22.5t-8 -22.5q0 -5 -0.5 -12t-0.5 -14t1 -13.5t5 -10.5h-35q8 8 6.5 24.5t-1.5 27.5zM325 178q0 7 -4.5 12.5t-10 7
t-11 -1t-6.5 -10.5q-1 -6 -0.5 -13t0.5 -13q0 -17 -1 -34.5t1 -34.5q0 -7 4.5 -12.5t9.5 -7t10 1t7 10.5q2 6 1.5 13t-0.5 13v69zM424 66q-1 29 -9 59.5t-27 53.5v-107q0 -7 5.5 -11t12 -5t12 1.5t6.5 8.5zM245 559q-13 -3 -24.5 -11t-20.5 -18q-3 -3 -7.5 -11.5t-7.5 -18
t-1.5 -16.5t10.5 -7q14 0 23 9.5t14.5 22.5t8.5 27t5 23zM549 -12h24v-104h-24v104zM242 491q7 2 14 9t11.5 16t6.5 18.5t0 16.5q-3 10 -15 10q-6 -17 -9.5 -35t-7.5 -35zM521 390v-33q10 0 21.5 1t12.5 15q1 15 -11.5 16t-22.5 1zM599 575q0 2 -1 3q0 6 -6 4
q-8 -4 -12.5 -11t-6.5 -15q-2 -5 0.5 -12.5t10.5 -1.5q6 5 10 15t5 18zM456 541l2 -6q3 -9 11 -4q7 3 10.5 10.5t2.5 15.5q-1 5 -4.5 8t-10.5 -2q-9 -7 -11 -22zM328 -103q0 7 4.5 10.5t9.5 3.5t9.5 -3.5t4.5 -10.5t-4.5 -10.5t-9.5 -3.5t-9.5 3.5t-4.5 10.5zM587 -103
q0 7 4.5 10.5t9.5 3.5t9.5 -3.5t4.5 -10.5t-4.5 -10.5t-9.5 -3.5t-9.5 3.5t-4.5 10.5zM493 -58q9 0 12.5 5t3 10.5t-5.5 10t-13 3.5q-5 -1 -4 -12.5t1 -16.5h6zM417 -74q-2 11 -4.5 21.5t-5.5 21.5l-9 -43h19zM411 542q-3 -4 -7 -10.5t-3 -11.5q2 -6 8 -5t7 7q1 9 -5 20z
M300 508q5 -1 13 7t9 13q2 3 -1 5t-6 0q-5 -5 -8.5 -11.5t-6.5 -13.5zM666 627h-1q-17 -19 -23 -40q8 9 15 18.5t9 21.5zM358 562h1q0 3 1 6t-1 6q-2 0 -3 -3q-1 -4 2 -9z" />
    <glyph glyph-name="one" unicode="1" horiz-adv-x="868" 
d="M12 427q32 17 64 31.5t67 24.5q2 0 4 9.5t4 21t3.5 22.5t3.5 15q10 15 31 24t37 16q41 17 83 29t85 23q44 11 87.5 18.5t88.5 11.5q16 2 37.5 4t44 1.5t42.5 -5.5t32 -18q2 -2 0 -13.5t-3 -15.5l-3 -45q0 -2 2 -2q37 -11 71 -27t57 -48v-1q-8 2 -17.5 -1.5t-18.5 -9.5
t-17.5 -13t-12.5 -12q14 -8 22.5 -22t12.5 -31t3.5 -34t-5.5 -31q-8 20 -23.5 31t-34 16t-39.5 6.5t-39 2.5q-20 2 -43 1t-43 6q-8 3 -11 12t-3.5 20t1 22t2.5 17q-85 -6 -168.5 -25.5t-163.5 -47.5q-3 -2 -3 -3q1 -5 3.5 -16t5 -23t3 -22.5t-3.5 -13.5q-11 -8 -27 -10
t-30 -4q-18 -2 -36.5 -5t-36.5 -6q-32 -6 -60 -18q-7 -3 -13.5 -6t-13.5 -8q-3 -3 -8 -8.5t-8 -7.5q5 16 11.5 31t12.5 30q1 3 6 12t10 19t8.5 18t2.5 10q-11 16 -27 31t-36 17zM706 484q2 26 2 52t2 52q1 14 1.5 27t2.5 26q1 6 -2.5 10t-9.5 6.5t-12.5 3.5t-11.5 2
q-56 8 -115 0t-114 -19q-60 -12 -118.5 -28t-114.5 -41q-11 -5 -22 -10.5t-20 -13.5q-10 -8 -12 -23t-4 -26q-4 -31 -4 -61.5v-61.5q9 0 24 10t24 14q17 8 35 14t35 12q71 22 146 39q36 8 72 14.5t73 10.5q34 3 72.5 4.5t70.5 -13.5zM623 543l-7.5 -7.5t-8.5 -5.5
q-7 -2 -13 5q-8 -6 -14 -7q-14 -3 -20 9v1q-4 -4 -8 -7.5t-10 -5.5q-7 -3 -12 5q-3 6 -1.5 11t4 10.5t4 10.5t0.5 10q-8 -3 -11.5 -8.5t-5 -12t-2.5 -13.5t-4 -13q-3 -8 -12 -4q-3 1 -3 5q0 2 0.5 4t0.5 4q-7 -2 -9.5 -2t-7.5 -5t-11 -9t-14 -4q-5 1 -8 4t-5 7
q-8 -8 -19 -15.5t-22 -5.5q-7 1 -12 8q-5 -5 -10.5 -10t-12.5 -7q-14 -5 -16 10q-2 12 4 20t10 18q1 2 -1 2.5t-3 -1.5q-4 -9 -9 -20.5t-11.5 -21t-16 -16t-22.5 -5.5q-14 1 -16.5 10.5t2.5 21.5t14.5 21.5t19.5 10.5q6 0 8 -5q4 -6 1 -13q-3 -11 -12.5 -19t-20.5 -10
q1 -6 5 -6.5t8 1.5t8 5t6 5q11 10 16 21.5t10 23.5q2 3 -4 12t-4 15q4 13 16 11q5 0 7 -6q2 -5 1.5 -11t-1.5 -11q10 1 14 -0.5t-2 -12.5q-4 -8 -8.5 -16t-5.5 -17q0 -4 4 -4q10 -1 16 8.5t11.5 22t10.5 24t12 15.5q3 1 7 -1q3 -3 1 -6q-2 -5 -4.5 -9.5t-0.5 -10.5t5.5 -12
t2.5 -13h1q5 6 8.5 13.5l7 15t8 14t12.5 9.5q17 7 23 -9q4 -7 2.5 -12t-0.5 -13q4 1 7 4q7 6 8 16.5t4 18.5q1 3 4.5 3.5t6.5 -0.5q4 -2 3 -6v-1q5 5 11 8q10 4 14 -6q2 -6 0.5 -11t-4 -10t-4.5 -10t-1 -11q13 10 19 25.5t20 24.5q10 6 24 0q2 4 8.5 4.5t4.5 -6.5
q-2 -9 -7 -18.5t-5 -18.5q0 -6 4 -2q9 9 14 22t9.5 26.5t11 25t19.5 19.5q7 3 11 -4q6 -11 2 -22.5t-11 -19.5q-3 -4 -9 -9t-11.5 -11t-9 -12t-1.5 -12q2 -8 10 -6q7 2 10 8.5t7 11.5q3 3 6 1q4 0 4 -4l-2 -6q-8 -18 -25 -25q-12 -6 -20 7q-2 2 -2 5zM831 511
q-23 22 -51.5 35.5t-59.5 21.5q-1 -26 -1.5 -52.5t-2.5 -52.5l-1 1v-3q-12 -1 -29.5 -2t-34.5 -4t-32 -9.5t-23 -18.5q-3 -3 2 -4q25 -10 55.5 -8t56.5 0q27 -2 54 -9q14 -4 24 -11t22 -13q0 29 -9.5 49.5t-37.5 31.5q16 14 32 27t36 21zM144 472q-28 -7 -54 -17.5
t-52 -24.5q16 -10 28 -22.5t22 -27.5q1 -2 -1.5 -8t-6.5 -13t-7.5 -13.5t-4.5 -8.5l-10 -22t-9 -22q23 12 48 18t50.5 9.5l51 7t49.5 11.5q-8 9 -21.5 12t-29 3.5t-30.5 -1l-25 -2.5v60.5t2 60.5zM362 208q0 4 -4 10h26q13 -6 24 -24t16 -31q0 12 1.5 28t-6.5 27h35
q-5 -5 -5 -11.5v-13.5v-114v-15t5 -13h-96q5 6 6 16t0.5 21t-1.5 21t-1 18v81zM313 218q18 0 26 -9.5t10.5 -23.5t1.5 -30t-1 -28v-36q0 -23 -12.5 -32t-32.5 -8q-18 0 -26.5 9.5t-11 23.5t-1.5 30t1 28q0 9 -0.5 18t0.5 18q0 23 12.5 31.5t33.5 8.5zM263 573q6 0 9 -1
q17 -2 19 -21q3 -20 -10.5 -38.5t-30.5 -29.5q-9 -6 -13.5 -15t-8.5 -18t-9.5 -17.5t-15.5 -13.5q-11 -7 -25 -4t-12 18q0 10 7 17t17 9q2 1 6.5 -0.5t2.5 -6.5q-6 -4 -11 -4q-5 -2 -7 -7.5t1 -10.5q2 -2 8 -4q9 -1 15 5.5t10.5 15.5t6.5 19t4 16q-14 -12 -28 -16
q-13 -2 -21 5q-8 5 -8 17q0 13 6 24q14 29 41 46q10 6 24 11q5 2 10 5.5t10 4.5q4 0 4 -5zM361 329q-2 7 -5 18t-4 22.5t1 21.5t10 15q5 4 15 4.5t13 -7.5t-0.5 -10.5t-8.5 -1.5t-8.5 4t0.5 7q-8 -4 -8 -13.5t3 -20.5t7.5 -21t6.5 -16q6 -17 8.5 -40.5t-9.5 -39.5
q-5 -7 -16 -9t-23.5 -2t-24.5 1.5t-19 1.5q5 7 6.5 17.5t1 22t-1.5 22.5t-1 19v58v14.5t-5 13.5h35q-6 -6 -5.5 -15.5t0.5 -17.5v-65q0 -8 -0.5 -23t4.5 -22q4 -5 9 -5.5t9.5 2t8 7t4.5 8.5q3 12 1 25t-4 25zM556 351q-2 -4 -6.5 -14t-9 -21t-6 -21t4.5 -13q-2 6 3 6.5
t10 -2t6 -6.5t-8 -8q-11 -5 -16 4t-4 17q0 7 3 15t4 14.5t-2 10.5t-14 3v-73q8 0 20 -1t20 5q-2 -6 -3.5 -12t-3.5 -12h-64q5 5 5 11.5v13.5v114v14.5t-5 13.5h59q11 -12 11.5 -28t-4.5 -31zM473 405q0 -6 3.5 -13.5t6 -14.5t2 -13.5t-7.5 -12.5q-6 -5 -15 -4.5t-10 10.5
q0 5 3 7.5t7 2.5t7 -2.5t2 -6.5q6 1 6 6t-3.5 10t-8.5 9.5t-8 5.5q-7 2 -15.5 0.5t-11.5 -8.5q-6 -12 -2 -20.5t12 -15t17.5 -12.5t14.5 -13q7 -9 10.5 -22t2 -24.5t-9 -20.5t-22.5 -10q-13 -1 -25.5 -0.5t-24.5 0.5q4 1 2.5 8t-4 16t-4 18t2.5 14q5 6 15.5 7t12.5 -10
q0 -5 -3.5 -7.5t-7 -2.5t-6.5 2t-3 7q-6 -2 -6 -6.5t3.5 -10t8.5 -9.5t8 -5q6 -2 15.5 -1.5t14.5 5.5q10 10 8 19t-9.5 17t-17 14.5t-14.5 11.5q-8 7 -13.5 19.5t-5.5 24.5t6 22t20 13q12 2 25 1.5t25 -0.5zM134 -12l-19 -104h-20q-3 17 -5.5 34.5t-4.5 34.5
q-2 -17 -5 -34.5t-6 -34.5h-20l-18 104h21q2 -19 4 -38.5t5 -38.5q2 20 5 39l6 38h18l11 -77q3 40 9 77h19zM235 -12l-19 -104h-20q-3 17 -5.5 34.5t-4.5 34.5q-2 -17 -5 -34.5t-6 -34.5h-20l-18 104h21q2 -19 4 -38.5t5 -38.5q2 20 5 39l6 38h18l11 -77q3 40 9 77h19z
M336 -12l-19 -104h-20q-3 17 -5.5 34.5t-4.5 34.5q-2 -17 -5 -34.5t-6 -34.5h-20l-18 104h21q2 -19 4 -38.5t5 -38.5q2 20 5 39l6 38h18l11 -77q3 40 9 77h19zM515 -67q7 -3 10 -9t4.5 -13t2.5 -14.5t4 -12.5h-24q-3 5 -4 12.5t-3 14t-6 10.5t-12 3v-40h-24v103q13 2 30 3
t28 -7q15 -11 11.5 -27t-17.5 -23zM707 -116h-24q-9 18 -17 36.5t-17 35.5q2 -18 2 -36v-36h-22v104h26l32 -70q-2 17 -2 35v35h22v-104zM459 51q5 7 6.5 17.5t1 22t-1.5 22.5t-1 19v58v14.5t-5 13.5h35q-5 -5 -6.5 -14.5t-1 -20t1.5 -20.5t1 -16v-76h48q11 0 26.5 -1.5
t25.5 5.5q-2 -4 -3.5 -14t-6.5 -10h-120zM450 -116h-24l-7 24h-24l-5 -24h-25l28 104h30zM802 -112q-19 -7 -36.5 -4t-29.5 13.5t-15.5 27.5t6.5 37q6 14 19.5 20.5t28.5 6.5h5t8.5 -1t7.5 -2t3 -2l-4 -19q-12 6 -22.5 4t-17 -9t-9 -17t1.5 -22q6 -21 28 -19q5 1 4 10t-1 13
h-12v19h35v-56zM541 135q-11 20 -19 43q-4 11 -6 22t-11 18h37q-6 -13 0.5 -30.5t11.5 -28.5q6 14 11 29t0 30h37q-10 -6 -12 -18t-5 -22q-3 -9 -11 -22.5t-8 -22.5q0 -5 -0.5 -12t-0.5 -14t1 -13.5t5 -10.5h-35q8 8 6.5 24.5t-1.5 27.5zM325 178q0 7 -4.5 12.5t-10 7
t-11 -1t-6.5 -10.5q-1 -6 -0.5 -13t0.5 -13q0 -17 -1 -34.5t1 -34.5q0 -7 4.5 -12.5t9.5 -7t10 1t7 10.5q2 6 1.5 13t-0.5 13v69zM424 66q-1 29 -9 59.5t-27 53.5v-107q0 -7 5.5 -11t12 -5t12 1.5t6.5 8.5zM245 559q-13 -3 -24.5 -11t-20.5 -18q-3 -3 -7.5 -11.5t-7.5 -18
t-1.5 -16.5t10.5 -7q14 0 23 9.5t14.5 22.5t8.5 27t5 23zM549 -12h24v-104h-24v104zM242 491q7 2 14 9t11.5 16t6.5 18.5t0 16.5q-3 10 -15 10q-6 -17 -9.5 -35t-7.5 -35zM521 390v-33q10 0 21.5 1t12.5 15q1 15 -11.5 16t-22.5 1zM599 575q0 2 -1 3q0 6 -6 4
q-8 -4 -12.5 -11t-6.5 -15q-2 -5 0.5 -12.5t10.5 -1.5q6 5 10 15t5 18zM456 541l2 -6q3 -9 11 -4q7 3 10.5 10.5t2.5 15.5q-1 5 -4.5 8t-10.5 -2q-9 -7 -11 -22zM328 -103q0 7 4.5 10.5t9.5 3.5t9.5 -3.5t4.5 -10.5t-4.5 -10.5t-9.5 -3.5t-9.5 3.5t-4.5 10.5zM587 -103
q0 7 4.5 10.5t9.5 3.5t9.5 -3.5t4.5 -10.5t-4.5 -10.5t-9.5 -3.5t-9.5 3.5t-4.5 10.5zM493 -58q9 0 12.5 5t3 10.5t-5.5 10t-13 3.5q-5 -1 -4 -12.5t1 -16.5h6zM417 -74q-2 11 -4.5 21.5t-5.5 21.5l-9 -43h19zM411 542q-3 -4 -7 -10.5t-3 -11.5q2 -6 8 -5t7 7q1 9 -5 20z
M300 508q5 -1 13 7t9 13q2 3 -1 5t-6 0q-5 -5 -8.5 -11.5t-6.5 -13.5zM666 627h-1q-17 -19 -23 -40q8 9 15 18.5t9 21.5zM358 562h1q0 3 1 6t-1 6q-2 0 -3 -3q-1 -4 2 -9z" />
    <glyph glyph-name="two" unicode="2" horiz-adv-x="868" 
d="M12 427q32 17 64 31.5t67 24.5q2 0 4 9.5t4 21t3.5 22.5t3.5 15q10 15 31 24t37 16q41 17 83 29t85 23q44 11 87.5 18.5t88.5 11.5q16 2 37.5 4t44 1.5t42.5 -5.5t32 -18q2 -2 0 -13.5t-3 -15.5l-3 -45q0 -2 2 -2q37 -11 71 -27t57 -48v-1q-8 2 -17.5 -1.5t-18.5 -9.5
t-17.5 -13t-12.5 -12q14 -8 22.5 -22t12.5 -31t3.5 -34t-5.5 -31q-8 20 -23.5 31t-34 16t-39.5 6.5t-39 2.5q-20 2 -43 1t-43 6q-8 3 -11 12t-3.5 20t1 22t2.5 17q-85 -6 -168.5 -25.5t-163.5 -47.5q-3 -2 -3 -3q1 -5 3.5 -16t5 -23t3 -22.5t-3.5 -13.5q-11 -8 -27 -10
t-30 -4q-18 -2 -36.5 -5t-36.5 -6q-32 -6 -60 -18q-7 -3 -13.5 -6t-13.5 -8q-3 -3 -8 -8.5t-8 -7.5q5 16 11.5 31t12.5 30q1 3 6 12t10 19t8.5 18t2.5 10q-11 16 -27 31t-36 17zM706 484q2 26 2 52t2 52q1 14 1.5 27t2.5 26q1 6 -2.5 10t-9.5 6.5t-12.5 3.5t-11.5 2
q-56 8 -115 0t-114 -19q-60 -12 -118.5 -28t-114.5 -41q-11 -5 -22 -10.5t-20 -13.5q-10 -8 -12 -23t-4 -26q-4 -31 -4 -61.5v-61.5q9 0 24 10t24 14q17 8 35 14t35 12q71 22 146 39q36 8 72 14.5t73 10.5q34 3 72.5 4.5t70.5 -13.5zM623 543l-7.5 -7.5t-8.5 -5.5
q-7 -2 -13 5q-8 -6 -14 -7q-14 -3 -20 9v1q-4 -4 -8 -7.5t-10 -5.5q-7 -3 -12 5q-3 6 -1.5 11t4 10.5t4 10.5t0.5 10q-8 -3 -11.5 -8.5t-5 -12t-2.5 -13.5t-4 -13q-3 -8 -12 -4q-3 1 -3 5q0 2 0.5 4t0.5 4q-7 -2 -9.5 -2t-7.5 -5t-11 -9t-14 -4q-5 1 -8 4t-5 7
q-8 -8 -19 -15.5t-22 -5.5q-7 1 -12 8q-5 -5 -10.5 -10t-12.5 -7q-14 -5 -16 10q-2 12 4 20t10 18q1 2 -1 2.5t-3 -1.5q-4 -9 -9 -20.5t-11.5 -21t-16 -16t-22.5 -5.5q-14 1 -16.5 10.5t2.5 21.5t14.5 21.5t19.5 10.5q6 0 8 -5q4 -6 1 -13q-3 -11 -12.5 -19t-20.5 -10
q1 -6 5 -6.5t8 1.5t8 5t6 5q11 10 16 21.5t10 23.5q2 3 -4 12t-4 15q4 13 16 11q5 0 7 -6q2 -5 1.5 -11t-1.5 -11q10 1 14 -0.5t-2 -12.5q-4 -8 -8.5 -16t-5.5 -17q0 -4 4 -4q10 -1 16 8.5t11.5 22t10.5 24t12 15.5q3 1 7 -1q3 -3 1 -6q-2 -5 -4.5 -9.5t-0.5 -10.5t5.5 -12
t2.5 -13h1q5 6 8.5 13.5l7 15t8 14t12.5 9.5q17 7 23 -9q4 -7 2.5 -12t-0.5 -13q4 1 7 4q7 6 8 16.5t4 18.5q1 3 4.5 3.5t6.5 -0.5q4 -2 3 -6v-1q5 5 11 8q10 4 14 -6q2 -6 0.5 -11t-4 -10t-4.5 -10t-1 -11q13 10 19 25.5t20 24.5q10 6 24 0q2 4 8.5 4.5t4.5 -6.5
q-2 -9 -7 -18.5t-5 -18.5q0 -6 4 -2q9 9 14 22t9.5 26.5t11 25t19.5 19.5q7 3 11 -4q6 -11 2 -22.5t-11 -19.5q-3 -4 -9 -9t-11.5 -11t-9 -12t-1.5 -12q2 -8 10 -6q7 2 10 8.5t7 11.5q3 3 6 1q4 0 4 -4l-2 -6q-8 -18 -25 -25q-12 -6 -20 7q-2 2 -2 5zM831 511
q-23 22 -51.5 35.5t-59.5 21.5q-1 -26 -1.5 -52.5t-2.5 -52.5l-1 1v-3q-12 -1 -29.5 -2t-34.5 -4t-32 -9.5t-23 -18.5q-3 -3 2 -4q25 -10 55.5 -8t56.5 0q27 -2 54 -9q14 -4 24 -11t22 -13q0 29 -9.5 49.5t-37.5 31.5q16 14 32 27t36 21zM144 472q-28 -7 -54 -17.5
t-52 -24.5q16 -10 28 -22.5t22 -27.5q1 -2 -1.5 -8t-6.5 -13t-7.5 -13.5t-4.5 -8.5l-10 -22t-9 -22q23 12 48 18t50.5 9.5l51 7t49.5 11.5q-8 9 -21.5 12t-29 3.5t-30.5 -1l-25 -2.5v60.5t2 60.5zM362 208q0 4 -4 10h26q13 -6 24 -24t16 -31q0 12 1.5 28t-6.5 27h35
q-5 -5 -5 -11.5v-13.5v-114v-15t5 -13h-96q5 6 6 16t0.5 21t-1.5 21t-1 18v81zM313 218q18 0 26 -9.5t10.5 -23.5t1.5 -30t-1 -28v-36q0 -23 -12.5 -32t-32.5 -8q-18 0 -26.5 9.5t-11 23.5t-1.5 30t1 28q0 9 -0.5 18t0.5 18q0 23 12.5 31.5t33.5 8.5zM263 573q6 0 9 -1
q17 -2 19 -21q3 -20 -10.5 -38.5t-30.5 -29.5q-9 -6 -13.5 -15t-8.5 -18t-9.5 -17.5t-15.5 -13.5q-11 -7 -25 -4t-12 18q0 10 7 17t17 9q2 1 6.5 -0.5t2.5 -6.5q-6 -4 -11 -4q-5 -2 -7 -7.5t1 -10.5q2 -2 8 -4q9 -1 15 5.5t10.5 15.5t6.5 19t4 16q-14 -12 -28 -16
q-13 -2 -21 5q-8 5 -8 17q0 13 6 24q14 29 41 46q10 6 24 11q5 2 10 5.5t10 4.5q4 0 4 -5zM361 329q-2 7 -5 18t-4 22.5t1 21.5t10 15q5 4 15 4.5t13 -7.5t-0.5 -10.5t-8.5 -1.5t-8.5 4t0.5 7q-8 -4 -8 -13.5t3 -20.5t7.5 -21t6.5 -16q6 -17 8.5 -40.5t-9.5 -39.5
q-5 -7 -16 -9t-23.5 -2t-24.5 1.5t-19 1.5q5 7 6.5 17.5t1 22t-1.5 22.5t-1 19v58v14.5t-5 13.5h35q-6 -6 -5.5 -15.5t0.5 -17.5v-65q0 -8 -0.5 -23t4.5 -22q4 -5 9 -5.5t9.5 2t8 7t4.5 8.5q3 12 1 25t-4 25zM556 351q-2 -4 -6.5 -14t-9 -21t-6 -21t4.5 -13q-2 6 3 6.5
t10 -2t6 -6.5t-8 -8q-11 -5 -16 4t-4 17q0 7 3 15t4 14.5t-2 10.5t-14 3v-73q8 0 20 -1t20 5q-2 -6 -3.5 -12t-3.5 -12h-64q5 5 5 11.5v13.5v114v14.5t-5 13.5h59q11 -12 11.5 -28t-4.5 -31zM473 405q0 -6 3.5 -13.5t6 -14.5t2 -13.5t-7.5 -12.5q-6 -5 -15 -4.5t-10 10.5
q0 5 3 7.5t7 2.5t7 -2.5t2 -6.5q6 1 6 6t-3.5 10t-8.5 9.5t-8 5.5q-7 2 -15.5 0.5t-11.5 -8.5q-6 -12 -2 -20.5t12 -15t17.5 -12.5t14.5 -13q7 -9 10.5 -22t2 -24.5t-9 -20.5t-22.5 -10q-13 -1 -25.5 -0.5t-24.5 0.5q4 1 2.5 8t-4 16t-4 18t2.5 14q5 6 15.5 7t12.5 -10
q0 -5 -3.5 -7.5t-7 -2.5t-6.5 2t-3 7q-6 -2 -6 -6.5t3.5 -10t8.5 -9.5t8 -5q6 -2 15.5 -1.5t14.5 5.5q10 10 8 19t-9.5 17t-17 14.5t-14.5 11.5q-8 7 -13.5 19.5t-5.5 24.5t6 22t20 13q12 2 25 1.5t25 -0.5zM134 -12l-19 -104h-20q-3 17 -5.5 34.5t-4.5 34.5
q-2 -17 -5 -34.5t-6 -34.5h-20l-18 104h21q2 -19 4 -38.5t5 -38.5q2 20 5 39l6 38h18l11 -77q3 40 9 77h19zM235 -12l-19 -104h-20q-3 17 -5.5 34.5t-4.5 34.5q-2 -17 -5 -34.5t-6 -34.5h-20l-18 104h21q2 -19 4 -38.5t5 -38.5q2 20 5 39l6 38h18l11 -77q3 40 9 77h19z
M336 -12l-19 -104h-20q-3 17 -5.5 34.5t-4.5 34.5q-2 -17 -5 -34.5t-6 -34.5h-20l-18 104h21q2 -19 4 -38.5t5 -38.5q2 20 5 39l6 38h18l11 -77q3 40 9 77h19zM515 -67q7 -3 10 -9t4.5 -13t2.5 -14.5t4 -12.5h-24q-3 5 -4 12.5t-3 14t-6 10.5t-12 3v-40h-24v103q13 2 30 3
t28 -7q15 -11 11.5 -27t-17.5 -23zM707 -116h-24q-9 18 -17 36.5t-17 35.5q2 -18 2 -36v-36h-22v104h26l32 -70q-2 17 -2 35v35h22v-104zM459 51q5 7 6.5 17.5t1 22t-1.5 22.5t-1 19v58v14.5t-5 13.5h35q-5 -5 -6.5 -14.5t-1 -20t1.5 -20.5t1 -16v-76h48q11 0 26.5 -1.5
t25.5 5.5q-2 -4 -3.5 -14t-6.5 -10h-120zM450 -116h-24l-7 24h-24l-5 -24h-25l28 104h30zM802 -112q-19 -7 -36.5 -4t-29.5 13.5t-15.5 27.5t6.5 37q6 14 19.5 20.5t28.5 6.5h5t8.5 -1t7.5 -2t3 -2l-4 -19q-12 6 -22.5 4t-17 -9t-9 -17t1.5 -22q6 -21 28 -19q5 1 4 10t-1 13
h-12v19h35v-56zM541 135q-11 20 -19 43q-4 11 -6 22t-11 18h37q-6 -13 0.5 -30.5t11.5 -28.5q6 14 11 29t0 30h37q-10 -6 -12 -18t-5 -22q-3 -9 -11 -22.5t-8 -22.5q0 -5 -0.5 -12t-0.5 -14t1 -13.5t5 -10.5h-35q8 8 6.5 24.5t-1.5 27.5zM325 178q0 7 -4.5 12.5t-10 7
t-11 -1t-6.5 -10.5q-1 -6 -0.5 -13t0.5 -13q0 -17 -1 -34.5t1 -34.5q0 -7 4.5 -12.5t9.5 -7t10 1t7 10.5q2 6 1.5 13t-0.5 13v69zM424 66q-1 29 -9 59.5t-27 53.5v-107q0 -7 5.5 -11t12 -5t12 1.5t6.5 8.5zM245 559q-13 -3 -24.5 -11t-20.5 -18q-3 -3 -7.5 -11.5t-7.5 -18
t-1.5 -16.5t10.5 -7q14 0 23 9.5t14.5 22.5t8.5 27t5 23zM549 -12h24v-104h-24v104zM242 491q7 2 14 9t11.5 16t6.5 18.5t0 16.5q-3 10 -15 10q-6 -17 -9.5 -35t-7.5 -35zM521 390v-33q10 0 21.5 1t12.5 15q1 15 -11.5 16t-22.5 1zM599 575q0 2 -1 3q0 6 -6 4
q-8 -4 -12.5 -11t-6.5 -15q-2 -5 0.5 -12.5t10.5 -1.5q6 5 10 15t5 18zM456 541l2 -6q3 -9 11 -4q7 3 10.5 10.5t2.5 15.5q-1 5 -4.5 8t-10.5 -2q-9 -7 -11 -22zM328 -103q0 7 4.5 10.5t9.5 3.5t9.5 -3.5t4.5 -10.5t-4.5 -10.5t-9.5 -3.5t-9.5 3.5t-4.5 10.5zM587 -103
q0 7 4.5 10.5t9.5 3.5t9.5 -3.5t4.5 -10.5t-4.5 -10.5t-9.5 -3.5t-9.5 3.5t-4.5 10.5zM493 -58q9 0 12.5 5t3 10.5t-5.5 10t-13 3.5q-5 -1 -4 -12.5t1 -16.5h6zM417 -74q-2 11 -4.5 21.5t-5.5 21.5l-9 -43h19zM411 542q-3 -4 -7 -10.5t-3 -11.5q2 -6 8 -5t7 7q1 9 -5 20z
M300 508q5 -1 13 7t9 13q2 3 -1 5t-6 0q-5 -5 -8.5 -11.5t-6.5 -13.5zM666 627h-1q-17 -19 -23 -40q8 9 15 18.5t9 21.5zM358 562h1q0 3 1 6t-1 6q-2 0 -3 -3q-1 -4 2 -9z" />
    <glyph glyph-name="three" unicode="3" horiz-adv-x="868" 
d="M12 427q32 17 64 31.5t67 24.5q2 0 4 9.5t4 21t3.5 22.5t3.5 15q10 15 31 24t37 16q41 17 83 29t85 23q44 11 87.5 18.5t88.5 11.5q16 2 37.5 4t44 1.5t42.5 -5.5t32 -18q2 -2 0 -13.5t-3 -15.5l-3 -45q0 -2 2 -2q37 -11 71 -27t57 -48v-1q-8 2 -17.5 -1.5t-18.5 -9.5
t-17.5 -13t-12.5 -12q14 -8 22.5 -22t12.5 -31t3.5 -34t-5.5 -31q-8 20 -23.5 31t-34 16t-39.5 6.5t-39 2.5q-20 2 -43 1t-43 6q-8 3 -11 12t-3.5 20t1 22t2.5 17q-85 -6 -168.5 -25.5t-163.5 -47.5q-3 -2 -3 -3q1 -5 3.5 -16t5 -23t3 -22.5t-3.5 -13.5q-11 -8 -27 -10
t-30 -4q-18 -2 -36.5 -5t-36.5 -6q-32 -6 -60 -18q-7 -3 -13.5 -6t-13.5 -8q-3 -3 -8 -8.5t-8 -7.5q5 16 11.5 31t12.5 30q1 3 6 12t10 19t8.5 18t2.5 10q-11 16 -27 31t-36 17zM706 484q2 26 2 52t2 52q1 14 1.5 27t2.5 26q1 6 -2.5 10t-9.5 6.5t-12.5 3.5t-11.5 2
q-56 8 -115 0t-114 -19q-60 -12 -118.5 -28t-114.5 -41q-11 -5 -22 -10.5t-20 -13.5q-10 -8 -12 -23t-4 -26q-4 -31 -4 -61.5v-61.5q9 0 24 10t24 14q17 8 35 14t35 12q71 22 146 39q36 8 72 14.5t73 10.5q34 3 72.5 4.5t70.5 -13.5zM623 543l-7.5 -7.5t-8.5 -5.5
q-7 -2 -13 5q-8 -6 -14 -7q-14 -3 -20 9v1q-4 -4 -8 -7.5t-10 -5.5q-7 -3 -12 5q-3 6 -1.5 11t4 10.5t4 10.5t0.5 10q-8 -3 -11.5 -8.5t-5 -12t-2.5 -13.5t-4 -13q-3 -8 -12 -4q-3 1 -3 5q0 2 0.5 4t0.5 4q-7 -2 -9.5 -2t-7.5 -5t-11 -9t-14 -4q-5 1 -8 4t-5 7
q-8 -8 -19 -15.5t-22 -5.5q-7 1 -12 8q-5 -5 -10.5 -10t-12.5 -7q-14 -5 -16 10q-2 12 4 20t10 18q1 2 -1 2.5t-3 -1.5q-4 -9 -9 -20.5t-11.5 -21t-16 -16t-22.5 -5.5q-14 1 -16.5 10.5t2.5 21.5t14.5 21.5t19.5 10.5q6 0 8 -5q4 -6 1 -13q-3 -11 -12.5 -19t-20.5 -10
q1 -6 5 -6.5t8 1.5t8 5t6 5q11 10 16 21.5t10 23.5q2 3 -4 12t-4 15q4 13 16 11q5 0 7 -6q2 -5 1.5 -11t-1.5 -11q10 1 14 -0.5t-2 -12.5q-4 -8 -8.5 -16t-5.5 -17q0 -4 4 -4q10 -1 16 8.5t11.5 22t10.5 24t12 15.5q3 1 7 -1q3 -3 1 -6q-2 -5 -4.5 -9.5t-0.5 -10.5t5.5 -12
t2.5 -13h1q5 6 8.5 13.5l7 15t8 14t12.5 9.5q17 7 23 -9q4 -7 2.5 -12t-0.5 -13q4 1 7 4q7 6 8 16.5t4 18.5q1 3 4.5 3.5t6.5 -0.5q4 -2 3 -6v-1q5 5 11 8q10 4 14 -6q2 -6 0.5 -11t-4 -10t-4.5 -10t-1 -11q13 10 19 25.5t20 24.5q10 6 24 0q2 4 8.5 4.5t4.5 -6.5
q-2 -9 -7 -18.5t-5 -18.5q0 -6 4 -2q9 9 14 22t9.5 26.5t11 25t19.5 19.5q7 3 11 -4q6 -11 2 -22.5t-11 -19.5q-3 -4 -9 -9t-11.5 -11t-9 -12t-1.5 -12q2 -8 10 -6q7 2 10 8.5t7 11.5q3 3 6 1q4 0 4 -4l-2 -6q-8 -18 -25 -25q-12 -6 -20 7q-2 2 -2 5zM831 511
q-23 22 -51.5 35.5t-59.5 21.5q-1 -26 -1.5 -52.5t-2.5 -52.5l-1 1v-3q-12 -1 -29.5 -2t-34.5 -4t-32 -9.5t-23 -18.5q-3 -3 2 -4q25 -10 55.5 -8t56.5 0q27 -2 54 -9q14 -4 24 -11t22 -13q0 29 -9.5 49.5t-37.5 31.5q16 14 32 27t36 21zM144 472q-28 -7 -54 -17.5
t-52 -24.5q16 -10 28 -22.5t22 -27.5q1 -2 -1.5 -8t-6.5 -13t-7.5 -13.5t-4.5 -8.5l-10 -22t-9 -22q23 12 48 18t50.5 9.5l51 7t49.5 11.5q-8 9 -21.5 12t-29 3.5t-30.5 -1l-25 -2.5v60.5t2 60.5zM362 208q0 4 -4 10h26q13 -6 24 -24t16 -31q0 12 1.5 28t-6.5 27h35
q-5 -5 -5 -11.5v-13.5v-114v-15t5 -13h-96q5 6 6 16t0.5 21t-1.5 21t-1 18v81zM313 218q18 0 26 -9.5t10.5 -23.5t1.5 -30t-1 -28v-36q0 -23 -12.5 -32t-32.5 -8q-18 0 -26.5 9.5t-11 23.5t-1.5 30t1 28q0 9 -0.5 18t0.5 18q0 23 12.5 31.5t33.5 8.5zM263 573q6 0 9 -1
q17 -2 19 -21q3 -20 -10.5 -38.5t-30.5 -29.5q-9 -6 -13.5 -15t-8.5 -18t-9.5 -17.5t-15.5 -13.5q-11 -7 -25 -4t-12 18q0 10 7 17t17 9q2 1 6.5 -0.5t2.5 -6.5q-6 -4 -11 -4q-5 -2 -7 -7.5t1 -10.5q2 -2 8 -4q9 -1 15 5.5t10.5 15.5t6.5 19t4 16q-14 -12 -28 -16
q-13 -2 -21 5q-8 5 -8 17q0 13 6 24q14 29 41 46q10 6 24 11q5 2 10 5.5t10 4.5q4 0 4 -5zM361 329q-2 7 -5 18t-4 22.5t1 21.5t10 15q5 4 15 4.5t13 -7.5t-0.5 -10.5t-8.5 -1.5t-8.5 4t0.5 7q-8 -4 -8 -13.5t3 -20.5t7.5 -21t6.5 -16q6 -17 8.5 -40.5t-9.5 -39.5
q-5 -7 -16 -9t-23.5 -2t-24.5 1.5t-19 1.5q5 7 6.5 17.5t1 22t-1.5 22.5t-1 19v58v14.5t-5 13.5h35q-6 -6 -5.5 -15.5t0.5 -17.5v-65q0 -8 -0.5 -23t4.5 -22q4 -5 9 -5.5t9.5 2t8 7t4.5 8.5q3 12 1 25t-4 25zM556 351q-2 -4 -6.5 -14t-9 -21t-6 -21t4.5 -13q-2 6 3 6.5
t10 -2t6 -6.5t-8 -8q-11 -5 -16 4t-4 17q0 7 3 15t4 14.5t-2 10.5t-14 3v-73q8 0 20 -1t20 5q-2 -6 -3.5 -12t-3.5 -12h-64q5 5 5 11.5v13.5v114v14.5t-5 13.5h59q11 -12 11.5 -28t-4.5 -31zM473 405q0 -6 3.5 -13.5t6 -14.5t2 -13.5t-7.5 -12.5q-6 -5 -15 -4.5t-10 10.5
q0 5 3 7.5t7 2.5t7 -2.5t2 -6.5q6 1 6 6t-3.5 10t-8.5 9.5t-8 5.5q-7 2 -15.5 0.5t-11.5 -8.5q-6 -12 -2 -20.5t12 -15t17.5 -12.5t14.5 -13q7 -9 10.5 -22t2 -24.5t-9 -20.5t-22.5 -10q-13 -1 -25.5 -0.5t-24.5 0.5q4 1 2.5 8t-4 16t-4 18t2.5 14q5 6 15.5 7t12.5 -10
q0 -5 -3.5 -7.5t-7 -2.5t-6.5 2t-3 7q-6 -2 -6 -6.5t3.5 -10t8.5 -9.5t8 -5q6 -2 15.5 -1.5t14.5 5.5q10 10 8 19t-9.5 17t-17 14.5t-14.5 11.5q-8 7 -13.5 19.5t-5.5 24.5t6 22t20 13q12 2 25 1.5t25 -0.5zM134 -12l-19 -104h-20q-3 17 -5.5 34.5t-4.5 34.5
q-2 -17 -5 -34.5t-6 -34.5h-20l-18 104h21q2 -19 4 -38.5t5 -38.5q2 20 5 39l6 38h18l11 -77q3 40 9 77h19zM235 -12l-19 -104h-20q-3 17 -5.5 34.5t-4.5 34.5q-2 -17 -5 -34.5t-6 -34.5h-20l-18 104h21q2 -19 4 -38.5t5 -38.5q2 20 5 39l6 38h18l11 -77q3 40 9 77h19z
M336 -12l-19 -104h-20q-3 17 -5.5 34.5t-4.5 34.5q-2 -17 -5 -34.5t-6 -34.5h-20l-18 104h21q2 -19 4 -38.5t5 -38.5q2 20 5 39l6 38h18l11 -77q3 40 9 77h19zM515 -67q7 -3 10 -9t4.5 -13t2.5 -14.5t4 -12.5h-24q-3 5 -4 12.5t-3 14t-6 10.5t-12 3v-40h-24v103q13 2 30 3
t28 -7q15 -11 11.5 -27t-17.5 -23zM707 -116h-24q-9 18 -17 36.5t-17 35.5q2 -18 2 -36v-36h-22v104h26l32 -70q-2 17 -2 35v35h22v-104zM459 51q5 7 6.5 17.5t1 22t-1.5 22.5t-1 19v58v14.5t-5 13.5h35q-5 -5 -6.5 -14.5t-1 -20t1.5 -20.5t1 -16v-76h48q11 0 26.5 -1.5
t25.5 5.5q-2 -4 -3.5 -14t-6.5 -10h-120zM450 -116h-24l-7 24h-24l-5 -24h-25l28 104h30zM802 -112q-19 -7 -36.5 -4t-29.5 13.5t-15.5 27.5t6.5 37q6 14 19.5 20.5t28.5 6.5h5t8.5 -1t7.5 -2t3 -2l-4 -19q-12 6 -22.5 4t-17 -9t-9 -17t1.5 -22q6 -21 28 -19q5 1 4 10t-1 13
h-12v19h35v-56zM541 135q-11 20 -19 43q-4 11 -6 22t-11 18h37q-6 -13 0.5 -30.5t11.5 -28.5q6 14 11 29t0 30h37q-10 -6 -12 -18t-5 -22q-3 -9 -11 -22.5t-8 -22.5q0 -5 -0.5 -12t-0.5 -14t1 -13.5t5 -10.5h-35q8 8 6.5 24.5t-1.5 27.5zM325 178q0 7 -4.5 12.5t-10 7
t-11 -1t-6.5 -10.5q-1 -6 -0.5 -13t0.5 -13q0 -17 -1 -34.5t1 -34.5q0 -7 4.5 -12.5t9.5 -7t10 1t7 10.5q2 6 1.5 13t-0.5 13v69zM424 66q-1 29 -9 59.5t-27 53.5v-107q0 -7 5.5 -11t12 -5t12 1.5t6.5 8.5zM245 559q-13 -3 -24.5 -11t-20.5 -18q-3 -3 -7.5 -11.5t-7.5 -18
t-1.5 -16.5t10.5 -7q14 0 23 9.5t14.5 22.5t8.5 27t5 23zM549 -12h24v-104h-24v104zM242 491q7 2 14 9t11.5 16t6.5 18.5t0 16.5q-3 10 -15 10q-6 -17 -9.5 -35t-7.5 -35zM521 390v-33q10 0 21.5 1t12.5 15q1 15 -11.5 16t-22.5 1zM599 575q0 2 -1 3q0 6 -6 4
q-8 -4 -12.5 -11t-6.5 -15q-2 -5 0.5 -12.5t10.5 -1.5q6 5 10 15t5 18zM456 541l2 -6q3 -9 11 -4q7 3 10.5 10.5t2.5 15.5q-1 5 -4.5 8t-10.5 -2q-9 -7 -11 -22zM328 -103q0 7 4.5 10.5t9.5 3.5t9.5 -3.5t4.5 -10.5t-4.5 -10.5t-9.5 -3.5t-9.5 3.5t-4.5 10.5zM587 -103
q0 7 4.5 10.5t9.5 3.5t9.5 -3.5t4.5 -10.5t-4.5 -10.5t-9.5 -3.5t-9.5 3.5t-4.5 10.5zM493 -58q9 0 12.5 5t3 10.5t-5.5 10t-13 3.5q-5 -1 -4 -12.5t1 -16.5h6zM417 -74q-2 11 -4.5 21.5t-5.5 21.5l-9 -43h19zM411 542q-3 -4 -7 -10.5t-3 -11.5q2 -6 8 -5t7 7q1 9 -5 20z
M300 508q5 -1 13 7t9 13q2 3 -1 5t-6 0q-5 -5 -8.5 -11.5t-6.5 -13.5zM666 627h-1q-17 -19 -23 -40q8 9 15 18.5t9 21.5zM358 562h1q0 3 1 6t-1 6q-2 0 -3 -3q-1 -4 2 -9z" />
    </font>
</defs>
</svg>
