<?xml version="1.0" encoding="utf-8"?>
<!-- Generator: Adobe Illustrator 26.0.3, SVG Export Plug-In . SVG Version: 6.00 Build 0)  -->
<svg version="1.1" id="Layer_1" xmlns="http://www.w3.org/2000/svg" xmlns:xlink="http://www.w3.org/1999/xlink" x="0px" y="0px"
	 viewBox="0 0 50 50" style="enable-background:new 0 0 50 50;" xml:space="preserve">
<style type="text/css">
	.st0{fill:#E8D6BB;}
</style>
<g>
	<g>
		<g>
			<path class="st0" d="M36.5,15.7l-2-0.7v-3c0-0.5-0.2-0.9-0.5-1.2l-11.4-10c-0.3-0.3-0.7-0.4-1.2-0.4c-0.4,0-0.8,0.2-1.1,0.5
				l-6.1,7l-1.5-0.5c-0.7-0.2-1.3-0.2-1.9,0.2C10.2,8,9.9,8.6,9.9,9.3v30.4c0,0.7,0.3,1.3,1.1,1.7l23.9,8.1c0.3,0.1,0.6,0.1,0.8,0.1
				c0.3,0,0.6-0.1,0.9-0.2c0.6-0.3,0.9-0.9,0.9-1.6V17.4C37.6,16.6,37.2,16.1,36.5,15.7z M31.2,12.8v1.1L17.5,9.2l4.1-4.8L31.2,12.8
				z M16.6,39.4l-2.9-0.9V12.3l2.9,0.9V39.4z M33.8,44.7l-13.4-4.2V14.4l13.4,4.2V44.7z"/>
		</g>
	</g>
</g>
</svg>
