<?xml version="1.0" encoding="utf-8"?>
<!-- Generator: Adobe Illustrator 26.0.3, SVG Export Plug-In . SVG Version: 6.00 Build 0)  -->
<svg version="1.1" id="Layer_1" xmlns="http://www.w3.org/2000/svg" xmlns:xlink="http://www.w3.org/1999/xlink" x="0px" y="0px"
	 viewBox="0 0 50 50" style="enable-background:new 0 0 50 50;" xml:space="preserve">
<style type="text/css">
	.st0{fill:#E8D6BB;}
</style>
<g>
	<g>
		<path class="st0" d="M24.9,22.2L22.1,25l2.9,2.9l2.8-2.8L24.9,22.2z M22.7,25l2.2-2.2l2.2,2.2l-2.2,2.2L22.7,25z"/>
		<path class="st0" d="M40.5,16.6c0-0.6-0.2-1.2-0.7-1.6c-0.9-0.9-2.3-0.9-3.2,0l-6.9,6.9l-1.6-1.6L39.9,8.5c0.5-0.5,0.7-1,0.7-1.6
			c0-0.6-0.2-1.1-0.7-1.6c-0.9-0.9-2.4-0.9-3.3,0L24.9,17L13.4,5.5c-0.9-0.9-2.4-0.9-3.3,0c-0.5,0.5-0.7,1-0.7,1.6
			c0,0.6,0.2,1.2,0.7,1.6l11.5,11.5l-1.5,1.5l-6.6-6.6c-0.9-0.9-2.4-0.9-3.3,0c-0.5,0.4-0.7,1-0.7,1.6c0,0.6,0.2,1.2,0.7,1.6
			l6.6,6.6l-6.3,6.3c-0.5,0.4-0.7,1-0.7,1.6c0,0.6,0.2,1.2,0.7,1.6c1,1,2.3,1,3.3,0l6.3-6.3l1.6,1.6L10.3,41.3
			c-0.4,0.5-0.7,1-0.7,1.6c0,0.6,0.2,1.2,0.6,1.6c0.4,0.5,0.9,0.7,1.6,0.7c0.6,0,1.2-0.2,1.6-0.7l11.4-11.4l11.6,11.6
			c0.5,0.5,1,0.7,1.6,0.7c0.6,0,1.2-0.2,1.6-0.7s0.7-1,0.7-1.6c0-0.6-0.2-1.2-0.7-1.6L28.2,29.8l1.5-1.5l6.5,6.5
			c0.4,0.5,1,0.8,1.7,0.8c0.7,0,1.3-0.3,1.6-0.7c0.5-0.4,0.7-1,0.7-1.6c0-0.6-0.2-1.2-0.7-1.6L33,25.1l6.8-6.8
			C40.2,17.8,40.5,17.2,40.5,16.6z M27.8,25.1l-2.8,2.8L22.1,25l2.8-2.8L27.8,25.1z"/>
	</g>
</g>
</svg>
