<?xml version="1.0" encoding="utf-8"?>
<!-- Generator: Adobe Illustrator 25.4.1, SVG Export Plug-In . SVG Version: 6.00 Build 0)  -->
<svg version="1.1" id="Layer_1" xmlns="http://www.w3.org/2000/svg" xmlns:xlink="http://www.w3.org/1999/xlink" x="0px" y="0px"
	 viewBox="0 0 204.26 220.6" style="enable-background:new 0 0 204.26 220.6;" xml:space="preserve">
<style type="text/css">
	.st0{fill:#FFFFFF;}
</style>
<rect x="335.85" y="5.21" width="1200" height="1080"/>
<rect x="-392.17" y="839.49" style="fill:none;" width="2.04" height="0"/>
<text transform="matrix(1 0 0 1 631.1489 151.1488)" class="st0" style="font-family:'SultanCafePERSONALUSE'; font-size:12px;">boar</text>
<g id="Group_8" transform="translate(-487 -1133)">
	<g id="Group_3" transform="translate(-11941.879 -10997.006)">
		<g id="Group_1" transform="translate(12428.879 12161.006)">
			<path id="Path_1" class="st0" d="M629.41-101.46c-0.82,0.7-1.3,1.72-1.29,2.8v23.68h-69.01v-23.68c0.01-1.08-0.46-2.1-1.28-2.8
				l-45.61-37.91c-0.98-0.83-2.36-0.98-3.49-0.38c-1.16,0.63-1.88,1.86-1.86,3.18v65.13c-0.06,1.89,1.42,3.48,3.32,3.54h40.94
				L516.28,38.56c-0.37,1.12-0.19,2.35,0.49,3.31l57.72,81.08v15.21l-25.5-34.33c-1.02-1.43-3-1.76-4.43-0.75
				c-0.08,0.06-0.15,0.12-0.23,0.18c-1.44,1.27-1.67,3.43-0.53,4.97l31.42,42.28c0.6,0.83,1.57,1.33,2.6,1.34
				c0.37,0,0.74-0.07,1.09-0.2c1.36-0.55,2.25-1.88,2.22-3.34v-23.48h25.38v23.48c-0.03,1.47,0.86,2.8,2.22,3.34
				c0.35,0.13,0.72,0.2,1.09,0.2c1.03-0.01,1.99-0.51,2.59-1.34l30.48-41.02c1.14-1.55,0.91-3.71-0.53-4.97
				c-1.33-1.15-3.34-0.99-4.48,0.34c-0.06,0.07-0.12,0.15-0.18,0.23l-24.57,33.06v-15.43l57.41-80.86c0.66-0.94,0.85-2.14,0.52-3.24
				L638.7-67.9h38.57c1.89-0.06,3.38-1.65,3.32-3.54v-65.13c0.02-1.32-0.7-2.55-1.86-3.18c-1.13-0.6-2.51-0.44-3.49,0.38
				 M675.24-139.37l-45.84,37.91 M552.48,80.32L523.13,39.1l29.35-89.67V80.32z M552.48-74.99H513.5v-54.34l38.98,32.4V-74.99z
				 M559.11,89.63V-17.24h15.38v128.48L559.11,89.63z M628.12,89.9l-14.98,21.1V-17.24h14.98V89.9z M628.12-24.33h-18.3
				c-1.89,0.06-3.38,1.65-3.32,3.54v138.54h-25.38V-20.78c0.06-1.89-1.42-3.48-3.32-3.54h-18.69V-67.9h69.01L628.12-24.33z
				 M664.21,39.06l-29.46,41.5V-57.97L664.21,39.06z M673.96-74.99h-39.21v-21.94l39.21-32.43V-74.99z"/>
		</g>
		<g id="Group_2" transform="translate(12596.478 12316.49)">
			<path id="Path_2" class="st0" d="M467.22-176.26c0,0.24-0.02,0.47-0.07,0.71v-1.41C467.19-176.74,467.22-176.5,467.22-176.26z"/>
		</g>
	</g>
	
		<text transform="matrix(1 0 0 1 1321.9606 1296.2744)" class="st0" style="font-family:'VikingGothicW01-Regular'; font-size:112.1621px; letter-spacing:2;">CERVEZA NATURAL</text>
	
		<text transform="matrix(1 0 0 1 1351.7174 1188.6904)" class="st0" style="font-family:'SultanCafeDecorPERSONALUSE'; font-size:227.3762px; letter-spacing:5;">boar</text>
	<rect id="Rectangle_24" x="1246.42" y="1252.02" class="st0" width="45.02" height="6.87"/>
	<rect id="Rectangle_25" x="1756.87" y="1252.02" class="st0" width="45.02" height="6.87"/>
</g>
<g>
	<path class="st0" d="M52.91,206.03c-1.89,0-3.52-0.68-4.9-2.06c-1.38-1.37-2.06-2.96-2.06-4.77c0-1.8,0.68-3.39,2.06-4.77
		l44.58-46.9l-28.35-29.89c-1.38-1.37-2.06-3-2.06-4.9c0-1.89,0.68-3.52,2.06-4.9l27.83-27.32L48.27,37.49
		c-1.38-1.37-2.06-3-2.06-4.9c0-1.89,0.68-3.52,2.06-4.9c1.72-1.37,3.43-2.06,5.15-2.06c1.89,0,3.52,0.69,4.9,2.06l43.81,43.04
		l43.81-43.04c1.37-1.37,2.92-2.06,4.64-2.06c1.72,0,3.43,0.69,5.15,2.06c1.37,1.38,2.06,3.01,2.06,4.9c0,1.89-0.69,3.52-2.06,4.9
		l-43.55,43.04l27.83,27.32c1.37,1.38,2.06,3.01,2.06,4.9c0,1.89-0.69,3.52-2.06,4.9l-28.35,29.89l44.58,46.9
		c1.37,1.38,2.02,2.96,1.93,4.77c-0.09,1.8-0.82,3.39-2.19,4.77c-1.2,1.38-2.83,2.06-4.9,2.06c-1.55,0-3.18-0.68-4.9-2.06
		l-44.07-46.39L57.8,203.97C56.43,205.34,54.8,206.03,52.91,206.03z M102.13,137.48L125.32,113l-23.19-22.68L78.94,113
		L102.13,137.48z"/>
</g>
</svg>
