<?xml version="1.0" encoding="utf-8"?>
<!-- Generator: Adobe Illustrator 23.1.0, SVG Export Plug-In . SVG Version: 6.00 Build 0)  -->
<svg version="1.1" id="Layer_1" xmlns="http://www.w3.org/2000/svg" xmlns:xlink="http://www.w3.org/1999/xlink" x="0px" y="0px"
	 viewBox="0 0 204.3 220.6" style="enable-background:new 0 0 204.3 220.6;" xml:space="preserve">
<style type="text/css">
	.st0{fill:none;}
	.st1{fill:#FFFFFF;}
</style>
<polygon class="st0" points="-392.2,839.5 -390.1,839.5 -390.1,839.5 "/>
<g>
	<path class="st1" d="M169.1,76.8c-1.2,1.4-2.6,2.1-4.2,2.1H57.4c-1.9,0-3.4-0.8-4.5-2.4L20.4,43.9c-1-1.4-1.5-3.1-1.3-5
		c0.1-2,0.8-3.6,2-5c1.3-1.2,2.8-1.8,4.3-1.6s2.9,1,4.1,2.4l30.7,30h104.6c1.6,0,3,0.7,4.2,2.1c1.2,1.4,1.8,3.1,1.8,5
		C170.9,73.7,170.3,75.4,169.1,76.8z"/>
</g>
<g>
	<path class="st1" d="M169.1,132.8c-1.2,1.4-2.6,2.1-4.2,2.1H57.4c-1.9,0-3.4-0.8-4.5-2.4L20.4,99.9c-1-1.4-1.5-3.1-1.3-5
		c0.1-1.9,0.8-3.6,2-5c1.3-1.2,2.8-1.8,4.3-1.6s2.9,1,4.1,2.4l30.7,30h104.6c1.6,0,3,0.7,4.2,2.1c1.2,1.4,1.8,3.1,1.8,5
		C170.9,129.7,170.3,131.4,169.1,132.8z"/>
</g>
<g>
	<path class="st1" d="M169.1,188.7c-1.2,1.4-2.6,2.1-4.2,2.1H57.4c-1.9,0-3.4-0.8-4.5-2.4l-32.5-32.6c-1-1.4-1.5-3.1-1.3-5
		c0.1-1.9,0.8-3.6,2-5c1.3-1.2,2.8-1.8,4.3-1.6s2.9,1,4.1,2.4l30.7,30h104.6c1.6,0,3,0.7,4.2,2.1c1.2,1.4,1.8,3.1,1.8,5
		C170.9,185.6,170.3,187.3,169.1,188.7z"/>
</g>
</svg>
