<?xml version="1.0" encoding="utf-8"?>
<!-- Generator: Adobe Illustrator 26.0.3, SVG Export Plug-In . SVG Version: 6.00 Build 0)  -->
<svg version="1.1" id="Layer_1" xmlns="http://www.w3.org/2000/svg" xmlns:xlink="http://www.w3.org/1999/xlink" x="0px" y="0px"
	 viewBox="0 0 50 50" style="enable-background:new 0 0 50 50;" xml:space="preserve">
<style type="text/css">
	.st0{fill:#E8D6BB;}
</style>
<g>
	<g>
		<path class="st0" d="M43.9,38.2c0,0.5-0.2,1-0.6,1.4C43,40,42.5,40.2,42,40.2H17.1c-0.6,0-0.9-0.3-1.5-0.7L5.2,32.9
			c-0.3-0.4-0.5-0.9-0.4-1.4c0-0.5,0.3-1,0.6-1.4c0.5-0.4,0.9-0.5,1.4-0.5c0.5,0,0.9,0.3,1.3,0.6l9.8,6h24c0.5,0,1,0.2,1.4,0.6
			C43.7,37.2,43.9,37.7,43.9,38.2z"/>
	</g>
</g>
<g>
	<g>
		<path class="st0" d="M43.9,27c0,0.5-0.2,1-0.6,1.4C43,28.8,42.5,29,42,29H17.1c-0.6,0-0.9-0.3-1.5-0.7L5.2,21.6
			c-0.3-0.4-0.5-0.9-0.4-1.4c0-0.5,0.3-1,0.6-1.4c0.5-0.4,0.9-0.5,1.4-0.5c0.5,0,0.9,0.3,1.3,0.6l9.8,6h24c0.5,0,1,0.2,1.4,0.6
			C43.7,26,43.9,26.5,43.9,27z"/>
	</g>
</g>
<g>
	<g>
		<path class="st0" d="M43.9,15.8c0,0.5-0.2,1-0.6,1.4c-0.4,0.4-0.9,0.6-1.4,0.6H17.1c-0.6,0-0.9-0.3-1.5-0.7L5.2,10.4
			C4.9,10,4.7,9.5,4.8,9c0-0.5,0.3-1,0.6-1.4c0.5-0.4,0.9-0.5,1.4-0.5c0.5,0,0.9,0.3,1.3,0.6l9.8,6h24c0.5,0,1,0.2,1.4,0.6
			C43.7,14.8,43.9,15.2,43.9,15.8z"/>
	</g>
</g>
</svg>
