<?xml version="1.0" standalone="no"?>
<!DOCTYPE svg PUBLIC "-//W3C//DTD SVG 1.1//EN" "http://www.w3.org/Graphics/SVG/1.1/DTD/svg11.dtd" >
<svg xmlns="http://www.w3.org/2000/svg" xmlns:xlink="http://www.w3.org/1999/xlink" version="1.1">
<metadata>
Created by FontForge 20170731 at Sun Oct 31 17:44:40 2021
 By Aleksey,,,
www.timm.design
</metadata>
<defs>
<font id="Mjolnir" horiz-adv-x="1646" >
  <font-face 
    font-family="Mjolnir"
    font-weight="400"
    font-stretch="normal"
    units-per-em="2048"
    panose-1="0 0 0 0 0 0 0 0 0 0"
    ascent="1536"
    descent="-512"
    x-height="1419"
    cap-height="1438"
    bbox="-56 -358 2232 1932"
    underline-thickness="102"
    underline-position="-307"
    unicode-range="U+000D-203A"
  />
<missing-glyph horiz-adv-x="765" 
 />
    <glyph glyph-name=".notdef" horiz-adv-x="765" 
 />
    <glyph glyph-name=".null" horiz-adv-x="0" 
 />
    <glyph glyph-name="nonmarkingreturn" horiz-adv-x="682" 
 />
    <glyph glyph-name="NULL" horiz-adv-x="0" 
 />
    <glyph glyph-name="NULL" horiz-adv-x="0" 
 />
    <glyph glyph-name="CR" unicode="&#xd;" horiz-adv-x="765" 
 />
    <glyph glyph-name="space" unicode=" " horiz-adv-x="765" 
 />
    <glyph glyph-name="exclam" unicode="!" horiz-adv-x="589" 
d="M297 256q72 0 121 -49.5t49 -122.5q0 -70 -49.5 -120t-120.5 -50q-73 0 -123.5 49.5t-50.5 120.5q0 72 50.5 122t123.5 50zM297 10q32 0 53 21t21 53t-21 54t-53 22q-35 0 -57.5 -21.5t-22.5 -54.5q0 -32 23 -53t57 -21zM246 688l-185 184l185 187v282h96v-282l186 -187
l-186 -184v-330h-96v330zM295 776l96 96l-96 99l-98 -99z" />
    <glyph glyph-name="quotedbl" unicode="&#x22;" horiz-adv-x="833" 
d="M238 1456q73 0 122.5 -51.5t49.5 -126.5q0 -62 -33 -152l-92 -268l-90 31l92 268q28 78 28 121q0 37 -21 59.5t-56 22.5t-57.5 -22.5t-22.5 -59.5q0 -58 49 -74l-33 -90q-52 19 -82.5 63t-30.5 101q0 75 51 126.5t126 51.5zM600 1456q73 0 122.5 -51.5t49.5 -126.5
q0 -64 -33 -152l-92 -268l-90 31l92 268q29 81 29 121q0 37 -21.5 59.5t-56.5 22.5t-57.5 -22.5t-22.5 -59.5q0 -58 49 -74l-32 -90q-52 19 -82.5 63t-30.5 101q0 75 50.5 126.5t125.5 51.5z" />
    <glyph glyph-name="numbersign" unicode="#" horiz-adv-x="1368" 
d="M676 461l-182 184l182 182l182 -182zM723 645l-47 47l-47 -47l47 -47zM1307 924h-246l-66 -547h250v-96h-262l-43 -357h-211v94h125l33 263h-506l-39 -314l-96 13l39 301h-224v96h236l68 547h-242v94h254l43 346h182v-96h-98l-31 -250h504l37 301l96 -10l-37 -291h234
v-94zM899 377l66 547h-504l-68 -547h506z" />
    <glyph glyph-name="dollar" unicode="$" horiz-adv-x="1259" 
d="M1198 348q0 -64 -14.5 -125t-48 -120.5t-83 -107.5t-125.5 -83t-169 -49v-129h-96v121q-10 -2 -31 -2q-161 0 -310.5 58t-238.5 155l-21 22l82 203l90 -35l-59 -145q78 -74 202.5 -118t254.5 -44q5 0 15.5 1t15.5 1v78l-168 186l71 64l97 -107v49l-201 201l201 199v135
q-49 14 -79 23t-74 25.5t-71 32t-58 39.5t-48.5 50.5t-29 63t-11.5 79.5q0 57 20 108t62 94.5t116 69.5t173 27v121h96v-129q161 -24 303 -129l-57 -78q-116 87 -246 111v-52q50 -15 82 -57.5t32 -97.5q0 -53 -32 -95.5t-82 -60.5v-74q51 -15 90.5 -29t87.5 -36t83.5 -47
t71 -61.5t57.5 -79.5t36 -100.5t14 -125.5zM709 989q28 0 47.5 20t19.5 48q0 29 -19.5 48t-47.5 19t-48 -19t-20 -48q0 -28 20 -48t48 -20zM385 1069q0 -44 17.5 -76.5t57.5 -57.5t84.5 -41.5t117.5 -37.5v45q-52 18 -84.5 60.5t-32.5 95.5q0 55 32.5 97.5t84.5 57.5v60
q-132 0 -204.5 -53t-72.5 -150zM709 532l-113 -110l113 -113l112 113zM758 -41q176 32 261 140.5t85 248.5q0 71 -19 127.5t-48.5 94.5t-77.5 69t-93 50t-108 38v-106l198 -199l-198 -201v-47l106 107l68 -68l-174 -176v-78z" />
    <glyph glyph-name="percent" unicode="%" horiz-adv-x="1693" 
d="M424 1020l-45 -47l-68 69l115 117l106 -119l-69 -65zM463 778l-39 43l-45 -45l-68 68l115 117l106 -119zM1270 272l45 45l67 -67l-116 -117l-107 119l72 63zM1270 471l45 45l67 -67l-116 -117l-107 119l72 63zM1272 743q160 0 260 -116t100 -299t-100 -298.5t-260 -115.5
q-158 0 -258.5 115.5t-100.5 298.5t100.5 299t258.5 116zM1272 10q118 0 191 87.5t73 230.5t-73 231t-191 88q-120 0 -191 -86.5t-71 -232.5q0 -145 71 -231.5t191 -86.5zM780 961q0 -186 -98.5 -300t-259.5 -114q-160 0 -260.5 115.5t-100.5 298.5t100.5 299t260.5 116
q161 0 259.5 -114.5t98.5 -300.5zM158 961q0 -143 73 -230.5t191 -87.5q120 0 191 86.5t71 231.5q0 146 -71 232.5t-191 86.5q-118 0 -191 -88t-73 -231zM1432 1364l-918 -1344h53v-94h-233l915 1342h-57v96h240z" />
    <glyph glyph-name="ampersand" unicode="&#x26;" horiz-adv-x="1404" 
d="M391 342l182 184l183 -184l-183 -182zM573 295l48 47l-48 47l-47 -47zM1190 262l153 -153l-67 -68l-160 160l-510 506l56 30q152 88 206 158.5t54 151.5q0 109 -76 171t-209 62q-143 0 -229 -69.5t-86 -184.5q0 -63 31 -125t116 -147l45 -45l-55 -31
q-164 -94 -232.5 -178t-68.5 -193q0 -134 117.5 -217.5t304.5 -83.5q247 0 415 160l66 -70q-189 -186 -481 -186q-225 0 -372 112.5t-147 284.5q0 127 69.5 226.5t227.5 195.5q-131 148 -131 297q0 157 113 253.5t297 96.5q174 0 277.5 -89.5t103.5 -239.5
q0 -106 -59.5 -190.5t-196.5 -170.5l356 -352q48 88 72 196l-107 35l31 90l189 -61l-9 -41q-36 -169 -104 -291zM768 1040l-145 -145l-131 147l69 64l66 -72l73 74z" />
    <glyph glyph-name="quotesingle" unicode="'" horiz-adv-x="471" 
d="M238 1456q73 0 122.5 -51.5t49.5 -126.5q0 -64 -33 -152l-92 -268l-90 31l92 268q28 78 28 121q0 37 -21 59.5t-56 22.5t-57.5 -22.5t-22.5 -59.5q0 -58 49 -74l-33 -90q-52 19 -82.5 63t-30.5 101q0 75 51 126.5t126 51.5z" />
    <glyph glyph-name="parenleft" unicode="(" horiz-adv-x="722" 
d="M662 1477h-150q-148 -248 -190 -609q43 -13 75 -45q57 -57 57 -138t-57 -138q-34 -34 -86 -51q25 -422 201 -719h150v-94h-203l-15 22q-201 322 -229 789q-55 12 -96 53q-58 58 -58 137q0 81 58 139q45 45 106 54q45 402 221 673l13 23h203v-96zM330 614q29 29 29 71
t-29 71q-33 30 -72 30q-42 0 -72 -30q-29 -29 -29 -71t29 -71t72 -29t72 29z" />
    <glyph glyph-name="parenright" unicode=")" horiz-adv-x="722" 
d="M662 684q0 -82 -58 -137q-41 -41 -94 -53q-27 -465 -234 -791l-14 -20h-201v94h148q180 296 205 719q-50 15 -86 51q-58 58 -58 137q0 81 58 139q27 31 73 45q-41 362 -192 609h-148v96h201l14 -23q176 -271 224 -673q59 -9 104 -54q58 -55 58 -139zM537 614q29 29 29 71
t-29 71q-30 30 -70 30q-42 0 -72 -30t-30 -72q0 -40 30 -70q28 -29 71 -29t71 29z" />
    <glyph glyph-name="asterisk" unicode="*" horiz-adv-x="962" 
d="M901 1106h-217q-10 -40 -29 -68l154 -153l-68 -68l-155 156q-25 -17 -64 -27v-205h-96v205q-39 10 -64 27l-145 -146l-67 68l143 145q-21 31 -29 66h-203v94h201q5 33 27 70l-142 141l68 68l141 -140q31 22 70 31v211h96v-211q39 -9 70 -31l151 150l68 -68l-152 -151
q21 -36 29 -70h213v-94zM475 1036q49 0 85 36t36 85q0 51 -35.5 87t-85.5 36q-51 0 -87 -36t-36 -87q0 -50 36 -85.5t87 -35.5z" />
    <glyph glyph-name="plus" unicode="+" horiz-adv-x="962" 
d="M901 692v-96h-373v-371h-94v371h-373v96h373v373h94v-373h373z" />
    <glyph glyph-name="comma" unicode="," horiz-adv-x="471" 
d="M274 -358h-155v96h86l80 233q30 84 30 123q0 37 -21.5 59.5t-55.5 22.5q-35 0 -57.5 -22.5t-22.5 -59.5q0 -58 49 -74l-33 -90q-52 19 -82.5 63t-30.5 101q0 76 51 127t126 51q74 0 123 -51t49 -127q0 -54 -35 -153z" />
    <glyph glyph-name="hyphen" unicode="-" horiz-adv-x="962" 
d="M901 596h-840v96h840v-96z" />
    <glyph glyph-name="period" unicode="." horiz-adv-x="475" 
d="M240 -86q-75 0 -127 52.5t-52 127.5t52 126.5t127 51.5q73 0 123.5 -51.5t50.5 -126.5t-50.5 -127.5t-123.5 -52.5zM240 176q-35 0 -58.5 -23.5t-23.5 -58.5t23.5 -59.5t58.5 -24.5q33 0 55 24t22 60q0 35 -21.5 58.5t-55.5 23.5z" />
    <glyph glyph-name="slash" unicode="/" horiz-adv-x="989" 
d="M928 1636l-244 -700l64 -152l-89 -36l-22 55l-57 -166l63 -154l-88 -39l-25 58l-268 -768h-201v96h134l243 696l-51 -24l-43 86l139 67l62 174l-53 -26l-43 86l141 69l203 582h-99v96h234z" />
    <glyph glyph-name="zero" unicode="0" horiz-adv-x="1314" 
d="M1014 772l-127 -127l127 -129l-68 -67l-127 129l-92 -93l131 -129l-70 -69l-126 129l-127 -129l-68 69l125 125l-96 97l-127 -129l-70 67l129 129l-129 127l70 68l127 -127l96 96l-125 125l68 67l127 -127l126 127l70 -67l-131 -131l92 -90l127 127zM657 551l95 94
l-95 94l-94 -94zM657 1378q267 0 431.5 -202.5t164.5 -530.5q0 -330 -164.5 -532.5t-431.5 -202.5t-431.5 202.5t-164.5 532.5q0 328 164.5 530.5t431.5 202.5zM657 6q227 0 363.5 174t136.5 465q0 290 -136.5 464.5t-363.5 174.5t-363 -174.5t-136 -464.5
q0 -292 136 -465.5t363 -173.5z" />
    <glyph glyph-name="one" unicode="1" horiz-adv-x="978" 
d="M815 518l68 -67l-234 -232v-246h-94v246l-233 232l67 67l166 -164v109l-266 266l266 266v273h-397v-119h-97v215h588v-369l269 -266l-269 -266v-109zM602 907l-178 -178l178 -178l178 178z" />
    <glyph glyph-name="two" unicode="2" horiz-adv-x="1216" 
d="M451 96h704v-96h-950l92 84q244 225 321 295l-129 129l314 315l133 -133q55 69 74.5 129t19.5 137q0 152 -110.5 240t-301.5 88q-130 0 -239.5 -39.5t-181.5 -111.5l92 -82l-62 -72l-166 143l29 35q85 106 223 163.5t305 57.5q232 0 370 -114.5t138 -307.5
q0 -94 -25.5 -170t-96.5 -163l114 -115l-315 -313l-117 116q-26 -23 -111 -101.5t-124 -113.5zM803 688l-178 -180l178 -178l178 178z" />
    <glyph glyph-name="three" unicode="3" horiz-adv-x="1232" 
d="M770 225q-59 -59 -139 -59t-139 59q-58 57 -58 139t58 140q58 57 139.5 57t138.5 -57q58 -58 58 -140t-58 -139zM559 436q-29 -31 -29 -72.5t29 -70.5q29 -31 71.5 -31t71.5 31q29 29 29 70.5t-29 72.5q-32 29 -71 29q-40 0 -72 -29zM809 786q172 -35 267 -144.5
t95 -272.5q0 -209 -151.5 -334t-405.5 -125q-154 0 -293 46.5t-231 129.5l-29 25l109 186l82 -49l-68 -115q79 -60 193 -93.5t237 -33.5q213 0 337 97.5t124 265.5q0 144 -94 231.5t-266 104.5l-90 8l397 489v66h-234l68 -68l-68 -67l-135 135h-118l69 -68l-67 -67l-138 135
h-168v-119h-96v215h273l131 117l63 -72l-51 -45h111l129 117l65 -72l-51 -45h313v-195z" />
    <glyph glyph-name="four" unicode="4" horiz-adv-x="1148" 
d="M158 350h929v-94h-184v-283h-96v283h-746v199l170 217l-96 -8l-10 96l188 16l70 90l-86 -8l-10 96l178 17l307 393h232v-96h-185l-272 -348l8 -189l-96 -4l-4 76l-70 -90l8 -178l-96 -5l-2 66l-137 -174v-72zM813 410v350h96v-350h-96z" />
    <glyph glyph-name="five" unicode="5" horiz-adv-x="1232" 
d="M428 555l-223 225l176 176l37 408h688v-225h-94v129h-506l-29 -314l174 -174zM428 692l88 88l-88 88l-88 -88zM811 803q175 -43 267.5 -152t92.5 -274q0 -214 -150.5 -340.5t-404.5 -126.5q-154 0 -293 46.5t-233 129.5l-29 25l109 186l82 -49l-68 -115
q82 -60 195.5 -93.5t236.5 -33.5q215 0 337 98t122 273q0 274 -307 336l-123 -123l-70 67l123 123l-123 121l70 68z" />
    <glyph glyph-name="six" unicode="6" horiz-adv-x="1257" 
d="M819 225q-60 -57 -139 -57t-139 57q-58 61 -58 140q0 81 58 139q57 58 138 58t140 -58q57 -57 57 -138.5t-57 -140.5zM580 365q0 -42 28 -70q29 -31 71 -31t71 31q31 29 31 70.5t-31 70.5q-26 29 -70 29q-43 0 -72 -29q-28 -28 -28 -71zM688 836q224 0 366 -127t142 -328
q0 -204 -147.5 -337.5t-374.5 -133.5q-292 0 -452.5 188t-160.5 529q0 348 183.5 549.5t498.5 201.5q224 0 361 -84l-51 -82q-118 72 -310 72q-275 0 -430 -174t-155 -483q0 -300 133 -460.5t383 -160.5q189 0 308.5 104.5t119.5 270.5q0 161 -114 260.5t-300 99.5
q-158 0 -268 -77h92v-97h-268v269h96v-113q131 113 348 113z" />
    <glyph glyph-name="seven" unicode="7" horiz-adv-x="1230" 
d="M1077 840l-22 75l-49 -108l120 -299l-313 -129l-190 -426l-88 41l196 438l-119 293l306 123l49 106l-80 -28l-35 88l170 63l51 119v72h-915v-187h-97v283h1108l-4 -199l-53 -118l57 -177zM815 483l186 76l-75 189l-189 -76z" />
    <glyph glyph-name="eight" unicode="8" horiz-adv-x="1255" 
d="M883 659q141 -52 226 -150t85 -216q0 -112 -76 -207t-206.5 -151t-284.5 -56q-153 0 -283.5 55.5t-206.5 151t-76 207.5q0 118 85.5 216t226.5 150q-119 51 -190.5 137.5t-71.5 188.5q0 103 69 190t188 138t259 51q141 0 260.5 -51t188.5 -138t69 -190
q0 -102 -71.5 -188.5t-190.5 -137.5zM205 985q0 -115 124.5 -197.5t297.5 -82.5q115 0 212 37.5t153.5 102t56.5 140.5q0 117 -123.5 200t-298.5 83q-114 0 -211 -38t-154 -103t-57 -142zM557 233q28 -29 70 -29t71 29t29 71t-29 71q-31 31 -71 31q-39 0 -70 -31
q-31 -29 -31 -71t31 -71zM676 -20q178 12 300 101.5t122 211.5q0 130 -138 222.5t-333 92.5q-194 0 -331.5 -92.5t-137.5 -222.5q0 -122 121.5 -211.5t300.5 -101.5v135q-54 12 -93 51q-57 57 -57 139q0 80 57 137t140 57t139 -57q57 -57 57 -138t-57 -138q-35 -38 -90 -51
v-135zM750 1167l67 -67l-123 -121l123 -123l-67 -68l-123 123l-121 -123l-68 68l121 123l-121 121l68 67l121 -120z" />
    <glyph glyph-name="nine" unicode="9" horiz-adv-x="1255" 
d="M457 1075q57 57 138 57t140 -57q57 -59 57 -140t-57 -138q-58 -58 -139 -58t-139 58t-58 139t58 139zM668 864q29 29 29 71t-29 73q-31 28 -72 28t-72 -28q-28 -31 -28 -72q0 -44 28 -72q29 -29 71 -29t73 29zM584 1378q292 0 451 -186.5t159 -529.5q0 -348 -183 -550
t-499 -202q-220 0 -358 86l-37 22l92 189l86 -41l-53 -109q111 -51 270 -51q275 0 431.5 174.5t156.5 481.5q0 301 -133.5 461.5t-382.5 160.5q-189 0 -307.5 -105.5t-118.5 -271.5q0 -161 112.5 -259.5t296.5 -98.5q179 0 291 92h-115v96h269v-268h-94v96
q-133 -112 -351 -112q-223 0 -364.5 126.5t-141.5 327.5q0 205 148 338t375 133z" />
    <glyph glyph-name="colon" unicode=":" horiz-adv-x="475" 
d="M240 -86q-75 0 -127 52.5t-52 127.5t52 126.5t127 51.5q73 0 123.5 -51.5t50.5 -126.5t-50.5 -127.5t-123.5 -52.5zM240 176q-35 0 -58.5 -23.5t-23.5 -58.5t23.5 -59.5t58.5 -24.5q33 0 55 24t22 60q0 35 -21.5 58.5t-55.5 23.5zM240 688q-75 0 -127 52.5t-52 127.5
t52 127t127 52q73 0 123.5 -52t50.5 -127t-50.5 -127.5t-123.5 -52.5zM240 952q-35 0 -58.5 -24.5t-23.5 -59.5t23.5 -59.5t58.5 -24.5q33 0 55 24t22 60q0 37 -21.5 60.5t-55.5 23.5z" />
    <glyph glyph-name="semicolon" unicode=";" horiz-adv-x="475" 
d="M279 -358h-156v96h86l80 233q28 78 28 123q0 37 -20.5 59.5t-54.5 22.5q-35 0 -57.5 -22.5t-22.5 -59.5q0 -26 12.5 -46.5t34.5 -27.5l-31 -90q-52 19 -82 63t-30 101q0 76 50.5 127t125.5 51q74 0 123 -51t49 -127q0 -54 -35 -153zM240 688q-75 0 -127 52.5t-52 127.5
t52 127t127 52q73 0 123.5 -52t50.5 -127t-50.5 -127.5t-123.5 -52.5zM240 952q-33 0 -57.5 -22.5t-24.5 -61.5q0 -35 23.5 -59.5t58.5 -24.5q33 0 55 24t22 60q0 37 -21.5 60.5t-55.5 23.5z" />
    <glyph glyph-name="less" unicode="&#x3c;" horiz-adv-x="1077" 
d="M1016 152l-955 378v230l955 377v-230h-96v88l-762 -301v-100l762 -301v88h96v-229z" />
    <glyph glyph-name="equal" unicode="=" horiz-adv-x="1077" 
d="M158 817v-104h-97v198h908v-94h-811zM920 569h96v-200h-907v96h811v104z" />
    <glyph glyph-name="greater" unicode="&#x3e;" horiz-adv-x="1077" 
d="M61 152v229h97v-88l764 301v100l-764 301v-88h-97v230l955 -377v-230z" />
    <glyph glyph-name="question" unicode="?" horiz-adv-x="1189" 
d="M647 256q73 0 122.5 -49t49.5 -123q0 -71 -50 -120.5t-122 -49.5t-122 49.5t-50 120.5q0 74 49.5 123t122.5 49zM647 10q32 0 54 21t22 53t-22 54t-54 22q-34 0 -55 -21t-21 -55q0 -32 22 -53t54 -21zM627 1378q229 0 365 -105.5t136 -283.5q0 -55 -13 -104.5
t-29.5 -83.5t-47.5 -71.5t-52 -58t-58 -53.5t-56 -52t-41 -47.5t-31 -57.5t-9 -64v-47h-242v94h149q6 40 20.5 73.5t43 67.5t45.5 51.5t57 53.5q43 39 64.5 61t50 60.5t41 81.5t12.5 96q0 137 -109 216t-296 79q-272 0 -426 -160l96 -67l-55 -80l-181 129l31 41
q181 231 535 231zM831 930l-184 -185l-184 185l184 184zM647 977l-49 -47l49 -49l47 49z" />
    <glyph glyph-name="at" unicode="@" horiz-adv-x="1746" 
d="M874 1378q236 0 421 -96.5t288 -270.5t103 -397q0 -206 -98 -316t-281 -110q-65 0 -111.5 46t-46.5 141v67l-70 -67l-67 67l137 136v73l-70 -69l-67 67l137 137v101q-51 66 -134 101.5t-184 35.5q-186 0 -303.5 -122.5t-117.5 -317.5q0 -193 119 -319t302 -126
q130 0 213 51l50 -81q-114 -66 -263 -66q-224 0 -370 153t-146 388q0 233 146 384.5t370 151.5q191 0 318 -100v45h96v-279l135 -137l-67 -67l-68 69v-73l135 -136l-67 -67l-68 67v-67q0 -31 6.5 -51.5t18.5 -27.5t19 -9t18 -2q143 0 212.5 81t69.5 248q0 198 -89 350
t-251.5 236t-374.5 84t-374.5 -86.5t-252 -244.5t-89.5 -363q0 -187 72.5 -334.5t205.5 -239.5l-26 101l92 22l49 -186q139 -62 315 -62q198 0 348 78l46 -84q-172 -90 -394 -90q-195 0 -364 76l-187 -49l-24 92l92 25q-153 106 -237.5 274t-84.5 377q0 230 103 409.5
t288 279t422 99.5z" />
    <glyph glyph-name="A" unicode="A" horiz-adv-x="1615" 
d="M805 1495l749 -1442l-86 -45l-661 1278l-660 -1278l-86 45zM428 436l379 742l377 -742l-84 -43l-293 574l-295 -574zM633 422l182 182l166 -184l-72 -66l-98 111l-111 -113z" />
    <glyph glyph-name="B" unicode="B" horiz-adv-x="1787" 
d="M1530 756q96 -51 146 -139.5t50 -206.5q0 -53 -11 -102t-47 -107.5t-95 -100.5t-164.5 -71t-245.5 -29h-688v696h-229l164 -164l-68 -69l-281 280l281 281l68 -68l-164 -163h229v645h651q249 0 389 -105t140 -291q0 -177 -125 -286zM1163 96q70 0 131 7.5t125 28.5
t109 55t73.5 91t28.5 132q0 108 -54.5 181.5t-156.5 104.5h-186v97h180q146 76 146 249q0 143 -114 222t-319 79h-555v-550h344l-165 163l67 68l213 -213l213 213l68 -68l-213 -213l213 -211l-68 -69l-213 213l-213 -213l-67 69l165 164h-344v-600h592z" />
    <glyph glyph-name="C" unicode="C" horiz-adv-x="1427" 
d="M819 -16q-159 0 -300 56.5t-241.5 154t-158.5 234t-58 290.5q0 207 99 375.5t273 264t388 95.5q167 0 307.5 -58t237.5 -167l-72 -64q-171 193 -473 193q-234 0 -413 -127l446 -443l225 226l68 -68l-225 -225l215 -215l-68 -68l-215 215l-446 -444q175 -129 411 -129
q302 0 475 194l72 -63q-97 -109 -238.5 -168t-308.5 -59zM336 1167q-178 -178 -178 -448t176 -449l450 451zM856 844l-194 190l67 70l125 -123l119 121l67 -66zM535 530l-68 68l123 123l-123 119l68 69l190 -186zM729 334l-67 67l194 193l184 -193l-67 -67l-119 123z" />
    <glyph glyph-name="D" unicode="D" horiz-adv-x="1775" 
d="M942 1438q225 0 401 -91t273.5 -254.5t97.5 -373.5t-97.5 -373.5t-273.5 -254.5t-401 -91h-614v201l-232 233l68 68l211 -213l424 422l-424 424l-211 -213l-68 67l232 232v217h614zM942 96q303 0 489.5 172t186.5 451q0 280 -187 452t-489 172h-518v-122l510 -510
l-510 -510v-105h518zM690 711l-315 -314l-314 314l314 315zM375 891l-178 -180l178 -179l180 179zM1243 918l209 -209l-209 -207l-207 207zM1171 709l72 -72l74 72l-74 73z" />
    <glyph glyph-name="E" unicode="E" horiz-adv-x="1193" 
d="M1036 215h97v-215h-1072v1438h1043v-215h-94v120h-852v-575h71l267 266l313 -315l-313 -313l-267 266h-71v-576h878v119zM496 897l-179 -178l179 -178l178 178zM705 932l67 67l281 -280l-281 -281l-67 68l213 213z" />
    <glyph glyph-name="F" unicode="F" horiz-adv-x="1349" 
d="M246 1438h1042v-215h-94v120h-852v-575h172l-57 57l67 68l125 -125h119l-59 57l69 68l113 -113l113 113l67 -68l-110 -112l108 -97l-63 -71l-115 102l-115 -102l-65 71l63 56h-110l-142 -127l-63 71l61 56h-178v-576h143v-96h-239v547h-2l-183 182l185 166v543zM201 725
l45 -45v86z" />
    <glyph glyph-name="G" unicode="G" horiz-adv-x="1472" 
d="M1149 936l-162 -162h393v-594l-16 -14q-103 -86 -244.5 -134t-294.5 -48q-218 0 -393 94.5t-273 262.5t-98 378t98.5 378t274 262.5t395.5 94.5q171 0 312 -57t239 -166l31 -35l-151 -149l-68 67l86 84q-174 160 -449 160q-192 0 -345.5 -82t-239.5 -228t-86 -329
t85.5 -329t238 -228t343.5 -82q130 0 250 38t209 107v453h-303l168 -166l-68 -70l-235 236h-76q12 -31 40.5 -50.5t63.5 -19.5v-96q-86 0 -146 60.5t-60 146.5q0 87 60 148t146 61v-97q-30 0 -55 -15.5t-39 -41.5h72l229 230zM428 551l-174 172l174 174l174 -174zM467 723
l-39 39l-37 -39l37 -37z" />
    <glyph glyph-name="H" unicode="H" horiz-adv-x="1374" 
d="M1071 1438h242v-1438h-242v96h146v576h-183l-348 -348l-346 348h-182v-576h143v-96h-240v1438h240v-95h-143v-575h182l346 346l348 -346h183v575h-146v95zM686 459l260 260l-260 260l-260 -260zM596 629q-37 38 -37 90.5t37 89.5q38 37 90.5 37t89.5 -37t37 -89.5
t-37 -90.5q-37 -37 -90 -37q-50 0 -90 37zM666 741q-9 -9 -9 -22.5t9 -22.5q8 -8 21 -8t22 8q9 9 9 22.5t-9 22.5t-23 9t-20 -9z" />
    <glyph glyph-name="I" unicode="I" horiz-adv-x="499" 
d="M371 692l-70 70v-238l70 70l67 -68l-137 -137v-389h-96v389l-137 137l67 68l70 -70v238l-70 -70l-67 68l116 119l-116 116l67 68l70 -70v350h-144v95h240v-445l70 70l67 -68l-116 -116l116 -119z" />
    <glyph glyph-name="J" unicode="J" horiz-adv-x="1273" 
d="M1212 692l-233 -233q-5 -232 -123.5 -353.5t-343.5 -121.5q-133 0 -246 56.5t-184 158.5l-21 30l136 158l73 -61l-88 -101q59 -69 145 -107t185 -38q184 0 276 94.5t97 286.5l-232 231l68 68l164 -164v211l-156 156l68 67l88 -88v401h-580v-120h-94v215h770v-496l88 88
l68 -67l-156 -156v-211l164 164z" />
    <glyph glyph-name="K" unicode="K" horiz-adv-x="1611" 
d="M1348 96h202v-96h-245l-678 766l241 250h-98v96h191l315 326h240v-95h-199l-285 -296v-197h-96v98l-178 -184zM424 870l266 -266l-266 -266v-338h-96v338l-267 266l267 266v568h239v-95h-143v-473zM375 782l-178 -178l178 -180l180 180z" />
    <glyph glyph-name="L" unicode="L" horiz-adv-x="1357" 
d="M1200 215h96v-215h-1015v279l-134 135l115 112l-201 201l201 199l-115 114l134 134v264h239v-95h-143v-169l133 -134l-113 -114l199 -199l-199 -201l113 -112l-133 -135v-183h823v119zM283 1040l47 -47l45 47l-45 45zM197 727l133 -133l131 133l-131 131zM375 414l-45 45
l-47 -45l47 -47z" />
    <glyph glyph-name="M" unicode="M" horiz-adv-x="1648" 
d="M1354 0v96h137l-2 1247h-82l-580 -991l-587 991h-82v-1247h135v-96h-232v1438h232l532 -897l527 897h233l2 -1438h-233zM1036 1040l-213 -362l-213 362l82 47l131 -219l129 219zM967 1212l-144 -243l-143 243l82 50l61 -103l60 103zM688 168l135 133l135 -133l-135 -135z
" />
    <glyph glyph-name="N" unicode="N" horiz-adv-x="1683" 
d="M1622 961l-68 -68l-88 88v-981h-266l-309 514l-49 -49l-248 248l113 112l-312 518h-82v-899l86 88l70 -69l-156 -154v-213h144v-96h-240v309l-156 154l68 69l88 -88v994h232l327 -543l66 66l248 -248l-129 -127l294 -490h117v885l-88 -88l-67 68l155 155v227h-149v95h243
v-322zM729 713l113 -113l112 113l-112 112z" />
    <glyph glyph-name="O" unicode="O" 
d="M825 1448q213 0 387 -95.5t273.5 -264t99.5 -375.5q0 -206 -99.5 -374t-273.5 -263.5t-387 -95.5q-215 0 -390 95.5t-274.5 263.5t-99.5 374q0 207 99.5 375.5t274.5 264t390 95.5zM825 74q189 0 341 82t237.5 228t85.5 329t-85.5 329t-237.5 228t-341 82
q-191 0 -343.5 -82t-238 -228t-85.5 -329t85.5 -329t238 -228t343.5 -82zM1186 946l67 -67l-163 -166l163 -164l-67 -68l-164 164l-129 -127l168 -168l-68 -67l-164 163l-165 -163l-68 67l162 162l-133 133l-166 -164l-68 68l166 164l-166 166l68 67l166 -166l133 135
l-162 162l68 68l165 -166l164 166l68 -68l-168 -168l129 -129zM823 582l131 131l-131 131l-131 -131z" />
    <glyph glyph-name="P" unicode="P" horiz-adv-x="1302" 
d="M633 1438q281 0 444.5 -138.5t163.5 -377.5q0 -238 -163.5 -377t-444.5 -139h-332v96h332q241 0 376.5 111.5t135.5 308.5q0 198 -135.5 309.5t-376.5 111.5h-475v-1247h143v-96h-240v1438h572zM463 836l92 -91l55 58l-125 123l125 125l-55 57l-92 -90l-68 67l160 158
l123 -125l192 -192l-192 -191l-123 -125l-160 158zM678 870l57 56l-57 57l-55 -57z" />
    <glyph glyph-name="Q" unicode="Q" 
d="M1266 -33q120 0 211 99l69 -64q-119 -131 -280 -131q-139 0 -273 131q-95 -18 -168 -18q-215 0 -390 96t-274.5 264.5t-99.5 374.5q0 207 99.5 375.5t274.5 264t390 95.5q213 0 387 -95.5t273.5 -264t99.5 -375.5q0 -240 -132.5 -424t-350.5 -262q81 -66 164 -66z
M158 719q0 -183 85.5 -329t238 -228t343.5 -82q189 0 341 82t237.5 228t85.5 329t-85.5 329t-237.5 228t-341 82q-191 0 -343.5 -82t-238 -228t-85.5 -329zM1186 946l67 -67l-163 -166l163 -164l-67 -68l-164 164l-129 -127l168 -168l-68 -67l-164 163l-165 -163l-68 67
l162 162l-133 133l-166 -164l-68 68l166 164l-166 166l68 67l166 -166l133 135l-162 162l68 68l165 -166l164 166l68 -68l-168 -168l129 -129zM823 582l131 131l-131 131l-131 -131z" />
    <glyph glyph-name="R" unicode="R" horiz-adv-x="1527" 
d="M1180 479l313 -440l-80 -55l-326 460q-106 -34 -243 -34h-123l-178 -179l-68 68l111 111h-54l-165 -166v-148h145v-96h-240v244l-211 211l211 211v772h572q282 0 445 -136.5t163 -375.5q0 -154 -71 -268.5t-201 -178.5zM326 338l116 117l-123 123l-122 -123l116 -117h13z
M844 506q239 0 375.5 112t136.5 308q0 197 -136 307t-376 110h-477v-677l159 -160h54l-105 106l68 68l172 -174h129zM594 926l221 221l221 -221l-221 -221zM815 840l86 86l-86 86l-86 -86z" />
    <glyph glyph-name="S" unicode="S" horiz-adv-x="1259" 
d="M696 942q64 -17 99.5 -28t96.5 -34t96.5 -45.5t80.5 -60.5t69.5 -81t42 -104.5t17.5 -133.5q0 -70 -18 -137t-61 -131t-106.5 -112t-162 -77t-219.5 -29q-161 0 -310.5 57t-238.5 152l-21 23l82 198l90 -34l-59 -144q78 -72 202.5 -115t254.5 -43q101 0 182.5 23
t134.5 61t89 89t51.5 105.5t15.5 113.5q0 41 -5.5 76.5t-18.5 65t-27 54t-38 46t-43.5 37.5t-52.5 31.5t-56 26t-62.5 22.5t-63.5 19t-67 19q-163 47 -227 79q-142 73 -151 209q-1 10 -1 21q0 45 12 85.5t40 79t70 66.5t106.5 45t144.5 17q212 0 397 -137l-57 -74
q-161 117 -340 117q-132 0 -205.5 -52t-73.5 -147q0 -37 15 -66.5t37.5 -50t67 -39.5t84 -31.5t107.5 -31.5zM956 547l-198 -195v-47l106 107l68 -68l-230 -227l-208 229l71 64l97 -107v49l-201 195l248 244zM709 657l-113 -110l113 -111l112 111zM709 985l-156 154l156 153
l157 -153z" />
    <glyph glyph-name="T" unicode="T" horiz-adv-x="1232" 
d="M1171 1438v-95h-466l120 -122l-161 -160v-250l59 59l68 -67l-127 -127v-676h-95v676l-127 127l68 67l59 -59v250l-161 160l122 122h-469v95h1110zM616 1147l74 74l-74 73l-73 -73z" />
    <glyph glyph-name="U" unicode="U" horiz-adv-x="1353" 
d="M1059 1438h233v-811q0 -306 -160.5 -474.5t-453.5 -168.5q-294 0 -455.5 168.5t-161.5 474.5v811h240v-95h-143v-716q0 -264 134 -405.5t386 -141.5q250 0 384 141.5t134 405.5v716h-137v95zM991 797l-313 -314l-316 314l316 315zM678 975l-180 -178l180 -179l178 179z
M465 588l213 -213l211 213l67 -70l-278 -278l-281 278zM678 1219l-213 -211l-68 67l281 281l278 -281l-67 -67z" />
    <glyph glyph-name="V" unicode="V" horiz-adv-x="1638" 
d="M1313 1438h264l-631 -1438h-252l-633 1438h281v-95h-133l549 -1247h127l547 1247h-119v95zM752 866l-199 201l199 199l-113 112l180 181l180 -181l-112 -112l198 -199l-198 -201l112 -112l-180 -181l-180 181zM864 754l-45 45l-45 -45l45 -45zM774 1378l45 -45l45 45
l-45 45zM950 1067l-131 131l-131 -131l131 -131z" />
    <glyph glyph-name="W" unicode="W" horiz-adv-x="2293" 
d="M1982 1438h250l-481 -1438h-270l-256 737l-78 -78l-78 78l-252 -737h-274l-482 1438h265v-95h-131l417 -1247h136l245 717l-78 78l68 67l164 -161l162 161l67 -67l-76 -78l248 -717h133l418 1247h-117v95zM1411 1120l-264 -266l-264 266l264 264zM1147 1249l-129 -129
l129 -129l129 129z" />
    <glyph glyph-name="X" unicode="X" horiz-adv-x="1189" 
d="M909 719l-147 -146l395 -538l-78 -58l-385 527l-100 -98l-98 98l-385 -527l-78 58l395 538l-147 146l147 147l-367 496l78 57l357 -485l98 100l100 -100l357 485l77 -57l-366 -496zM416 719l178 -178l180 178l-180 178z" />
    <glyph glyph-name="Y" unicode="Y" horiz-adv-x="1361" 
d="M745 862l244 -244l-264 -264v-354h-96v350l-269 268l246 246l-545 492l64 69l549 -493l2 2l2 -4l559 495l63 -71zM676 797l-180 -179l180 -178l178 178z" />
    <glyph glyph-name="Z" unicode="Z" horiz-adv-x="1406" 
d="M498 389l-236 -293h983v-96h-1184l353 440l-111 -12l-10 96l178 19l-35 348l375 37l68 84l-232 -23l-10 94l326 35l182 225h-936v-120h-96v215h1233l-308 -379l35 -330l-96 -8l-23 231l-69 -84l39 -374l-338 -35l20 -189l-96 -10zM793 829l-252 -24l26 -252l252 27z" />
    <glyph glyph-name="bracketleft" unicode="[" horiz-adv-x="1705" 
 />
    <glyph glyph-name="backslash" unicode="\" horiz-adv-x="989" 
d="M684 434l244 -700h-234v96h99l-203 582l-141 69l43 86l53 -26l-62 174l-139 67l43 86l51 -24l-243 696h-134v96h201l268 -768l25 58l88 -39l-63 -154l57 -166l22 56l89 -37z" />
    <glyph glyph-name="bracketright" unicode="]" horiz-adv-x="1705" 
 />
    <glyph glyph-name="asciicircum" unicode="^" horiz-adv-x="1097" 
d="M1036 199h-219v94h76l-297 702h-90l-299 -702h74v-94h-220l381 893h215z" />
    <glyph glyph-name="underscore" unicode="_" horiz-adv-x="1705" 
 />
    <glyph glyph-name="grave" unicode="`" horiz-adv-x="423" 
d="M174 1298l-61 -38l-52 81l148 93l153 -277l-83 -45z" />
    <glyph glyph-name="a" unicode="a" horiz-adv-x="1615" 
d="M1468 -4l-358 700h-604l-359 -700l-86 43l744 1456l749 -1456zM553 793h506l-252 493z" />
    <glyph glyph-name="b" unicode="b" horiz-adv-x="1374" 
d="M1116 756q95 -52 146 -140.5t51 -205.5q0 -53 -11 -102t-47 -107.5t-95 -100.5t-164.5 -71t-245.5 -29h-689v1438h650q249 0 389.5 -105t140.5 -291q0 -177 -125 -286zM711 1343h-553v-550h841q146 76 146 249q0 143 -113.5 222t-320.5 79zM750 96q70 0 131 7.5t125 28.5
t109 55t73.5 91t28.5 132q0 108 -54.5 181.5t-156.5 104.5h-848v-600h592z" />
    <glyph glyph-name="c" unicode="c" horiz-adv-x="1427" 
d="M819 -16q-159 0 -300 56.5t-241.5 154t-158.5 234t-58 290.5q0 207 99 375.5t273 264t388 95.5q167 0 307.5 -58t237.5 -167l-72 -64q-171 193 -473 193q-190 0 -341.5 -82t-236.5 -228t-85 -329t85 -329t236 -228t340 -82q302 0 475 194l72 -63q-97 -109 -238.5 -168
t-308.5 -59z" />
    <glyph glyph-name="d" unicode="d" horiz-adv-x="1509" 
d="M676 0h-615v1438h615q225 0 401 -91t273.5 -254.5t97.5 -373.5t-97.5 -373.5t-273.5 -254.5t-401 -91zM158 96h518q303 0 489.5 172t186.5 451q0 280 -187 452t-489 172h-518v-1247z" />
    <glyph glyph-name="e" unicode="e" horiz-adv-x="1193" 
d="M1036 215h97v-215h-1072v1438h1043v-215h-94v120h-852v-575h555v-96h-555v-576h878v119z" />
    <glyph glyph-name="f" unicode="f" horiz-adv-x="1165" 
d="M61 1438h1043v-215h-94v120h-852v-575h547v-96h-547v-576h143v-96h-240v1438z" />
    <glyph glyph-name="g" unicode="g" horiz-adv-x="1472" 
d="M825 -16q-218 0 -393 94.5t-273 262.5t-98 378t98.5 378t274 262.5t395.5 94.5q171 0 312 -57t239 -166l31 -35l-151 -149l-68 67l86 84q-174 160 -449 160q-192 0 -345.5 -82t-239.5 -228t-86 -329t85.5 -329t238 -228t343.5 -82q130 0 250 38t209 107v453h-305v96h401
v-594l-16 -14q-103 -86 -244.5 -134t-294.5 -48z" />
    <glyph glyph-name="h" unicode="h" horiz-adv-x="1374" 
d="M1071 1438h242v-1438h-242v96h146v576h-1059v-576h143v-96h-240v1438h240v-95h-143v-575h1059v575h-146v95z" />
    <glyph glyph-name="i" unicode="i" horiz-adv-x="362" 
d="M61 1438h240v-559v-455v-377h-96v377v455v464h-144v95z" />
    <glyph glyph-name="j" unicode="j" horiz-adv-x="1042" 
d="M512 -16q-133 0 -246 56.5t-184 158.5l-21 30l136 158l73 -61l-88 -101q59 -69 145 -107t185 -38q189 0 281 99t92 300v864h-580v-120h-94v215h770v-959q0 -243 -119.5 -369t-349.5 -126z" />
    <glyph glyph-name="k" unicode="k" horiz-adv-x="1345" 
d="M1284 0h-240l-886 688v-678h-97v1428h240v-95h-143v-505l856 600h235v-95h-205l-827 -579l860 -668h207v-96z" />
    <glyph glyph-name="l" unicode="l" horiz-adv-x="1136" 
d="M1075 0h-1014v1438h240v-95h-143v-1247h823v119h94v-215z" />
    <glyph glyph-name="m" unicode="m" horiz-adv-x="1648" 
d="M1587 0h-233v96h137l-2 1247h-82l-580 -991l-587 991h-82v-1247h135v-96h-232v1438h232l532 -897l527 897h233z" />
    <glyph glyph-name="n" unicode="n" horiz-adv-x="1374" 
d="M1313 0h-269l-804 1343h-82v-1247h143v-96h-240v1438h232l807 -1342h117v1247h-150v95h246v-1438z" />
    <glyph glyph-name="o" unicode="o" 
d="M825 -20q-215 0 -390 95.5t-274.5 263.5t-99.5 374q0 207 99.5 375.5t274.5 264t390 95.5q213 0 387 -95.5t273.5 -264t99.5 -375.5q0 -206 -99.5 -374t-273.5 -263.5t-387 -95.5zM825 1352q-191 0 -343.5 -82t-238 -228t-85.5 -329q0 -182 85.5 -328t238 -228.5
t343.5 -82.5q189 0 341 82.5t237.5 228.5t85.5 328q0 183 -85.5 329t-237.5 228t-341 82z" />
    <glyph glyph-name="p" unicode="p" horiz-adv-x="1302" 
d="M301 0h-240v1438h572q281 0 444.5 -138.5t163.5 -377.5q0 -238 -163.5 -377t-444.5 -139h-332v96h332q241 0 376.5 111.5t135.5 308.5q0 198 -135.5 309.5t-376.5 111.5h-475v-1247h143v-96z" />
    <glyph glyph-name="q" unicode="q" 
d="M1266 -33q120 0 211 99l69 -64q-119 -131 -280 -131q-139 0 -273 131q-95 -18 -168 -18q-215 0 -390 96t-274.5 264.5t-99.5 374.5q0 207 99.5 375.5t274.5 264t390 95.5q213 0 387 -95.5t273.5 -264t99.5 -375.5q0 -240 -132.5 -424t-350.5 -262q81 -66 164 -66z
M158 719q0 -183 85.5 -329t238 -228t343.5 -82q189 0 341 82t237.5 228t85.5 329t-85.5 329t-237.5 228t-341 82q-191 0 -343.5 -82t-238 -228t-85.5 -329z" />
    <glyph glyph-name="r" unicode="r" horiz-adv-x="1316" 
d="M301 0h-240v1438h572q282 0 445 -136.5t163 -375.5q0 -154 -70 -269t-200 -178l284 -403l-77 -56l-301 424q-106 -34 -244 -34h-334v96h334q241 0 376.5 111.5t135.5 308.5q0 198 -135 307.5t-377 109.5h-475v-1247h143v-96z" />
    <glyph glyph-name="s" unicode="s" horiz-adv-x="1259" 
d="M631 -61q-161 0 -310.5 58t-238.5 155l-21 22l82 203l90 -35l-59 -145q78 -74 202.5 -118t254.5 -44q101 0 182.5 23t134.5 61.5t89 91t51.5 108t15.5 115.5q0 82 -26.5 145.5t-59.5 101t-101.5 71t-113.5 48.5t-133 40q-44 12 -63 18t-59 19t-59.5 22t-52 25t-49.5 31
t-38.5 37t-32 45.5t-18 53.5t-7.5 64q0 57 20 108t62 95t117 70t174 26q212 0 397 -137l37 -29l-97 -145l-79 53l45 70q-147 92 -303 92q-132 0 -205.5 -53t-73.5 -150q0 -38 15 -68t38 -50.5t66.5 -40.5t84 -33t107.5 -31q49 -14 76.5 -22t76 -25t77.5 -31.5t70.5 -38.5
t66.5 -48.5t53.5 -60t44.5 -74.5t26.5 -89.5t10.5 -108.5q0 -72 -18 -140t-61 -133t-106.5 -114t-162 -78.5t-219.5 -29.5z" />
    <glyph glyph-name="t" unicode="t" horiz-adv-x="1232" 
d="M1171 1438v-95h-507v-1343h-95v1343h-508v95h1110z" />
    <glyph glyph-name="u" unicode="u" horiz-adv-x="1353" 
d="M678 -16q-294 0 -455.5 168.5t-161.5 474.5v811h240v-95h-143v-716q0 -264 134 -405.5t386 -141.5q250 0 384 141.5t134 405.5v716h-137v95h233v-811q0 -306 -160.5 -474.5t-453.5 -168.5z" />
    <glyph glyph-name="v" unicode="v" horiz-adv-x="1638" 
d="M946 0h-252l-633 1438h281v-95h-133l549 -1247h127l547 1247h-119v95h264z" />
    <glyph glyph-name="w" unicode="w" horiz-adv-x="2293" 
d="M1751 0h-266l-336 715l-336 -715h-270l-482 1438h265v-95h-131l417 -1247h140l395 842l397 -842h137l418 1247h-117v95h250z" />
    <glyph glyph-name="x" unicode="x" horiz-adv-x="1189" 
d="M1128 1362l-475 -643l475 -643l-77 -58l-457 621l-455 -621l-78 58l474 643l-474 643l78 57l455 -618l457 618z" />
    <glyph glyph-name="y" unicode="y" horiz-adv-x="1376" 
d="M1315 1362l-584 -780v-582h-96v578l-574 784l78 57l543 -743l555 743z" />
    <glyph glyph-name="z" unicode="z" horiz-adv-x="1406" 
d="M1245 0h-1184l1084 1343h-936v-120h-94v215h1231l-1084 -1342h983v-96z" />
    <glyph glyph-name="braceleft" unicode="{" horiz-adv-x="1705" 
 />
    <glyph glyph-name="bar" unicode="|" horiz-adv-x="1705" 
 />
    <glyph glyph-name="braceright" unicode="}" horiz-adv-x="1705" 
 />
    <glyph glyph-name="asciitilde" unicode="~" horiz-adv-x="1705" 
 />
    <glyph glyph-name="dieresis" unicode="&#xa8;" horiz-adv-x="1005" 
d="M258 1128q-80 0 -139 56q-57 58 -57 139.5t57 138.5q57 56 140 56t138 -56q58 -58 58 -139q0 -78 -58 -139q-59 -56 -139 -56zM186 1395q-29 -29 -29 -71t29 -71q31 -29 73 -29t71 29q28 28 28 70q0 41 -28 72q-31 28 -72 28t-72 -28zM748 1128q-81 0 -140 56
q-57 60 -57 139q0 82 57 139q56 56 139 56t140 -56q57 -57 57 -138.5t-57 -139.5q-59 -56 -139 -56zM676 1395q-29 -32 -29 -72q0 -41 29 -70t70.5 -29t70.5 29t29 71t-29 71q-28 28 -69 28t-72 -28z" />
    <glyph glyph-name="acute" unicode="&#xb4;" horiz-adv-x="423" 
d="M250 1313l-105 -187l-84 45l154 277l147 -92l-51 -82z" />
    <glyph glyph-name="Agrave" unicode="&#xc0;" horiz-adv-x="1615" 
d="M805 1495l749 -1442l-86 -45l-661 1278l-660 -1278l-86 45zM428 436l379 742l377 -742l-84 -43l-293 574l-295 -574zM633 422l182 182l166 -184l-72 -66l-98 111l-111 -113zM770 1708l-61 -39l-52 82l148 92l153 -276l-84 -45z" />
    <glyph glyph-name="Aacute" unicode="&#xc1;" horiz-adv-x="1615" 
d="M805 1495l749 -1442l-86 -45l-661 1278l-660 -1278l-86 45zM428 436l379 742l377 -742l-84 -43l-293 574l-295 -574zM633 422l182 182l166 -184l-72 -66l-98 111l-111 -113zM858 1708l-104 -186l-84 45l153 276l148 -92l-51 -82z" />
    <glyph glyph-name="Acircumflex" unicode="&#xc2;" horiz-adv-x="1615" 
d="M805 1495l749 -1442l-86 -45l-661 1278l-660 -1278l-86 45zM428 436l379 742l377 -742l-84 -43l-293 574l-295 -574zM633 422l182 182l166 -184l-72 -66l-98 111l-111 -113zM811 1665l-111 -111l-67 68l182 182l166 -184l-72 -64z" />
    <glyph glyph-name="Atilde" unicode="&#xc3;" horiz-adv-x="1615" 
d="M805 1495l749 -1442l-86 -45l-661 1278l-660 -1278l-86 45zM428 436l379 742l377 -742l-84 -43l-293 574l-295 -574zM633 422l182 182l166 -184l-72 -66l-98 111l-111 -113zM780 1585q-46 32 -101 23.5t-87 -52.5l-78 56q57 77 151 91.5t171 -42.5q46 -32 101 -23.5
t87 54.5l78 -58q-33 -45 -82.5 -69.5t-104.5 -24.5q-75 0 -135 45z" />
    <glyph glyph-name="Adieresis" unicode="&#xc4;" horiz-adv-x="1615" 
d="M805 1495l749 -1442l-86 -45l-661 1278l-660 -1278l-86 45zM428 436l379 742l377 -742l-84 -43l-293 574l-295 -574zM633 422l182 182l166 -184l-72 -66l-98 111l-111 -113zM563 1538q-81 0 -139 55q-57 59 -57 140.5t57 138.5q57 56 139.5 56t138.5 -56q58 -58 58 -139
q0 -79 -58 -140q-58 -55 -139 -55zM492 1804q-29 -29 -29 -70.5t29 -70.5q31 -29 72.5 -29t70.5 29t29 70q0 39 -29 71q-32 29 -72 29q-39 0 -71 -29zM1053 1538q-82 0 -140 55q-57 60 -57 140q0 82 57 139q55 56 138.5 56t140.5 -56q57 -57 57 -138.5t-57 -140.5
q-58 -55 -139 -55zM981 1804q-29 -32 -29 -71q0 -41 29 -70t70.5 -29t70.5 29t29 70.5t-29 70.5t-69 29t-72 -29z" />
    <glyph glyph-name="Aring" unicode="&#xc5;" horiz-adv-x="1615" 
d="M805 1495l749 -1442l-86 -45l-661 1278l-660 -1278l-86 45zM428 436l379 742l377 -742l-84 -43l-293 574l-295 -574zM633 422l182 182l166 -184l-72 -66l-98 111l-111 -113zM809 1538q-84 0 -139 55q-57 59 -57 140.5t57 138.5q56 56 138 56t138 -56q57 -57 57 -138.5
t-57 -140.5q-55 -55 -137 -55zM737 1804q-29 -29 -29 -70.5t29 -70.5t71 -29t71 29t29 70.5t-29 70.5t-70 29q-43 0 -72 -29z" />
    <glyph glyph-name="Egrave" unicode="&#xc8;" horiz-adv-x="1193" 
d="M1036 215h97v-215h-1072v1438h1043v-215h-94v120h-852v-575h71l267 266l313 -315l-313 -313l-267 266h-71v-576h878v119zM496 897l-179 -178l179 -178l178 178zM705 932l67 67l281 -280l-281 -281l-67 68l213 213zM625 1712l-62 -39l-51 82l147 92l154 -276l-84 -45z" />
    <glyph glyph-name="Eacute" unicode="&#xc9;" horiz-adv-x="1193" 
d="M1036 215h97v-215h-1072v1438h1043v-215h-94v120h-852v-575h71l267 266l313 -315l-313 -313l-267 266h-71v-576h878v119zM496 897l-179 -178l179 -178l178 178zM705 932l67 67l281 -280l-281 -281l-67 68l213 213zM682 1729l-104 -187l-84 45l153 277l148 -92l-52 -82z
" />
    <glyph glyph-name="Ecircumflex" unicode="&#xca;" horiz-adv-x="1193" 
d="M1036 215h97v-215h-1072v1438h1043v-215h-94v120h-852v-575h71l267 266l313 -315l-313 -313l-267 266h-71v-576h878v119zM496 897l-179 -178l179 -178l178 178zM705 932l67 67l281 -280l-281 -281l-67 68l213 213zM637 1669l-111 -110l-67 67l182 182l166 -184l-72 -63z
" />
    <glyph glyph-name="Edieresis" unicode="&#xcb;" horiz-adv-x="1193" 
d="M1036 215h97v-215h-1072v1438h1043v-215h-94v120h-852v-575h71l267 266l313 -315l-313 -313l-267 266h-71v-576h878v119zM496 897l-179 -178l179 -178l178 178zM705 932l67 67l281 -280l-281 -281l-67 68l213 213zM352 1542q-81 0 -139 55q-57 59 -57 140.5t57 138.5
q57 56 140 56t139 -56q57 -57 57 -139q0 -80 -57 -140q-58 -55 -140 -55zM281 1808q-29 -29 -29 -70.5t29 -70.5q31 -29 72.5 -29t70.5 29t29 70q0 39 -29 71q-32 29 -72 29q-39 0 -71 -29zM842 1542q-82 0 -140 55q-57 60 -57 140q0 82 57 139q56 56 139 56t140 -56
q57 -57 57 -138.5t-57 -140.5q-58 -55 -139 -55zM770 1808q-29 -32 -29 -71q0 -41 29 -70t70.5 -29t70.5 29t29 70.5t-29 70.5t-69 29t-72 -29z" />
    <glyph glyph-name="Igrave" unicode="&#xcc;" horiz-adv-x="499" 
d="M371 692l-70 70v-238l70 70l67 -68l-137 -137v-389h-96v389l-137 137l67 68l70 -70v238l-70 -70l-67 68l116 119l-116 116l67 68l70 -70v350h-144v95h240v-445l70 70l67 -68l-116 -116l116 -119zM164 1712l-62 -39l-51 82l148 92l153 -276l-84 -45z" />
    <glyph glyph-name="Iacute" unicode="&#xcd;" horiz-adv-x="499" 
d="M371 692l-70 70v-238l70 70l67 -68l-137 -137v-389h-96v389l-137 137l67 68l70 -70v238l-70 -70l-67 68l116 119l-116 116l67 68l70 -70v350h-144v95h240v-445l70 70l67 -68l-116 -116l116 -119zM262 1726l-104 -186l-84 45l153 277l148 -93l-51 -81z" />
    <glyph glyph-name="Icircumflex" unicode="&#xce;" horiz-adv-x="499" 
d="M371 692l-70 70v-238l70 70l67 -68l-137 -137v-389h-96v389l-137 137l67 68l70 -70v238l-70 -70l-67 68l116 119l-116 116l67 68l70 -70v350h-144v95h240v-445l70 70l67 -68l-116 -116l116 -119zM205 1669l-111 -110l-67 67l182 182l166 -184l-72 -63z" />
    <glyph glyph-name="Idieresis" unicode="&#xcf;" horiz-adv-x="499" 
d="M74 1526q-53 0 -92 39q-38 38 -38 93t38 93q39 39 92 39q55 0 94 -39q29 -29 35 -69t-8 -74t-46.5 -58t-74.5 -24zM451 1751q38 -38 38 -93t-38 -93q-39 -39 -93 -39q-55 0 -94 39q-38 38 -38 93t38 93q39 39 94 39q54 0 93 -39zM358 1622q23 0 32.5 22t-7.5 39
q-11 11 -25 11t-25 -10t-11 -25t10 -26t26 -11zM39 1659q0 -14 10 -25.5t25 -11.5q24 0 34 21t-8 40q-15 11 -26 11q-13 0 -24 -10.5t-11 -24.5zM371 692l-70 70v-238l70 70l67 -68l-137 -137v-389h-96v389l-137 137l67 68l70 -70v238l-70 -70l-67 68l116 119l-116 116
l67 68l70 -70v350h-144v95h240v-445l70 70l67 -68l-116 -116l116 -119z" />
    <glyph glyph-name="Ntilde" unicode="&#xd1;" horiz-adv-x="1683" 
d="M1622 961l-68 -68l-88 88v-981h-266l-309 514l-49 -49l-248 248l113 112l-312 518h-82v-899l86 88l70 -69l-156 -154v-213h144v-96h-240v309l-156 154l68 69l88 -88v994h232l327 -543l66 66l248 -248l-129 -127l294 -490h117v885l-88 -88l-67 68l155 155v227h-149v95h243
v-322zM729 713l113 -113l112 113l-112 112zM813 1612q-46 32 -101 23.5t-87 -52.5l-78 55q57 77 150.5 92t170.5 -42q46 -33 101.5 -24t87.5 54l78 -57q-33 -45 -82.5 -69.5t-104.5 -24.5q-75 0 -135 45z" />
    <glyph glyph-name="Ograve" unicode="&#xd2;" 
d="M825 1448q213 0 387 -95.5t273.5 -264t99.5 -375.5q0 -206 -99.5 -374t-273.5 -263.5t-387 -95.5q-215 0 -390 95.5t-274.5 263.5t-99.5 374q0 207 99.5 375.5t274.5 264t390 95.5zM825 74q189 0 341 82t237.5 228t85.5 329t-85.5 329t-237.5 228t-341 82
q-191 0 -343.5 -82t-238 -228t-85.5 -329t85.5 -329t238 -228t343.5 -82zM1186 946l67 -67l-163 -166l163 -164l-67 -68l-164 164l-129 -127l168 -168l-68 -67l-164 163l-165 -163l-68 67l162 162l-133 133l-166 -164l-68 68l166 164l-166 166l68 67l166 -166l133 135
l-162 162l68 68l165 -166l164 166l68 -68l-168 -168l129 -129zM823 582l131 131l-131 131l-131 -131zM811 1712l-61 -39l-52 82l148 92l153 -276l-84 -45z" />
    <glyph glyph-name="Oacute" unicode="&#xd3;" 
d="M825 1448q213 0 387 -95.5t273.5 -264t99.5 -375.5q0 -206 -99.5 -374t-273.5 -263.5t-387 -95.5q-215 0 -390 95.5t-274.5 263.5t-99.5 374q0 207 99.5 375.5t274.5 264t390 95.5zM825 74q189 0 341 82t237.5 228t85.5 329t-85.5 329t-237.5 228t-341 82
q-191 0 -343.5 -82t-238 -228t-85.5 -329t85.5 -329t238 -228t343.5 -82zM1186 946l67 -67l-163 -166l163 -164l-67 -68l-164 164l-129 -127l168 -168l-68 -67l-164 163l-165 -163l-68 67l162 162l-133 133l-166 -164l-68 68l166 164l-166 166l68 67l166 -166l133 135
l-162 162l68 68l165 -166l164 166l68 -68l-168 -168l129 -129zM823 582l131 131l-131 131l-131 -131zM860 1726l-104 -186l-84 45l153 277l148 -93l-51 -81z" />
    <glyph glyph-name="Ocircumflex" unicode="&#xd4;" 
d="M825 1448q213 0 387 -95.5t273.5 -264t99.5 -375.5q0 -206 -99.5 -374t-273.5 -263.5t-387 -95.5q-215 0 -390 95.5t-274.5 263.5t-99.5 374q0 207 99.5 375.5t274.5 264t390 95.5zM825 74q189 0 341 82t237.5 228t85.5 329t-85.5 329t-237.5 228t-341 82
q-191 0 -343.5 -82t-238 -228t-85.5 -329t85.5 -329t238 -228t343.5 -82zM1186 946l67 -67l-163 -166l163 -164l-67 -68l-164 164l-129 -127l168 -168l-68 -67l-164 163l-165 -163l-68 67l162 162l-133 133l-166 -164l-68 68l166 164l-166 166l68 67l166 -166l133 135
l-162 162l68 68l165 -166l164 166l68 -68l-168 -168l129 -129zM823 582l131 131l-131 131l-131 -131zM827 1649l-110 -111l-68 68l182 182l166 -184l-71 -64z" />
    <glyph glyph-name="Otilde" unicode="&#xd5;" 
d="M825 1448q213 0 387 -95.5t273.5 -264t99.5 -375.5q0 -206 -99.5 -374t-273.5 -263.5t-387 -95.5q-215 0 -390 95.5t-274.5 263.5t-99.5 374q0 207 99.5 375.5t274.5 264t390 95.5zM825 74q189 0 341 82t237.5 228t85.5 329t-85.5 329t-237.5 228t-341 82
q-191 0 -343.5 -82t-238 -228t-85.5 -329t85.5 -329t238 -228t343.5 -82zM1186 946l67 -67l-163 -166l163 -164l-67 -68l-164 164l-129 -127l168 -168l-68 -67l-164 163l-165 -163l-68 67l162 162l-133 133l-166 -164l-68 68l166 164l-166 166l68 67l166 -166l133 135
l-162 162l68 68l165 -166l164 166l68 -68l-168 -168l129 -129zM823 582l131 131l-131 131l-131 -131zM795 1587q-46 32 -101.5 24t-87.5 -52l-78 55q57 77 151 91.5t171 -42.5q46 -32 101 -23.5t87 54.5l78 -58q-33 -45 -82 -69.5t-104 -24.5q-75 0 -135 45z" />
    <glyph glyph-name="Odieresis" unicode="&#xd6;" 
d="M825 1448q213 0 387 -95.5t273.5 -264t99.5 -375.5q0 -206 -99.5 -374t-273.5 -263.5t-387 -95.5q-215 0 -390 95.5t-274.5 263.5t-99.5 374q0 207 99.5 375.5t274.5 264t390 95.5zM825 74q189 0 341 82t237.5 228t85.5 329t-85.5 329t-237.5 228t-341 82
q-191 0 -343.5 -82t-238 -228t-85.5 -329t85.5 -329t238 -228t343.5 -82zM1186 946l67 -67l-163 -166l163 -164l-67 -68l-164 164l-129 -127l168 -168l-68 -67l-164 163l-165 -163l-68 67l162 162l-133 133l-166 -164l-68 68l166 164l-166 166l68 67l166 -166l133 135
l-162 162l68 68l165 -166l164 166l68 -68l-168 -168l129 -129zM823 582l131 131l-131 131l-131 -131zM578 1542q-82 0 -140 55q-57 59 -57 140.5t57 138.5q57 56 140.5 56t138.5 -56q57 -57 57 -139q0 -80 -57 -140q-58 -55 -139 -55zM506 1808q-29 -29 -29 -70.5t29 -70.5
q31 -29 72.5 -29t70.5 29t29 70q0 39 -29 71q-32 29 -71 29q-40 0 -72 -29zM1067 1542q-81 0 -139 55q-58 61 -58 140q0 81 58 139q56 56 138.5 56t139.5 -56q57 -57 57 -138.5t-57 -140.5q-58 -55 -139 -55zM995 1808q-28 -31 -28 -71q0 -42 28 -70q29 -29 71 -29t71 29
t29 70.5t-29 70.5t-70 29q-40 0 -72 -29z" />
    <glyph glyph-name="Ugrave" unicode="&#xd9;" horiz-adv-x="1353" 
d="M1059 1438h233v-811q0 -306 -160.5 -474.5t-453.5 -168.5q-294 0 -455.5 168.5t-161.5 474.5v811h240v-95h-143v-716q0 -264 134 -405.5t386 -141.5q250 0 384 141.5t134 405.5v716h-137v95zM991 797l-313 -314l-316 314l316 315zM678 975l-180 -178l180 -179l178 179z
M465 588l213 -213l211 213l67 -70l-278 -278l-281 278zM678 1219l-213 -211l-68 67l281 281l278 -281l-67 -67zM647 1708l-61 -39l-51 82l147 92l154 -276l-84 -45z" />
    <glyph glyph-name="Uacute" unicode="&#xda;" horiz-adv-x="1353" 
d="M1059 1438h233v-811q0 -306 -160.5 -474.5t-453.5 -168.5q-294 0 -455.5 168.5t-161.5 474.5v811h240v-95h-143v-716q0 -264 134 -405.5t386 -141.5q250 0 384 141.5t134 405.5v716h-137v95zM991 797l-313 -314l-316 314l316 315zM678 975l-180 -178l180 -179l178 179z
M465 588l213 -213l211 213l67 -70l-278 -278l-281 278zM678 1219l-213 -211l-68 67l281 281l278 -281l-67 -67zM733 1708l-104 -186l-84 45l153 276l148 -92l-51 -82z" />
    <glyph glyph-name="Ucircumflex" unicode="&#xdb;" horiz-adv-x="1353" 
d="M1059 1438h233v-811q0 -306 -160.5 -474.5t-453.5 -168.5q-294 0 -455.5 168.5t-161.5 474.5v811h240v-95h-143v-716q0 -264 134 -405.5t386 -141.5q250 0 384 141.5t134 405.5v716h-137v95zM991 797l-313 -314l-316 314l316 315zM678 975l-180 -178l180 -179l178 179z
M465 588l213 -213l211 213l67 -70l-278 -278l-281 278zM678 1219l-213 -211l-68 67l281 281l278 -281l-67 -67zM680 1645l-111 -111l-67 68l182 182l166 -185l-72 -63z" />
    <glyph glyph-name="Udieresis" unicode="&#xdc;" horiz-adv-x="1353" 
d="M1059 1438h233v-811q0 -306 -160.5 -474.5t-453.5 -168.5q-294 0 -455.5 168.5t-161.5 474.5v811h240v-95h-143v-716q0 -264 134 -405.5t386 -141.5q250 0 384 141.5t134 405.5v716h-137v95zM991 797l-313 -314l-316 314l316 315zM678 975l-180 -178l180 -179l178 179z
M465 588l213 -213l211 213l67 -70l-278 -278l-281 278zM678 1219l-213 -211l-68 67l281 281l278 -281l-67 -67zM432 1538q-81 0 -139 55q-57 59 -57 140.5t57 138.5q57 56 140 56t138 -56q58 -58 58 -139q0 -79 -58 -140q-58 -55 -139 -55zM360 1804q-29 -29 -29 -70.5
t29 -70.5q31 -29 73 -29t71 29q28 28 28 70q0 40 -28 71q-32 29 -72 29t-72 -29zM922 1538q-82 0 -140 55q-57 60 -57 140q0 82 57 139q56 56 139 56t140 -56q57 -57 57 -138.5t-57 -140.5q-58 -55 -139 -55zM850 1804q-29 -32 -29 -71q0 -41 29 -70t70.5 -29t70.5 29
t29 70.5t-29 70.5t-69 29t-72 -29z" />
    <glyph glyph-name="Yacute" unicode="&#xdd;" horiz-adv-x="1361" 
d="M745 862l244 -244l-264 -264v-354h-96v350l-269 268l246 246l-545 492l64 69l549 -493l2 2l2 -4l559 495l63 -71zM676 797l-180 -179l180 -178l178 178zM719 1686l-105 -187l-84 45l154 277l147 -92l-51 -82z" />
    <glyph glyph-name="agrave" unicode="&#xe0;" horiz-adv-x="1615" 
d="M1468 -4l-358 700h-604l-359 -700l-86 43l744 1456l749 -1456zM553 793h506l-252 493zM770 1716l-61 -39l-52 82l148 92l153 -276l-84 -45z" />
    <glyph glyph-name="aacute" unicode="&#xe1;" horiz-adv-x="1615" 
d="M1468 -4l-358 700h-604l-359 -700l-86 43l744 1456l749 -1456zM553 793h506l-252 493zM846 1720l-105 -186l-84 45l154 276l147 -92l-51 -82z" />
    <glyph glyph-name="acircumflex" unicode="&#xe2;" horiz-adv-x="1615" 
d="M1468 -4l-358 700h-604l-359 -700l-86 43l744 1456l749 -1456zM553 793h506l-252 493zM811 1645l-111 -111l-67 68l182 182l166 -185l-72 -63z" />
    <glyph glyph-name="atilde" unicode="&#xe3;" horiz-adv-x="1615" 
d="M1468 -4l-358 700h-604l-359 -700l-86 43l744 1456l749 -1456zM553 793h506l-252 493zM776 1589q-46 32 -101 24t-87 -52l-78 55q57 77 150.5 91.5t170.5 -42.5q46 -32 101.5 -23.5t87.5 54.5l78 -58q-33 -45 -82.5 -69.5t-104.5 -24.5q-75 0 -135 45z" />
    <glyph glyph-name="adieresis" unicode="&#xe4;" horiz-adv-x="1615" 
d="M1468 -4l-358 700h-604l-359 -700l-86 43l744 1456l749 -1456zM553 793h506l-252 493zM563 1538q-81 0 -139 55q-57 59 -57 140.5t57 138.5q57 56 139.5 56t138.5 -56q58 -58 58 -139q0 -79 -58 -140q-58 -55 -139 -55zM492 1804q-29 -29 -29 -70.5t29 -70.5
q31 -29 72.5 -29t70.5 29t29 70q0 39 -29 71q-32 29 -72 29q-39 0 -71 -29zM1053 1538q-82 0 -140 55q-57 60 -57 140q0 82 57 139q55 56 138.5 56t140.5 -56q57 -57 57 -138.5t-57 -140.5q-58 -55 -139 -55zM981 1804q-29 -32 -29 -71q0 -41 29 -70t70.5 -29t70.5 29
t29 70.5t-29 70.5t-69 29t-72 -29z" />
    <glyph glyph-name="aring" unicode="&#xe5;" horiz-adv-x="1615" 
d="M1468 -4l-358 700h-604l-359 -700l-86 43l744 1456l749 -1456zM553 793h506l-252 493zM809 1538q-84 0 -139 55q-57 59 -57 140.5t57 138.5q56 56 138 56t138 -56q57 -57 57 -138.5t-57 -140.5q-55 -55 -137 -55zM737 1804q-29 -29 -29 -70.5t29 -70.5t71 -29t71 29
t29 70.5t-29 70.5t-70 29q-43 0 -72 -29z" />
    <glyph glyph-name="egrave" unicode="&#xe8;" horiz-adv-x="1193" 
d="M1036 215h97v-215h-1072v1438h1043v-215h-94v120h-852v-575h555v-96h-555v-576h878v119zM559 1718l-61 -39l-52 82l148 92l154 -276l-84 -45z" />
    <glyph glyph-name="eacute" unicode="&#xe9;" horiz-adv-x="1193" 
d="M1036 215h97v-215h-1072v1438h1043v-215h-94v120h-852v-575h555v-96h-555v-576h878v119zM696 1722l-104 -186l-84 45l154 277l147 -93l-51 -82z" />
    <glyph glyph-name="ecircumflex" unicode="&#xea;" horiz-adv-x="1193" 
d="M1036 215h97v-215h-1072v1438h1043v-215h-94v120h-852v-575h555v-96h-555v-576h878v119zM600 1645l-111 -111l-67 68l182 182l166 -185l-72 -63z" />
    <glyph glyph-name="edieresis" unicode="&#xeb;" horiz-adv-x="1193" 
d="M1036 215h97v-215h-1072v1438h1043v-215h-94v120h-852v-575h555v-96h-555v-576h878v119zM352 1534q-81 0 -139 55q-57 59 -57 140.5t57 138.5q57 56 140 56t139 -56q57 -57 57 -139q0 -80 -57 -140q-58 -55 -140 -55zM281 1800q-29 -29 -29 -70.5t29 -70.5
q31 -29 72.5 -29t70.5 29t29 70q0 39 -29 71q-32 29 -72 29q-39 0 -71 -29zM842 1534q-82 0 -140 55q-57 60 -57 140q0 82 57 139q56 56 139 56t140 -56q57 -57 57 -138.5t-57 -140.5q-58 -55 -139 -55zM770 1800q-29 -32 -29 -71q0 -41 29 -70t70.5 -29t70.5 29t29 70.5
t-29 70.5t-69 29t-72 -29z" />
    <glyph glyph-name="igrave" unicode="&#xec;" horiz-adv-x="362" 
d="M61 1438h240v-559v-455v-377h-96v377v455v464h-144v95zM143 1708l-61 -39l-51 82l147 92l154 -276l-84 -45z" />
    <glyph glyph-name="iacute" unicode="&#xed;" horiz-adv-x="362" 
d="M61 1438h240v-559v-455v-377h-96v377v455v464h-144v95zM309 1722l-104 -186l-84 45l153 277l148 -93l-51 -82z" />
    <glyph glyph-name="icircumflex" unicode="&#xee;" horiz-adv-x="362" 
d="M61 1438h240v-559v-455v-377h-96v377v455v464h-144v95zM254 1645l-111 -111l-67 68l182 182l166 -185l-72 -63z" />
    <glyph glyph-name="idieresis" unicode="&#xef;" horiz-adv-x="362" 
d="M74 1526q-53 0 -92 39q-38 38 -38 93t38 93q39 39 92 39q55 0 94 -39q29 -29 35 -69t-8 -74t-46.5 -58t-74.5 -24zM451 1751q38 -38 38 -93t-38 -93q-39 -39 -93 -39q-55 0 -94 39q-38 38 -38 93t38 93q39 39 94 39q54 0 93 -39zM358 1622q23 0 32.5 22t-7.5 39
q-11 11 -25 11t-25 -10t-11 -25t10 -26t26 -11zM39 1659q0 -14 10 -25.5t25 -11.5q24 0 34 21t-8 40q-15 11 -26 11q-13 0 -24 -10.5t-11 -24.5zM61 1438h240v-559v-455v-377h-96v377v455v464h-144v95z" />
    <glyph glyph-name="ntilde" unicode="&#xf1;" horiz-adv-x="1374" 
d="M1313 0h-269l-804 1343h-82v-1247h143v-96h-240v1438h232l807 -1342h117v1247h-150v95h246v-1438zM659 1585q-46 32 -101 23.5t-87 -52.5l-78 56q57 77 151 91.5t171 -42.5q46 -32 101 -23.5t87 54.5l78 -58q-33 -45 -82 -69.5t-104 -24.5q-76 0 -136 45z" />
    <glyph glyph-name="ograve" unicode="&#xf2;" 
d="M825 -20q-215 0 -390 95.5t-274.5 263.5t-99.5 374q0 207 99.5 375.5t274.5 264t390 95.5q213 0 387 -95.5t273.5 -264t99.5 -375.5q0 -206 -99.5 -374t-273.5 -263.5t-387 -95.5zM825 1352q-191 0 -343.5 -82t-238 -228t-85.5 -329q0 -182 85.5 -328t238 -228.5
t343.5 -82.5q189 0 341 82.5t237.5 228.5t85.5 328q0 183 -85.5 329t-237.5 228t-341 82zM784 1718l-61 -39l-51 82l147 92l154 -276l-84 -45z" />
    <glyph glyph-name="oacute" unicode="&#xf3;" 
d="M825 -20q-215 0 -390 95.5t-274.5 263.5t-99.5 374q0 207 99.5 375.5t274.5 264t390 95.5q213 0 387 -95.5t273.5 -264t99.5 -375.5q0 -206 -99.5 -374t-273.5 -263.5t-387 -95.5zM825 1352q-191 0 -343.5 -82t-238 -228t-85.5 -329q0 -182 85.5 -328t238 -228.5
t343.5 -82.5q189 0 341 82.5t237.5 228.5t85.5 328q0 183 -85.5 329t-237.5 228t-341 82zM860 1722l-104 -186l-84 45l153 277l148 -93l-51 -82z" />
    <glyph glyph-name="ocircumflex" unicode="&#xf4;" 
d="M825 -20q-215 0 -390 95.5t-274.5 263.5t-99.5 374q0 207 99.5 375.5t274.5 264t390 95.5q213 0 387 -95.5t273.5 -264t99.5 -375.5q0 -206 -99.5 -374t-273.5 -263.5t-387 -95.5zM825 1352q-191 0 -343.5 -82t-238 -228t-85.5 -329q0 -182 85.5 -328t238 -228.5
t343.5 -82.5q189 0 341 82.5t237.5 228.5t85.5 328q0 183 -85.5 329t-237.5 228t-341 82zM827 1645l-110 -111l-68 68l182 182l166 -185l-71 -63z" />
    <glyph glyph-name="otilde" unicode="&#xf5;" 
d="M825 -20q-215 0 -390 95.5t-274.5 263.5t-99.5 374q0 207 99.5 375.5t274.5 264t390 95.5q213 0 387 -95.5t273.5 -264t99.5 -375.5q0 -206 -99.5 -374t-273.5 -263.5t-387 -95.5zM825 1352q-191 0 -343.5 -82t-238 -228t-85.5 -329q0 -182 85.5 -328t238 -228.5
t343.5 -82.5q189 0 341 82.5t237.5 228.5t85.5 328q0 183 -85.5 329t-237.5 228t-341 82zM795 1585q-46 32 -101.5 23.5t-87.5 -52.5l-78 56q57 77 151 91.5t171 -42.5q46 -32 101 -23.5t87 54.5l78 -58q-33 -45 -82 -69.5t-104 -24.5q-75 0 -135 45z" />
    <glyph glyph-name="odieresis" unicode="&#xf6;" 
d="M825 -20q-215 0 -390 95.5t-274.5 263.5t-99.5 374q0 207 99.5 375.5t274.5 264t390 95.5q213 0 387 -95.5t273.5 -264t99.5 -375.5q0 -206 -99.5 -374t-273.5 -263.5t-387 -95.5zM825 1352q-191 0 -343.5 -82t-238 -228t-85.5 -329q0 -182 85.5 -328t238 -228.5
t343.5 -82.5q189 0 341 82.5t237.5 228.5t85.5 328q0 183 -85.5 329t-237.5 228t-341 82zM578 1534q-82 0 -140 55q-57 59 -57 140.5t57 138.5q57 56 140.5 56t138.5 -56q57 -57 57 -139q0 -80 -57 -140q-58 -55 -139 -55zM506 1800q-29 -29 -29 -70.5t29 -70.5
q31 -29 72.5 -29t70.5 29t29 70q0 39 -29 71q-32 29 -71 29q-40 0 -72 -29zM1067 1534q-81 0 -139 55q-58 61 -58 140q0 81 58 139q56 56 138.5 56t139.5 -56q57 -57 57 -138.5t-57 -140.5q-58 -55 -139 -55zM995 1800q-28 -31 -28 -71q0 -42 28 -70q29 -29 71 -29t71 29
t29 70.5t-29 70.5t-70 29q-40 0 -72 -29z" />
    <glyph glyph-name="ugrave" unicode="&#xf9;" horiz-adv-x="1353" 
d="M678 -16q-294 0 -455.5 168.5t-161.5 474.5v811h240v-95h-143v-716q0 -264 134 -405.5t386 -141.5q250 0 384 141.5t134 405.5v716h-137v95h233v-811q0 -306 -160.5 -474.5t-453.5 -168.5zM639 1708l-61 -39l-52 82l148 92l153 -276l-84 -45z" />
    <glyph glyph-name="uacute" unicode="&#xfa;" horiz-adv-x="1353" 
d="M678 -16q-294 0 -455.5 168.5t-161.5 474.5v811h240v-95h-143v-716q0 -264 134 -405.5t386 -141.5q250 0 384 141.5t134 405.5v716h-137v95h233v-811q0 -306 -160.5 -474.5t-453.5 -168.5zM715 1722l-105 -186l-84 45l154 277l147 -93l-51 -82z" />
    <glyph glyph-name="ucircumflex" unicode="&#xfb;" horiz-adv-x="1353" 
d="M678 -16q-294 0 -455.5 168.5t-161.5 474.5v811h240v-95h-143v-716q0 -264 134 -405.5t386 -141.5q250 0 384 141.5t134 405.5v716h-137v95h233v-811q0 -306 -160.5 -474.5t-453.5 -168.5zM680 1645l-111 -111l-67 68l182 182l166 -185l-72 -63z" />
    <glyph glyph-name="udieresis" unicode="&#xfc;" horiz-adv-x="1353" 
d="M678 -16q-294 0 -455.5 168.5t-161.5 474.5v811h240v-95h-143v-716q0 -264 134 -405.5t386 -141.5q250 0 384 141.5t134 405.5v716h-137v95h233v-811q0 -306 -160.5 -474.5t-453.5 -168.5zM432 1538q-81 0 -139 55q-57 59 -57 140.5t57 138.5q57 56 140 56t138 -56
q58 -58 58 -139q0 -79 -58 -140q-58 -55 -139 -55zM360 1804q-29 -29 -29 -70.5t29 -70.5q31 -29 73 -29t71 29q28 28 28 70q0 40 -28 71q-32 29 -72 29t-72 -29zM922 1538q-82 0 -140 55q-57 60 -57 140q0 82 57 139q56 56 139 56t140 -56q57 -57 57 -138.5t-57 -140.5
q-58 -55 -139 -55zM850 1804q-29 -32 -29 -71q0 -41 29 -70t70.5 -29t70.5 29t29 70.5t-29 70.5t-69 29t-72 -29z" />
    <glyph glyph-name="yacute" unicode="&#xfd;" horiz-adv-x="1376" 
d="M1315 1362l-584 -780v-582h-96v578l-574 784l78 57l543 -743l555 743zM725 1722l-104 -186l-84 45l153 277l148 -93l-52 -82z" />
    <glyph glyph-name="ydieresis" unicode="&#xff;" horiz-adv-x="1376" 
d="M1315 1362l-584 -780v-582h-96v578l-574 784l78 57l543 -743l555 743zM442 1538q-81 0 -139 55q-57 59 -57 140.5t57 138.5q57 56 140 56t139 -56q57 -57 57 -139q0 -80 -57 -140q-58 -55 -140 -55zM371 1804q-29 -29 -29 -70.5t29 -70.5q31 -29 72.5 -29t70.5 29t29 70
q0 39 -29 71q-32 29 -72 29q-39 0 -71 -29zM932 1538q-81 0 -139 55q-58 61 -58 140q0 81 58 139q55 56 138 56t140 -56q57 -57 57 -138.5t-57 -140.5q-58 -55 -139 -55zM860 1804q-29 -32 -29 -71q0 -41 29 -70t70.5 -29t70.5 29t29 70.5t-29 70.5t-69 29t-72 -29z" />
    <glyph glyph-name="Cacute" unicode="&#x106;" horiz-adv-x="1427" 
d="M819 -16q-159 0 -300 56.5t-241.5 154t-158.5 234t-58 290.5q0 207 99 375.5t273 264t388 95.5q167 0 307.5 -58t237.5 -167l-72 -64q-171 193 -473 193q-234 0 -413 -127l446 -443l225 226l68 -68l-225 -225l215 -215l-68 -68l-215 215l-446 -444q175 -129 411 -129
q302 0 475 194l72 -63q-97 -109 -238.5 -168t-308.5 -59zM336 1167q-178 -178 -178 -448t176 -449l450 451zM856 844l-194 190l67 70l125 -123l119 121l67 -66zM535 530l-68 68l123 123l-123 119l68 69l190 -186zM729 334l-67 67l194 193l184 -193l-67 -67l-119 123z
M850 1726l-105 -186l-83 45l153 277l148 -93l-52 -81z" />
    <glyph glyph-name="cacute" unicode="&#x107;" horiz-adv-x="1427" 
d="M819 -16q-159 0 -300 56.5t-241.5 154t-158.5 234t-58 290.5q0 207 99 375.5t273 264t388 95.5q167 0 307.5 -58t237.5 -167l-72 -64q-171 193 -473 193q-190 0 -341.5 -82t-236.5 -228t-85 -329t85 -329t236 -228t340 -82q302 0 475 194l72 -63q-97 -109 -238.5 -168
t-308.5 -59zM874 1720l-104 -186l-84 45l154 276l147 -92l-51 -82z" />
    <glyph glyph-name="Ccaron" unicode="&#x10c;" horiz-adv-x="1427" 
d="M819 -16q-159 0 -300 56.5t-241.5 154t-158.5 234t-58 290.5q0 207 99 375.5t273 264t388 95.5q167 0 307.5 -58t237.5 -167l-72 -64q-171 193 -473 193q-234 0 -413 -127l446 -443l225 226l68 -68l-225 -225l215 -215l-68 -68l-215 215l-446 -444q175 -129 411 -129
q302 0 475 194l72 -63q-97 -109 -238.5 -168t-308.5 -59zM336 1167q-178 -178 -178 -448t176 -449l450 451zM856 844l-194 190l67 70l125 -123l119 121l67 -66zM535 530l-68 68l123 123l-123 119l68 69l190 -186zM729 334l-67 67l194 193l184 -193l-67 -67l-119 123z
M834 1675l98 109l72 -64l-166 -184l-183 182l68 68z" />
    <glyph glyph-name="ccaron" unicode="&#x10d;" horiz-adv-x="1427" 
d="M819 -16q-159 0 -300 56.5t-241.5 154t-158.5 234t-58 290.5q0 207 99 375.5t273 264t388 95.5q167 0 307.5 -58t237.5 -167l-72 -64q-171 193 -473 193q-190 0 -341.5 -82t-236.5 -228t-85 -329t85 -329t236 -228t340 -82q302 0 475 194l72 -63q-97 -109 -238.5 -168
t-308.5 -59zM805 1673l98 109l72 -64l-166 -184l-182 182l67 68z" />
    <glyph glyph-name="Dcaron" unicode="&#x10e;" horiz-adv-x="1775" 
d="M942 1438q225 0 401 -91t273.5 -254.5t97.5 -373.5t-97.5 -373.5t-273.5 -254.5t-401 -91h-614v201l-232 233l68 68l211 -213l424 422l-424 424l-211 -213l-68 67l232 232v217h614zM942 96q303 0 489.5 172t186.5 451q0 280 -187 452t-489 172h-518v-122l510 -510
l-510 -510v-105h518zM690 711l-315 -314l-314 314l314 315zM375 891l-178 -180l178 -179l180 179zM1243 918l209 -209l-209 -207l-207 207zM1171 709l72 -72l74 72l-74 73zM881 1675l98 109l72 -64l-166 -184l-183 182l68 68z" />
    <glyph glyph-name="Ecaron" unicode="&#x11a;" horiz-adv-x="1193" 
d="M1036 215h97v-215h-1072v1438h1043v-215h-94v120h-852v-575h71l267 266l313 -315l-313 -313l-267 266h-71v-576h878v119zM496 897l-179 -178l179 -178l178 178zM705 932l67 67l281 -280l-281 -281l-67 68l213 213zM600 1675l98 109l72 -64l-166 -184l-182 182l67 68z" />
    <glyph glyph-name="ecaron" unicode="&#x11b;" horiz-adv-x="1193" 
d="M1036 215h97v-215h-1072v1438h1043v-215h-94v120h-852v-575h555v-96h-555v-576h878v119zM600 1673l98 109l72 -64l-166 -184l-182 182l67 68z" />
    <glyph glyph-name="Lacute" unicode="&#x139;" horiz-adv-x="1357" 
d="M1200 215h96v-215h-1015v279l-134 135l115 112l-201 201l201 199l-115 114l134 134v264h239v-95h-143v-169l133 -134l-113 -114l199 -199l-199 -201l113 -112l-133 -135v-183h823v119zM283 1040l47 -47l45 47l-45 45zM197 727l133 -133l131 133l-131 131zM375 414l-45 45
l-47 -45l47 -47zM717 1726l-105 -186l-84 45l154 277l147 -93l-51 -81z" />
    <glyph glyph-name="lacute" unicode="&#x13a;" horiz-adv-x="1136" 
d="M1075 0h-1014v1438h240v-95h-143v-1247h823v119h94v-215zM606 1313l-104 -187l-84 45l153 277l148 -92l-51 -82z" />
    <glyph glyph-name="Nacute" unicode="&#x143;" horiz-adv-x="1683" 
d="M1622 961l-68 -68l-88 88v-981h-266l-309 514l-49 -49l-248 248l113 112l-312 518h-82v-899l86 88l70 -69l-156 -154v-213h144v-96h-240v309l-156 154l68 69l88 -88v994h232l327 -543l66 66l248 -248l-129 -127l294 -490h117v885l-88 -88l-67 68l155 155v227h-149v95h243
v-322zM729 713l113 -113l112 113l-112 112zM983 1726l-104 -186l-84 45l153 277l148 -93l-52 -81z" />
    <glyph glyph-name="nacute" unicode="&#x144;" horiz-adv-x="1374" 
d="M1313 0h-269l-804 1343h-82v-1247h143v-96h-240v1438h232l807 -1342h117v1247h-150v95h246v-1438zM725 1722l-104 -186l-84 45l153 277l148 -93l-52 -82z" />
    <glyph glyph-name="Ncaron" unicode="&#x147;" horiz-adv-x="1683" 
d="M1622 961l-68 -68l-88 88v-981h-266l-309 514l-49 -49l-248 248l113 112l-312 518h-82v-899l86 88l70 -69l-156 -154v-213h144v-96h-240v309l-156 154l68 69l88 -88v994h232l327 -543l66 66l248 -248l-129 -127l294 -490h117v885l-88 -88l-67 68l155 155v227h-149v95h243
v-322zM729 713l113 -113l112 113l-112 112zM846 1673l98 109l72 -64l-166 -184l-182 182l67 68z" />
    <glyph glyph-name="ncaron" unicode="&#x148;" horiz-adv-x="1374" 
d="M1313 0h-269l-804 1343h-82v-1247h143v-96h-240v1438h232l807 -1342h117v1247h-150v95h246v-1438zM690 1673l98 109l72 -64l-166 -184l-182 182l68 68z" />
    <glyph glyph-name="Ohungarumlaut" unicode="&#x150;" 
d="M825 1448q213 0 387 -95.5t273.5 -264t99.5 -375.5q0 -206 -99.5 -374t-273.5 -263.5t-387 -95.5q-215 0 -390 95.5t-274.5 263.5t-99.5 374q0 207 99.5 375.5t274.5 264t390 95.5zM825 74q189 0 341 82t237.5 228t85.5 329t-85.5 329t-237.5 228t-341 82
q-191 0 -343.5 -82t-238 -228t-85.5 -329t85.5 -329t238 -228t343.5 -82zM1186 946l67 -67l-163 -166l163 -164l-67 -68l-164 164l-129 -127l168 -168l-68 -67l-164 163l-165 -163l-68 67l162 162l-133 133l-166 -164l-68 68l166 164l-166 166l68 67l166 -166l133 135
l-162 162l68 68l165 -166l164 166l68 -68l-168 -168l129 -129zM823 582l131 131l-131 131l-131 -131zM780 1726l-104 -186l-84 45l153 277l148 -93l-51 -81zM1061 1726l-105 -186l-84 45l154 277l148 -93l-52 -81z" />
    <glyph glyph-name="ohungarumlaut" unicode="&#x151;" 
d="M825 -20q-215 0 -390 95.5t-274.5 263.5t-99.5 374q0 207 99.5 375.5t274.5 264t390 95.5q213 0 387 -95.5t273.5 -264t99.5 -375.5q0 -206 -99.5 -374t-273.5 -263.5t-387 -95.5zM825 1352q-191 0 -343.5 -82t-238 -228t-85.5 -329q0 -182 85.5 -328t238 -228.5
t343.5 -82.5q189 0 341 82.5t237.5 228.5t85.5 328q0 183 -85.5 329t-237.5 228t-341 82zM721 1722l-105 -186l-84 45l154 277l148 -93l-52 -82zM1001 1722l-104 -186l-84 45l154 277l147 -93l-51 -82z" />
    <glyph glyph-name="Racute" unicode="&#x154;" horiz-adv-x="1527" 
d="M1180 479l313 -440l-80 -55l-326 460q-106 -34 -243 -34h-123l-178 -179l-68 68l111 111h-54l-165 -166v-148h145v-96h-240v244l-211 211l211 211v772h572q282 0 445 -136.5t163 -375.5q0 -154 -71 -268.5t-201 -178.5zM326 338l116 117l-123 123l-122 -123l116 -117h13z
M844 506q239 0 375.5 112t136.5 308q0 197 -136 307t-376 110h-477v-677l159 -160h54l-105 106l68 68l172 -174h129zM594 926l221 221l221 -221l-221 -221zM815 840l86 86l-86 86l-86 -86zM893 1726l-105 -186l-83 45l153 277l148 -93l-52 -81z" />
    <glyph glyph-name="racute" unicode="&#x155;" horiz-adv-x="1316" 
d="M301 0h-240v1438h572q282 0 445 -136.5t163 -375.5q0 -154 -70 -269t-200 -178l284 -403l-77 -56l-301 424q-106 -34 -244 -34h-334v96h334q241 0 376.5 111.5t135.5 308.5q0 198 -135 307.5t-377 109.5h-475v-1247h143v-96zM696 1722l-104 -186l-84 45l154 277l147 -93
l-51 -82z" />
    <glyph glyph-name="Rcaron" unicode="&#x158;" horiz-adv-x="1527" 
d="M1180 479l313 -440l-80 -55l-326 460q-106 -34 -243 -34h-123l-178 -179l-68 68l111 111h-54l-165 -166v-148h145v-96h-240v244l-211 211l211 211v772h572q282 0 445 -136.5t163 -375.5q0 -154 -71 -268.5t-201 -178.5zM326 338l116 117l-123 123l-122 -123l116 -117h13z
M844 506q239 0 375.5 112t136.5 308q0 197 -136 307t-376 110h-477v-677l159 -160h54l-105 106l68 68l172 -174h129zM594 926l221 221l221 -221l-221 -221zM815 840l86 86l-86 86l-86 -86zM778 1677l99 109l71 -64l-166 -184l-182 182l68 68z" />
    <glyph glyph-name="rcaron" unicode="&#x159;" horiz-adv-x="1316" 
d="M301 0h-240v1438h572q282 0 445 -136.5t163 -375.5q0 -154 -70 -269t-200 -178l284 -403l-77 -56l-301 424q-106 -34 -244 -34h-334v96h334q241 0 376.5 111.5t135.5 308.5q0 198 -135 307.5t-377 109.5h-475v-1247h143v-96zM668 1673l98 109l72 -64l-166 -184l-183 182
l68 68z" />
    <glyph glyph-name="Sacute" unicode="&#x15a;" horiz-adv-x="1259" 
d="M696 942q64 -17 99.5 -28t96.5 -34t96.5 -45.5t80.5 -60.5t69.5 -81t42 -104.5t17.5 -133.5q0 -70 -18 -137t-61 -131t-106.5 -112t-162 -77t-219.5 -29q-161 0 -310.5 57t-238.5 152l-21 23l82 198l90 -34l-59 -144q78 -72 202.5 -115t254.5 -43q101 0 182.5 23
t134.5 61t89 89t51.5 105.5t15.5 113.5q0 41 -5.5 76.5t-18.5 65t-27 54t-38 46t-43.5 37.5t-52.5 31.5t-56 26t-62.5 22.5t-63.5 19t-67 19q-163 47 -227 79q-142 73 -151 209q-1 10 -1 21q0 45 12 85.5t40 79t70 66.5t106.5 45t144.5 17q212 0 397 -137l-57 -74
q-161 117 -340 117q-132 0 -205.5 -52t-73.5 -147q0 -37 15 -66.5t37.5 -50t67 -39.5t84 -31.5t107.5 -31.5zM956 547l-198 -195v-47l106 107l68 -68l-230 -227l-208 229l71 64l97 -107v49l-201 195l248 244zM709 657l-113 -110l113 -111l112 111zM709 985l-156 154l156 153
l157 -153zM743 1718l-104 -186l-84 45l154 276l147 -92l-51 -82z" />
    <glyph glyph-name="sacute" unicode="&#x15b;" horiz-adv-x="1259" 
d="M631 -61q-161 0 -310.5 58t-238.5 155l-21 22l82 203l90 -35l-59 -145q78 -74 202.5 -118t254.5 -44q101 0 182.5 23t134.5 61.5t89 91t51.5 108t15.5 115.5q0 82 -26.5 145.5t-59.5 101t-101.5 71t-113.5 48.5t-133 40q-44 12 -63 18t-59 19t-59.5 22t-52 25t-49.5 31
t-38.5 37t-32 45.5t-18 53.5t-7.5 64q0 57 20 108t62 95t117 70t174 26q212 0 397 -137l37 -29l-97 -145l-79 53l45 70q-147 92 -303 92q-132 0 -205.5 -53t-73.5 -150q0 -38 15 -68t38 -50.5t66.5 -40.5t84 -33t107.5 -31q49 -14 76.5 -22t76 -25t77.5 -31.5t70.5 -38.5
t66.5 -48.5t53.5 -60t44.5 -74.5t26.5 -89.5t10.5 -108.5q0 -72 -18 -140t-61 -133t-106.5 -114t-162 -78.5t-219.5 -29.5zM668 1722l-105 -186l-84 45l154 277l147 -93l-51 -82z" />
    <glyph glyph-name="Scircumflex" unicode="&#x15c;" horiz-adv-x="1259" 
d="M696 942q64 -17 99.5 -28t96.5 -34t96.5 -45.5t80.5 -60.5t69.5 -81t42 -104.5t17.5 -133.5q0 -70 -18 -137t-61 -131t-106.5 -112t-162 -77t-219.5 -29q-161 0 -310.5 57t-238.5 152l-21 23l82 198l90 -34l-59 -144q78 -72 202.5 -115t254.5 -43q101 0 182.5 23
t134.5 61t89 89t51.5 105.5t15.5 113.5q0 41 -5.5 76.5t-18.5 65t-27 54t-38 46t-43.5 37.5t-52.5 31.5t-56 26t-62.5 22.5t-63.5 19t-67 19q-163 47 -227 79q-142 73 -151 209q-1 10 -1 21q0 45 12 85.5t40 79t70 66.5t106.5 45t144.5 17q212 0 397 -137l-57 -74
q-161 117 -340 117q-132 0 -205.5 -52t-73.5 -147q0 -37 15 -66.5t37.5 -50t67 -39.5t84 -31.5t107.5 -31.5zM956 547l-198 -195v-47l106 107l68 -68l-230 -227l-208 229l71 64l97 -107v49l-201 195l248 244zM709 657l-113 -110l113 -111l112 111zM709 985l-156 154l156 153
l157 -153zM715 1647l-111 -111l-67 68l182 182l166 -184l-72 -64z" />
    <glyph glyph-name="scircumflex" unicode="&#x15d;" horiz-adv-x="1259" 
d="M631 -61q-161 0 -310.5 58t-238.5 155l-21 22l82 203l90 -35l-59 -145q78 -74 202.5 -118t254.5 -44q101 0 182.5 23t134.5 61.5t89 91t51.5 108t15.5 115.5q0 82 -26.5 145.5t-59.5 101t-101.5 71t-113.5 48.5t-133 40q-44 12 -63 18t-59 19t-59.5 22t-52 25t-49.5 31
t-38.5 37t-32 45.5t-18 53.5t-7.5 64q0 57 20 108t62 95t117 70t174 26q212 0 397 -137l37 -29l-97 -145l-79 53l45 70q-147 92 -303 92q-132 0 -205.5 -53t-73.5 -150q0 -38 15 -68t38 -50.5t66.5 -40.5t84 -33t107.5 -31q49 -14 76.5 -22t76 -25t77.5 -31.5t70.5 -38.5
t66.5 -48.5t53.5 -60t44.5 -74.5t26.5 -89.5t10.5 -108.5q0 -72 -18 -140t-61 -133t-106.5 -114t-162 -78.5t-219.5 -29.5zM715 1647l-111 -111l-67 68l182 182l166 -184l-72 -64z" />
    <glyph glyph-name="Scaron" unicode="&#x160;" horiz-adv-x="1259" 
d="M696 942q64 -17 99.5 -28t96.5 -34t96.5 -45.5t80.5 -60.5t69.5 -81t42 -104.5t17.5 -133.5q0 -70 -18 -137t-61 -131t-106.5 -112t-162 -77t-219.5 -29q-161 0 -310.5 57t-238.5 152l-21 23l82 198l90 -34l-59 -144q78 -72 202.5 -115t254.5 -43q101 0 182.5 23
t134.5 61t89 89t51.5 105.5t15.5 113.5q0 41 -5.5 76.5t-18.5 65t-27 54t-38 46t-43.5 37.5t-52.5 31.5t-56 26t-62.5 22.5t-63.5 19t-67 19q-163 47 -227 79q-142 73 -151 209q-1 10 -1 21q0 45 12 85.5t40 79t70 66.5t106.5 45t144.5 17q212 0 397 -137l-57 -74
q-161 117 -340 117q-132 0 -205.5 -52t-73.5 -147q0 -37 15 -66.5t37.5 -50t67 -39.5t84 -31.5t107.5 -31.5zM956 547l-198 -195v-47l106 107l68 -68l-230 -227l-208 229l71 64l97 -107v49l-201 195l248 244zM709 657l-113 -110l113 -111l112 111zM709 985l-156 154l156 153
l157 -153zM657 1671l99 109l71 -64l-165 -184l-183 182l68 68z" />
    <glyph glyph-name="scaron" unicode="&#x161;" horiz-adv-x="1259" 
d="M631 -61q-161 0 -310.5 58t-238.5 155l-21 22l82 203l90 -35l-59 -145q78 -74 202.5 -118t254.5 -44q101 0 182.5 23t134.5 61.5t89 91t51.5 108t15.5 115.5q0 82 -26.5 145.5t-59.5 101t-101.5 71t-113.5 48.5t-133 40q-44 12 -63 18t-59 19t-59.5 22t-52 25t-49.5 31
t-38.5 37t-32 45.5t-18 53.5t-7.5 64q0 57 20 108t62 95t117 70t174 26q212 0 397 -137l37 -29l-97 -145l-79 53l45 70q-147 92 -303 92q-132 0 -205.5 -53t-73.5 -150q0 -38 15 -68t38 -50.5t66.5 -40.5t84 -33t107.5 -31q49 -14 76.5 -22t76 -25t77.5 -31.5t70.5 -38.5
t66.5 -48.5t53.5 -60t44.5 -74.5t26.5 -89.5t10.5 -108.5q0 -72 -18 -140t-61 -133t-106.5 -114t-162 -78.5t-219.5 -29.5zM653 1673l99 109l71 -64l-166 -184l-182 182l68 68z" />
    <glyph glyph-name="Tcaron" unicode="&#x164;" horiz-adv-x="1232" 
d="M1171 1438v-95h-466l120 -122l-161 -160v-250l59 59l68 -67l-127 -127v-676h-95v676l-127 127l68 67l59 -59v250l-161 160l122 122h-469v95h1110zM616 1147l74 74l-74 73l-73 -73zM621 1673l98 109l72 -64l-166 -184l-183 182l68 68z" />
    <glyph glyph-name="Uring" unicode="&#x16e;" horiz-adv-x="1353" 
d="M1059 1438h233v-811q0 -306 -160.5 -474.5t-453.5 -168.5q-294 0 -455.5 168.5t-161.5 474.5v811h240v-95h-143v-716q0 -264 134 -405.5t386 -141.5q250 0 384 141.5t134 405.5v716h-137v95zM991 797l-313 -314l-316 314l316 315zM678 975l-180 -178l180 -179l178 179z
M465 588l213 -213l211 213l67 -70l-278 -278l-281 278zM678 1219l-213 -211l-68 67l281 281l278 -281l-67 -67zM678 1536q-84 0 -139 55q-57 58 -57 140t57 139q55 56 138 56t138 -56q57 -57 57 -138.5t-57 -140.5q-55 -55 -137 -55zM606 1802q-29 -29 -29 -70.5t29 -70.5
t71 -29t71 29t29 70.5t-29 70.5t-70 29q-43 0 -72 -29z" />
    <glyph glyph-name="uring" unicode="&#x16f;" horiz-adv-x="1353" 
d="M678 -16q-294 0 -455.5 168.5t-161.5 474.5v811h240v-95h-143v-716q0 -264 134 -405.5t386 -141.5q250 0 384 141.5t134 405.5v716h-137v95h233v-811q0 -306 -160.5 -474.5t-453.5 -168.5zM678 1534q-84 0 -139 55q-57 59 -57 140.5t57 138.5q55 56 138 56t138 -56
q57 -57 57 -138.5t-57 -140.5q-55 -55 -137 -55zM606 1800q-29 -29 -29 -70.5t29 -70.5t71 -29t71 29t29 70.5t-29 70.5t-70 29q-43 0 -72 -29z" />
    <glyph glyph-name="Uhungarumlaut" unicode="&#x170;" horiz-adv-x="1353" 
d="M1059 1438h233v-811q0 -306 -160.5 -474.5t-453.5 -168.5q-294 0 -455.5 168.5t-161.5 474.5v811h240v-95h-143v-716q0 -264 134 -405.5t386 -141.5q250 0 384 141.5t134 405.5v716h-137v95zM991 797l-313 -314l-316 314l316 315zM678 975l-180 -178l180 -179l178 179z
M465 588l213 -213l211 213l67 -70l-278 -278l-281 278zM678 1219l-213 -211l-68 67l281 281l278 -281l-67 -67zM608 1720l-104 -186l-84 45l153 276l148 -92l-51 -82zM889 1720l-105 -186l-84 45l154 276l147 -92l-51 -82z" />
    <glyph glyph-name="uhungarumlaut" unicode="&#x171;" horiz-adv-x="1353" 
d="M678 -16q-294 0 -455.5 168.5t-161.5 474.5v811h240v-95h-143v-716q0 -264 134 -405.5t386 -141.5q250 0 384 141.5t134 405.5v716h-137v95h233v-811q0 -306 -160.5 -474.5t-453.5 -168.5zM573 1722l-104 -186l-84 45l154 277l147 -93l-51 -82zM854 1722l-104 -186
l-84 45l153 277l148 -93l-52 -82z" />
    <glyph glyph-name="Wcircumflex" unicode="&#x174;" horiz-adv-x="2293" 
d="M1982 1438h250l-481 -1438h-270l-256 737l-78 -78l-78 78l-252 -737h-274l-482 1438h265v-95h-131l417 -1247h136l245 717l-78 78l68 67l164 -161l162 161l67 -67l-76 -78l248 -717h133l418 1247h-117v95zM1411 1120l-264 -266l-264 266l264 264zM1147 1249l-129 -129
l129 -129l129 129zM1151 1647l-111 -111l-67 68l182 182l166 -184l-72 -64z" />
    <glyph glyph-name="wcircumflex" unicode="&#x175;" horiz-adv-x="2293" 
d="M1751 0h-266l-336 715l-336 -715h-270l-482 1438h265v-95h-131l417 -1247h140l395 842l397 -842h137l418 1247h-117v95h250zM1151 1647l-111 -111l-67 68l182 182l166 -184l-72 -64z" />
    <glyph glyph-name="Ydieresis" unicode="&#x178;" horiz-adv-x="1361" 
d="M745 862l244 -244l-264 -264v-354h-96v350l-269 268l246 246l-545 492l64 69l549 -493l2 2l2 -4l559 495l63 -71zM676 797l-180 -179l180 -178l178 178zM446 1507q-80 0 -139 56q-57 59 -57 140t57 138q57 55 140 55t139 -55q57 -57 57 -139q0 -79 -57 -139
q-59 -56 -140 -56zM375 1774q-29 -29 -29 -71t29 -71q31 -29 72.5 -29t70.5 29t29 70q0 40 -29 72q-31 28 -72 28q-40 0 -71 -28zM936 1507q-80 0 -139 56q-58 61 -58 139q0 81 58 139q55 55 138 55t140 -55q57 -57 57 -138t-57 -140q-59 -56 -139 -56zM864 1774
q-28 -31 -28 -72q0 -42 28 -70q29 -29 71 -29t71 29t29 71t-29 71q-28 28 -70 28q-41 0 -72 -28z" />
    <glyph glyph-name="Zacute" unicode="&#x179;" horiz-adv-x="1406" 
d="M498 389l-236 -293h983v-96h-1184l353 440l-111 -12l-10 96l178 19l-35 348l375 37l68 84l-232 -23l-10 94l326 35l182 225h-936v-120h-96v215h1233l-308 -379l35 -330l-96 -8l-23 231l-69 -84l39 -374l-338 -35l20 -189l-96 -10zM793 829l-252 -24l26 -252l252 27z
M864 1726l-104 -186l-84 45l153 277l148 -93l-51 -81z" />
    <glyph glyph-name="zacute" unicode="&#x17a;" horiz-adv-x="1406" 
d="M1245 0h-1184l1084 1343h-936v-120h-94v215h1231l-1084 -1342h983v-96zM741 1722l-104 -186l-84 45l154 277l147 -93l-51 -82z" />
    <glyph glyph-name="Zdotaccent" unicode="&#x17b;" horiz-adv-x="1406" 
d="M498 389l-236 -293h983v-96h-1184l353 440l-111 -12l-10 96l178 19l-35 348l375 37l68 84l-232 -23l-10 94l326 35l182 225h-936v-120h-96v215h1233l-308 -379l35 -330l-96 -8l-23 231l-69 -84l39 -374l-338 -35l20 -189l-96 -10zM793 829l-252 -24l26 -252l252 27z
M780 1542q-84 0 -139 55q-57 59 -57 140.5t57 138.5q55 56 138 56t139 -56q57 -57 57 -138.5t-57 -140.5q-55 -55 -138 -55zM709 1808q-29 -29 -29 -70.5t29 -70.5t70.5 -29t70.5 29t29 70.5t-29 70.5t-70 29q-42 0 -71 -29z" />
    <glyph glyph-name="zdotaccent" unicode="&#x17c;" horiz-adv-x="1406" 
d="M1245 0h-1184l1084 1343h-936v-120h-94v215h1231l-1084 -1342h983v-96zM705 1538q-85 0 -140 55q-57 59 -57 140.5t57 138.5q55 56 138 56t139 -56q57 -57 57 -138.5t-57 -140.5q-55 -55 -137 -55zM633 1804q-29 -29 -29 -70.5t29 -70.5t70.5 -29t70.5 29t29 70.5
t-29 70.5t-69 29q-43 0 -72 -29z" />
    <glyph glyph-name="Zcaron" unicode="&#x17d;" horiz-adv-x="1406" 
d="M498 389l-236 -293h983v-96h-1184l353 440l-111 -12l-10 96l178 19l-35 348l375 37l68 84l-232 -23l-10 94l326 35l182 225h-936v-120h-96v215h1233l-308 -379l35 -330l-96 -8l-23 231l-69 -84l39 -374l-338 -35l20 -189l-96 -10zM793 829l-252 -24l26 -252l252 27z
M707 1679l98 109l72 -64l-166 -184l-183 182l68 68z" />
    <glyph glyph-name="zcaron" unicode="&#x17e;" horiz-adv-x="1406" 
d="M1245 0h-1184l1084 1343h-936v-120h-94v215h1231l-1084 -1342h983v-96zM707 1673l98 109l72 -64l-166 -184l-183 182l68 68z" />
    <glyph glyph-name="circumflex" unicode="&#x2c6;" horiz-adv-x="471" 
d="M240 1255l-111 -110l-68 67l183 183l166 -185l-72 -63z" />
    <glyph glyph-name="caron" unicode="&#x2c7;" horiz-adv-x="471" 
d="M240 1284l98 109l72 -64l-166 -184l-183 182l68 68z" />
    <glyph glyph-name="dotaccent" unicode="&#x2d9;" horiz-adv-x="514" 
d="M258 1128q-83 0 -139 56q-57 58 -57 139.5t57 138.5q55 56 138 56t138 -56q57 -57 57 -138.5t-57 -139.5q-56 -56 -137 -56zM186 1395q-29 -29 -29 -71t29 -71t71 -29t71 29t29 71t-29 71q-28 28 -70 28q-44 0 -72 -28z" />
    <glyph glyph-name="ring" unicode="&#x2da;" horiz-adv-x="514" 
d="M258 1128q-83 0 -139 56q-57 58 -57 139.5t57 138.5q55 56 138 56t138 -56q57 -57 57 -138.5t-57 -139.5q-56 -56 -137 -56zM186 1395q-29 -29 -29 -71t29 -71t71 -29t71 29t29 71t-29 71q-28 28 -70 28q-44 0 -72 -28z" />
    <glyph glyph-name="tilde" unicode="&#x2dc;" horiz-adv-x="710" 
d="M328 1217q-46 32 -101.5 23.5t-87.5 -52.5l-78 55q57 77 151 91.5t171 -42.5q46 -32 101 -23.5t87 54.5l78 -57q-33 -45 -82.5 -70t-103.5 -25q-74 0 -135 46z" />
    <glyph glyph-name="hungarumlaut" unicode="&#x2dd;" horiz-adv-x="704" 
d="M250 1313l-105 -187l-84 45l154 277l147 -92l-51 -82zM530 1313l-104 -187l-84 45l154 277l147 -92l-51 -82z" />
    <glyph glyph-name="Wgrave" unicode="&#x1e80;" horiz-adv-x="2293" 
d="M1982 1438h250l-481 -1438h-270l-256 737l-78 -78l-78 78l-252 -737h-274l-482 1438h265v-95h-131l417 -1247h136l245 717l-78 78l68 67l164 -161l162 161l67 -67l-76 -78l248 -717h133l418 1247h-117v95zM1411 1120l-264 -266l-264 266l264 264zM1147 1249l-129 -129
l129 -129l129 129zM1042 1708l-61 -39l-51 82l147 92l154 -276l-84 -45z" />
    <glyph glyph-name="wgrave" unicode="&#x1e81;" horiz-adv-x="2293" 
d="M1751 0h-266l-336 715l-336 -715h-270l-482 1438h265v-95h-131l417 -1247h140l395 842l397 -842h137l418 1247h-117v95h250zM1042 1708l-61 -39l-51 82l147 92l154 -276l-84 -45z" />
    <glyph glyph-name="Wacute" unicode="&#x1e82;" horiz-adv-x="2293" 
d="M1982 1438h250l-481 -1438h-270l-256 737l-78 -78l-78 78l-252 -737h-274l-482 1438h265v-95h-131l417 -1247h136l245 717l-78 78l68 67l164 -161l162 161l67 -67l-76 -78l248 -717h133l418 1247h-117v95zM1411 1120l-264 -266l-264 266l264 264zM1147 1249l-129 -129
l129 -129l129 129zM1257 1686l-104 -187l-84 45l154 277l147 -92l-51 -82z" />
    <glyph glyph-name="wacute" unicode="&#x1e83;" horiz-adv-x="2293" 
d="M1751 0h-266l-336 715l-336 -715h-270l-482 1438h265v-95h-131l417 -1247h140l395 842l397 -842h137l418 1247h-117v95h250zM1257 1686l-104 -187l-84 45l154 277l147 -92l-51 -82z" />
    <glyph glyph-name="Wdieresis" unicode="&#x1e84;" horiz-adv-x="2293" 
d="M1982 1438h250l-481 -1438h-270l-256 737l-78 -78l-78 78l-252 -737h-274l-482 1438h265v-95h-131l417 -1247h136l245 717l-78 78l68 67l164 -161l162 161l67 -67l-76 -78l248 -717h133l418 1247h-117v95zM1411 1120l-264 -266l-264 266l264 264zM1147 1249l-129 -129
l129 -129l129 129zM901 1507q-80 0 -139 56q-57 59 -57 140t57 138q57 55 139.5 55t138.5 -55q58 -58 58 -139q0 -78 -58 -139q-59 -56 -139 -56zM829 1774q-29 -29 -29 -71t29 -71q31 -29 73 -29t71 29q28 28 28 70q0 41 -28 72q-31 28 -72 28t-72 -28zM1391 1507
q-81 0 -140 56q-57 60 -57 139q0 82 57 139q55 55 138.5 55t140.5 -55q57 -57 57 -138t-57 -140q-59 -56 -139 -56zM1319 1774q-29 -32 -29 -72q0 -41 29 -70t70.5 -29t70.5 29t29 71t-29 71q-28 28 -69 28t-72 -28z" />
    <glyph glyph-name="wdieresis" unicode="&#x1e85;" horiz-adv-x="2293" 
d="M1751 0h-266l-336 715l-336 -715h-270l-482 1438h265v-95h-131l417 -1247h140l395 842l397 -842h137l418 1247h-117v95h250zM901 1507q-80 0 -139 56q-57 59 -57 140t57 138q57 55 139.5 55t138.5 -55q58 -58 58 -139q0 -78 -58 -139q-59 -56 -139 -56zM829 1774
q-29 -29 -29 -71t29 -71q31 -29 73 -29t71 29q28 28 28 70q0 41 -28 72q-31 28 -72 28t-72 -28zM1391 1507q-81 0 -140 56q-57 60 -57 139q0 82 57 139q55 55 138.5 55t140.5 -55q57 -57 57 -138t-57 -140q-59 -56 -139 -56zM1319 1774q-29 -32 -29 -72q0 -41 29 -70
t70.5 -29t70.5 29t29 71t-29 71q-28 28 -69 28t-72 -28z" />
    <glyph glyph-name="quoteleft" unicode="&#x2018;" horiz-adv-x="471" 
d="M233 1456q75 0 126 -51.5t51 -126.5q0 -57 -30.5 -101t-82.5 -63l-33 90q49 16 49 74q0 37 -22.5 59.5t-57.5 22.5t-56 -22.5t-21 -59.5q0 -43 28 -121l92 -268l-90 -31l-92 268q-33 88 -33 152q0 75 49.5 126.5t122.5 51.5z" />
    <glyph glyph-name="quoteright" unicode="&#x2019;" horiz-adv-x="471" 
d="M238 1456q73 0 122.5 -51.5t49.5 -126.5q0 -64 -33 -152l-92 -268l-90 31l92 268q28 78 28 121q0 37 -21 59.5t-56 22.5t-57.5 -22.5t-22.5 -59.5q0 -58 49 -74l-33 -90q-52 19 -82.5 63t-30.5 101q0 75 51 126.5t126 51.5z" />
    <glyph glyph-name="quotesinglbase" unicode="&#x201a;" horiz-adv-x="471" 
d="M274 -358h-155v96h86l80 233q30 84 30 123q0 37 -21.5 59.5t-55.5 22.5q-35 0 -57.5 -22.5t-22.5 -59.5q0 -58 49 -74l-33 -90q-52 19 -82.5 63t-30.5 101q0 76 51 127t126 51q74 0 123 -51t49 -127q0 -54 -35 -153z" />
    <glyph glyph-name="quotedblleft" unicode="&#x201c;" horiz-adv-x="833" 
d="M233 1456q75 0 126 -51.5t51 -126.5q0 -57 -30.5 -101t-82.5 -63l-33 90q49 16 49 74q0 37 -22.5 59.5t-57.5 22.5t-56 -22.5t-21 -59.5q0 -43 28 -121l92 -268l-90 -31l-92 268q-33 88 -33 152q0 75 49.5 126.5t122.5 51.5zM596 1456q75 0 125.5 -51.5t50.5 -126.5
q0 -57 -30.5 -101t-82.5 -63l-32 90q49 16 49 74q0 37 -22.5 59.5t-57.5 22.5t-56.5 -22.5t-21.5 -59.5q0 -40 29 -121l92 -268l-90 -31l-92 268q-33 90 -33 152q0 75 49.5 126.5t122.5 51.5z" />
    <glyph glyph-name="quotedblright" unicode="&#x201d;" horiz-adv-x="833" 
d="M238 1456q73 0 122.5 -51.5t49.5 -126.5q0 -62 -33 -152l-92 -268l-90 31l92 268q28 78 28 121q0 37 -21 59.5t-56 22.5t-57.5 -22.5t-22.5 -59.5q0 -58 49 -74l-33 -90q-52 19 -82.5 63t-30.5 101q0 75 51 126.5t126 51.5zM600 1456q73 0 122.5 -51.5t49.5 -126.5
q0 -64 -33 -152l-92 -268l-90 31l92 268q29 81 29 121q0 37 -21.5 59.5t-56.5 22.5t-57.5 -22.5t-22.5 -59.5q0 -58 49 -74l-32 -90q-52 19 -82.5 63t-30.5 101q0 75 50.5 126.5t125.5 51.5z" />
    <glyph glyph-name="quotedblbase" unicode="&#x201e;" horiz-adv-x="860" 
d="M274 -358h-155v96h86l80 233q30 84 30 123q0 37 -21.5 59.5t-55.5 22.5q-35 0 -57.5 -22.5t-22.5 -59.5q0 -58 49 -74l-33 -90q-52 19 -82.5 63t-30.5 101q0 76 51 127t126 51q74 0 123 -51t49 -127q0 -54 -35 -153zM664 -358h-156v96h86l80 233q31 87 31 123t-22 59
t-56 23q-35 0 -57.5 -22.5t-22.5 -59.5q0 -58 49 -74l-33 -90q-52 19 -82 63t-30 101q0 76 50.5 127t125.5 51q74 0 123 -51t49 -127q0 -54 -35 -153z" />
    <glyph glyph-name="guilsinglleft" unicode="&#x2039;" horiz-adv-x="1077" 
d="M1016 152l-955 378v230l955 377v-230h-96v88l-762 -301v-100l762 -301v88h96v-229z" />
    <glyph glyph-name="guilsinglright" unicode="&#x203a;" horiz-adv-x="1077" 
d="M61 152v229h97v-88l764 301v100l-764 301v-88h-97v230l955 -377v-230z" />
    </font>
</defs>
</svg>
